%TF.GenerationSoftware,KiCad,Pcbnew,10.0.2*%
%TF.CreationDate,2026-06-28T20:29:23+05:30*%
%TF.ProjectId,dev board,64657620-626f-4617-9264-2e6b69636164,rev?*%
%TF.SameCoordinates,Original*%
%TF.FileFunction,Soldermask,Bot*%
%TF.FilePolarity,Negative*%
%FSLAX46Y46*%
G04 Gerber Fmt 4.6, Leading zero omitted, Abs format (unit mm)*
G04 Created by KiCad (PCBNEW 10.0.2) date 2026-06-28 20:29:23*
%MOMM*%
%LPD*%
G01*
G04 APERTURE LIST*
%ADD10C,1.700000*%
%ADD11R,1.700000X1.700000*%
%ADD12O,1.000000X1.600000*%
%ADD13O,1.000000X2.100000*%
%ADD14C,0.650000*%
G04 APERTURE END LIST*
D10*
%TO.C,J3*%
X125289999Y-121750000D03*
X122750000Y-121750000D03*
D11*
X120210000Y-121750000D03*
%TD*%
D12*
%TO.C,J1*%
X118680000Y-75200000D03*
D13*
X118680000Y-79380000D03*
D12*
X127320000Y-75200000D03*
D13*
X127320000Y-79380000D03*
D14*
X120110000Y-78850000D03*
X125890000Y-78850000D03*
%TD*%
D11*
%TO.C,J2*%
X131750000Y-73710000D03*
D10*
X131750000Y-76250000D03*
X131750000Y-78790000D03*
X131750000Y-81330000D03*
X131750000Y-83870000D03*
X131750000Y-86410000D03*
X131750000Y-88950000D03*
X131750000Y-91490000D03*
X131750000Y-94030000D03*
X131750000Y-96570000D03*
X131750000Y-99110000D03*
X131750000Y-101650000D03*
X131750000Y-104190000D03*
X131750000Y-106730000D03*
X131750000Y-109270000D03*
X131750000Y-111810000D03*
X131750000Y-114350000D03*
X131750000Y-116890000D03*
X131750000Y-119430000D03*
X131750000Y-121970000D03*
%TD*%
%TO.C,J5*%
X113750000Y-122010000D03*
X113750000Y-119470000D03*
X113750000Y-116930000D03*
X113750000Y-114390000D03*
X113750000Y-111850000D03*
X113750000Y-109310000D03*
X113750000Y-106770000D03*
X113750000Y-104230000D03*
X113750000Y-101690000D03*
X113750000Y-99150000D03*
X113750000Y-96610000D03*
X113750000Y-94070000D03*
X113750000Y-91530000D03*
X113750000Y-88990000D03*
X113750000Y-86450000D03*
X113750000Y-83910000D03*
X113750000Y-81370000D03*
X113750000Y-78830000D03*
X113750000Y-76290000D03*
D11*
X113750000Y-73750000D03*
%TD*%
M02*
