%TF.GenerationSoftware,KiCad,Pcbnew,10.0.2*%
%TF.CreationDate,2026-08-07T19:54:38+05:30*%
%TF.ProjectId,dev board,64657620-626f-4617-9264-2e6b69636164,rev?*%
%TF.SameCoordinates,Original*%
%TF.FileFunction,Copper,L2,Inr*%
%TF.FilePolarity,Positive*%
%FSLAX46Y46*%
G04 Gerber Fmt 4.6, Leading zero omitted, Abs format (unit mm)*
G04 Created by KiCad (PCBNEW 10.0.2) date 2026-08-07 19:54:38*
%MOMM*%
%LPD*%
G01*
G04 APERTURE LIST*
%TA.AperFunction,ComponentPad*%
%ADD10R,1.700000X1.700000*%
%TD*%
%TA.AperFunction,ComponentPad*%
%ADD11C,1.700000*%
%TD*%
%TA.AperFunction,ComponentPad*%
%ADD12O,1.000000X2.100000*%
%TD*%
%TA.AperFunction,ComponentPad*%
%ADD13O,1.000000X1.600000*%
%TD*%
%TA.AperFunction,ViaPad*%
%ADD14C,0.600000*%
%TD*%
%TA.AperFunction,Conductor*%
%ADD15C,0.200000*%
%TD*%
G04 APERTURE END LIST*
D10*
%TO.N,GPI00*%
%TO.C,J5*%
X113750000Y-73750000D03*
D11*
%TO.N,GPIO1*%
X113750000Y-76290000D03*
%TO.N,GND*%
X113750000Y-78830000D03*
%TO.N,GPIO2*%
X113750000Y-81370000D03*
%TO.N,GPIO3*%
X113750000Y-83910000D03*
%TO.N,GPIO4*%
X113750000Y-86450000D03*
%TO.N,GPIO5*%
X113750000Y-88990000D03*
%TO.N,GND*%
X113750000Y-91530000D03*
%TO.N,GPIO6*%
X113750000Y-94070000D03*
%TO.N,GPIO7*%
X113750000Y-96610000D03*
%TO.N,GPIO8*%
X113750000Y-99150000D03*
%TO.N,GPIO9*%
X113750000Y-101690000D03*
%TO.N,GND*%
X113750000Y-104230000D03*
%TO.N,GPIO10*%
X113750000Y-106770000D03*
%TO.N,GPIO11*%
X113750000Y-109310000D03*
%TO.N,GPIO12*%
X113750000Y-111850000D03*
%TO.N,GPIO13*%
X113750000Y-114390000D03*
%TO.N,GND*%
X113750000Y-116930000D03*
%TO.N,GPIO14*%
X113750000Y-119470000D03*
%TO.N,GPIO15*%
X113750000Y-122010000D03*
%TD*%
D12*
%TO.N,GND*%
%TO.C,J1*%
X127320000Y-79380000D03*
D13*
X127320000Y-75200000D03*
D12*
X118680000Y-79380000D03*
D13*
X118680000Y-75200000D03*
%TD*%
D10*
%TO.N,VBUS*%
%TO.C,J2*%
X135000000Y-73630000D03*
D11*
%TO.N,unconnected-(J2-Pin_2-Pad2)*%
X135000000Y-76170000D03*
%TO.N,GND*%
X135000000Y-78710000D03*
%TO.N,unconnected-(J2-Pin_4-Pad4)*%
X135000000Y-81250000D03*
%TO.N,+3V3*%
X135000000Y-83790000D03*
%TO.N,unconnected-(J2-Pin_6-Pad6)*%
X135000000Y-86330000D03*
%TO.N,GPIO28_ADC2*%
X135000000Y-88870000D03*
%TO.N,GND*%
X135000000Y-91410000D03*
%TO.N,GPIO27_ADC1*%
X135000000Y-93950000D03*
%TO.N,GPIO26_ADC0*%
X135000000Y-96490000D03*
%TO.N,RUN*%
X135000000Y-99030000D03*
%TO.N,GPIO22*%
X135000000Y-101570000D03*
%TO.N,GND*%
X135000000Y-104110000D03*
%TO.N,GPIO21*%
X135000000Y-106650000D03*
%TO.N,GPIO20*%
X135000000Y-109190000D03*
%TO.N,unconnected-(J2-Pin_16-Pad16)*%
X135000000Y-111730000D03*
%TO.N,unconnected-(J2-Pin_17-Pad17)*%
X135000000Y-114270000D03*
%TO.N,GND*%
X135000000Y-116810000D03*
%TO.N,unconnected-(J2-Pin_19-Pad19)*%
X135000000Y-119350000D03*
%TO.N,unconnected-(J2-Pin_20-Pad20)*%
X135000000Y-121890000D03*
%TD*%
D14*
%TO.N,SD_MOSI*%
X125250000Y-111000000D03*
%TO.N,GND*%
X129750000Y-117250000D03*
X119250000Y-114750000D03*
X120750000Y-119250000D03*
X126000000Y-117500000D03*
X129500000Y-113500000D03*
X130150000Y-102250000D03*
X128558039Y-98439411D03*
X131000000Y-108250000D03*
X129000000Y-108750000D03*
%TO.N,SD_CS*%
X126650000Y-114250000D03*
%TO.N,GND*%
X127750000Y-117000000D03*
%TO.N,SD_SCK*%
X127242950Y-104703302D03*
X126254936Y-106062507D03*
%TO.N,SD_MOSI*%
X124726471Y-113773529D03*
%TO.N,+3V3*%
X127800000Y-112750000D03*
%TO.N,SD_CS*%
X127800000Y-111000000D03*
%TO.N,+3V3*%
X127750000Y-96750000D03*
X123449997Y-115250000D03*
X123500000Y-86500000D03*
X123222326Y-98997753D03*
X123250000Y-90250000D03*
X122750000Y-93240000D03*
X127380000Y-107894431D03*
X125966831Y-107600000D03*
X121835735Y-92335735D03*
%TO.N,GND*%
X120296460Y-108400599D03*
X124000000Y-88250000D03*
X116250000Y-80750000D03*
X122500000Y-112000000D03*
X122000000Y-90500000D03*
X114900000Y-117250000D03*
X118500000Y-95029921D03*
X117250000Y-120750000D03*
X119811537Y-95438463D03*
X121455000Y-115750000D03*
X128000000Y-94750000D03*
%TO.N,QSPI_SS*%
X118100000Y-91000000D03*
X125458364Y-93208364D03*
%TO.N,SD_MOSI*%
X127571848Y-103974038D03*
X124250000Y-115250000D03*
%TO.N,SD_CS*%
X126500000Y-105000000D03*
%TO.N,GPIO1*%
X118376249Y-99272242D03*
%TO.N,GPIO2*%
X118001213Y-99978891D03*
%TO.N,GPIO3*%
X117248716Y-100250463D03*
%TO.N,GPIO4*%
X118187859Y-101178891D03*
%TO.N,GPIO5*%
X120335532Y-100935534D03*
%TO.N,GPIO6*%
X120650001Y-101698528D03*
%TO.N,GPIO7*%
X120650000Y-102674738D03*
%TO.N,GPIO9*%
X117094152Y-103577311D03*
%TO.N,GPIO10*%
X117759652Y-104021281D03*
%TO.N,GPIO11*%
X118339185Y-104572774D03*
%TO.N,GPIO12*%
X119500000Y-105000000D03*
%TO.N,GPIO13*%
X118990907Y-105617112D03*
%TO.N,+1V1*%
X125056418Y-96744178D03*
X122002248Y-99053808D03*
X122493657Y-103715372D03*
X124019704Y-99062500D03*
%TO.N,SWCLK*%
X123291910Y-103662502D03*
X122250000Y-122000000D03*
%TO.N,SWDIO*%
X125250000Y-112600000D03*
X125000000Y-120500000D03*
X124091912Y-103662499D03*
X127550000Y-119250000D03*
%TO.N,RUN*%
X125247140Y-103710062D03*
%TO.N,SD_MISO*%
X125150000Y-105997272D03*
X119750000Y-115750000D03*
%TO.N,SD_SCK*%
X120299265Y-107549265D03*
X121500000Y-112250000D03*
X127242950Y-104703302D03*
X120299265Y-107549265D03*
%TO.N,GPIO20*%
X128089725Y-103350000D03*
%TO.N,GPIO21*%
X127524038Y-102774038D03*
%TO.N,GPIO22*%
X127250000Y-101350000D03*
%TO.N,GPIO26_ADC0*%
X128499999Y-100350000D03*
%TO.N,GPIO27_ADC1*%
X127124999Y-99759971D03*
%TO.N,Net-(J1-CC1)*%
X125214265Y-81535735D03*
X124500000Y-78750000D03*
%TD*%
%TO.N,SWDIO*%
D15*
X125580373Y-102174038D02*
X124091912Y-103662499D01*
X128689725Y-103091196D02*
X127772567Y-102174038D01*
X128689725Y-103598529D02*
X128689725Y-103091196D01*
X128338254Y-103950000D02*
X128689725Y-103598529D01*
X127772567Y-102174038D02*
X125580373Y-102174038D01*
X128338254Y-109511746D02*
X128338254Y-103950000D01*
X125250000Y-112600000D02*
X128338254Y-109511746D01*
%TO.N,SD_MOSI*%
X124650000Y-111600000D02*
X125250000Y-111000000D01*
X124650000Y-113697058D02*
X124650000Y-111600000D01*
X124726471Y-113773529D02*
X124650000Y-113697058D01*
%TO.N,GND*%
X130000000Y-102100000D02*
X130150000Y-102250000D01*
X130000000Y-99881372D02*
X130000000Y-102100000D01*
X128558039Y-98439411D02*
X130000000Y-99881372D01*
%TO.N,SD_SCK*%
X126286022Y-106062507D02*
X127242950Y-105105579D01*
X126254936Y-106062507D02*
X126286022Y-106062507D01*
X127242950Y-105105579D02*
X127242950Y-104703302D01*
%TO.N,GND*%
X122500000Y-112000000D02*
X122500000Y-110604139D01*
X122500000Y-110604139D02*
X120296460Y-108400599D01*
%TO.N,SD_SCK*%
X124799264Y-107549265D02*
X127242950Y-105105579D01*
X120299265Y-107549265D02*
X124799264Y-107549265D01*
%TD*%
M02*
