%TF.GenerationSoftware,KiCad,Pcbnew,10.0.2*%
%TF.CreationDate,2026-06-28T20:29:23+05:30*%
%TF.ProjectId,dev board,64657620-626f-4617-9264-2e6b69636164,rev?*%
%TF.SameCoordinates,Original*%
%TF.FileFunction,Copper,L2,Bot*%
%TF.FilePolarity,Positive*%
%FSLAX46Y46*%
G04 Gerber Fmt 4.6, Leading zero omitted, Abs format (unit mm)*
G04 Created by KiCad (PCBNEW 10.0.2) date 2026-06-28 20:29:23*
%MOMM*%
%LPD*%
G01*
G04 APERTURE LIST*
%TA.AperFunction,ComponentPad*%
%ADD10C,1.700000*%
%TD*%
%TA.AperFunction,ComponentPad*%
%ADD11R,1.700000X1.700000*%
%TD*%
%TA.AperFunction,ComponentPad*%
%ADD12O,1.000000X1.600000*%
%TD*%
%TA.AperFunction,ComponentPad*%
%ADD13O,1.000000X2.100000*%
%TD*%
%TA.AperFunction,ViaPad*%
%ADD14C,0.600000*%
%TD*%
%TA.AperFunction,Conductor*%
%ADD15C,0.200000*%
%TD*%
G04 APERTURE END LIST*
D10*
%TO.P,J3,3,Pin_3_3*%
%TO.N,SWDIO*%
X125289999Y-121750000D03*
%TO.P,J3,2,Pin_2_2*%
%TO.N,GND*%
X122750000Y-121750000D03*
D11*
%TO.P,J3,1,Pin_1_1*%
%TO.N,SWCLK*%
X120210000Y-121750000D03*
%TD*%
D12*
%TO.P,J1,SH,SHIELD_SH*%
%TO.N,GND*%
X118680000Y-75200000D03*
D13*
X118680000Y-79380000D03*
D12*
X127320000Y-75200000D03*
D13*
X127320000Y-79380000D03*
%TD*%
D11*
%TO.P,J2,1,Pin_1_1*%
%TO.N,VBUS*%
X131750000Y-73710000D03*
D10*
%TO.P,J2,2,Pin_2_2*%
%TO.N,unconnected-(J2-Pin_2-Pad2)*%
X131750000Y-76250000D03*
%TO.P,J2,3,Pin_3_3*%
%TO.N,GND*%
X131750000Y-78790000D03*
%TO.P,J2,4,Pin_4_4*%
%TO.N,unconnected-(J2-Pin_4-Pad4)*%
X131750000Y-81330000D03*
%TO.P,J2,5,Pin_5_5*%
%TO.N,+3V3*%
X131750000Y-83870000D03*
%TO.P,J2,6,Pin_6_6*%
%TO.N,unconnected-(J2-Pin_6-Pad6)*%
X131750000Y-86410000D03*
%TO.P,J2,7,Pin_7_7*%
%TO.N,GPIO28_ADC2*%
X131750000Y-88950000D03*
%TO.P,J2,8,Pin_8_8*%
%TO.N,GND*%
X131750000Y-91490000D03*
%TO.P,J2,9,Pin_9_9*%
%TO.N,GPIO27_ADC1*%
X131750000Y-94030000D03*
%TO.P,J2,10,Pin_10_10*%
%TO.N,GPIO26_ADC0*%
X131750000Y-96570000D03*
%TO.P,J2,11,Pin_11_11*%
%TO.N,RUN*%
X131750000Y-99110000D03*
%TO.P,J2,12,Pin_12_12*%
%TO.N,GPIO22*%
X131750000Y-101650000D03*
%TO.P,J2,13,Pin_13_13*%
%TO.N,GND*%
X131750000Y-104190000D03*
%TO.P,J2,14,Pin_14_14*%
%TO.N,GPIO21*%
X131750000Y-106730000D03*
%TO.P,J2,15,Pin_15_15*%
%TO.N,GPIO20*%
X131750000Y-109270000D03*
%TO.P,J2,16,Pin_16_16*%
%TO.N,GPIO19*%
X131750000Y-111810000D03*
%TO.P,J2,17,Pin_17_17*%
%TO.N,GPIO18*%
X131750000Y-114350000D03*
%TO.P,J2,18,Pin_18_18*%
%TO.N,GND*%
X131750000Y-116890000D03*
%TO.P,J2,19,Pin_19_19*%
%TO.N,GPIO17*%
X131750000Y-119430000D03*
%TO.P,J2,20,Pin_20_20*%
%TO.N,GPIO16*%
X131750000Y-121970000D03*
%TD*%
%TO.P,J5,20,Pin_20_20*%
%TO.N,GPIO15*%
X113750000Y-122010000D03*
%TO.P,J5,19,Pin_19_19*%
%TO.N,GPIO14*%
X113750000Y-119470000D03*
%TO.P,J5,18,Pin_18_18*%
%TO.N,GND*%
X113750000Y-116930000D03*
%TO.P,J5,17,Pin_17_17*%
%TO.N,GPIO13*%
X113750000Y-114390000D03*
%TO.P,J5,16,Pin_16_16*%
%TO.N,GPIO12*%
X113750000Y-111850000D03*
%TO.P,J5,15,Pin_15_15*%
%TO.N,GPIO11*%
X113750000Y-109310000D03*
%TO.P,J5,14,Pin_14_14*%
%TO.N,GPIO10*%
X113750000Y-106770000D03*
%TO.P,J5,13,Pin_13_13*%
%TO.N,GND*%
X113750000Y-104230000D03*
%TO.P,J5,12,Pin_12_12*%
%TO.N,GPIO9*%
X113750000Y-101690000D03*
%TO.P,J5,11,Pin_11_11*%
%TO.N,GPIO8*%
X113750000Y-99150000D03*
%TO.P,J5,10,Pin_10_10*%
%TO.N,GPIO7*%
X113750000Y-96610000D03*
%TO.P,J5,9,Pin_9_9*%
%TO.N,GPIO6*%
X113750000Y-94070000D03*
%TO.P,J5,8,Pin_8_8*%
%TO.N,GND*%
X113750000Y-91530000D03*
%TO.P,J5,7,Pin_7_7*%
%TO.N,GPIO5*%
X113750000Y-88990000D03*
%TO.P,J5,6,Pin_6_6*%
%TO.N,GPIO4*%
X113750000Y-86450000D03*
%TO.P,J5,5,Pin_5_5*%
%TO.N,GPIO3*%
X113750000Y-83910000D03*
%TO.P,J5,4,Pin_4_4*%
%TO.N,GPIO2*%
X113750000Y-81370000D03*
%TO.P,J5,3,Pin_3_3*%
%TO.N,GND*%
X113750000Y-78830000D03*
%TO.P,J5,2,Pin_2_2*%
%TO.N,GPIO1*%
X113750000Y-76290000D03*
D11*
%TO.P,J5,1,Pin_1_1*%
%TO.N,GPI00*%
X113750000Y-73750000D03*
%TD*%
D14*
%TO.N,+3V3*%
X121835735Y-92335735D03*
X122750000Y-93240000D03*
%TO.N,GND*%
X124000000Y-88250000D03*
%TO.N,+1V1*%
X122493657Y-103715372D03*
%TO.N,SWCLK*%
X123291910Y-103662502D03*
%TO.N,SWDIO*%
X124091912Y-103662499D03*
%TO.N,+3V3*%
X127400000Y-108000000D03*
X126000000Y-107750000D03*
%TO.N,GND*%
X127400000Y-109500000D03*
X118500000Y-95029921D03*
%TO.N,+1V1*%
X124019704Y-99062500D03*
%TO.N,GND*%
X122000000Y-90500000D03*
X119811537Y-95438463D03*
%TO.N,+1V1*%
X122002248Y-99053808D03*
%TO.N,+3V3*%
X123500000Y-86500000D03*
%TO.N,GND*%
X128000000Y-94750000D03*
X116250000Y-80750000D03*
%TO.N,GPIO22*%
X127250000Y-101350000D03*
%TO.N,QSPI_SS*%
X118100000Y-91000000D03*
X125458364Y-93208364D03*
%TO.N,GPIO1*%
X118376249Y-99272242D03*
%TO.N,GPIO2*%
X118001213Y-99978891D03*
%TO.N,GPIO3*%
X117248716Y-100250463D03*
%TO.N,GPIO4*%
X118187859Y-101178891D03*
%TO.N,GPIO5*%
X120335532Y-100935534D03*
%TO.N,GPIO6*%
X120650001Y-101698528D03*
%TO.N,GPIO7*%
X120650000Y-102674738D03*
%TO.N,GPIO9*%
X117094152Y-103577311D03*
%TO.N,GPIO10*%
X117759652Y-104021281D03*
%TO.N,GPIO11*%
X118339185Y-104572774D03*
%TO.N,GPIO12*%
X119500000Y-105000000D03*
%TO.N,GPIO13*%
X118990907Y-105617112D03*
%TO.N,GPIO14*%
X120952182Y-104185556D03*
%TO.N,GPIO15*%
X120200735Y-106700735D03*
%TO.N,+1V1*%
X125056418Y-96744178D03*
%TO.N,RUN*%
X125247140Y-103710062D03*
%TO.N,GPIO26_ADC0*%
X128499999Y-100350000D03*
%TO.N,GPIO27_ADC1*%
X127124999Y-99759971D03*
%TO.N,Net-(J1-CC1)*%
X125214265Y-81535735D03*
X124500000Y-78750000D03*
%TO.N,+3V3*%
X123250000Y-90250000D03*
X127750000Y-96750000D03*
X123222326Y-98997753D03*
%TO.N,GPIO20*%
X128089725Y-103350000D03*
%TO.N,GPIO21*%
X127524038Y-102774038D03*
%TO.N,GPIO18*%
X127536668Y-104766578D03*
%TO.N,GPIO17*%
X127476161Y-105564289D03*
%TO.N,GPIO19*%
X127427653Y-103974038D03*
%TO.N,GPIO16*%
X126750000Y-106164289D03*
%TD*%
%TO.N,GPIO17*%
D15*
X129157843Y-110492157D02*
X129157843Y-117842157D01*
X128415685Y-109750000D02*
X129157843Y-110492157D01*
X128400000Y-109750000D02*
X128415685Y-109750000D01*
X128400000Y-105998604D02*
X128400000Y-109750000D01*
X128165685Y-105764289D02*
X128400000Y-105998604D01*
X128064289Y-105564289D02*
X128000000Y-105628578D01*
X127476161Y-105564289D02*
X128064289Y-105564289D01*
X128000000Y-105628578D02*
X128000000Y-105764289D01*
X129157843Y-117842157D02*
X129150000Y-117834314D01*
X128000000Y-105764289D02*
X128165685Y-105764289D01*
%TO.N,+3V3*%
X122740000Y-93240000D02*
X121835735Y-92335735D01*
X122750000Y-93240000D02*
X122740000Y-93240000D01*
X122750000Y-93240000D02*
X122750000Y-98525427D01*
X124858364Y-93858364D02*
X127750000Y-96750000D01*
X124858364Y-92959835D02*
X124858364Y-93858364D01*
X125058364Y-92759835D02*
X124858364Y-92959835D01*
X125058364Y-92058364D02*
X125058364Y-92759835D01*
X123250000Y-90250000D02*
X125058364Y-92058364D01*
%TO.N,SWCLK*%
X120210000Y-107540000D02*
X120210000Y-121750000D01*
X121750000Y-106000000D02*
X120210000Y-107540000D01*
X123199997Y-103949997D02*
X123750000Y-104500000D01*
X123199997Y-103667301D02*
X123199997Y-103949997D01*
X123750000Y-106000000D02*
X121750000Y-106000000D01*
X123204796Y-103662502D02*
X123199997Y-103667301D01*
X123291910Y-103662502D02*
X123204796Y-103662502D01*
X123750000Y-104500000D02*
X123750000Y-106000000D01*
%TO.N,+1V1*%
X122410889Y-100901609D02*
X123250000Y-100062498D01*
X122410889Y-103632604D02*
X122410889Y-100901609D01*
X122493657Y-103715372D02*
X122410889Y-103632604D01*
%TO.N,SWDIO*%
X125248529Y-104350000D02*
X125289999Y-104308530D01*
X125289999Y-104308530D02*
X125289999Y-121750000D01*
X124091912Y-103841912D02*
X124600000Y-104350000D01*
X124091912Y-103662499D02*
X124091912Y-103841912D01*
X124600000Y-104350000D02*
X125248529Y-104350000D01*
%TO.N,+1V1*%
X123250000Y-100062498D02*
X123498529Y-100062498D01*
%TO.N,RUN*%
X130150000Y-100750000D02*
X132000000Y-98900000D01*
X128948528Y-100750000D02*
X130150000Y-100750000D01*
X128251470Y-100950000D02*
X128748528Y-100950000D01*
X128051470Y-100750000D02*
X128251470Y-100950000D01*
X125750000Y-100750000D02*
X128051470Y-100750000D01*
X125250000Y-101250000D02*
X125750000Y-100750000D01*
X125247140Y-102502860D02*
X125250000Y-102500000D01*
X125250000Y-102500000D02*
X125250000Y-101250000D01*
X125247140Y-103710062D02*
X125247140Y-102502860D01*
X128748528Y-100950000D02*
X128948528Y-100750000D01*
%TO.N,+3V3*%
X122750000Y-98525427D02*
X123222326Y-98997753D01*
X127150000Y-107750000D02*
X127400000Y-108000000D01*
X126000000Y-107750000D02*
X127150000Y-107750000D01*
%TO.N,GND*%
X118500000Y-95029921D02*
X119402995Y-95029921D01*
X119402995Y-95029921D02*
X119811537Y-95438463D01*
X120000000Y-92500000D02*
X122000000Y-90500000D01*
X120000000Y-95250000D02*
X120000000Y-92500000D01*
X119811537Y-95438463D02*
X120000000Y-95250000D01*
%TO.N,+1V1*%
X125056418Y-98943582D02*
X124937500Y-99062500D01*
X124937500Y-99062500D02*
X124019704Y-99062500D01*
X125056418Y-96744178D02*
X125056418Y-98943582D01*
X124019704Y-99541323D02*
X124019704Y-99062500D01*
X123498529Y-100062498D02*
X124019704Y-99541323D01*
X123001471Y-100062498D02*
X123250000Y-100062498D01*
X122002248Y-99063275D02*
X123001471Y-100062498D01*
X122002248Y-99053808D02*
X122002248Y-99063275D01*
%TO.N,GPIO21*%
X130000000Y-106730000D02*
X131750000Y-106730000D01*
X130000000Y-105335864D02*
X130000000Y-106730000D01*
X129750000Y-105085863D02*
X130000000Y-105335864D01*
X129750000Y-102750000D02*
X129750000Y-105085863D01*
X127524038Y-102774038D02*
X127548076Y-102750000D01*
X127548076Y-102750000D02*
X129750000Y-102750000D01*
%TO.N,GPIO20*%
X129350000Y-105251548D02*
X129350000Y-103250000D01*
X128189725Y-103250000D02*
X128089725Y-103350000D01*
X129600000Y-105501549D02*
X129350000Y-105251548D01*
X130270000Y-109270000D02*
X129600000Y-108600000D01*
X131750000Y-109270000D02*
X130270000Y-109270000D01*
X129600000Y-108600000D02*
X129600000Y-105501549D01*
X129350000Y-103250000D02*
X128189725Y-103250000D01*
%TO.N,GPIO19*%
X129200000Y-105667234D02*
X129200000Y-109260000D01*
X129200000Y-109260000D02*
X131750000Y-111810000D01*
X128950000Y-105417233D02*
X129200000Y-105667234D01*
X128950000Y-104208353D02*
X128950000Y-105417233D01*
X128750000Y-104008353D02*
X128950000Y-104208353D01*
X128750000Y-103998076D02*
X128750000Y-104008353D01*
X128725962Y-103974038D02*
X128750000Y-103998076D01*
X127427653Y-103974038D02*
X128725962Y-103974038D01*
%TO.N,GPIO18*%
X130000000Y-112600000D02*
X131750000Y-114350000D01*
X130000000Y-110625686D02*
X130000000Y-112600000D01*
X129600000Y-110225685D02*
X130000000Y-110625686D01*
X128800000Y-105832919D02*
X128800000Y-109568629D01*
X128800000Y-109568629D02*
X129457056Y-110225685D01*
X128550000Y-105582918D02*
X128800000Y-105832919D01*
X128550000Y-105000000D02*
X128550000Y-105582918D01*
X127770090Y-105000000D02*
X128550000Y-105000000D01*
X127536668Y-104766578D02*
X127770090Y-105000000D01*
X129457056Y-110225685D02*
X129600000Y-110225685D01*
%TO.N,GPIO17*%
X129600000Y-118284314D02*
X129157843Y-117842157D01*
X130680000Y-119430000D02*
X129600000Y-118350000D01*
X129600000Y-118350000D02*
X129600000Y-118284314D01*
X131750000Y-119430000D02*
X130680000Y-119430000D01*
%TO.N,GPIO9*%
X117077311Y-103577311D02*
X117094152Y-103577311D01*
X113750000Y-101690000D02*
X114310000Y-102250000D01*
X114310000Y-102250000D02*
X115750000Y-102250000D01*
X115750000Y-102250000D02*
X117077311Y-103577311D01*
%TO.N,+3V3*%
X129160000Y-86500000D02*
X123500000Y-86500000D01*
X132000000Y-83660000D02*
X129160000Y-86500000D01*
%TO.N,GPIO7*%
X115050000Y-100891184D02*
X115050000Y-97910000D01*
X115050000Y-97910000D02*
X113750000Y-96610000D01*
X117137710Y-102978894D02*
X115050000Y-100891184D01*
X120117781Y-102978894D02*
X117137710Y-102978894D01*
X120543818Y-102780920D02*
X120315755Y-102780920D01*
X120315755Y-102780920D02*
X120117781Y-102978894D01*
X120650000Y-102674738D02*
X120543818Y-102780920D01*
%TO.N,GPIO4*%
X115700000Y-86450000D02*
X113750000Y-86450000D01*
X116250000Y-100111283D02*
X116250000Y-87000000D01*
X117317608Y-101178891D02*
X116250000Y-100111283D01*
X118187859Y-101215897D02*
X118150853Y-101178891D01*
X118150853Y-101178891D02*
X117317608Y-101178891D01*
X118187859Y-101178891D02*
X118187859Y-101215897D01*
X116250000Y-87000000D02*
X115700000Y-86450000D01*
%TO.N,GPIO14*%
X115944314Y-119250000D02*
X113970000Y-119250000D01*
X113970000Y-119250000D02*
X113750000Y-119470000D01*
X116300000Y-118894314D02*
X115944314Y-119250000D01*
X116300000Y-109200000D02*
X116300000Y-118894314D01*
X121000000Y-104500000D02*
X116300000Y-109200000D01*
X121000000Y-104233374D02*
X121000000Y-104500000D01*
X120952182Y-104185556D02*
X121000000Y-104233374D01*
%TO.N,GPIO16*%
X128000000Y-106164289D02*
X126750000Y-106164289D01*
X128150000Y-110150000D02*
X128000000Y-110000000D01*
X128250000Y-110150000D02*
X128150000Y-110150000D01*
X128750000Y-118000000D02*
X128750000Y-110650000D01*
X128000000Y-110000000D02*
X128000000Y-106164289D01*
X129200000Y-118450000D02*
X128750000Y-118000000D01*
X128750000Y-110650000D02*
X128250000Y-110150000D01*
X129200000Y-119420000D02*
X129200000Y-118450000D01*
X131750000Y-121970000D02*
X129200000Y-119420000D01*
%TO.N,GPIO6*%
X115270000Y-94070000D02*
X113750000Y-94070000D01*
X115450000Y-94250000D02*
X115270000Y-94070000D01*
X115450000Y-100442654D02*
X115450000Y-94250000D01*
X117586239Y-102578894D02*
X115450000Y-100442654D01*
X118414668Y-102578894D02*
X117586239Y-102578894D01*
X120065686Y-102000000D02*
X119915685Y-102150000D01*
X118843563Y-102150000D02*
X118414668Y-102578894D01*
X120649998Y-102074738D02*
X120575260Y-102000000D01*
X120575260Y-102000000D02*
X120065686Y-102000000D01*
X120650001Y-102074731D02*
X120649998Y-102074738D01*
X120650001Y-101698528D02*
X120650001Y-102074731D01*
X119915685Y-102150000D02*
X118843563Y-102150000D01*
%TO.N,GPIO5*%
X115850000Y-89500000D02*
X115340000Y-88990000D01*
X115850000Y-100276969D02*
X115850000Y-89500000D01*
X117751925Y-102178894D02*
X115850000Y-100276969D01*
X115340000Y-88990000D02*
X113750000Y-88990000D01*
X118248983Y-102178894D02*
X117751925Y-102178894D01*
X118677877Y-101750000D02*
X118248983Y-102178894D01*
X119750000Y-101750000D02*
X118677877Y-101750000D01*
X120250000Y-101250000D02*
X119750000Y-101750000D01*
X120335532Y-100935534D02*
X120250000Y-101021066D01*
X120250000Y-101021066D02*
X120250000Y-101250000D01*
%TO.N,GPIO22*%
X127150000Y-101350000D02*
X127250000Y-101350000D01*
X127000000Y-101500000D02*
X127150000Y-101350000D01*
%TO.N,GPIO26_ADC0*%
X130040000Y-96360000D02*
X132000000Y-96360000D01*
X129650000Y-96750000D02*
X130040000Y-96360000D01*
X129650000Y-99665686D02*
X129650000Y-96750000D01*
X128965686Y-100350000D02*
X129650000Y-99665686D01*
X128499999Y-100350000D02*
X128965686Y-100350000D01*
%TO.N,GPIO27_ADC1*%
X129250000Y-96570000D02*
X132000000Y-93820000D01*
X129250000Y-99500000D02*
X129250000Y-96570000D01*
X129000000Y-99750000D02*
X129250000Y-99500000D01*
X128000000Y-99750000D02*
X129000000Y-99750000D01*
X127750000Y-100000000D02*
X128000000Y-99750000D01*
X127365028Y-100000000D02*
X127750000Y-100000000D01*
X127124999Y-99759971D02*
X127365028Y-100000000D01*
%TO.N,GPIO22*%
X127150000Y-101650000D02*
X127000000Y-101500000D01*
X131750000Y-101650000D02*
X127150000Y-101650000D01*
%TO.N,QSPI_SS*%
X125458364Y-93208364D02*
X125458364Y-91609835D01*
X123498529Y-89650000D02*
X119450000Y-89650000D01*
X125458364Y-91609835D02*
X123498529Y-89650000D01*
X119450000Y-89650000D02*
X118100000Y-91000000D01*
%TO.N,GPIO1*%
X117040000Y-76290000D02*
X113750000Y-76290000D01*
X118376249Y-99272242D02*
X117772242Y-99272242D01*
X117772242Y-99272242D02*
X117500000Y-99000000D01*
X117500000Y-76750000D02*
X117040000Y-76290000D01*
X117500000Y-99000000D02*
X117500000Y-76750000D01*
%TO.N,GPIO2*%
X117100000Y-99165685D02*
X117100000Y-82000000D01*
X118001213Y-99978891D02*
X117694564Y-99672242D01*
X117100000Y-82000000D02*
X116470000Y-81370000D01*
X117606556Y-99672242D02*
X117100000Y-99165685D01*
X117694564Y-99672242D02*
X117606556Y-99672242D01*
X116470000Y-81370000D02*
X113750000Y-81370000D01*
%TO.N,GPIO3*%
X116700000Y-84250000D02*
X116700000Y-99614215D01*
X117248716Y-100248716D02*
X117248716Y-100250463D01*
X116700000Y-99614215D02*
X117000000Y-99914215D01*
X116360000Y-83910000D02*
X116700000Y-84250000D01*
X117000000Y-99914215D02*
X117000000Y-100000000D01*
X113750000Y-83910000D02*
X116360000Y-83910000D01*
X117000000Y-100000000D02*
X117248716Y-100248716D01*
%TO.N,GPIO10*%
X117759652Y-104240348D02*
X117759652Y-104021281D01*
X115230000Y-106770000D02*
X117759652Y-104240348D01*
X113750000Y-106770000D02*
X115230000Y-106770000D01*
%TO.N,GPIO11*%
X113750000Y-109310000D02*
X118339185Y-104720815D01*
X118339185Y-104720815D02*
X118339185Y-104572774D01*
%TO.N,GPIO12*%
X119239436Y-105017112D02*
X119500000Y-105277676D01*
X113750000Y-111850000D02*
X115500000Y-110100000D01*
X118390907Y-105368583D02*
X118742378Y-105017112D01*
X118208019Y-105834314D02*
X118390907Y-105651426D01*
X115500000Y-110100000D02*
X115500000Y-108868628D01*
X115500000Y-108868628D02*
X118208019Y-106160609D01*
X118742378Y-105017112D02*
X119239436Y-105017112D01*
X119500000Y-105277676D02*
X119500000Y-105000000D01*
X118208019Y-106160609D02*
X118208019Y-105834314D01*
X118390907Y-105651426D02*
X118390907Y-105368583D01*
%TO.N,GPIO13*%
X118990907Y-105617112D02*
X118608019Y-106000000D01*
X115900000Y-109034314D02*
X115900000Y-112240000D01*
X118608019Y-106000000D02*
X118608019Y-106326295D01*
X118608019Y-106326295D02*
X115900000Y-109034314D01*
X115900000Y-112240000D02*
X113750000Y-114390000D01*
%TO.N,GPIO15*%
X113750000Y-122010000D02*
X116700000Y-119060000D01*
X117500000Y-109401470D02*
X120200735Y-106700735D01*
X116700000Y-119060000D02*
X116700000Y-110300000D01*
X116700000Y-110300000D02*
X117500000Y-109500000D01*
X117500000Y-109500000D02*
X117500000Y-109401470D01*
%TO.N,Net-(J1-CC1)*%
X124500000Y-78750000D02*
X124500000Y-80821470D01*
X124500000Y-80821470D02*
X125214265Y-81535735D01*
%TD*%
%TA.AperFunction,Conductor*%
%TO.N,GND*%
G36*
X122284075Y-121942993D02*
G01*
X122349901Y-122057007D01*
X122442993Y-122150099D01*
X122557007Y-122215925D01*
X122620590Y-122232962D01*
X121988282Y-122865269D01*
X121988322Y-122865770D01*
X121985462Y-122879381D01*
X121987442Y-122893147D01*
X121978421Y-122912898D01*
X121973958Y-122934147D01*
X121964195Y-122944050D01*
X121958417Y-122956703D01*
X121940149Y-122968442D01*
X121924907Y-122983905D01*
X121910135Y-122987731D01*
X121899639Y-122994477D01*
X121864704Y-122999500D01*
X121623769Y-122999500D01*
X121556730Y-122979815D01*
X121510975Y-122927011D01*
X121501031Y-122857853D01*
X121507587Y-122832167D01*
X121518609Y-122802615D01*
X121554091Y-122707483D01*
X121560500Y-122647873D01*
X121560499Y-122637312D01*
X121580179Y-122570275D01*
X121596818Y-122549626D01*
X122267037Y-121879408D01*
X122284075Y-121942993D01*
G37*
%TD.AperFunction*%
%TA.AperFunction,Conductor*%
G36*
X123865270Y-122511717D02*
G01*
X123865270Y-122511716D01*
X123904623Y-122457553D01*
X123909230Y-122448511D01*
X123957201Y-122397712D01*
X124025021Y-122380912D01*
X124091157Y-122403446D01*
X124130201Y-122448501D01*
X124134948Y-122457817D01*
X124259889Y-122629786D01*
X124410209Y-122780106D01*
X124411506Y-122781214D01*
X124411861Y-122781758D01*
X124413652Y-122783549D01*
X124413275Y-122783925D01*
X124449697Y-122839723D01*
X124450192Y-122909591D01*
X124412835Y-122968635D01*
X124349487Y-122998110D01*
X124330970Y-122999500D01*
X123635296Y-122999500D01*
X123568257Y-122979815D01*
X123522502Y-122927011D01*
X123511678Y-122865772D01*
X123511717Y-122865270D01*
X122879408Y-122232962D01*
X122942993Y-122215925D01*
X123057007Y-122150099D01*
X123150099Y-122057007D01*
X123215925Y-121942993D01*
X123232962Y-121879409D01*
X123865270Y-122511717D01*
G37*
%TD.AperFunction*%
%TA.AperFunction,Conductor*%
G36*
X126672203Y-108370185D02*
G01*
X126708266Y-108405609D01*
X126778210Y-108510289D01*
X126889707Y-108621786D01*
X126889711Y-108621789D01*
X127020814Y-108709390D01*
X127020827Y-108709397D01*
X127166498Y-108769735D01*
X127166503Y-108769737D01*
X127276987Y-108791713D01*
X127299691Y-108796230D01*
X127361602Y-108828615D01*
X127396176Y-108889330D01*
X127399500Y-108917847D01*
X127399500Y-109913330D01*
X127399499Y-109913348D01*
X127399499Y-110079054D01*
X127399498Y-110079054D01*
X127440423Y-110231786D01*
X127440424Y-110231787D01*
X127462775Y-110270500D01*
X127519480Y-110368716D01*
X127519482Y-110368718D01*
X127638349Y-110487585D01*
X127638355Y-110487590D01*
X127665139Y-110514374D01*
X127665149Y-110514385D01*
X127669479Y-110518715D01*
X127669480Y-110518716D01*
X127781284Y-110630520D01*
X127847442Y-110668716D01*
X127918215Y-110709577D01*
X127954638Y-110719336D01*
X127964889Y-110724218D01*
X127978837Y-110736702D01*
X127999255Y-110748490D01*
X128113181Y-110862416D01*
X128146666Y-110923739D01*
X128149500Y-110950097D01*
X128149500Y-117913330D01*
X128149499Y-117913348D01*
X128149499Y-118079054D01*
X128149498Y-118079054D01*
X128190424Y-118231789D01*
X128190425Y-118231790D01*
X128213030Y-118270942D01*
X128213031Y-118270944D01*
X128269475Y-118368709D01*
X128269481Y-118368717D01*
X128388349Y-118487585D01*
X128388355Y-118487590D01*
X128563181Y-118662416D01*
X128596666Y-118723739D01*
X128599500Y-118750097D01*
X128599500Y-119333330D01*
X128599499Y-119333348D01*
X128599499Y-119499054D01*
X128599498Y-119499054D01*
X128599499Y-119499057D01*
X128640423Y-119651785D01*
X128640424Y-119651786D01*
X128645457Y-119660504D01*
X128719477Y-119788712D01*
X128719481Y-119788717D01*
X128838349Y-119907585D01*
X128838355Y-119907590D01*
X130416241Y-121485476D01*
X130449726Y-121546799D01*
X130446492Y-121611473D01*
X130432753Y-121653757D01*
X130399500Y-121863713D01*
X130399500Y-122076286D01*
X130427013Y-122250000D01*
X130432754Y-122286243D01*
X130488416Y-122457553D01*
X130498444Y-122488414D01*
X130594948Y-122677815D01*
X130685620Y-122802615D01*
X130709099Y-122868422D01*
X130693273Y-122936475D01*
X130643167Y-122985170D01*
X130585301Y-122999500D01*
X126249028Y-122999500D01*
X126181989Y-122979815D01*
X126136234Y-122927011D01*
X126126290Y-122857853D01*
X126155315Y-122794297D01*
X126168492Y-122781214D01*
X126169788Y-122780106D01*
X126169787Y-122780106D01*
X126169791Y-122780104D01*
X126320103Y-122629792D01*
X126320105Y-122629788D01*
X126320108Y-122629786D01*
X126445047Y-122457820D01*
X126445049Y-122457817D01*
X126445050Y-122457816D01*
X126541556Y-122268412D01*
X126607245Y-122066243D01*
X126640499Y-121856287D01*
X126640499Y-121643713D01*
X126607245Y-121433757D01*
X126541556Y-121231588D01*
X126445050Y-121042184D01*
X126445048Y-121042181D01*
X126445047Y-121042179D01*
X126320108Y-120870213D01*
X126169785Y-120719890D01*
X125997814Y-120594948D01*
X125997813Y-120594947D01*
X125958204Y-120574765D01*
X125907408Y-120526791D01*
X125890499Y-120464281D01*
X125890499Y-108674500D01*
X125910184Y-108607461D01*
X125962988Y-108561706D01*
X126014499Y-108550500D01*
X126078844Y-108550500D01*
X126078845Y-108550499D01*
X126233497Y-108519737D01*
X126379179Y-108459394D01*
X126459674Y-108405609D01*
X126510875Y-108371398D01*
X126528921Y-108365747D01*
X126544831Y-108355523D01*
X126575792Y-108351071D01*
X126577553Y-108350520D01*
X126579766Y-108350500D01*
X126605164Y-108350500D01*
X126672203Y-108370185D01*
G37*
%TD.AperFunction*%
%TA.AperFunction,Conductor*%
G36*
X124496183Y-104943866D02*
G01*
X124520943Y-104950501D01*
X124570986Y-104950501D01*
X124576454Y-104950986D01*
X124604074Y-104961828D01*
X124632538Y-104970186D01*
X124636234Y-104974452D01*
X124641492Y-104976516D01*
X124658867Y-105000571D01*
X124678293Y-105022990D01*
X124679096Y-105028578D01*
X124682403Y-105033156D01*
X124689499Y-105074501D01*
X124689499Y-120464281D01*
X124669814Y-120531320D01*
X124621794Y-120574765D01*
X124582184Y-120594947D01*
X124582183Y-120594948D01*
X124410212Y-120719890D01*
X124259889Y-120870213D01*
X124134949Y-121042181D01*
X124130200Y-121051501D01*
X124082222Y-121102294D01*
X124014401Y-121119086D01*
X123948267Y-121096545D01*
X123909231Y-121051491D01*
X123904624Y-121042449D01*
X123865270Y-120988282D01*
X123865269Y-120988282D01*
X123232962Y-121620590D01*
X123215925Y-121557007D01*
X123150099Y-121442993D01*
X123057007Y-121349901D01*
X122942993Y-121284075D01*
X122879409Y-121267037D01*
X123511716Y-120634728D01*
X123457550Y-120595375D01*
X123268217Y-120498904D01*
X123066129Y-120433242D01*
X122856246Y-120400000D01*
X122643754Y-120400000D01*
X122433872Y-120433242D01*
X122433869Y-120433242D01*
X122231782Y-120498904D01*
X122042439Y-120595380D01*
X121988282Y-120634727D01*
X121988282Y-120634728D01*
X122620591Y-121267037D01*
X122557007Y-121284075D01*
X122442993Y-121349901D01*
X122349901Y-121442993D01*
X122284075Y-121557007D01*
X122267037Y-121620591D01*
X121596818Y-120950372D01*
X121563333Y-120889049D01*
X121563330Y-120889036D01*
X121560499Y-120876015D01*
X121560499Y-120852128D01*
X121554091Y-120792517D01*
X121525926Y-120717002D01*
X121503798Y-120657673D01*
X121503793Y-120657664D01*
X121417547Y-120542455D01*
X121417544Y-120542452D01*
X121302335Y-120456206D01*
X121302328Y-120456202D01*
X121167482Y-120405908D01*
X121167483Y-120405908D01*
X121107883Y-120399501D01*
X121107881Y-120399500D01*
X121107873Y-120399500D01*
X121107865Y-120399500D01*
X120934500Y-120399500D01*
X120867461Y-120379815D01*
X120821706Y-120327011D01*
X120810500Y-120275500D01*
X120810500Y-107840097D01*
X120830185Y-107773058D01*
X120846819Y-107752416D01*
X121962416Y-106636819D01*
X122023739Y-106603334D01*
X122050097Y-106600500D01*
X123829055Y-106600500D01*
X123829057Y-106600500D01*
X123981784Y-106559577D01*
X124118716Y-106480520D01*
X124230520Y-106368716D01*
X124309577Y-106231784D01*
X124350500Y-106079057D01*
X124350500Y-105066430D01*
X124354589Y-105052503D01*
X124353801Y-105038009D01*
X124364236Y-105019649D01*
X124370185Y-104999391D01*
X124381153Y-104989886D01*
X124388327Y-104977266D01*
X124407031Y-104967462D01*
X124422989Y-104953636D01*
X124437356Y-104951570D01*
X124450213Y-104944832D01*
X124485455Y-104942915D01*
X124496183Y-104943866D01*
G37*
%TD.AperFunction*%
%TA.AperFunction,Conductor*%
G36*
X115618834Y-113472914D02*
G01*
X115674767Y-113514786D01*
X115699184Y-113580250D01*
X115699500Y-113589096D01*
X115699500Y-118525500D01*
X115679815Y-118592539D01*
X115627011Y-118638294D01*
X115575500Y-118649500D01*
X114886364Y-118649500D01*
X114819325Y-118629815D01*
X114786046Y-118598386D01*
X114780105Y-118590209D01*
X114629786Y-118439890D01*
X114457817Y-118314949D01*
X114448504Y-118310204D01*
X114397707Y-118262230D01*
X114380912Y-118194409D01*
X114403449Y-118128274D01*
X114448507Y-118089232D01*
X114457555Y-118084622D01*
X114511716Y-118045270D01*
X114511717Y-118045270D01*
X113879409Y-117412962D01*
X113942993Y-117395925D01*
X114057007Y-117330099D01*
X114150099Y-117237007D01*
X114215925Y-117122993D01*
X114232962Y-117059409D01*
X114865270Y-117691717D01*
X114865270Y-117691716D01*
X114904622Y-117637554D01*
X115001095Y-117448217D01*
X115066757Y-117246130D01*
X115066757Y-117246127D01*
X115100000Y-117036246D01*
X115100000Y-116823753D01*
X115066757Y-116613872D01*
X115066757Y-116613869D01*
X115001095Y-116411782D01*
X114904624Y-116222449D01*
X114865270Y-116168282D01*
X114865269Y-116168282D01*
X114232962Y-116800590D01*
X114215925Y-116737007D01*
X114150099Y-116622993D01*
X114057007Y-116529901D01*
X113942993Y-116464075D01*
X113879407Y-116447036D01*
X114511716Y-115814728D01*
X114457547Y-115775373D01*
X114457547Y-115775372D01*
X114448500Y-115770763D01*
X114397706Y-115722788D01*
X114380912Y-115654966D01*
X114403451Y-115588832D01*
X114448508Y-115549793D01*
X114457816Y-115545051D01*
X114537007Y-115487515D01*
X114629786Y-115420109D01*
X114629788Y-115420106D01*
X114629792Y-115420104D01*
X114780104Y-115269792D01*
X114780106Y-115269788D01*
X114780109Y-115269786D01*
X114905048Y-115097820D01*
X114905047Y-115097820D01*
X114905051Y-115097816D01*
X115001557Y-114908412D01*
X115067246Y-114706243D01*
X115100500Y-114496287D01*
X115100500Y-114283713D01*
X115067246Y-114073757D01*
X115053506Y-114031473D01*
X115051512Y-113961635D01*
X115083755Y-113905478D01*
X115487820Y-113501414D01*
X115549142Y-113467930D01*
X115618834Y-113472914D01*
G37*
%TD.AperFunction*%
%TA.AperFunction,Conductor*%
G36*
X129963546Y-113413227D02*
G01*
X129970024Y-113419259D01*
X130416241Y-113865476D01*
X130449726Y-113926799D01*
X130446492Y-113991473D01*
X130432753Y-114033757D01*
X130399500Y-114243713D01*
X130399500Y-114456286D01*
X130432753Y-114666239D01*
X130498444Y-114868414D01*
X130594951Y-115057820D01*
X130719890Y-115229786D01*
X130870213Y-115380109D01*
X131042179Y-115505048D01*
X131042181Y-115505049D01*
X131042184Y-115505051D01*
X131051493Y-115509794D01*
X131102290Y-115557766D01*
X131119087Y-115625587D01*
X131096552Y-115691722D01*
X131051505Y-115730760D01*
X131042446Y-115735376D01*
X131042440Y-115735380D01*
X130988282Y-115774727D01*
X130988282Y-115774728D01*
X131620591Y-116407037D01*
X131557007Y-116424075D01*
X131442993Y-116489901D01*
X131349901Y-116582993D01*
X131284075Y-116697007D01*
X131267037Y-116760591D01*
X130634728Y-116128282D01*
X130634727Y-116128282D01*
X130595380Y-116182439D01*
X130498904Y-116371782D01*
X130433242Y-116573869D01*
X130433242Y-116573872D01*
X130400000Y-116783753D01*
X130400000Y-116996246D01*
X130433242Y-117206127D01*
X130433242Y-117206130D01*
X130498904Y-117408217D01*
X130595375Y-117597550D01*
X130634728Y-117651716D01*
X131267037Y-117019408D01*
X131284075Y-117082993D01*
X131349901Y-117197007D01*
X131442993Y-117290099D01*
X131557007Y-117355925D01*
X131620589Y-117372962D01*
X130988282Y-118005269D01*
X130988282Y-118005270D01*
X131042452Y-118044626D01*
X131042451Y-118044626D01*
X131051495Y-118049234D01*
X131102292Y-118097208D01*
X131119087Y-118165029D01*
X131096550Y-118231164D01*
X131051499Y-118270202D01*
X131042182Y-118274949D01*
X130870215Y-118399889D01*
X130772350Y-118497754D01*
X130711026Y-118531238D01*
X130641335Y-118526254D01*
X130596990Y-118497754D01*
X130181790Y-118082555D01*
X130162084Y-118056874D01*
X130159577Y-118052533D01*
X130159577Y-118052530D01*
X130080520Y-117915598D01*
X129968716Y-117803794D01*
X129964385Y-117799463D01*
X129964374Y-117799453D01*
X129794662Y-117629741D01*
X129761177Y-117568418D01*
X129758343Y-117542060D01*
X129758343Y-113506940D01*
X129778028Y-113439901D01*
X129830832Y-113394146D01*
X129899990Y-113384202D01*
X129963546Y-113413227D01*
G37*
%TD.AperFunction*%
%TA.AperFunction,Conductor*%
G36*
X115516942Y-102870185D02*
G01*
X115537584Y-102886819D01*
X116263759Y-103612994D01*
X116297244Y-103674317D01*
X116297695Y-103676483D01*
X116324413Y-103810802D01*
X116324416Y-103810812D01*
X116384754Y-103956483D01*
X116384761Y-103956496D01*
X116472362Y-104087599D01*
X116472365Y-104087603D01*
X116583859Y-104199097D01*
X116583863Y-104199100D01*
X116678713Y-104262477D01*
X116723518Y-104316089D01*
X116732225Y-104385414D01*
X116702071Y-104448441D01*
X116697503Y-104453260D01*
X115084943Y-106065821D01*
X115023620Y-106099306D01*
X114953928Y-106094322D01*
X114897995Y-106052450D01*
X114896978Y-106051073D01*
X114780104Y-105890208D01*
X114629792Y-105739896D01*
X114629786Y-105739890D01*
X114457817Y-105614949D01*
X114448504Y-105610204D01*
X114397707Y-105562230D01*
X114380912Y-105494409D01*
X114403449Y-105428274D01*
X114448507Y-105389232D01*
X114457555Y-105384622D01*
X114511716Y-105345270D01*
X114511717Y-105345270D01*
X113879409Y-104712962D01*
X113942993Y-104695925D01*
X114057007Y-104630099D01*
X114150099Y-104537007D01*
X114215925Y-104422993D01*
X114232962Y-104359409D01*
X114865270Y-104991717D01*
X114865270Y-104991716D01*
X114904622Y-104937554D01*
X115001095Y-104748217D01*
X115066757Y-104546130D01*
X115066757Y-104546127D01*
X115100000Y-104336246D01*
X115100000Y-104123753D01*
X115066757Y-103913872D01*
X115066757Y-103913869D01*
X115001095Y-103711782D01*
X114904624Y-103522449D01*
X114865270Y-103468282D01*
X114865269Y-103468282D01*
X114232962Y-104100590D01*
X114215925Y-104037007D01*
X114150099Y-103922993D01*
X114057007Y-103829901D01*
X113942993Y-103764075D01*
X113879407Y-103747036D01*
X114511716Y-103114728D01*
X114456785Y-103074819D01*
X114414119Y-103019489D01*
X114408140Y-102949875D01*
X114440745Y-102888080D01*
X114501584Y-102853723D01*
X114529670Y-102850500D01*
X115449903Y-102850500D01*
X115516942Y-102870185D01*
G37*
%TD.AperFunction*%
%TA.AperFunction,Conductor*%
G36*
X131284075Y-104382993D02*
G01*
X131349901Y-104497007D01*
X131442993Y-104590099D01*
X131557007Y-104655925D01*
X131620589Y-104672962D01*
X130988282Y-105305269D01*
X130988282Y-105305270D01*
X131042452Y-105344626D01*
X131042451Y-105344626D01*
X131051495Y-105349234D01*
X131102292Y-105397208D01*
X131119087Y-105465029D01*
X131096550Y-105531164D01*
X131051499Y-105570202D01*
X131042182Y-105574949D01*
X130870213Y-105699890D01*
X130870209Y-105699894D01*
X130812181Y-105757923D01*
X130750858Y-105791408D01*
X130681166Y-105786424D01*
X130625233Y-105744552D01*
X130600816Y-105679088D01*
X130600500Y-105670242D01*
X130600500Y-105302074D01*
X130600501Y-105256808D01*
X130561664Y-105111868D01*
X130563327Y-105042020D01*
X130595964Y-104993797D01*
X130594306Y-104992139D01*
X131267037Y-104319408D01*
X131284075Y-104382993D01*
G37*
%TD.AperFunction*%
%TA.AperFunction,Conductor*%
G36*
X130531320Y-102270185D02*
G01*
X130574765Y-102318205D01*
X130594947Y-102357814D01*
X130594948Y-102357815D01*
X130719890Y-102529786D01*
X130870213Y-102680109D01*
X131042179Y-102805048D01*
X131042181Y-102805049D01*
X131042184Y-102805051D01*
X131051493Y-102809794D01*
X131102290Y-102857766D01*
X131119087Y-102925587D01*
X131096552Y-102991722D01*
X131051505Y-103030760D01*
X131042446Y-103035376D01*
X131042440Y-103035380D01*
X130988282Y-103074727D01*
X130988282Y-103074728D01*
X131620591Y-103707037D01*
X131557007Y-103724075D01*
X131442993Y-103789901D01*
X131349901Y-103882993D01*
X131284075Y-103997007D01*
X131267037Y-104060591D01*
X130634728Y-103428282D01*
X130634727Y-103428282D01*
X130595380Y-103482440D01*
X130595378Y-103482443D01*
X130584984Y-103502843D01*
X130537009Y-103553639D01*
X130469188Y-103570433D01*
X130403053Y-103547895D01*
X130359602Y-103493179D01*
X130350500Y-103446547D01*
X130350500Y-102670945D01*
X130350500Y-102670943D01*
X130309577Y-102518216D01*
X130262397Y-102436498D01*
X130260966Y-102430597D01*
X130256992Y-102426011D01*
X130252827Y-102397048D01*
X130245926Y-102368599D01*
X130247911Y-102362861D01*
X130247048Y-102356853D01*
X130259205Y-102330231D01*
X130268779Y-102302572D01*
X130273551Y-102298819D01*
X130276073Y-102293297D01*
X130300695Y-102277473D01*
X130323701Y-102259382D01*
X130331050Y-102257965D01*
X130334851Y-102255523D01*
X130369786Y-102250500D01*
X130464281Y-102250500D01*
X130531320Y-102270185D01*
G37*
%TD.AperFunction*%
%TA.AperFunction,Conductor*%
G36*
X122399191Y-90270185D02*
G01*
X122444946Y-90322989D01*
X122453769Y-90350308D01*
X122480261Y-90483491D01*
X122480264Y-90483501D01*
X122540602Y-90629172D01*
X122540609Y-90629185D01*
X122628210Y-90760288D01*
X122628213Y-90760292D01*
X122739707Y-90871786D01*
X122739711Y-90871789D01*
X122870814Y-90959390D01*
X122870827Y-90959397D01*
X123004246Y-91014660D01*
X123016503Y-91019737D01*
X123076675Y-91031706D01*
X123171849Y-91050638D01*
X123233760Y-91083023D01*
X123235339Y-91084574D01*
X124421545Y-92270780D01*
X124436248Y-92297707D01*
X124452841Y-92323526D01*
X124453732Y-92329726D01*
X124455030Y-92332103D01*
X124457864Y-92358461D01*
X124457864Y-92459737D01*
X124438179Y-92526776D01*
X124421545Y-92547418D01*
X124377845Y-92591117D01*
X124377843Y-92591120D01*
X124369674Y-92605270D01*
X124347393Y-92643862D01*
X124298787Y-92728050D01*
X124257863Y-92880778D01*
X124257863Y-92880780D01*
X124257863Y-93048881D01*
X124257864Y-93048894D01*
X124257864Y-93771694D01*
X124257863Y-93771712D01*
X124257863Y-93937418D01*
X124257862Y-93937418D01*
X124257863Y-93937421D01*
X124298787Y-94090149D01*
X124320953Y-94128541D01*
X124377843Y-94227078D01*
X124377845Y-94227081D01*
X124496713Y-94345949D01*
X124496719Y-94345954D01*
X126915425Y-96764660D01*
X126948910Y-96825983D01*
X126949361Y-96828149D01*
X126980261Y-96983491D01*
X126980264Y-96983501D01*
X127040602Y-97129172D01*
X127040609Y-97129185D01*
X127128210Y-97260288D01*
X127128213Y-97260292D01*
X127239707Y-97371786D01*
X127239711Y-97371789D01*
X127370814Y-97459390D01*
X127370827Y-97459397D01*
X127516498Y-97519735D01*
X127516503Y-97519737D01*
X127671153Y-97550499D01*
X127671156Y-97550500D01*
X127671158Y-97550500D01*
X127828844Y-97550500D01*
X127828845Y-97550499D01*
X127983497Y-97519737D01*
X128129179Y-97459394D01*
X128260289Y-97371789D01*
X128371789Y-97260289D01*
X128422398Y-97184548D01*
X128476010Y-97139743D01*
X128545335Y-97131036D01*
X128608363Y-97161190D01*
X128645082Y-97220634D01*
X128649500Y-97253439D01*
X128649500Y-99025500D01*
X128629815Y-99092539D01*
X128577011Y-99138294D01*
X128525500Y-99149500D01*
X127920939Y-99149500D01*
X127883733Y-99159469D01*
X127883734Y-99159470D01*
X127773732Y-99188945D01*
X127703882Y-99187282D01*
X127653955Y-99156849D01*
X127635290Y-99138183D01*
X127635287Y-99138181D01*
X127504184Y-99050580D01*
X127504171Y-99050573D01*
X127358500Y-98990235D01*
X127358488Y-98990232D01*
X127203844Y-98959471D01*
X127203841Y-98959471D01*
X127046157Y-98959471D01*
X127046154Y-98959471D01*
X126891509Y-98990232D01*
X126891497Y-98990235D01*
X126745826Y-99050573D01*
X126745813Y-99050580D01*
X126614710Y-99138181D01*
X126614706Y-99138184D01*
X126503212Y-99249678D01*
X126503209Y-99249682D01*
X126415608Y-99380785D01*
X126415601Y-99380798D01*
X126355263Y-99526469D01*
X126355260Y-99526481D01*
X126324499Y-99681124D01*
X126324499Y-99838817D01*
X126356450Y-99999443D01*
X126354152Y-99999899D01*
X126354682Y-100059374D01*
X126317433Y-100118486D01*
X126254138Y-100148076D01*
X126235399Y-100149500D01*
X125836670Y-100149500D01*
X125836654Y-100149499D01*
X125829058Y-100149499D01*
X125670943Y-100149499D01*
X125610116Y-100165798D01*
X125518214Y-100190423D01*
X125518209Y-100190426D01*
X125381290Y-100269475D01*
X125381282Y-100269481D01*
X124874217Y-100776546D01*
X124874214Y-100776548D01*
X124874215Y-100776549D01*
X124769478Y-100881285D01*
X124738671Y-100934646D01*
X124729518Y-100950501D01*
X124690423Y-101018215D01*
X124649499Y-101170943D01*
X124649499Y-101170945D01*
X124649499Y-101339046D01*
X124649500Y-101339059D01*
X124649500Y-102396799D01*
X124649487Y-102398616D01*
X124649261Y-102414015D01*
X124646639Y-102423803D01*
X124646639Y-102581917D01*
X124646640Y-102581920D01*
X124646640Y-102592849D01*
X124646640Y-102840240D01*
X124626955Y-102907279D01*
X124574151Y-102953034D01*
X124504993Y-102962978D01*
X124475188Y-102954801D01*
X124325413Y-102892763D01*
X124325401Y-102892760D01*
X124170757Y-102861999D01*
X124170754Y-102861999D01*
X124013070Y-102861999D01*
X124013067Y-102861999D01*
X123858422Y-102892760D01*
X123858419Y-102892761D01*
X123858418Y-102892761D01*
X123858415Y-102892762D01*
X123811386Y-102912242D01*
X123739359Y-102942076D01*
X123669889Y-102949544D01*
X123644455Y-102942075D01*
X123525411Y-102892766D01*
X123525399Y-102892763D01*
X123370755Y-102862002D01*
X123370752Y-102862002D01*
X123213068Y-102862002D01*
X123159579Y-102872641D01*
X123089987Y-102866412D01*
X123034810Y-102823549D01*
X123011567Y-102757659D01*
X123011389Y-102751023D01*
X123011389Y-101201706D01*
X123031074Y-101134667D01*
X123047708Y-101114025D01*
X123462415Y-100699318D01*
X123523738Y-100665833D01*
X123550096Y-100662999D01*
X123577583Y-100662999D01*
X123577586Y-100662999D01*
X123730314Y-100622075D01*
X123782746Y-100591803D01*
X123867245Y-100543018D01*
X123979049Y-100431214D01*
X123979050Y-100431212D01*
X124500224Y-99910039D01*
X124579281Y-99773107D01*
X124579283Y-99773100D01*
X124584159Y-99754905D01*
X124598651Y-99731129D01*
X124610220Y-99705797D01*
X124616585Y-99701705D01*
X124620524Y-99695245D01*
X124645570Y-99683078D01*
X124668998Y-99668023D01*
X124679747Y-99666477D01*
X124683372Y-99664717D01*
X124703933Y-99663000D01*
X124850831Y-99663000D01*
X124850847Y-99663001D01*
X124858443Y-99663001D01*
X125016554Y-99663001D01*
X125016557Y-99663001D01*
X125169285Y-99622077D01*
X125241525Y-99580369D01*
X125306216Y-99543020D01*
X125418020Y-99431216D01*
X125418020Y-99431214D01*
X125425132Y-99424102D01*
X125425134Y-99424102D01*
X125536938Y-99312298D01*
X125615995Y-99175366D01*
X125651271Y-99043713D01*
X125656918Y-99022640D01*
X125656918Y-98864525D01*
X125656918Y-97323943D01*
X125676603Y-97256904D01*
X125677816Y-97255052D01*
X125700814Y-97220634D01*
X125765812Y-97123357D01*
X125826155Y-96977675D01*
X125826155Y-96977671D01*
X125826158Y-96977665D01*
X125855898Y-96828149D01*
X125856918Y-96823020D01*
X125856918Y-96665336D01*
X125856918Y-96665333D01*
X125856917Y-96665331D01*
X125826156Y-96510688D01*
X125826155Y-96510681D01*
X125795447Y-96436545D01*
X125765815Y-96365005D01*
X125765808Y-96364992D01*
X125678207Y-96233889D01*
X125678204Y-96233885D01*
X125566710Y-96122391D01*
X125566706Y-96122388D01*
X125435603Y-96034787D01*
X125435590Y-96034780D01*
X125289919Y-95974442D01*
X125289907Y-95974439D01*
X125135263Y-95943678D01*
X125135260Y-95943678D01*
X124977576Y-95943678D01*
X124977573Y-95943678D01*
X124822928Y-95974439D01*
X124822916Y-95974442D01*
X124677245Y-96034780D01*
X124677232Y-96034787D01*
X124546129Y-96122388D01*
X124546125Y-96122391D01*
X124434631Y-96233885D01*
X124434628Y-96233889D01*
X124347027Y-96364992D01*
X124347020Y-96365005D01*
X124286682Y-96510676D01*
X124286679Y-96510688D01*
X124255918Y-96665331D01*
X124255918Y-96823024D01*
X124286678Y-96977665D01*
X124286682Y-96977679D01*
X124347020Y-97123350D01*
X124347027Y-97123363D01*
X124435020Y-97255052D01*
X124455898Y-97321729D01*
X124455918Y-97323943D01*
X124455918Y-98191152D01*
X124436233Y-98258191D01*
X124383429Y-98303946D01*
X124314271Y-98313890D01*
X124284466Y-98305713D01*
X124253205Y-98292764D01*
X124253193Y-98292761D01*
X124098549Y-98262000D01*
X124098546Y-98262000D01*
X123940862Y-98262000D01*
X123940859Y-98262000D01*
X123786209Y-98292761D01*
X123786202Y-98292764D01*
X123737486Y-98312942D01*
X123668017Y-98320409D01*
X123640875Y-98312218D01*
X123630520Y-98307746D01*
X123601505Y-98288359D01*
X123455823Y-98228016D01*
X123437416Y-98224354D01*
X123425339Y-98219139D01*
X123408171Y-98204876D01*
X123388394Y-98194530D01*
X123381818Y-98182982D01*
X123371597Y-98174490D01*
X123364866Y-98153209D01*
X123353822Y-98133813D01*
X123350958Y-98109237D01*
X123350527Y-98107873D01*
X123350717Y-98107169D01*
X123350500Y-98105301D01*
X123350500Y-93819765D01*
X123370185Y-93752726D01*
X123371398Y-93750874D01*
X123392926Y-93718656D01*
X123459394Y-93619179D01*
X123519737Y-93473497D01*
X123550500Y-93318842D01*
X123550500Y-93161158D01*
X123550500Y-93161155D01*
X123550499Y-93161153D01*
X123544207Y-93129522D01*
X123519737Y-93006503D01*
X123506631Y-92974862D01*
X123459397Y-92860827D01*
X123459390Y-92860814D01*
X123371789Y-92729711D01*
X123371786Y-92729707D01*
X123260292Y-92618213D01*
X123260288Y-92618210D01*
X123129185Y-92530609D01*
X123129172Y-92530602D01*
X122983501Y-92470264D01*
X122983489Y-92470261D01*
X122828834Y-92439497D01*
X122828491Y-92439464D01*
X122828322Y-92439396D01*
X122822868Y-92438311D01*
X122823073Y-92437275D01*
X122805482Y-92430170D01*
X122781233Y-92424895D01*
X122768119Y-92415078D01*
X122763707Y-92413296D01*
X122752979Y-92403744D01*
X122670309Y-92321074D01*
X122636824Y-92259751D01*
X122636373Y-92257584D01*
X122605473Y-92102245D01*
X122605472Y-92102238D01*
X122583098Y-92048221D01*
X122545132Y-91956562D01*
X122545125Y-91956549D01*
X122457524Y-91825446D01*
X122457521Y-91825442D01*
X122346027Y-91713948D01*
X122346023Y-91713945D01*
X122214920Y-91626344D01*
X122214907Y-91626337D01*
X122069236Y-91565999D01*
X122069224Y-91565996D01*
X121914580Y-91535235D01*
X121914577Y-91535235D01*
X121756893Y-91535235D01*
X121756890Y-91535235D01*
X121602245Y-91565996D01*
X121602233Y-91565999D01*
X121456562Y-91626337D01*
X121456549Y-91626344D01*
X121325446Y-91713945D01*
X121325442Y-91713948D01*
X121213948Y-91825442D01*
X121213945Y-91825446D01*
X121126344Y-91956549D01*
X121126337Y-91956562D01*
X121065999Y-92102233D01*
X121065996Y-92102245D01*
X121035235Y-92256888D01*
X121035235Y-92414581D01*
X121065996Y-92569224D01*
X121065999Y-92569236D01*
X121126337Y-92714907D01*
X121126344Y-92714920D01*
X121213945Y-92846023D01*
X121213948Y-92846027D01*
X121325442Y-92957521D01*
X121325446Y-92957524D01*
X121456549Y-93045125D01*
X121456562Y-93045132D01*
X121602233Y-93105470D01*
X121602238Y-93105472D01*
X121666882Y-93118330D01*
X121757584Y-93136373D01*
X121774340Y-93145137D01*
X121792820Y-93149158D01*
X121817858Y-93167902D01*
X121819495Y-93168758D01*
X121821074Y-93170309D01*
X121917908Y-93267143D01*
X121951393Y-93328466D01*
X121951844Y-93330632D01*
X121980261Y-93473491D01*
X121980264Y-93473501D01*
X122040602Y-93619172D01*
X122040609Y-93619185D01*
X122128602Y-93750874D01*
X122149480Y-93817551D01*
X122149500Y-93819765D01*
X122149500Y-98129308D01*
X122129815Y-98196347D01*
X122077011Y-98242102D01*
X122025500Y-98253308D01*
X121923403Y-98253308D01*
X121768758Y-98284069D01*
X121768746Y-98284072D01*
X121623075Y-98344410D01*
X121623062Y-98344417D01*
X121491959Y-98432018D01*
X121491955Y-98432021D01*
X121380461Y-98543515D01*
X121380458Y-98543519D01*
X121292857Y-98674622D01*
X121292850Y-98674635D01*
X121232512Y-98820306D01*
X121232509Y-98820318D01*
X121201748Y-98974961D01*
X121201748Y-99132654D01*
X121232509Y-99287297D01*
X121232512Y-99287309D01*
X121292850Y-99432980D01*
X121292857Y-99432993D01*
X121380458Y-99564096D01*
X121380461Y-99564100D01*
X121491955Y-99675594D01*
X121491959Y-99675597D01*
X121623062Y-99763198D01*
X121623075Y-99763205D01*
X121768746Y-99823543D01*
X121768751Y-99823545D01*
X121845508Y-99838813D01*
X121912279Y-99852095D01*
X121974190Y-99884480D01*
X121975769Y-99886031D01*
X122188819Y-100099081D01*
X122222304Y-100160404D01*
X122217320Y-100230096D01*
X122188819Y-100274443D01*
X121930370Y-100532891D01*
X121930366Y-100532896D01*
X121881561Y-100617431D01*
X121881561Y-100617432D01*
X121851312Y-100669823D01*
X121837670Y-100720733D01*
X121810388Y-100822552D01*
X121810388Y-100822554D01*
X121810388Y-100990655D01*
X121810389Y-100990668D01*
X121810389Y-103259477D01*
X121790704Y-103326516D01*
X121789493Y-103328365D01*
X121784267Y-103336186D01*
X121784259Y-103336200D01*
X121723921Y-103481870D01*
X121723918Y-103481880D01*
X121712214Y-103540722D01*
X121679829Y-103602633D01*
X121619113Y-103637207D01*
X121549344Y-103633467D01*
X121502916Y-103604211D01*
X121462474Y-103563769D01*
X121462470Y-103563766D01*
X121331367Y-103476165D01*
X121331358Y-103476160D01*
X121254826Y-103444460D01*
X121200423Y-103400619D01*
X121178358Y-103334325D01*
X121195637Y-103266626D01*
X121214594Y-103242221D01*
X121271789Y-103185027D01*
X121359394Y-103053917D01*
X121364865Y-103040710D01*
X121402626Y-102949544D01*
X121419737Y-102908235D01*
X121450500Y-102753580D01*
X121450500Y-102595896D01*
X121450500Y-102595893D01*
X121450499Y-102595891D01*
X121447150Y-102579057D01*
X121419737Y-102441241D01*
X121387271Y-102362861D01*
X121359397Y-102295565D01*
X121359392Y-102295556D01*
X121347309Y-102277473D01*
X121332643Y-102255523D01*
X121311765Y-102188848D01*
X121330248Y-102121468D01*
X121332607Y-102117796D01*
X121359395Y-102077707D01*
X121419738Y-101932025D01*
X121450501Y-101777370D01*
X121450501Y-101619686D01*
X121450501Y-101619683D01*
X121450500Y-101619681D01*
X121423324Y-101483059D01*
X121419738Y-101465031D01*
X121401476Y-101420943D01*
X121359398Y-101319355D01*
X121359391Y-101319342D01*
X121271790Y-101188239D01*
X121271787Y-101188235D01*
X121172351Y-101088799D01*
X121138866Y-101027476D01*
X121136032Y-101001118D01*
X121136032Y-100856689D01*
X121136031Y-100856687D01*
X121124698Y-100799712D01*
X121105269Y-100702037D01*
X121072148Y-100622075D01*
X121044929Y-100556361D01*
X121044922Y-100556348D01*
X120957321Y-100425245D01*
X120957318Y-100425241D01*
X120845824Y-100313747D01*
X120845820Y-100313744D01*
X120714717Y-100226143D01*
X120714704Y-100226136D01*
X120569033Y-100165798D01*
X120569021Y-100165795D01*
X120414377Y-100135034D01*
X120414374Y-100135034D01*
X120256690Y-100135034D01*
X120256687Y-100135034D01*
X120102042Y-100165795D01*
X120102030Y-100165798D01*
X119956359Y-100226136D01*
X119956346Y-100226143D01*
X119825243Y-100313744D01*
X119825239Y-100313747D01*
X119713745Y-100425241D01*
X119713742Y-100425245D01*
X119626141Y-100556348D01*
X119626134Y-100556361D01*
X119565796Y-100702032D01*
X119565793Y-100702044D01*
X119535032Y-100856687D01*
X119535032Y-101020468D01*
X119533578Y-101020468D01*
X119521916Y-101081983D01*
X119473855Y-101132697D01*
X119411528Y-101149500D01*
X119099960Y-101149500D01*
X119032921Y-101129815D01*
X118987166Y-101077011D01*
X118978343Y-101049692D01*
X118957597Y-100945399D01*
X118957596Y-100945398D01*
X118957596Y-100945394D01*
X118957594Y-100945389D01*
X118897256Y-100799718D01*
X118897249Y-100799705D01*
X118809648Y-100668602D01*
X118809645Y-100668598D01*
X118697854Y-100556807D01*
X118664369Y-100495484D01*
X118669353Y-100425792D01*
X118682434Y-100400234D01*
X118710602Y-100358078D01*
X118710603Y-100358075D01*
X118710607Y-100358070D01*
X118770950Y-100212388D01*
X118801713Y-100057733D01*
X118801713Y-100016988D01*
X118821398Y-99949949D01*
X118856824Y-99913885D01*
X118886538Y-99894031D01*
X118998038Y-99782531D01*
X119085643Y-99651421D01*
X119145986Y-99505739D01*
X119176749Y-99351084D01*
X119176749Y-99193400D01*
X119176749Y-99193397D01*
X119176748Y-99193395D01*
X119170000Y-99159469D01*
X119145986Y-99038745D01*
X119139314Y-99022638D01*
X119085646Y-98893069D01*
X119085639Y-98893056D01*
X118998038Y-98761953D01*
X118998035Y-98761949D01*
X118886541Y-98650455D01*
X118886537Y-98650452D01*
X118755434Y-98562851D01*
X118755421Y-98562844D01*
X118609750Y-98502506D01*
X118609738Y-98502503D01*
X118455094Y-98471742D01*
X118455091Y-98471742D01*
X118297407Y-98471742D01*
X118248690Y-98481432D01*
X118179099Y-98475203D01*
X118123922Y-98432340D01*
X118100678Y-98366450D01*
X118100500Y-98359814D01*
X118100500Y-91917847D01*
X118120185Y-91850808D01*
X118172989Y-91805053D01*
X118200309Y-91796230D01*
X118216291Y-91793050D01*
X118333497Y-91769737D01*
X118468185Y-91713948D01*
X118479172Y-91709397D01*
X118479172Y-91709396D01*
X118479179Y-91709394D01*
X118610289Y-91621789D01*
X118721789Y-91510289D01*
X118809394Y-91379179D01*
X118869737Y-91233497D01*
X118899360Y-91084574D01*
X118900638Y-91078150D01*
X118933023Y-91016239D01*
X118934518Y-91014716D01*
X119662416Y-90286819D01*
X119723739Y-90253334D01*
X119750097Y-90250500D01*
X122332152Y-90250500D01*
X122399191Y-90270185D01*
G37*
%TD.AperFunction*%
%TA.AperFunction,Conductor*%
G36*
X130342539Y-72800185D02*
G01*
X130388294Y-72852989D01*
X130399500Y-72904500D01*
X130399500Y-74607870D01*
X130399501Y-74607876D01*
X130405908Y-74667483D01*
X130456202Y-74802328D01*
X130456206Y-74802335D01*
X130542452Y-74917544D01*
X130542455Y-74917547D01*
X130657664Y-75003793D01*
X130657671Y-75003797D01*
X130789082Y-75052810D01*
X130845016Y-75094681D01*
X130869433Y-75160145D01*
X130854582Y-75228418D01*
X130833431Y-75256673D01*
X130719889Y-75370215D01*
X130594951Y-75542179D01*
X130498444Y-75731585D01*
X130432753Y-75933760D01*
X130399500Y-76143713D01*
X130399500Y-76356286D01*
X130429264Y-76544212D01*
X130432754Y-76566243D01*
X130466773Y-76670943D01*
X130498444Y-76768414D01*
X130594951Y-76957820D01*
X130719890Y-77129786D01*
X130870213Y-77280109D01*
X131042179Y-77405048D01*
X131042181Y-77405049D01*
X131042184Y-77405051D01*
X131051493Y-77409794D01*
X131102290Y-77457766D01*
X131119087Y-77525587D01*
X131096552Y-77591722D01*
X131051505Y-77630760D01*
X131042446Y-77635376D01*
X131042440Y-77635380D01*
X130988282Y-77674727D01*
X130988282Y-77674728D01*
X131620591Y-78307037D01*
X131557007Y-78324075D01*
X131442993Y-78389901D01*
X131349901Y-78482993D01*
X131284075Y-78597007D01*
X131267037Y-78660591D01*
X130634728Y-78028282D01*
X130634727Y-78028282D01*
X130595380Y-78082439D01*
X130498904Y-78271782D01*
X130433242Y-78473869D01*
X130433242Y-78473872D01*
X130400000Y-78683753D01*
X130400000Y-78896246D01*
X130433242Y-79106127D01*
X130433242Y-79106130D01*
X130498904Y-79308217D01*
X130595375Y-79497550D01*
X130634728Y-79551716D01*
X131267037Y-78919408D01*
X131284075Y-78982993D01*
X131349901Y-79097007D01*
X131442993Y-79190099D01*
X131557007Y-79255925D01*
X131620589Y-79272962D01*
X130988282Y-79905269D01*
X130988282Y-79905270D01*
X131042452Y-79944626D01*
X131042451Y-79944626D01*
X131051495Y-79949234D01*
X131102292Y-79997208D01*
X131119087Y-80065029D01*
X131096550Y-80131164D01*
X131051499Y-80170202D01*
X131042182Y-80174949D01*
X130870213Y-80299890D01*
X130719890Y-80450213D01*
X130594951Y-80622179D01*
X130498444Y-80811585D01*
X130432753Y-81013760D01*
X130399500Y-81223713D01*
X130399500Y-81436286D01*
X130432753Y-81646239D01*
X130498444Y-81848414D01*
X130594951Y-82037820D01*
X130719890Y-82209786D01*
X130870213Y-82360109D01*
X131042182Y-82485050D01*
X131050946Y-82489516D01*
X131101742Y-82537491D01*
X131118536Y-82605312D01*
X131095998Y-82671447D01*
X131050946Y-82710484D01*
X131042182Y-82714949D01*
X130870213Y-82839890D01*
X130719890Y-82990213D01*
X130594951Y-83162179D01*
X130498444Y-83351585D01*
X130432753Y-83553760D01*
X130399500Y-83763713D01*
X130399500Y-83976286D01*
X130432754Y-84186246D01*
X130456300Y-84258714D01*
X130458295Y-84328555D01*
X130426050Y-84384712D01*
X128947584Y-85863181D01*
X128886261Y-85896666D01*
X128859903Y-85899500D01*
X124079766Y-85899500D01*
X124012727Y-85879815D01*
X124010875Y-85878602D01*
X123879185Y-85790609D01*
X123879172Y-85790602D01*
X123733501Y-85730264D01*
X123733489Y-85730261D01*
X123578845Y-85699500D01*
X123578842Y-85699500D01*
X123421158Y-85699500D01*
X123421155Y-85699500D01*
X123266510Y-85730261D01*
X123266498Y-85730264D01*
X123120827Y-85790602D01*
X123120814Y-85790609D01*
X122989711Y-85878210D01*
X122989707Y-85878213D01*
X122878213Y-85989707D01*
X122878210Y-85989711D01*
X122790609Y-86120814D01*
X122790602Y-86120827D01*
X122730264Y-86266498D01*
X122730261Y-86266510D01*
X122699500Y-86421153D01*
X122699500Y-86578846D01*
X122730261Y-86733489D01*
X122730264Y-86733501D01*
X122790602Y-86879172D01*
X122790609Y-86879185D01*
X122878210Y-87010288D01*
X122878213Y-87010292D01*
X122989707Y-87121786D01*
X122989711Y-87121789D01*
X123120814Y-87209390D01*
X123120827Y-87209397D01*
X123215799Y-87248735D01*
X123266503Y-87269737D01*
X123367326Y-87289792D01*
X123421153Y-87300499D01*
X123421156Y-87300500D01*
X123421158Y-87300500D01*
X123578844Y-87300500D01*
X123578845Y-87300499D01*
X123733497Y-87269737D01*
X123879179Y-87209394D01*
X123956371Y-87157816D01*
X124010875Y-87121398D01*
X124077553Y-87100520D01*
X124079766Y-87100500D01*
X129073331Y-87100500D01*
X129073347Y-87100501D01*
X129080943Y-87100501D01*
X129239054Y-87100501D01*
X129239057Y-87100501D01*
X129391785Y-87059577D01*
X129441904Y-87030639D01*
X129528716Y-86980520D01*
X129640520Y-86868716D01*
X129640520Y-86868714D01*
X129650728Y-86858507D01*
X129650730Y-86858504D01*
X130187819Y-86321415D01*
X130249142Y-86287930D01*
X130318834Y-86292914D01*
X130374767Y-86334786D01*
X130399184Y-86400250D01*
X130399500Y-86409096D01*
X130399500Y-86516287D01*
X130432754Y-86726243D01*
X130475729Y-86858507D01*
X130498444Y-86928414D01*
X130594951Y-87117820D01*
X130719890Y-87289786D01*
X130870213Y-87440109D01*
X131042182Y-87565050D01*
X131050946Y-87569516D01*
X131101742Y-87617491D01*
X131118536Y-87685312D01*
X131095998Y-87751447D01*
X131050946Y-87790484D01*
X131042182Y-87794949D01*
X130870213Y-87919890D01*
X130719890Y-88070213D01*
X130594951Y-88242179D01*
X130498444Y-88431585D01*
X130432753Y-88633760D01*
X130399500Y-88843713D01*
X130399500Y-89056286D01*
X130432753Y-89266239D01*
X130498444Y-89468414D01*
X130594951Y-89657820D01*
X130719890Y-89829786D01*
X130870213Y-89980109D01*
X131042179Y-90105048D01*
X131042181Y-90105049D01*
X131042184Y-90105051D01*
X131051493Y-90109794D01*
X131102290Y-90157766D01*
X131119087Y-90225587D01*
X131096552Y-90291722D01*
X131051505Y-90330760D01*
X131042446Y-90335376D01*
X131042440Y-90335380D01*
X130988282Y-90374727D01*
X130988282Y-90374728D01*
X131620591Y-91007037D01*
X131557007Y-91024075D01*
X131442993Y-91089901D01*
X131349901Y-91182993D01*
X131284075Y-91297007D01*
X131267037Y-91360591D01*
X130634728Y-90728282D01*
X130634727Y-90728282D01*
X130595380Y-90782439D01*
X130498904Y-90971782D01*
X130433242Y-91173869D01*
X130433242Y-91173872D01*
X130400000Y-91383753D01*
X130400000Y-91596246D01*
X130433242Y-91806127D01*
X130433242Y-91806130D01*
X130498904Y-92008217D01*
X130595375Y-92197550D01*
X130634728Y-92251716D01*
X131267037Y-91619408D01*
X131284075Y-91682993D01*
X131349901Y-91797007D01*
X131442993Y-91890099D01*
X131557007Y-91955925D01*
X131620589Y-91972962D01*
X130988282Y-92605269D01*
X130988282Y-92605270D01*
X131042452Y-92644626D01*
X131042451Y-92644626D01*
X131051495Y-92649234D01*
X131102292Y-92697208D01*
X131119087Y-92765029D01*
X131096550Y-92831164D01*
X131051499Y-92870202D01*
X131042182Y-92874949D01*
X130870213Y-92999890D01*
X130719890Y-93150213D01*
X130594951Y-93322179D01*
X130498444Y-93511585D01*
X130432753Y-93713760D01*
X130399500Y-93923713D01*
X130399500Y-94136286D01*
X130432754Y-94346246D01*
X130456300Y-94418715D01*
X130458295Y-94488556D01*
X130426050Y-94544713D01*
X128881286Y-96089478D01*
X128769481Y-96201282D01*
X128769479Y-96201285D01*
X128747294Y-96239711D01*
X128725093Y-96278165D01*
X128690423Y-96338215D01*
X128685349Y-96357149D01*
X128679548Y-96368618D01*
X128664071Y-96385100D01*
X128652305Y-96404402D01*
X128640616Y-96410079D01*
X128631721Y-96419553D01*
X128609791Y-96425051D01*
X128589457Y-96434928D01*
X128576553Y-96433384D01*
X128563949Y-96436545D01*
X128542528Y-96429314D01*
X128520082Y-96426630D01*
X128510062Y-96418356D01*
X128497749Y-96414200D01*
X128483637Y-96396536D01*
X128466206Y-96382142D01*
X128459538Y-96371090D01*
X128459392Y-96370817D01*
X128371789Y-96239711D01*
X128371786Y-96239707D01*
X128260292Y-96128213D01*
X128260288Y-96128210D01*
X128129185Y-96040609D01*
X128129172Y-96040602D01*
X127983501Y-95980264D01*
X127983491Y-95980261D01*
X127828149Y-95949361D01*
X127766238Y-95916976D01*
X127764660Y-95915425D01*
X125902091Y-94052856D01*
X125868606Y-93991533D01*
X125873590Y-93921841D01*
X125915462Y-93865908D01*
X125920866Y-93862082D01*
X125968653Y-93830153D01*
X126080153Y-93718653D01*
X126167758Y-93587543D01*
X126228101Y-93441861D01*
X126258864Y-93287206D01*
X126258864Y-93129522D01*
X126258864Y-93129519D01*
X126258863Y-93129517D01*
X126242823Y-93048881D01*
X126228101Y-92974867D01*
X126220916Y-92957521D01*
X126167761Y-92829191D01*
X126167754Y-92829178D01*
X126079762Y-92697489D01*
X126058884Y-92630811D01*
X126058864Y-92628598D01*
X126058864Y-91530780D01*
X126058864Y-91530778D01*
X126018244Y-91379179D01*
X126017941Y-91378050D01*
X125977571Y-91308127D01*
X125974803Y-91303332D01*
X125974799Y-91303324D01*
X125938888Y-91241125D01*
X125938885Y-91241121D01*
X125938884Y-91241119D01*
X125827080Y-91129315D01*
X125827079Y-91129314D01*
X125822749Y-91124984D01*
X125822738Y-91124974D01*
X123986119Y-89288355D01*
X123986117Y-89288352D01*
X123867246Y-89169481D01*
X123867245Y-89169480D01*
X123780433Y-89119360D01*
X123780433Y-89119359D01*
X123780429Y-89119358D01*
X123730314Y-89090423D01*
X123577586Y-89049499D01*
X123419472Y-89049499D01*
X123411876Y-89049499D01*
X123411860Y-89049500D01*
X119529057Y-89049500D01*
X119370942Y-89049500D01*
X119218215Y-89090423D01*
X119218214Y-89090423D01*
X119218212Y-89090424D01*
X119218209Y-89090425D01*
X119168096Y-89119359D01*
X119168095Y-89119360D01*
X119124689Y-89144420D01*
X119081285Y-89169479D01*
X119081282Y-89169481D01*
X118312181Y-89938583D01*
X118250858Y-89972068D01*
X118181166Y-89967084D01*
X118125233Y-89925212D01*
X118100816Y-89859748D01*
X118100500Y-89850902D01*
X118100500Y-80957935D01*
X118120185Y-80890896D01*
X118172989Y-80845141D01*
X118242147Y-80835197D01*
X118271952Y-80843374D01*
X118388308Y-80891569D01*
X118430000Y-80899862D01*
X118430000Y-80096988D01*
X118439940Y-80114205D01*
X118495795Y-80170060D01*
X118564204Y-80209556D01*
X118640504Y-80230000D01*
X118719496Y-80230000D01*
X118795796Y-80209556D01*
X118864205Y-80170060D01*
X118920060Y-80114205D01*
X118930000Y-80096988D01*
X118930000Y-80899862D01*
X118971690Y-80891569D01*
X118971692Y-80891569D01*
X119153671Y-80816192D01*
X119153684Y-80816185D01*
X119317462Y-80706751D01*
X119317466Y-80706748D01*
X119456748Y-80567466D01*
X119456751Y-80567462D01*
X119566185Y-80403684D01*
X119566192Y-80403671D01*
X119641569Y-80221693D01*
X119641572Y-80221681D01*
X119679999Y-80028495D01*
X119680000Y-80028492D01*
X119680000Y-79630000D01*
X118980000Y-79630000D01*
X118980000Y-79130000D01*
X119535536Y-79130000D01*
X119602575Y-79149685D01*
X119642923Y-79192000D01*
X119649482Y-79203361D01*
X119649484Y-79203364D01*
X119649485Y-79203365D01*
X119756635Y-79310515D01*
X119887865Y-79386281D01*
X120034234Y-79425500D01*
X120034236Y-79425500D01*
X120185764Y-79425500D01*
X120185766Y-79425500D01*
X120332135Y-79386281D01*
X120463365Y-79310515D01*
X120570515Y-79203365D01*
X120646281Y-79072135D01*
X120685500Y-78925766D01*
X120685500Y-78774234D01*
X120657880Y-78671153D01*
X123699500Y-78671153D01*
X123699500Y-78828846D01*
X123730261Y-78983489D01*
X123730264Y-78983501D01*
X123790602Y-79129172D01*
X123790609Y-79129185D01*
X123878602Y-79260874D01*
X123899480Y-79327551D01*
X123899500Y-79329765D01*
X123899500Y-80734800D01*
X123899499Y-80734818D01*
X123899499Y-80900524D01*
X123899498Y-80900524D01*
X123899499Y-80900527D01*
X123940423Y-81053255D01*
X123940692Y-81053721D01*
X123940703Y-81053762D01*
X123940713Y-81053757D01*
X124019477Y-81190182D01*
X124019481Y-81190187D01*
X124138349Y-81309055D01*
X124138355Y-81309060D01*
X124379690Y-81550395D01*
X124413175Y-81611718D01*
X124413626Y-81613884D01*
X124444526Y-81769226D01*
X124444529Y-81769236D01*
X124504867Y-81914907D01*
X124504874Y-81914920D01*
X124592475Y-82046023D01*
X124592478Y-82046027D01*
X124703972Y-82157521D01*
X124703976Y-82157524D01*
X124835079Y-82245125D01*
X124835092Y-82245132D01*
X124980763Y-82305470D01*
X124980768Y-82305472D01*
X125135418Y-82336234D01*
X125135421Y-82336235D01*
X125135423Y-82336235D01*
X125293109Y-82336235D01*
X125293110Y-82336234D01*
X125447762Y-82305472D01*
X125560431Y-82258802D01*
X125593437Y-82245132D01*
X125593437Y-82245131D01*
X125593444Y-82245129D01*
X125724554Y-82157524D01*
X125836054Y-82046024D01*
X125923659Y-81914914D01*
X125984002Y-81769232D01*
X126014765Y-81614577D01*
X126014765Y-81456893D01*
X126014765Y-81456890D01*
X126014764Y-81456888D01*
X125984003Y-81302245D01*
X125984002Y-81302238D01*
X125951476Y-81223713D01*
X125923662Y-81156562D01*
X125923655Y-81156549D01*
X125836054Y-81025446D01*
X125836051Y-81025442D01*
X125724557Y-80913948D01*
X125724553Y-80913945D01*
X125593450Y-80826344D01*
X125593437Y-80826337D01*
X125447766Y-80765999D01*
X125447756Y-80765996D01*
X125292414Y-80735096D01*
X125275657Y-80726330D01*
X125257179Y-80722311D01*
X125232142Y-80703568D01*
X125230503Y-80702711D01*
X125228925Y-80701160D01*
X125136819Y-80609054D01*
X125103334Y-80547731D01*
X125100500Y-80521373D01*
X125100500Y-79329765D01*
X125105827Y-79311621D01*
X125106165Y-79292712D01*
X125119665Y-79264494D01*
X125120185Y-79262726D01*
X125121398Y-79260874D01*
X125193702Y-79152664D01*
X125247314Y-79107859D01*
X125316639Y-79099152D01*
X125379667Y-79129307D01*
X125404189Y-79159552D01*
X125429485Y-79203365D01*
X125536635Y-79310515D01*
X125667865Y-79386281D01*
X125814234Y-79425500D01*
X125814236Y-79425500D01*
X125965764Y-79425500D01*
X125965766Y-79425500D01*
X126112135Y-79386281D01*
X126243365Y-79310515D01*
X126350515Y-79203365D01*
X126357077Y-79192000D01*
X126407644Y-79143784D01*
X126464464Y-79130000D01*
X127020000Y-79130000D01*
X127020000Y-79630000D01*
X126320000Y-79630000D01*
X126320000Y-80028495D01*
X126358427Y-80221681D01*
X126358430Y-80221693D01*
X126433807Y-80403671D01*
X126433814Y-80403684D01*
X126543248Y-80567462D01*
X126543251Y-80567466D01*
X126682533Y-80706748D01*
X126682537Y-80706751D01*
X126846315Y-80816185D01*
X126846328Y-80816192D01*
X127028308Y-80891569D01*
X127070000Y-80899862D01*
X127070000Y-80096988D01*
X127079940Y-80114205D01*
X127135795Y-80170060D01*
X127204204Y-80209556D01*
X127280504Y-80230000D01*
X127359496Y-80230000D01*
X127435796Y-80209556D01*
X127504205Y-80170060D01*
X127560060Y-80114205D01*
X127570000Y-80096988D01*
X127570000Y-80899862D01*
X127611690Y-80891569D01*
X127611692Y-80891569D01*
X127793671Y-80816192D01*
X127793684Y-80816185D01*
X127957462Y-80706751D01*
X127957466Y-80706748D01*
X128096748Y-80567466D01*
X128096751Y-80567462D01*
X128206185Y-80403684D01*
X128206192Y-80403671D01*
X128281569Y-80221693D01*
X128281572Y-80221681D01*
X128319999Y-80028495D01*
X128320000Y-80028492D01*
X128320000Y-79630000D01*
X127620000Y-79630000D01*
X127620000Y-79130000D01*
X128320000Y-79130000D01*
X128320000Y-78731508D01*
X128319999Y-78731505D01*
X128314344Y-78703072D01*
X128281572Y-78538318D01*
X128281569Y-78538306D01*
X128206192Y-78356328D01*
X128206185Y-78356315D01*
X128096751Y-78192537D01*
X128096748Y-78192533D01*
X127957466Y-78053251D01*
X127957462Y-78053248D01*
X127793684Y-77943814D01*
X127793671Y-77943807D01*
X127611691Y-77868429D01*
X127611683Y-77868427D01*
X127570000Y-77860135D01*
X127570000Y-78663011D01*
X127560060Y-78645795D01*
X127504205Y-78589940D01*
X127435796Y-78550444D01*
X127359496Y-78530000D01*
X127280504Y-78530000D01*
X127204204Y-78550444D01*
X127135795Y-78589940D01*
X127079940Y-78645795D01*
X127070000Y-78663011D01*
X127070000Y-77860136D01*
X127069999Y-77860135D01*
X127028316Y-77868427D01*
X127028308Y-77868429D01*
X126846328Y-77943807D01*
X126846315Y-77943814D01*
X126682537Y-78053248D01*
X126682533Y-78053251D01*
X126543248Y-78192536D01*
X126430427Y-78361387D01*
X126429003Y-78360435D01*
X126385742Y-78404451D01*
X126317600Y-78419892D01*
X126251927Y-78396041D01*
X126249907Y-78394306D01*
X126249811Y-78394432D01*
X126243367Y-78389487D01*
X126243365Y-78389485D01*
X126177750Y-78351602D01*
X126112136Y-78313719D01*
X126023613Y-78290000D01*
X125965766Y-78274500D01*
X125814234Y-78274500D01*
X125667863Y-78313719D01*
X125536635Y-78389485D01*
X125441931Y-78484189D01*
X125380607Y-78517673D01*
X125310916Y-78512689D01*
X125254983Y-78470817D01*
X125239689Y-78443959D01*
X125209397Y-78370827D01*
X125209390Y-78370814D01*
X125121789Y-78239711D01*
X125121786Y-78239707D01*
X125010292Y-78128213D01*
X125010288Y-78128210D01*
X124879185Y-78040609D01*
X124879172Y-78040602D01*
X124733501Y-77980264D01*
X124733489Y-77980261D01*
X124578845Y-77949500D01*
X124578842Y-77949500D01*
X124421158Y-77949500D01*
X124421155Y-77949500D01*
X124266510Y-77980261D01*
X124266498Y-77980264D01*
X124120827Y-78040602D01*
X124120814Y-78040609D01*
X123989711Y-78128210D01*
X123989707Y-78128213D01*
X123878213Y-78239707D01*
X123878210Y-78239711D01*
X123790609Y-78370814D01*
X123790602Y-78370827D01*
X123730264Y-78516498D01*
X123730261Y-78516510D01*
X123699500Y-78671153D01*
X120657880Y-78671153D01*
X120646281Y-78627865D01*
X120570515Y-78496635D01*
X120463365Y-78389485D01*
X120397750Y-78351602D01*
X120332136Y-78313719D01*
X120243613Y-78290000D01*
X120185766Y-78274500D01*
X120034234Y-78274500D01*
X119887863Y-78313719D01*
X119756635Y-78389485D01*
X119750189Y-78394432D01*
X119748099Y-78391709D01*
X119700217Y-78417466D01*
X119630558Y-78412043D01*
X119574888Y-78369821D01*
X119569299Y-78360976D01*
X119456751Y-78192537D01*
X119456748Y-78192533D01*
X119317466Y-78053251D01*
X119317462Y-78053248D01*
X119153684Y-77943814D01*
X119153671Y-77943807D01*
X118971691Y-77868429D01*
X118971683Y-77868427D01*
X118930000Y-77860135D01*
X118930000Y-78663011D01*
X118920060Y-78645795D01*
X118864205Y-78589940D01*
X118795796Y-78550444D01*
X118719496Y-78530000D01*
X118640504Y-78530000D01*
X118564204Y-78550444D01*
X118495795Y-78589940D01*
X118439940Y-78645795D01*
X118430000Y-78663011D01*
X118430000Y-77860136D01*
X118429999Y-77860135D01*
X118388316Y-77868427D01*
X118388308Y-77868429D01*
X118271952Y-77916625D01*
X118202482Y-77924094D01*
X118140003Y-77892818D01*
X118104352Y-77832729D01*
X118100500Y-77802064D01*
X118100500Y-76670945D01*
X118100500Y-76670943D01*
X118066543Y-76544211D01*
X118068206Y-76474362D01*
X118107369Y-76416500D01*
X118171598Y-76388996D01*
X118233771Y-76397558D01*
X118388310Y-76461570D01*
X118430000Y-76469862D01*
X118430000Y-75666988D01*
X118439940Y-75684205D01*
X118495795Y-75740060D01*
X118564204Y-75779556D01*
X118640504Y-75800000D01*
X118719496Y-75800000D01*
X118795796Y-75779556D01*
X118864205Y-75740060D01*
X118920060Y-75684205D01*
X118930000Y-75666988D01*
X118930000Y-76469862D01*
X118971690Y-76461569D01*
X118971692Y-76461569D01*
X119153671Y-76386192D01*
X119153684Y-76386185D01*
X119317462Y-76276751D01*
X119317466Y-76276748D01*
X119456748Y-76137466D01*
X119456751Y-76137462D01*
X119566185Y-75973684D01*
X119566192Y-75973671D01*
X119641569Y-75791693D01*
X119641572Y-75791681D01*
X119679999Y-75598495D01*
X119680000Y-75598492D01*
X119680000Y-75450000D01*
X118980000Y-75450000D01*
X118980000Y-74950000D01*
X119680000Y-74950000D01*
X119680000Y-74801508D01*
X119679999Y-74801504D01*
X126320000Y-74801504D01*
X126320000Y-74950000D01*
X127020000Y-74950000D01*
X127020000Y-75450000D01*
X126320000Y-75450000D01*
X126320000Y-75598495D01*
X126358427Y-75791681D01*
X126358430Y-75791693D01*
X126433807Y-75973671D01*
X126433814Y-75973684D01*
X126543248Y-76137462D01*
X126543251Y-76137466D01*
X126682533Y-76276748D01*
X126682537Y-76276751D01*
X126846315Y-76386185D01*
X126846328Y-76386192D01*
X127028308Y-76461569D01*
X127070000Y-76469862D01*
X127070000Y-75666988D01*
X127079940Y-75684205D01*
X127135795Y-75740060D01*
X127204204Y-75779556D01*
X127280504Y-75800000D01*
X127359496Y-75800000D01*
X127435796Y-75779556D01*
X127504205Y-75740060D01*
X127560060Y-75684205D01*
X127570000Y-75666988D01*
X127570000Y-76469862D01*
X127611690Y-76461569D01*
X127611692Y-76461569D01*
X127793671Y-76386192D01*
X127793684Y-76386185D01*
X127957462Y-76276751D01*
X127957466Y-76276748D01*
X128096748Y-76137466D01*
X128096751Y-76137462D01*
X128206185Y-75973684D01*
X128206192Y-75973671D01*
X128281569Y-75791693D01*
X128281572Y-75791681D01*
X128319999Y-75598495D01*
X128320000Y-75598492D01*
X128320000Y-75450000D01*
X127620000Y-75450000D01*
X127620000Y-74950000D01*
X128320000Y-74950000D01*
X128320000Y-74801508D01*
X128319999Y-74801504D01*
X128281572Y-74608318D01*
X128281569Y-74608306D01*
X128206192Y-74426328D01*
X128206185Y-74426315D01*
X128096751Y-74262537D01*
X128096748Y-74262533D01*
X127957466Y-74123251D01*
X127957462Y-74123248D01*
X127793684Y-74013814D01*
X127793671Y-74013807D01*
X127611691Y-73938429D01*
X127611683Y-73938427D01*
X127570000Y-73930135D01*
X127570000Y-74733011D01*
X127560060Y-74715795D01*
X127504205Y-74659940D01*
X127435796Y-74620444D01*
X127359496Y-74600000D01*
X127280504Y-74600000D01*
X127204204Y-74620444D01*
X127135795Y-74659940D01*
X127079940Y-74715795D01*
X127070000Y-74733011D01*
X127070000Y-73930136D01*
X127069999Y-73930135D01*
X127028316Y-73938427D01*
X127028308Y-73938429D01*
X126846328Y-74013807D01*
X126846315Y-74013814D01*
X126682537Y-74123248D01*
X126682533Y-74123251D01*
X126543251Y-74262533D01*
X126543248Y-74262537D01*
X126433814Y-74426315D01*
X126433807Y-74426328D01*
X126358430Y-74608306D01*
X126358427Y-74608318D01*
X126320000Y-74801504D01*
X119679999Y-74801504D01*
X119641572Y-74608318D01*
X119641569Y-74608306D01*
X119566192Y-74426328D01*
X119566185Y-74426315D01*
X119456751Y-74262537D01*
X119456748Y-74262533D01*
X119317466Y-74123251D01*
X119317462Y-74123248D01*
X119153684Y-74013814D01*
X119153671Y-74013807D01*
X118971691Y-73938429D01*
X118971683Y-73938427D01*
X118930000Y-73930135D01*
X118930000Y-74733011D01*
X118920060Y-74715795D01*
X118864205Y-74659940D01*
X118795796Y-74620444D01*
X118719496Y-74600000D01*
X118640504Y-74600000D01*
X118564204Y-74620444D01*
X118495795Y-74659940D01*
X118439940Y-74715795D01*
X118430000Y-74733011D01*
X118430000Y-73930136D01*
X118429999Y-73930135D01*
X118388316Y-73938427D01*
X118388308Y-73938429D01*
X118206328Y-74013807D01*
X118206315Y-74013814D01*
X118042537Y-74123248D01*
X118042533Y-74123251D01*
X117903251Y-74262533D01*
X117903248Y-74262537D01*
X117793814Y-74426315D01*
X117793807Y-74426328D01*
X117718430Y-74608306D01*
X117718427Y-74608318D01*
X117680000Y-74801504D01*
X117680000Y-74950000D01*
X118380000Y-74950000D01*
X118380000Y-75450000D01*
X117680000Y-75450000D01*
X117680000Y-75598495D01*
X117719617Y-75797664D01*
X117717427Y-75798099D01*
X117717951Y-75857968D01*
X117680692Y-75917074D01*
X117617393Y-75946654D01*
X117548150Y-75937316D01*
X117510992Y-75911756D01*
X117408717Y-75809481D01*
X117408716Y-75809480D01*
X117321904Y-75759360D01*
X117321904Y-75759359D01*
X117321900Y-75759358D01*
X117271785Y-75730423D01*
X117119057Y-75689499D01*
X116960943Y-75689499D01*
X116953347Y-75689499D01*
X116953331Y-75689500D01*
X115035719Y-75689500D01*
X114968680Y-75669815D01*
X114925235Y-75621795D01*
X114905052Y-75582185D01*
X114905051Y-75582184D01*
X114780109Y-75410213D01*
X114666569Y-75296673D01*
X114633084Y-75235350D01*
X114638068Y-75165658D01*
X114679940Y-75109725D01*
X114710915Y-75092810D01*
X114842331Y-75043796D01*
X114957546Y-74957546D01*
X115043796Y-74842331D01*
X115094091Y-74707483D01*
X115100500Y-74647873D01*
X115100499Y-72904499D01*
X115120184Y-72837461D01*
X115172987Y-72791706D01*
X115224499Y-72780500D01*
X130275500Y-72780500D01*
X130342539Y-72800185D01*
G37*
%TD.AperFunction*%
%TA.AperFunction,Conductor*%
G36*
X114865270Y-92291717D02*
G01*
X114865270Y-92291716D01*
X114904622Y-92237554D01*
X115001093Y-92048221D01*
X115007568Y-92028294D01*
X115047005Y-91970618D01*
X115111363Y-91943419D01*
X115180210Y-91955333D01*
X115231686Y-92002576D01*
X115249500Y-92066611D01*
X115249500Y-93345500D01*
X115246949Y-93354185D01*
X115248238Y-93363147D01*
X115237259Y-93387187D01*
X115229815Y-93412539D01*
X115222974Y-93418466D01*
X115219213Y-93426703D01*
X115196978Y-93440992D01*
X115177011Y-93458294D01*
X115166496Y-93460581D01*
X115160435Y-93464477D01*
X115125500Y-93469500D01*
X115035719Y-93469500D01*
X114968680Y-93449815D01*
X114925235Y-93401795D01*
X114905052Y-93362185D01*
X114905051Y-93362184D01*
X114780109Y-93190213D01*
X114629786Y-93039890D01*
X114457817Y-92914949D01*
X114448504Y-92910204D01*
X114397707Y-92862230D01*
X114380912Y-92794409D01*
X114403449Y-92728274D01*
X114448507Y-92689232D01*
X114457555Y-92684622D01*
X114511716Y-92645270D01*
X114511717Y-92645270D01*
X113879409Y-92012962D01*
X113942993Y-91995925D01*
X114057007Y-91930099D01*
X114150099Y-91837007D01*
X114215925Y-91722993D01*
X114232962Y-91659409D01*
X114865270Y-92291717D01*
G37*
%TD.AperFunction*%
%TA.AperFunction,Conductor*%
G36*
X115106942Y-89610185D02*
G01*
X115127584Y-89626819D01*
X115213181Y-89712416D01*
X115246666Y-89773739D01*
X115249500Y-89800097D01*
X115249500Y-90993388D01*
X115229815Y-91060427D01*
X115177011Y-91106182D01*
X115107853Y-91116126D01*
X115044297Y-91087101D01*
X115007569Y-91031706D01*
X115001095Y-91011782D01*
X114904624Y-90822449D01*
X114865270Y-90768282D01*
X114865269Y-90768282D01*
X114232962Y-91400590D01*
X114215925Y-91337007D01*
X114150099Y-91222993D01*
X114057007Y-91129901D01*
X113942993Y-91064075D01*
X113879407Y-91047036D01*
X114511716Y-90414728D01*
X114457547Y-90375373D01*
X114457547Y-90375372D01*
X114448500Y-90370763D01*
X114397706Y-90322788D01*
X114380912Y-90254966D01*
X114403451Y-90188832D01*
X114448508Y-90149793D01*
X114457816Y-90145051D01*
X114537007Y-90087515D01*
X114629786Y-90020109D01*
X114629788Y-90020106D01*
X114629792Y-90020104D01*
X114780104Y-89869792D01*
X114780106Y-89869788D01*
X114780109Y-89869786D01*
X114868056Y-89748735D01*
X114905051Y-89697816D01*
X114905349Y-89697230D01*
X114925235Y-89658205D01*
X114935683Y-89647142D01*
X114942006Y-89633297D01*
X114959187Y-89622255D01*
X114973209Y-89607409D01*
X114988888Y-89603167D01*
X115000784Y-89595523D01*
X115035719Y-89590500D01*
X115039903Y-89590500D01*
X115106942Y-89610185D01*
G37*
%TD.AperFunction*%
%TA.AperFunction,Conductor*%
G36*
X116806942Y-76910185D02*
G01*
X116827584Y-76926819D01*
X116863181Y-76962416D01*
X116896666Y-77023739D01*
X116899500Y-77050097D01*
X116899500Y-80709800D01*
X116879815Y-80776839D01*
X116827011Y-80822594D01*
X116757853Y-80832538D01*
X116713499Y-80817186D01*
X116701785Y-80810423D01*
X116549057Y-80769499D01*
X116390943Y-80769499D01*
X116383347Y-80769499D01*
X116383331Y-80769500D01*
X115035719Y-80769500D01*
X114968680Y-80749815D01*
X114925235Y-80701795D01*
X114905052Y-80662185D01*
X114905051Y-80662184D01*
X114780109Y-80490213D01*
X114629786Y-80339890D01*
X114457817Y-80214949D01*
X114448504Y-80210204D01*
X114397707Y-80162230D01*
X114380912Y-80094409D01*
X114403449Y-80028274D01*
X114448507Y-79989232D01*
X114457555Y-79984622D01*
X114511716Y-79945270D01*
X114511717Y-79945270D01*
X113879409Y-79312962D01*
X113942993Y-79295925D01*
X114057007Y-79230099D01*
X114150099Y-79137007D01*
X114215925Y-79022993D01*
X114232962Y-78959409D01*
X114865270Y-79591717D01*
X114865270Y-79591716D01*
X114904622Y-79537554D01*
X115001095Y-79348217D01*
X115066757Y-79146130D01*
X115066757Y-79146127D01*
X115100000Y-78936246D01*
X115100000Y-78723753D01*
X115066757Y-78513872D01*
X115066757Y-78513869D01*
X115001095Y-78311782D01*
X114904624Y-78122449D01*
X114865270Y-78068282D01*
X114865269Y-78068282D01*
X114232962Y-78700590D01*
X114215925Y-78637007D01*
X114150099Y-78522993D01*
X114057007Y-78429901D01*
X113942993Y-78364075D01*
X113879407Y-78347036D01*
X114511716Y-77714728D01*
X114457547Y-77675373D01*
X114457547Y-77675372D01*
X114448500Y-77670763D01*
X114397706Y-77622788D01*
X114380912Y-77554966D01*
X114403451Y-77488832D01*
X114448508Y-77449793D01*
X114457816Y-77445051D01*
X114537007Y-77387515D01*
X114629786Y-77320109D01*
X114629788Y-77320106D01*
X114629792Y-77320104D01*
X114780104Y-77169792D01*
X114780106Y-77169788D01*
X114780109Y-77169786D01*
X114867067Y-77050097D01*
X114905051Y-76997816D01*
X114905349Y-76997230D01*
X114925235Y-76958205D01*
X114973209Y-76907409D01*
X115035719Y-76890500D01*
X116739903Y-76890500D01*
X116806942Y-76910185D01*
G37*
%TD.AperFunction*%
%TD*%
M02*
