%TF.GenerationSoftware,KiCad,Pcbnew,10.0.2*%
%TF.CreationDate,2026-06-28T20:29:23+05:30*%
%TF.ProjectId,dev board,64657620-626f-4617-9264-2e6b69636164,rev?*%
%TF.SameCoordinates,Original*%
%TF.FileFunction,Legend,Bot*%
%TF.FilePolarity,Positive*%
%FSLAX46Y46*%
G04 Gerber Fmt 4.6, Leading zero omitted, Abs format (unit mm)*
G04 Created by KiCad (PCBNEW 10.0.2) date 2026-06-28 20:29:23*
%MOMM*%
%LPD*%
G01*
G04 APERTURE LIST*
%ADD10C,0.300000*%
%ADD11C,0.250000*%
%ADD12C,0.000000*%
G04 APERTURE END LIST*
D10*
X127516917Y-79800828D02*
X127516917Y-80872257D01*
X127516917Y-80872257D02*
X127588346Y-81086542D01*
X127588346Y-81086542D02*
X127731203Y-81229400D01*
X127731203Y-81229400D02*
X127945489Y-81300828D01*
X127945489Y-81300828D02*
X128088346Y-81300828D01*
X126159775Y-80300828D02*
X126159775Y-81300828D01*
X126802632Y-80300828D02*
X126802632Y-81086542D01*
X126802632Y-81086542D02*
X126731203Y-81229400D01*
X126731203Y-81229400D02*
X126588346Y-81300828D01*
X126588346Y-81300828D02*
X126374060Y-81300828D01*
X126374060Y-81300828D02*
X126231203Y-81229400D01*
X126231203Y-81229400D02*
X126159775Y-81157971D01*
X125445489Y-80300828D02*
X125445489Y-81300828D01*
X125445489Y-80443685D02*
X125374060Y-80372257D01*
X125374060Y-80372257D02*
X125231203Y-80300828D01*
X125231203Y-80300828D02*
X125016917Y-80300828D01*
X125016917Y-80300828D02*
X124874060Y-80372257D01*
X124874060Y-80372257D02*
X124802632Y-80515114D01*
X124802632Y-80515114D02*
X124802632Y-81300828D01*
X123516917Y-81229400D02*
X123659774Y-81300828D01*
X123659774Y-81300828D02*
X123945489Y-81300828D01*
X123945489Y-81300828D02*
X124088346Y-81229400D01*
X124088346Y-81229400D02*
X124159774Y-81086542D01*
X124159774Y-81086542D02*
X124159774Y-80515114D01*
X124159774Y-80515114D02*
X124088346Y-80372257D01*
X124088346Y-80372257D02*
X123945489Y-80300828D01*
X123945489Y-80300828D02*
X123659774Y-80300828D01*
X123659774Y-80300828D02*
X123516917Y-80372257D01*
X123516917Y-80372257D02*
X123445489Y-80515114D01*
X123445489Y-80515114D02*
X123445489Y-80657971D01*
X123445489Y-80657971D02*
X124159774Y-80800828D01*
X121731203Y-79943685D02*
X121659775Y-79872257D01*
X121659775Y-79872257D02*
X121516918Y-79800828D01*
X121516918Y-79800828D02*
X121159775Y-79800828D01*
X121159775Y-79800828D02*
X121016918Y-79872257D01*
X121016918Y-79872257D02*
X120945489Y-79943685D01*
X120945489Y-79943685D02*
X120874060Y-80086542D01*
X120874060Y-80086542D02*
X120874060Y-80229400D01*
X120874060Y-80229400D02*
X120945489Y-80443685D01*
X120945489Y-80443685D02*
X121802632Y-81300828D01*
X121802632Y-81300828D02*
X120874060Y-81300828D01*
X119945489Y-79800828D02*
X119802632Y-79800828D01*
X119802632Y-79800828D02*
X119659775Y-79872257D01*
X119659775Y-79872257D02*
X119588347Y-79943685D01*
X119588347Y-79943685D02*
X119516918Y-80086542D01*
X119516918Y-80086542D02*
X119445489Y-80372257D01*
X119445489Y-80372257D02*
X119445489Y-80729400D01*
X119445489Y-80729400D02*
X119516918Y-81015114D01*
X119516918Y-81015114D02*
X119588347Y-81157971D01*
X119588347Y-81157971D02*
X119659775Y-81229400D01*
X119659775Y-81229400D02*
X119802632Y-81300828D01*
X119802632Y-81300828D02*
X119945489Y-81300828D01*
X119945489Y-81300828D02*
X120088347Y-81229400D01*
X120088347Y-81229400D02*
X120159775Y-81157971D01*
X120159775Y-81157971D02*
X120231204Y-81015114D01*
X120231204Y-81015114D02*
X120302632Y-80729400D01*
X120302632Y-80729400D02*
X120302632Y-80372257D01*
X120302632Y-80372257D02*
X120231204Y-80086542D01*
X120231204Y-80086542D02*
X120159775Y-79943685D01*
X120159775Y-79943685D02*
X120088347Y-79872257D01*
X120088347Y-79872257D02*
X119945489Y-79800828D01*
X118874061Y-79943685D02*
X118802633Y-79872257D01*
X118802633Y-79872257D02*
X118659776Y-79800828D01*
X118659776Y-79800828D02*
X118302633Y-79800828D01*
X118302633Y-79800828D02*
X118159776Y-79872257D01*
X118159776Y-79872257D02*
X118088347Y-79943685D01*
X118088347Y-79943685D02*
X118016918Y-80086542D01*
X118016918Y-80086542D02*
X118016918Y-80229400D01*
X118016918Y-80229400D02*
X118088347Y-80443685D01*
X118088347Y-80443685D02*
X118945490Y-81300828D01*
X118945490Y-81300828D02*
X118016918Y-81300828D01*
X116731205Y-79800828D02*
X117016919Y-79800828D01*
X117016919Y-79800828D02*
X117159776Y-79872257D01*
X117159776Y-79872257D02*
X117231205Y-79943685D01*
X117231205Y-79943685D02*
X117374062Y-80157971D01*
X117374062Y-80157971D02*
X117445490Y-80443685D01*
X117445490Y-80443685D02*
X117445490Y-81015114D01*
X117445490Y-81015114D02*
X117374062Y-81157971D01*
X117374062Y-81157971D02*
X117302633Y-81229400D01*
X117302633Y-81229400D02*
X117159776Y-81300828D01*
X117159776Y-81300828D02*
X116874062Y-81300828D01*
X116874062Y-81300828D02*
X116731205Y-81229400D01*
X116731205Y-81229400D02*
X116659776Y-81157971D01*
X116659776Y-81157971D02*
X116588347Y-81015114D01*
X116588347Y-81015114D02*
X116588347Y-80657971D01*
X116588347Y-80657971D02*
X116659776Y-80515114D01*
X116659776Y-80515114D02*
X116731205Y-80443685D01*
X116731205Y-80443685D02*
X116874062Y-80372257D01*
X116874062Y-80372257D02*
X117159776Y-80372257D01*
X117159776Y-80372257D02*
X117302633Y-80443685D01*
X117302633Y-80443685D02*
X117374062Y-80515114D01*
X117374062Y-80515114D02*
X117445490Y-80657971D01*
D11*
X128097431Y-77364619D02*
X128097431Y-76364619D01*
X128097431Y-76364619D02*
X127859336Y-76364619D01*
X127859336Y-76364619D02*
X127716479Y-76412238D01*
X127716479Y-76412238D02*
X127621241Y-76507476D01*
X127621241Y-76507476D02*
X127573622Y-76602714D01*
X127573622Y-76602714D02*
X127526003Y-76793190D01*
X127526003Y-76793190D02*
X127526003Y-76936047D01*
X127526003Y-76936047D02*
X127573622Y-77126523D01*
X127573622Y-77126523D02*
X127621241Y-77221761D01*
X127621241Y-77221761D02*
X127716479Y-77317000D01*
X127716479Y-77317000D02*
X127859336Y-77364619D01*
X127859336Y-77364619D02*
X128097431Y-77364619D01*
X127097431Y-76840809D02*
X126764098Y-76840809D01*
X126621241Y-77364619D02*
X127097431Y-77364619D01*
X127097431Y-77364619D02*
X127097431Y-76364619D01*
X127097431Y-76364619D02*
X126621241Y-76364619D01*
X126335526Y-76364619D02*
X126002193Y-77364619D01*
X126002193Y-77364619D02*
X125668860Y-76364619D01*
X124240288Y-76840809D02*
X124097431Y-76888428D01*
X124097431Y-76888428D02*
X124049812Y-76936047D01*
X124049812Y-76936047D02*
X124002193Y-77031285D01*
X124002193Y-77031285D02*
X124002193Y-77174142D01*
X124002193Y-77174142D02*
X124049812Y-77269380D01*
X124049812Y-77269380D02*
X124097431Y-77317000D01*
X124097431Y-77317000D02*
X124192669Y-77364619D01*
X124192669Y-77364619D02*
X124573621Y-77364619D01*
X124573621Y-77364619D02*
X124573621Y-76364619D01*
X124573621Y-76364619D02*
X124240288Y-76364619D01*
X124240288Y-76364619D02*
X124145050Y-76412238D01*
X124145050Y-76412238D02*
X124097431Y-76459857D01*
X124097431Y-76459857D02*
X124049812Y-76555095D01*
X124049812Y-76555095D02*
X124049812Y-76650333D01*
X124049812Y-76650333D02*
X124097431Y-76745571D01*
X124097431Y-76745571D02*
X124145050Y-76793190D01*
X124145050Y-76793190D02*
X124240288Y-76840809D01*
X124240288Y-76840809D02*
X124573621Y-76840809D01*
X123383145Y-76364619D02*
X123192669Y-76364619D01*
X123192669Y-76364619D02*
X123097431Y-76412238D01*
X123097431Y-76412238D02*
X123002193Y-76507476D01*
X123002193Y-76507476D02*
X122954574Y-76697952D01*
X122954574Y-76697952D02*
X122954574Y-77031285D01*
X122954574Y-77031285D02*
X123002193Y-77221761D01*
X123002193Y-77221761D02*
X123097431Y-77317000D01*
X123097431Y-77317000D02*
X123192669Y-77364619D01*
X123192669Y-77364619D02*
X123383145Y-77364619D01*
X123383145Y-77364619D02*
X123478383Y-77317000D01*
X123478383Y-77317000D02*
X123573621Y-77221761D01*
X123573621Y-77221761D02*
X123621240Y-77031285D01*
X123621240Y-77031285D02*
X123621240Y-76697952D01*
X123621240Y-76697952D02*
X123573621Y-76507476D01*
X123573621Y-76507476D02*
X123478383Y-76412238D01*
X123478383Y-76412238D02*
X123383145Y-76364619D01*
X122573621Y-77078904D02*
X122097431Y-77078904D01*
X122668859Y-77364619D02*
X122335526Y-76364619D01*
X122335526Y-76364619D02*
X122002193Y-77364619D01*
X121097431Y-77364619D02*
X121430764Y-76888428D01*
X121668859Y-77364619D02*
X121668859Y-76364619D01*
X121668859Y-76364619D02*
X121287907Y-76364619D01*
X121287907Y-76364619D02*
X121192669Y-76412238D01*
X121192669Y-76412238D02*
X121145050Y-76459857D01*
X121145050Y-76459857D02*
X121097431Y-76555095D01*
X121097431Y-76555095D02*
X121097431Y-76697952D01*
X121097431Y-76697952D02*
X121145050Y-76793190D01*
X121145050Y-76793190D02*
X121192669Y-76840809D01*
X121192669Y-76840809D02*
X121287907Y-76888428D01*
X121287907Y-76888428D02*
X121668859Y-76888428D01*
X120668859Y-77364619D02*
X120668859Y-76364619D01*
X120668859Y-76364619D02*
X120430764Y-76364619D01*
X120430764Y-76364619D02*
X120287907Y-76412238D01*
X120287907Y-76412238D02*
X120192669Y-76507476D01*
X120192669Y-76507476D02*
X120145050Y-76602714D01*
X120145050Y-76602714D02*
X120097431Y-76793190D01*
X120097431Y-76793190D02*
X120097431Y-76936047D01*
X120097431Y-76936047D02*
X120145050Y-77126523D01*
X120145050Y-77126523D02*
X120192669Y-77221761D01*
X120192669Y-77221761D02*
X120287907Y-77317000D01*
X120287907Y-77317000D02*
X120430764Y-77364619D01*
X120430764Y-77364619D02*
X120668859Y-77364619D01*
X119049811Y-76364619D02*
X118716478Y-77364619D01*
X118716478Y-77364619D02*
X118383145Y-76364619D01*
X117526002Y-77364619D02*
X118097430Y-77364619D01*
X117811716Y-77364619D02*
X117811716Y-76364619D01*
X117811716Y-76364619D02*
X117906954Y-76507476D01*
X117906954Y-76507476D02*
X118002192Y-76602714D01*
X118002192Y-76602714D02*
X118097430Y-76650333D01*
X117097430Y-77269380D02*
X117049811Y-77317000D01*
X117049811Y-77317000D02*
X117097430Y-77364619D01*
X117097430Y-77364619D02*
X117145049Y-77317000D01*
X117145049Y-77317000D02*
X117097430Y-77269380D01*
X117097430Y-77269380D02*
X117097430Y-77364619D01*
X116430764Y-76364619D02*
X116335526Y-76364619D01*
X116335526Y-76364619D02*
X116240288Y-76412238D01*
X116240288Y-76412238D02*
X116192669Y-76459857D01*
X116192669Y-76459857D02*
X116145050Y-76555095D01*
X116145050Y-76555095D02*
X116097431Y-76745571D01*
X116097431Y-76745571D02*
X116097431Y-76983666D01*
X116097431Y-76983666D02*
X116145050Y-77174142D01*
X116145050Y-77174142D02*
X116192669Y-77269380D01*
X116192669Y-77269380D02*
X116240288Y-77317000D01*
X116240288Y-77317000D02*
X116335526Y-77364619D01*
X116335526Y-77364619D02*
X116430764Y-77364619D01*
X116430764Y-77364619D02*
X116526002Y-77317000D01*
X116526002Y-77317000D02*
X116573621Y-77269380D01*
X116573621Y-77269380D02*
X116621240Y-77174142D01*
X116621240Y-77174142D02*
X116668859Y-76983666D01*
X116668859Y-76983666D02*
X116668859Y-76745571D01*
X116668859Y-76745571D02*
X116621240Y-76555095D01*
X116621240Y-76555095D02*
X116573621Y-76459857D01*
X116573621Y-76459857D02*
X116526002Y-76412238D01*
X116526002Y-76412238D02*
X116430764Y-76364619D01*
D10*
X122749757Y-104678572D02*
X122678328Y-104535715D01*
X122678328Y-104535715D02*
X122678328Y-104321429D01*
X122678328Y-104321429D02*
X122749757Y-104107143D01*
X122749757Y-104107143D02*
X122892614Y-103964286D01*
X122892614Y-103964286D02*
X123035471Y-103892857D01*
X123035471Y-103892857D02*
X123321185Y-103821429D01*
X123321185Y-103821429D02*
X123535471Y-103821429D01*
X123535471Y-103821429D02*
X123821185Y-103892857D01*
X123821185Y-103892857D02*
X123964042Y-103964286D01*
X123964042Y-103964286D02*
X124106900Y-104107143D01*
X124106900Y-104107143D02*
X124178328Y-104321429D01*
X124178328Y-104321429D02*
X124178328Y-104464286D01*
X124178328Y-104464286D02*
X124106900Y-104678572D01*
X124106900Y-104678572D02*
X124035471Y-104750000D01*
X124035471Y-104750000D02*
X123535471Y-104750000D01*
X123535471Y-104750000D02*
X123535471Y-104464286D01*
X122678328Y-105607143D02*
X123035471Y-105607143D01*
X122892614Y-105250000D02*
X123035471Y-105607143D01*
X123035471Y-105607143D02*
X122892614Y-105964286D01*
X123321185Y-105392857D02*
X123035471Y-105607143D01*
X123035471Y-105607143D02*
X123321185Y-105821429D01*
X122678328Y-106750000D02*
X123035471Y-106750000D01*
X122892614Y-106392857D02*
X123035471Y-106750000D01*
X123035471Y-106750000D02*
X122892614Y-107107143D01*
X123321185Y-106535714D02*
X123035471Y-106750000D01*
X123035471Y-106750000D02*
X123321185Y-106964286D01*
X122678328Y-107892857D02*
X123035471Y-107892857D01*
X122892614Y-107535714D02*
X123035471Y-107892857D01*
X123035471Y-107892857D02*
X122892614Y-108250000D01*
X123321185Y-107678571D02*
X123035471Y-107892857D01*
X123035471Y-107892857D02*
X123321185Y-108107143D01*
D12*
%TO.C,G\u002A\u002A\u002A*%
G36*
X117496506Y-98082853D02*
G01*
X117503837Y-98243587D01*
X117514058Y-98531049D01*
X117523655Y-98872646D01*
X117532519Y-99257952D01*
X117540544Y-99676542D01*
X117547621Y-100117992D01*
X117553645Y-100571878D01*
X117558508Y-101027775D01*
X117562105Y-101475259D01*
X117564327Y-101903904D01*
X117565067Y-102303287D01*
X117564219Y-102662982D01*
X117561675Y-102972566D01*
X117557329Y-103221613D01*
X117551074Y-103399700D01*
X117516346Y-104066507D01*
X117495793Y-102845353D01*
X117493789Y-102721913D01*
X117488642Y-102359440D01*
X117484163Y-101976251D01*
X117480350Y-101578730D01*
X117477205Y-101173260D01*
X117474725Y-100766223D01*
X117472909Y-100364003D01*
X117471757Y-99972980D01*
X117471266Y-99599538D01*
X117471438Y-99250060D01*
X117472269Y-98930928D01*
X117473761Y-98648527D01*
X117475911Y-98409236D01*
X117478718Y-98219440D01*
X117482183Y-98085521D01*
X117486302Y-98013862D01*
X117491077Y-98010845D01*
X117496506Y-98082853D01*
G37*
G36*
X118451647Y-91400392D02*
G01*
X118459181Y-91479663D01*
X118464821Y-91633436D01*
X118468237Y-91865144D01*
X118469065Y-91947900D01*
X118472429Y-92143811D01*
X118477147Y-92301621D01*
X118482712Y-92406894D01*
X118488617Y-92445192D01*
X118489562Y-92445115D01*
X118536194Y-92426298D01*
X118620909Y-92384386D01*
X118739392Y-92340841D01*
X118940330Y-92330324D01*
X119136397Y-92389308D01*
X119167122Y-92405606D01*
X119333073Y-92528400D01*
X119449957Y-92691393D01*
X119524086Y-92906394D01*
X119561771Y-93185213D01*
X119568537Y-93277194D01*
X119584065Y-93410139D01*
X119610134Y-93499610D01*
X119655892Y-93570743D01*
X119730491Y-93648672D01*
X119772953Y-93687382D01*
X119897413Y-93789081D01*
X120054250Y-93907464D01*
X120219475Y-94024115D01*
X120228221Y-94030062D01*
X120504590Y-94228649D01*
X120717132Y-94408964D01*
X120876409Y-94584752D01*
X120992983Y-94769763D01*
X121077416Y-94977738D01*
X121140272Y-95222425D01*
X121146169Y-95250182D01*
X121181499Y-95402421D01*
X121226686Y-95581913D01*
X121276835Y-95770942D01*
X121327052Y-95951794D01*
X121372444Y-96106753D01*
X121408117Y-96218103D01*
X121429175Y-96268131D01*
X121447014Y-96260560D01*
X121513526Y-96209148D01*
X121616369Y-96119785D01*
X121742429Y-96003547D01*
X121909140Y-95849617D01*
X122118430Y-95673044D01*
X122307618Y-95540341D01*
X122495511Y-95440395D01*
X122700920Y-95362090D01*
X122942651Y-95294312D01*
X122954446Y-95291359D01*
X123136304Y-95237963D01*
X123252257Y-95184114D01*
X123316779Y-95123189D01*
X123330236Y-95104151D01*
X123400775Y-95016464D01*
X123504289Y-94896830D01*
X123623516Y-94765386D01*
X123661958Y-94723111D01*
X123777804Y-94585126D01*
X123870895Y-94459046D01*
X123923913Y-94367791D01*
X123949872Y-94291769D01*
X123953059Y-94219434D01*
X123927590Y-94128479D01*
X123869551Y-93991826D01*
X123838651Y-93920672D01*
X123735703Y-93620302D01*
X123697164Y-93361842D01*
X123703260Y-93307656D01*
X123769662Y-93307656D01*
X123773549Y-93325761D01*
X123787129Y-93405290D01*
X123805783Y-93523878D01*
X123819584Y-93588059D01*
X123867503Y-93742839D01*
X123937091Y-93927292D01*
X124018503Y-94114104D01*
X124102371Y-94303804D01*
X124167930Y-94495822D01*
X124190307Y-94649888D01*
X124171417Y-94782064D01*
X124113174Y-94908416D01*
X124040238Y-95029968D01*
X124142145Y-94920987D01*
X124244053Y-94812005D01*
X124268902Y-94936251D01*
X124285107Y-95047755D01*
X124293965Y-95187701D01*
X124320730Y-95312659D01*
X124405561Y-95478561D01*
X124535670Y-95658396D01*
X124697905Y-95837770D01*
X124879113Y-96002293D01*
X125066143Y-96137573D01*
X125245838Y-96229220D01*
X125275772Y-96239828D01*
X125363030Y-96251121D01*
X125432216Y-96211575D01*
X125476271Y-96182945D01*
X125576491Y-96153865D01*
X125675272Y-96154095D01*
X125736634Y-96186588D01*
X125736814Y-96186884D01*
X125719693Y-96225118D01*
X125647450Y-96264784D01*
X125604952Y-96281239D01*
X125583189Y-96297717D01*
X125625751Y-96305618D01*
X125741179Y-96308966D01*
X125783252Y-96308658D01*
X125928920Y-96291134D01*
X126026115Y-96252417D01*
X126063985Y-96227336D01*
X126138229Y-96196223D01*
X126186853Y-96196318D01*
X126186538Y-96230769D01*
X126182313Y-96238034D01*
X126180770Y-96269633D01*
X126224292Y-96256886D01*
X126295273Y-96204108D01*
X126346931Y-96168204D01*
X126369712Y-96185188D01*
X126386838Y-96213071D01*
X126451191Y-96190027D01*
X126487011Y-96176355D01*
X126549101Y-96180712D01*
X126636732Y-96221882D01*
X126768937Y-96306865D01*
X126845864Y-96357469D01*
X127149390Y-96526140D01*
X127443083Y-96642081D01*
X127716500Y-96702733D01*
X127959200Y-96705537D01*
X128160738Y-96647934D01*
X128208212Y-96621098D01*
X128344973Y-96491002D01*
X128422585Y-96320584D01*
X128441217Y-96121945D01*
X128401030Y-95907186D01*
X128302190Y-95688412D01*
X128144860Y-95477725D01*
X128117395Y-95447219D01*
X127965970Y-95246764D01*
X127869167Y-95055594D01*
X127835097Y-94889122D01*
X127836305Y-94851151D01*
X127853128Y-94777423D01*
X127880626Y-94771908D01*
X127907028Y-94827822D01*
X127920565Y-94938381D01*
X127920923Y-94952775D01*
X127925893Y-95043182D01*
X127936157Y-95059831D01*
X127955056Y-95009616D01*
X127985490Y-94907853D01*
X128006513Y-95009616D01*
X128018957Y-95067025D01*
X128027783Y-95080339D01*
X128033079Y-95017390D01*
X128045041Y-94961746D01*
X128073644Y-94945046D01*
X128080450Y-94946176D01*
X128103437Y-94906089D01*
X128122736Y-94815261D01*
X128136207Y-94697648D01*
X128141708Y-94577207D01*
X128137099Y-94477895D01*
X128120238Y-94423667D01*
X128093507Y-94372808D01*
X128078659Y-94282898D01*
X128081190Y-94187993D01*
X128099929Y-94116499D01*
X128133707Y-94096820D01*
X128150186Y-94098817D01*
X128177250Y-94058518D01*
X128181382Y-93964473D01*
X128166299Y-93833267D01*
X128135720Y-93681484D01*
X128093361Y-93525709D01*
X128042938Y-93382527D01*
X127988170Y-93268523D01*
X127932773Y-93200282D01*
X127892846Y-93150783D01*
X127861469Y-93054834D01*
X127845803Y-93011785D01*
X127779091Y-92910560D01*
X127761746Y-92889339D01*
X127672901Y-92780639D01*
X127540928Y-92636708D01*
X127416219Y-92512689D01*
X127512025Y-92512689D01*
X127568565Y-92551840D01*
X127597608Y-92558516D01*
X127676617Y-92544273D01*
X127701346Y-92533309D01*
X127696716Y-92560696D01*
X127687216Y-92595987D01*
X127705762Y-92675074D01*
X127727964Y-92708627D01*
X127761746Y-92712819D01*
X127818034Y-92655907D01*
X127876629Y-92604701D01*
X127919694Y-92613170D01*
X127965995Y-92628410D01*
X128060926Y-92582639D01*
X128068652Y-92577637D01*
X128153366Y-92537038D01*
X128190792Y-92555706D01*
X128202951Y-92574357D01*
X128259781Y-92583072D01*
X128300440Y-92590658D01*
X128341301Y-92656592D01*
X128367249Y-92712646D01*
X128392154Y-92695381D01*
X128392426Y-92694702D01*
X128385216Y-92614005D01*
X128322563Y-92522713D01*
X128223863Y-92441609D01*
X128108513Y-92391477D01*
X128103459Y-92390320D01*
X127937449Y-92378804D01*
X127735942Y-92403946D01*
X127630748Y-92429984D01*
X127533750Y-92471189D01*
X127512025Y-92512689D01*
X127416219Y-92512689D01*
X127396867Y-92493444D01*
X127254410Y-92365532D01*
X127127253Y-92267653D01*
X127108395Y-92255471D01*
X126982472Y-92196241D01*
X126852207Y-92163323D01*
X126742879Y-92160922D01*
X126679772Y-92193242D01*
X126676051Y-92206900D01*
X126680318Y-92284477D01*
X126702562Y-92396328D01*
X126703345Y-92399405D01*
X126736644Y-92504296D01*
X126774477Y-92546869D01*
X126832485Y-92545023D01*
X126922544Y-92545205D01*
X127049434Y-92572727D01*
X127189169Y-92618981D01*
X127318609Y-92675148D01*
X127414617Y-92732409D01*
X127454052Y-92781943D01*
X127455076Y-92817314D01*
X127439108Y-92846781D01*
X127388418Y-92827439D01*
X127289420Y-92757247D01*
X127212665Y-92706986D01*
X127080121Y-92638934D01*
X126949450Y-92587601D01*
X126853516Y-92567307D01*
X126834791Y-92574315D01*
X126765504Y-92620992D01*
X126672569Y-92697019D01*
X126666761Y-92702117D01*
X126581037Y-92772756D01*
X126513181Y-92804426D01*
X126430716Y-92804365D01*
X126424664Y-92803218D01*
X126301166Y-92779815D01*
X126249479Y-92764916D01*
X126190177Y-92747821D01*
X126019463Y-92684511D01*
X125822453Y-92601371D01*
X125623204Y-92508045D01*
X125437855Y-92419903D01*
X125304775Y-92361709D01*
X125538633Y-92361709D01*
X125598125Y-92403589D01*
X125724559Y-92471844D01*
X125924492Y-92573878D01*
X126081312Y-92646357D01*
X126186409Y-92681651D01*
X126249479Y-92681681D01*
X126249499Y-92681659D01*
X126333102Y-92681659D01*
X126353503Y-92722117D01*
X126424664Y-92730128D01*
X126485116Y-92725663D01*
X126515624Y-92693344D01*
X126506075Y-92608013D01*
X126499510Y-92570158D01*
X126503730Y-92503661D01*
X126547797Y-92485898D01*
X126580977Y-92477605D01*
X126613943Y-92424840D01*
X126609178Y-92402228D01*
X126560159Y-92368158D01*
X126484588Y-92373246D01*
X126415643Y-92418543D01*
X126376546Y-92493540D01*
X126344515Y-92601716D01*
X126333102Y-92681659D01*
X126249499Y-92681659D01*
X126280212Y-92648370D01*
X126288302Y-92583639D01*
X126320057Y-92478036D01*
X126414438Y-92360026D01*
X126433809Y-92341798D01*
X126497565Y-92274533D01*
X126506591Y-92237958D01*
X126467406Y-92214120D01*
X126406640Y-92198104D01*
X126319119Y-92190836D01*
X126186879Y-92191891D01*
X125991739Y-92200757D01*
X125990177Y-92200842D01*
X125891955Y-92211732D01*
X125856062Y-92238957D01*
X125863657Y-92296618D01*
X125878149Y-92348341D01*
X125871452Y-92358375D01*
X125825176Y-92302725D01*
X125775025Y-92256699D01*
X125729380Y-92262019D01*
X125699128Y-92286459D01*
X125616668Y-92316771D01*
X125595142Y-92320660D01*
X125539749Y-92337099D01*
X125538633Y-92361709D01*
X125304775Y-92361709D01*
X125266880Y-92345138D01*
X125130199Y-92292097D01*
X125046796Y-92268665D01*
X124968302Y-92265814D01*
X124763669Y-92310273D01*
X124558334Y-92423282D01*
X124547173Y-92431311D01*
X124445461Y-92497203D01*
X124364985Y-92538498D01*
X124357547Y-92541527D01*
X124302468Y-92603390D01*
X124305377Y-92699932D01*
X124366182Y-92810558D01*
X124366924Y-92811468D01*
X124466570Y-92878087D01*
X124589898Y-92874273D01*
X124725913Y-92803178D01*
X124863623Y-92667954D01*
X124890118Y-92636799D01*
X124996065Y-92533464D01*
X125104222Y-92453360D01*
X125195702Y-92408918D01*
X125251619Y-92412569D01*
X125255608Y-92424585D01*
X125263391Y-92501354D01*
X125268856Y-92631197D01*
X125271009Y-92794571D01*
X125271071Y-92990176D01*
X125269924Y-93172035D01*
X125266033Y-93293986D01*
X125257920Y-93367999D01*
X125244109Y-93406044D01*
X125223117Y-93420093D01*
X125193466Y-93422116D01*
X125138249Y-93405363D01*
X125050739Y-93342489D01*
X124976418Y-93259357D01*
X124945033Y-93184430D01*
X124918874Y-93141596D01*
X124843270Y-93096475D01*
X124775547Y-93054887D01*
X124741507Y-92995719D01*
X124741137Y-92988281D01*
X124704154Y-92942888D01*
X124618691Y-92943451D01*
X124501945Y-92990358D01*
X124492612Y-92996410D01*
X124426158Y-93071775D01*
X124351987Y-93194518D01*
X124283018Y-93338218D01*
X124232162Y-93476450D01*
X124212341Y-93582794D01*
X124247065Y-93694366D01*
X124362376Y-93811831D01*
X124557906Y-93925435D01*
X124714055Y-93988902D01*
X124904924Y-94025942D01*
X125087725Y-94003816D01*
X125280124Y-93919619D01*
X125499791Y-93770443D01*
X125558207Y-93728010D01*
X125695277Y-93654248D01*
X125830491Y-93631203D01*
X125986646Y-93657610D01*
X126186539Y-93732195D01*
X126308183Y-93782246D01*
X126438454Y-93831299D01*
X126525193Y-93858632D01*
X126538262Y-93861570D01*
X126591537Y-93864808D01*
X126605904Y-93828288D01*
X126591804Y-93732194D01*
X126578976Y-93645517D01*
X126588667Y-93604154D01*
X126629673Y-93609147D01*
X126673722Y-93652494D01*
X126695354Y-93756467D01*
X126697196Y-93807928D01*
X126716283Y-93855826D01*
X126766587Y-93848118D01*
X126861075Y-93815731D01*
X127042872Y-93804617D01*
X127240264Y-93863641D01*
X127306828Y-93895890D01*
X127393941Y-93949980D01*
X127428046Y-93989699D01*
X127427993Y-93993821D01*
X127418202Y-94023040D01*
X127380536Y-94027459D01*
X127299216Y-94004952D01*
X127158467Y-93953396D01*
X126982720Y-93902790D01*
X126838828Y-93903859D01*
X126829732Y-93906368D01*
X126762826Y-93937798D01*
X126728887Y-93998859D01*
X126712458Y-94115426D01*
X126708939Y-94153992D01*
X126689369Y-94325053D01*
X126665752Y-94490684D01*
X126634296Y-94684092D01*
X126545729Y-94607635D01*
X126455154Y-94529445D01*
X126378682Y-94460652D01*
X126308684Y-94377113D01*
X126274163Y-94284684D01*
X126258663Y-94160090D01*
X126328584Y-94160090D01*
X126355058Y-94287191D01*
X126423614Y-94392315D01*
X126429266Y-94397532D01*
X126500892Y-94448180D01*
X126545729Y-94453684D01*
X126565935Y-94416020D01*
X126573253Y-94325246D01*
X126553298Y-94233236D01*
X126511181Y-94180410D01*
X126471983Y-94143940D01*
X126474888Y-94053939D01*
X126481157Y-93978665D01*
X126447244Y-93953575D01*
X126377854Y-94000128D01*
X126348109Y-94044580D01*
X126328584Y-94160090D01*
X126258663Y-94160090D01*
X126257297Y-94149106D01*
X126238581Y-93923417D01*
X126049739Y-93855738D01*
X125986313Y-93833925D01*
X125877513Y-93801095D01*
X125813672Y-93788260D01*
X125762272Y-93810572D01*
X125667734Y-93871690D01*
X125551994Y-93957976D01*
X125441978Y-94037560D01*
X125286752Y-94132753D01*
X125153160Y-94197481D01*
X124968777Y-94267471D01*
X124980332Y-94455370D01*
X124985411Y-94568317D01*
X124973992Y-94627416D01*
X124931731Y-94631990D01*
X124890760Y-94614967D01*
X124845185Y-94596031D01*
X124812891Y-94580597D01*
X124768644Y-94547513D01*
X124757814Y-94539415D01*
X124736617Y-94474962D01*
X124736440Y-94439745D01*
X124863623Y-94439745D01*
X124866560Y-94461293D01*
X124890760Y-94466881D01*
X124895631Y-94460914D01*
X124890760Y-94412607D01*
X124878516Y-94406239D01*
X124863623Y-94439745D01*
X124736440Y-94439745D01*
X124736031Y-94358334D01*
X124733963Y-94317188D01*
X124717735Y-94330514D01*
X124683748Y-94419391D01*
X124666126Y-94466480D01*
X124637045Y-94520405D01*
X124623660Y-94508575D01*
X124613889Y-94471190D01*
X124578399Y-94460274D01*
X124553417Y-94464116D01*
X124513076Y-94422206D01*
X124496403Y-94392070D01*
X124460082Y-94376517D01*
X124432078Y-94371775D01*
X124368502Y-94323596D01*
X124296092Y-94247974D01*
X124236416Y-94168206D01*
X124230809Y-94154807D01*
X124741507Y-94154807D01*
X124744445Y-94176356D01*
X124768644Y-94181945D01*
X124773516Y-94175979D01*
X124768644Y-94127671D01*
X124756401Y-94121303D01*
X124741507Y-94154807D01*
X124230809Y-94154807D01*
X124211046Y-94107582D01*
X124197591Y-94057376D01*
X124149988Y-93974031D01*
X124143330Y-93964826D01*
X124101232Y-93863260D01*
X124097170Y-93726642D01*
X124132143Y-93543214D01*
X124207149Y-93301228D01*
X124219661Y-93264619D01*
X124279411Y-93062026D01*
X124299924Y-92920154D01*
X124281503Y-92829957D01*
X124224449Y-92782390D01*
X124185765Y-92773406D01*
X124078251Y-92802400D01*
X123970673Y-92903590D01*
X123870642Y-93070772D01*
X123822616Y-93174910D01*
X123782951Y-93267243D01*
X123769662Y-93307656D01*
X123703260Y-93307656D01*
X123722120Y-93140025D01*
X123730029Y-93114240D01*
X123795520Y-92977976D01*
X123888102Y-92854409D01*
X123989253Y-92764730D01*
X124080449Y-92730128D01*
X124104303Y-92722352D01*
X124175552Y-92670032D01*
X124262922Y-92586239D01*
X124346891Y-92492038D01*
X124407935Y-92408497D01*
X124426531Y-92356683D01*
X124428297Y-92344780D01*
X124470891Y-92346747D01*
X124510639Y-92347383D01*
X124577149Y-92304577D01*
X124614571Y-92270399D01*
X124685434Y-92241667D01*
X124715558Y-92230832D01*
X124744721Y-92170433D01*
X124750546Y-92135802D01*
X124768466Y-92150080D01*
X124772929Y-92159825D01*
X124824076Y-92200121D01*
X124880306Y-92180258D01*
X124909871Y-92109375D01*
X124915415Y-92017789D01*
X124933055Y-92109375D01*
X124957765Y-92167073D01*
X125034728Y-92200962D01*
X125047079Y-92201358D01*
X125149786Y-92216581D01*
X125272540Y-92247035D01*
X125310187Y-92257653D01*
X125404365Y-92271185D01*
X125496796Y-92252888D01*
X125623256Y-92197736D01*
X125736048Y-92154413D01*
X125964496Y-92108148D01*
X126205708Y-92099079D01*
X126420594Y-92130503D01*
X126451558Y-92138428D01*
X126515615Y-92139814D01*
X126532533Y-92097572D01*
X126538508Y-92067864D01*
X126573238Y-92058494D01*
X126601024Y-92052152D01*
X126619486Y-91989662D01*
X126622069Y-91951729D01*
X126628722Y-91926572D01*
X126641520Y-91978480D01*
X126664603Y-92028643D01*
X126726123Y-92057471D01*
X126846932Y-92069509D01*
X126904709Y-92073417D01*
X127007742Y-92088666D01*
X127058953Y-92108818D01*
X127071124Y-92123435D01*
X127149164Y-92189760D01*
X127250558Y-92253570D01*
X127346558Y-92298475D01*
X127408413Y-92308081D01*
X127437396Y-92303423D01*
X127444356Y-92339285D01*
X127441523Y-92349952D01*
X127459151Y-92368201D01*
X127527606Y-92361995D01*
X127660131Y-92330817D01*
X127827654Y-92298996D01*
X128054760Y-92294807D01*
X128248025Y-92337997D01*
X128389727Y-92426250D01*
X128450003Y-92514271D01*
X128488582Y-92678693D01*
X128473955Y-92876077D01*
X128407810Y-93091166D01*
X128291843Y-93308704D01*
X128285316Y-93318678D01*
X128235097Y-93404200D01*
X128213063Y-93479431D01*
X128215255Y-93574389D01*
X128237713Y-93719090D01*
X128253182Y-93821509D01*
X128278997Y-94183610D01*
X128269542Y-94576510D01*
X128225141Y-94967977D01*
X128223082Y-94980649D01*
X128197708Y-95143687D01*
X128187578Y-95248997D01*
X128194687Y-95317857D01*
X128221031Y-95371547D01*
X128268606Y-95431345D01*
X128369734Y-95568807D01*
X128486192Y-95803767D01*
X128542433Y-96041144D01*
X128537646Y-96267588D01*
X128471019Y-96469746D01*
X128341740Y-96634267D01*
X128287982Y-96678116D01*
X128177580Y-96743874D01*
X128050336Y-96782038D01*
X127959200Y-96789183D01*
X127890721Y-96794549D01*
X127683208Y-96783347D01*
X127412266Y-96750371D01*
X127397389Y-96749561D01*
X127359989Y-96766511D01*
X127325134Y-96822577D01*
X127286162Y-96931227D01*
X127236413Y-97105930D01*
X127208689Y-97213039D01*
X127181328Y-97338666D01*
X127161395Y-97467443D01*
X127147502Y-97615021D01*
X127138263Y-97797053D01*
X127132290Y-98029190D01*
X127128196Y-98327084D01*
X127128084Y-98337430D01*
X127123597Y-98646635D01*
X127115584Y-98889494D01*
X127100898Y-99080631D01*
X127076393Y-99234676D01*
X127038921Y-99366255D01*
X126985336Y-99489997D01*
X126912490Y-99620528D01*
X126817238Y-99772476D01*
X126698987Y-99956754D01*
X126760685Y-100254851D01*
X126799206Y-100424309D01*
X126854587Y-100627792D01*
X126924698Y-100847817D01*
X127012400Y-101091340D01*
X127120551Y-101365319D01*
X127252013Y-101676713D01*
X127409646Y-102032478D01*
X127596309Y-102439572D01*
X127814862Y-102904952D01*
X128068165Y-103435578D01*
X128231357Y-103782990D01*
X128432820Y-104231361D01*
X128629372Y-104688785D01*
X128814384Y-105139059D01*
X128981226Y-105565978D01*
X129123268Y-105953338D01*
X129233882Y-106284936D01*
X129313266Y-106551675D01*
X129397445Y-106881214D01*
X129456447Y-107191826D01*
X129493861Y-107508414D01*
X129513272Y-107855883D01*
X129518269Y-108259135D01*
X129517896Y-108353379D01*
X129513870Y-108634527D01*
X129504349Y-108860996D01*
X129487695Y-109053476D01*
X129462272Y-109232657D01*
X129426439Y-109419231D01*
X129391894Y-109573649D01*
X129232265Y-110141799D01*
X129027220Y-110698152D01*
X128785790Y-111220197D01*
X128517010Y-111685427D01*
X128486323Y-111731592D01*
X128242181Y-112051795D01*
X127946904Y-112375099D01*
X127621060Y-112681925D01*
X127285215Y-112952692D01*
X126959937Y-113167818D01*
X126892545Y-113206481D01*
X126711459Y-113307228D01*
X126535031Y-113399385D01*
X126354101Y-113486575D01*
X126159507Y-113572419D01*
X125942088Y-113660535D01*
X125692684Y-113754549D01*
X125402133Y-113858080D01*
X125061274Y-113974750D01*
X124660946Y-114108181D01*
X124191988Y-114261993D01*
X123973640Y-114334349D01*
X123545374Y-114484924D01*
X123181280Y-114627350D01*
X122870524Y-114766697D01*
X122602273Y-114908026D01*
X122365697Y-115056406D01*
X122149960Y-115216901D01*
X122137440Y-115228178D01*
X121786145Y-115544602D01*
X121545447Y-115826755D01*
X121470542Y-115914560D01*
X121219664Y-116318273D01*
X121025374Y-116766953D01*
X120938581Y-117074332D01*
X120889582Y-117468169D01*
X120907715Y-117852615D01*
X120989762Y-118218254D01*
X121132505Y-118555672D01*
X121332726Y-118855453D01*
X121587205Y-119108180D01*
X121892726Y-119304440D01*
X121955894Y-119334834D01*
X122292531Y-119460058D01*
X122629250Y-119528129D01*
X122954027Y-119539482D01*
X123254836Y-119494555D01*
X123519650Y-119393781D01*
X123736444Y-119237598D01*
X123809152Y-119170710D01*
X123859687Y-119138581D01*
X123861410Y-119168109D01*
X123855711Y-119191160D01*
X123878393Y-119186610D01*
X123943640Y-119117715D01*
X123957612Y-119101714D01*
X124069393Y-118989590D01*
X124182300Y-118895932D01*
X124189274Y-118890975D01*
X124265182Y-118840653D01*
X124290961Y-118837900D01*
X124280012Y-118880617D01*
X124265720Y-118923373D01*
X124279676Y-118931634D01*
X124343790Y-118888893D01*
X124438159Y-118826281D01*
X124554092Y-118757139D01*
X124629694Y-118717804D01*
X124657020Y-118716895D01*
X124646594Y-118757886D01*
X124641269Y-118772690D01*
X124643611Y-118804117D01*
X124699042Y-118782352D01*
X124718921Y-118773816D01*
X124823656Y-118751350D01*
X124952532Y-118743919D01*
X125004560Y-118745936D01*
X125073162Y-118754892D01*
X125077325Y-118767664D01*
X125028842Y-118806717D01*
X125041350Y-118842589D01*
X125107597Y-118842549D01*
X125116972Y-118839675D01*
X125168066Y-118837022D01*
X125162498Y-118885209D01*
X125158471Y-118896337D01*
X125160440Y-118935765D01*
X125220438Y-118926903D01*
X125249646Y-118918711D01*
X125288469Y-118927036D01*
X125280595Y-118993440D01*
X125271945Y-119030165D01*
X125275973Y-119062947D01*
X125321470Y-119033491D01*
X125347579Y-119013311D01*
X125373215Y-119010411D01*
X125362176Y-119074196D01*
X125351705Y-119119038D01*
X125359233Y-119144782D01*
X125412948Y-119107051D01*
X125460160Y-119072890D01*
X125476250Y-119087013D01*
X125463563Y-119168109D01*
X125439433Y-119270104D01*
X125409074Y-119368136D01*
X125396986Y-119416539D01*
X125423765Y-119418353D01*
X125449858Y-119404935D01*
X125491768Y-119413585D01*
X125490303Y-119486736D01*
X125445930Y-119621473D01*
X125359127Y-119814881D01*
X125358261Y-119829419D01*
X125397685Y-119821593D01*
X125408425Y-119820114D01*
X125382919Y-119854764D01*
X125313136Y-119924640D01*
X125278893Y-119957216D01*
X125220528Y-120018552D01*
X125217711Y-120040319D01*
X125266001Y-120032697D01*
X125319724Y-120020158D01*
X125334815Y-120031002D01*
X125288314Y-120086971D01*
X125240383Y-120128249D01*
X125130440Y-120200809D01*
X124998283Y-120272750D01*
X124923370Y-120311032D01*
X124831947Y-120365402D01*
X124798845Y-120396888D01*
X124828334Y-120399916D01*
X124924680Y-120368910D01*
X124987783Y-120346813D01*
X125045899Y-120335566D01*
X125040061Y-120354615D01*
X124974842Y-120398010D01*
X124854817Y-120459801D01*
X124701646Y-120524758D01*
X124410136Y-120610652D01*
X124128317Y-120648010D01*
X123873458Y-120635228D01*
X123662821Y-120570698D01*
X123611099Y-120543976D01*
X123561057Y-120513317D01*
X123573349Y-120510241D01*
X123599874Y-120514876D01*
X123622125Y-120495562D01*
X123590805Y-120444706D01*
X123512436Y-120376616D01*
X123489625Y-120356779D01*
X123427990Y-120281699D01*
X123369531Y-120189538D01*
X123330159Y-120107164D01*
X123325788Y-120061446D01*
X123330468Y-120061336D01*
X123364697Y-120100674D01*
X123415323Y-120184955D01*
X123427728Y-120207025D01*
X123490047Y-120296816D01*
X123542263Y-120343523D01*
X123553795Y-120327824D01*
X123532689Y-120257385D01*
X123480324Y-120146317D01*
X123435297Y-120052214D01*
X123373495Y-119892777D01*
X123337228Y-119758614D01*
X123334644Y-119743582D01*
X123311065Y-119644876D01*
X123278029Y-119607010D01*
X123221047Y-119611659D01*
X123179891Y-119619474D01*
X123061111Y-119630919D01*
X122920409Y-119635662D01*
X122836575Y-119636877D01*
X122751535Y-119646828D01*
X122715881Y-119674236D01*
X122709708Y-119727805D01*
X122708194Y-119790206D01*
X122694127Y-119900801D01*
X122691626Y-119954222D01*
X122721655Y-120040908D01*
X122725163Y-120045445D01*
X122745719Y-120080991D01*
X122706251Y-120063622D01*
X122681192Y-120049505D01*
X122667015Y-120050619D01*
X122706251Y-120102770D01*
X122743448Y-120155428D01*
X122762009Y-120202170D01*
X122759631Y-120223063D01*
X122792055Y-120327365D01*
X122883523Y-120445574D01*
X123020309Y-120565216D01*
X123188679Y-120673817D01*
X123374900Y-120758905D01*
X123399902Y-120767931D01*
X123568717Y-120824996D01*
X123666041Y-120849678D01*
X123691004Y-120842142D01*
X123642732Y-120802556D01*
X123520354Y-120731086D01*
X123417080Y-120672295D01*
X123360514Y-120635261D01*
X123363587Y-120628384D01*
X123404415Y-120639860D01*
X123671817Y-120695247D01*
X123952533Y-120725723D01*
X124203164Y-120726228D01*
X124476925Y-120706216D01*
X124110578Y-120822163D01*
X123922406Y-120879301D01*
X123626897Y-120954552D01*
X123363310Y-120997941D01*
X123238654Y-121005295D01*
X123105771Y-121013136D01*
X122828403Y-121003798D01*
X122410590Y-120956748D01*
X121903786Y-120844140D01*
X121755758Y-120789761D01*
X121444684Y-120675486D01*
X121038926Y-120452963D01*
X120988916Y-120413418D01*
X120692151Y-120178751D01*
X120663634Y-120152618D01*
X120587256Y-120092314D01*
X120543414Y-120072496D01*
X120541484Y-120072823D01*
X120498217Y-120042025D01*
X120424726Y-119957704D01*
X120413025Y-119942223D01*
X120943458Y-119942223D01*
X120947872Y-120074214D01*
X120962985Y-120169431D01*
X120988916Y-120205926D01*
X120995054Y-120197071D01*
X121006302Y-120127125D01*
X121007960Y-120100605D01*
X121054693Y-120100605D01*
X121102411Y-120287537D01*
X121201411Y-120418812D01*
X121219412Y-120432941D01*
X121304713Y-120483325D01*
X121349323Y-120478964D01*
X121343521Y-120419792D01*
X121342300Y-120416616D01*
X121317808Y-120324596D01*
X121297749Y-120206090D01*
X121293263Y-120166294D01*
X121293460Y-120128525D01*
X121309910Y-120160783D01*
X121345827Y-120267148D01*
X121371505Y-120341494D01*
X121418148Y-120456094D01*
X121455514Y-120524239D01*
X121464697Y-120534371D01*
X121535111Y-120589528D01*
X121626399Y-120642590D01*
X121709602Y-120678374D01*
X121755758Y-120681689D01*
X121757581Y-120656884D01*
X121740880Y-120572580D01*
X121736251Y-120556709D01*
X122713787Y-120556709D01*
X122771836Y-120609630D01*
X122899600Y-120697063D01*
X122998740Y-120755924D01*
X123134365Y-120822485D01*
X123238654Y-120856878D01*
X123293762Y-120852084D01*
X123291177Y-120846436D01*
X123241265Y-120808919D01*
X123141347Y-120746265D01*
X123006930Y-120668406D01*
X122912143Y-120617245D01*
X122788518Y-120559294D01*
X122720873Y-120539523D01*
X122713787Y-120556709D01*
X121736251Y-120556709D01*
X121706068Y-120453228D01*
X121681095Y-120368408D01*
X121660495Y-120267781D01*
X121663068Y-120218077D01*
X121675480Y-120212892D01*
X121691370Y-120250186D01*
X121696830Y-120256735D01*
X121717358Y-120209868D01*
X121747358Y-120109688D01*
X121763090Y-120042677D01*
X121781397Y-119915714D01*
X121778904Y-119828564D01*
X121773079Y-119776077D01*
X121804325Y-119774723D01*
X121805265Y-119775329D01*
X121839164Y-119834493D01*
X121855614Y-119933734D01*
X121857460Y-119969224D01*
X121865752Y-119997004D01*
X121882651Y-119955657D01*
X121911384Y-119839744D01*
X121933503Y-119747440D01*
X121965087Y-119627043D01*
X121987624Y-119554808D01*
X121989430Y-119549020D01*
X121970937Y-119499139D01*
X121891289Y-119431949D01*
X121743224Y-119341106D01*
X121721490Y-119328863D01*
X121588305Y-119257667D01*
X121482807Y-119207465D01*
X121426198Y-119188461D01*
X121411407Y-119189957D01*
X121327615Y-119239624D01*
X121239247Y-119346032D01*
X121159241Y-119490649D01*
X121100531Y-119654947D01*
X121059374Y-119866476D01*
X121054693Y-120100605D01*
X121007960Y-120100605D01*
X121014082Y-120002657D01*
X121016987Y-119841901D01*
X121016236Y-119754581D01*
X121011420Y-119627115D01*
X121003137Y-119553277D01*
X120992535Y-119546953D01*
X120966243Y-119655714D01*
X120949621Y-119795407D01*
X120943458Y-119942223D01*
X120413025Y-119942223D01*
X120331847Y-119834825D01*
X120299085Y-119787515D01*
X120230415Y-119688352D01*
X120131267Y-119533249D01*
X120045237Y-119384482D01*
X120034861Y-119365100D01*
X119863174Y-118983306D01*
X119744725Y-118578658D01*
X119718740Y-118411055D01*
X119821489Y-118411055D01*
X119831848Y-118502053D01*
X119862262Y-118627456D01*
X119907101Y-118767314D01*
X119960735Y-118901676D01*
X120017533Y-119010594D01*
X120043198Y-119047698D01*
X120054373Y-119041804D01*
X120042730Y-118964584D01*
X120035643Y-118922270D01*
X120037959Y-118893103D01*
X120064799Y-118925870D01*
X120122821Y-119025641D01*
X120129788Y-119037993D01*
X120178409Y-119118280D01*
X120197749Y-119131773D01*
X120189162Y-119074936D01*
X120154004Y-118944231D01*
X120151983Y-118935030D01*
X120165484Y-118941297D01*
X120205664Y-119005289D01*
X120212702Y-119017713D01*
X120259693Y-119099215D01*
X120283841Y-119138538D01*
X120299085Y-119140444D01*
X120361093Y-119123542D01*
X120401765Y-119092561D01*
X120404958Y-119010644D01*
X120399921Y-118992009D01*
X120395267Y-118953351D01*
X120422743Y-118984936D01*
X120429723Y-118994456D01*
X120510783Y-119043476D01*
X120615680Y-119015982D01*
X120742229Y-118912468D01*
X120786326Y-118868278D01*
X120849642Y-118811740D01*
X120874520Y-118800470D01*
X120883830Y-118805697D01*
X120928394Y-118775000D01*
X120949468Y-118746279D01*
X120974590Y-118640585D01*
X120965213Y-118508899D01*
X120921890Y-118384535D01*
X120885264Y-118324062D01*
X120857862Y-118292949D01*
X120835211Y-118302474D01*
X120758095Y-118342279D01*
X120647990Y-118402541D01*
X120525971Y-118458741D01*
X120319597Y-118507991D01*
X120263943Y-118506649D01*
X120124763Y-118503293D01*
X119964889Y-118443245D01*
X119964130Y-118442748D01*
X119883938Y-118394431D01*
X119837972Y-118374359D01*
X119836816Y-118374412D01*
X119821489Y-118411055D01*
X119718740Y-118411055D01*
X119676048Y-118135698D01*
X119653674Y-117638966D01*
X119662507Y-117301511D01*
X119686385Y-117072995D01*
X119779095Y-117072995D01*
X119780021Y-117224202D01*
X119797544Y-117358907D01*
X119829848Y-117445176D01*
X119849758Y-117470335D01*
X119887218Y-117491751D01*
X119929305Y-117445176D01*
X119948828Y-117419039D01*
X119959489Y-117419568D01*
X119938299Y-117489023D01*
X119927984Y-117527886D01*
X119930118Y-117590143D01*
X119956426Y-117602831D01*
X119992754Y-117550079D01*
X120007274Y-117540257D01*
X120016499Y-117593188D01*
X120028423Y-117648213D01*
X120060418Y-117662019D01*
X120078472Y-117656422D01*
X120101746Y-117690146D01*
X120109593Y-117717501D01*
X120141828Y-117682372D01*
X120167837Y-117651006D01*
X120181910Y-117672196D01*
X120197577Y-117701803D01*
X120263943Y-117723077D01*
X120311432Y-117713512D01*
X120345977Y-117672196D01*
X120353293Y-117649154D01*
X120386683Y-117682372D01*
X120400741Y-117701729D01*
X120428855Y-117708958D01*
X120453956Y-117643847D01*
X120468937Y-117593354D01*
X120487425Y-117573049D01*
X120512152Y-117623494D01*
X120526834Y-117658469D01*
X120541852Y-117667695D01*
X120548879Y-117600962D01*
X120552618Y-117550231D01*
X120563548Y-117528963D01*
X120589584Y-117580609D01*
X120599039Y-117602009D01*
X120620381Y-117633616D01*
X120627428Y-117592062D01*
X120637483Y-117555552D01*
X120685998Y-117543484D01*
X120698449Y-117546341D01*
X120746816Y-117513412D01*
X120779856Y-117415585D01*
X120792554Y-117265923D01*
X120791751Y-117222299D01*
X120776202Y-117177999D01*
X120723912Y-117167223D01*
X120721876Y-117167447D01*
X120613024Y-117179446D01*
X120551883Y-117186573D01*
X120329376Y-117182531D01*
X120145451Y-117119571D01*
X119980500Y-116991878D01*
X119901383Y-116914610D01*
X119846087Y-116871898D01*
X119817674Y-116876705D01*
X119800154Y-116922914D01*
X119796580Y-116937222D01*
X119779095Y-117072995D01*
X119686385Y-117072995D01*
X119693552Y-117004407D01*
X119752308Y-116715870D01*
X119844275Y-116400160D01*
X119877353Y-116301842D01*
X120012158Y-115978613D01*
X120148069Y-115978613D01*
X120152592Y-116004110D01*
X120189450Y-115988834D01*
X120216816Y-115981191D01*
X120211080Y-116027137D01*
X120204623Y-116047625D01*
X120202192Y-116128730D01*
X120229423Y-116185565D01*
X120275126Y-116189724D01*
X120297343Y-116184192D01*
X120293783Y-116227294D01*
X120293775Y-116227315D01*
X120302982Y-116289497D01*
X120359785Y-116326560D01*
X120430437Y-116316480D01*
X120449376Y-116313762D01*
X120467469Y-116357053D01*
X120482734Y-116394891D01*
X120548879Y-116425601D01*
X120607312Y-116429318D01*
X120721876Y-116436821D01*
X120785310Y-116428712D01*
X120867362Y-116380852D01*
X120895609Y-116353116D01*
X120895490Y-116369632D01*
X120888490Y-116393131D01*
X120912823Y-116420513D01*
X120924707Y-116418837D01*
X120955930Y-116377406D01*
X120958538Y-116363467D01*
X120994453Y-116358106D01*
X121011327Y-116357971D01*
X121067992Y-116314713D01*
X121137627Y-116228218D01*
X121242279Y-116074519D01*
X121045338Y-116049325D01*
X120985883Y-116040316D01*
X120855333Y-116011554D01*
X120765278Y-115979646D01*
X120713434Y-115944744D01*
X120617885Y-115857480D01*
X120524982Y-115752391D01*
X120454637Y-115652851D01*
X120426764Y-115582239D01*
X120417029Y-115541413D01*
X120380129Y-115553798D01*
X120320399Y-115631948D01*
X120242817Y-115770758D01*
X120178381Y-115902123D01*
X120148069Y-115978613D01*
X120012158Y-115978613D01*
X120059953Y-115864014D01*
X120294322Y-115455145D01*
X120565539Y-115093036D01*
X120807260Y-115093036D01*
X120810130Y-115169137D01*
X120841288Y-115174388D01*
X120867705Y-115166736D01*
X120863158Y-115210961D01*
X120857867Y-115255791D01*
X120907121Y-115250723D01*
X120937420Y-115240312D01*
X120954192Y-115246899D01*
X120915226Y-115301122D01*
X120888484Y-115335635D01*
X120877949Y-115363705D01*
X120924914Y-115350913D01*
X120966693Y-115342721D01*
X120985971Y-115373820D01*
X120992383Y-115399964D01*
X121047517Y-115417584D01*
X121085348Y-115419100D01*
X121118751Y-115441329D01*
X121122175Y-115452298D01*
X121169632Y-115476590D01*
X121198039Y-115479953D01*
X121295819Y-115491784D01*
X121424039Y-115507472D01*
X121430755Y-115508294D01*
X121545446Y-115518013D01*
X121626462Y-115505110D01*
X121704620Y-115458350D01*
X121810737Y-115366499D01*
X121993911Y-115200508D01*
X121851443Y-115199040D01*
X121819392Y-115197178D01*
X121679856Y-115169864D01*
X121539671Y-115120697D01*
X121438113Y-115064080D01*
X121351464Y-114975738D01*
X121275326Y-114836655D01*
X121233763Y-114750526D01*
X121185565Y-114663283D01*
X121157779Y-114629487D01*
X121135665Y-114642905D01*
X121069410Y-114700803D01*
X120979601Y-114788911D01*
X120961493Y-114807965D01*
X120855949Y-114949242D01*
X120809074Y-115075906D01*
X120807260Y-115093036D01*
X120565539Y-115093036D01*
X120589870Y-115060551D01*
X120956006Y-114665550D01*
X121129750Y-114500323D01*
X121457873Y-114223231D01*
X121810572Y-113971227D01*
X122197296Y-113739320D01*
X122627492Y-113522517D01*
X123110609Y-113315826D01*
X123656096Y-113114257D01*
X124273398Y-112912816D01*
X124360199Y-112885867D01*
X124659905Y-112791422D01*
X124955725Y-112696247D01*
X125237111Y-112603906D01*
X125493514Y-112517965D01*
X125714387Y-112441989D01*
X125889182Y-112379544D01*
X126007350Y-112334194D01*
X126058345Y-112309505D01*
X126069858Y-112293317D01*
X126057370Y-112274642D01*
X126003071Y-112253529D01*
X125894308Y-112225362D01*
X125718429Y-112185529D01*
X125611008Y-112157019D01*
X125357128Y-112063375D01*
X125081688Y-111933525D01*
X124810502Y-111780254D01*
X124569383Y-111616348D01*
X124533889Y-111588907D01*
X124290015Y-111375274D01*
X124018367Y-111096060D01*
X123715142Y-110747394D01*
X123617838Y-110630526D01*
X123375746Y-110832143D01*
X123239799Y-110951551D01*
X122991960Y-111192717D01*
X122715235Y-111486587D01*
X122418754Y-111823329D01*
X122111654Y-112193107D01*
X122048636Y-112270401D01*
X121914504Y-112430027D01*
X121798681Y-112561401D01*
X121711842Y-112652610D01*
X121664664Y-112691745D01*
X121648744Y-112696577D01*
X121553357Y-112710676D01*
X121429901Y-112716346D01*
X121360024Y-112710544D01*
X121259397Y-112684992D01*
X121136672Y-112635339D01*
X120984613Y-112557545D01*
X120795982Y-112447576D01*
X120563545Y-112301394D01*
X120280064Y-112114961D01*
X119938302Y-111884242D01*
X119735728Y-111746357D01*
X119410786Y-111525535D01*
X119144900Y-111345434D01*
X118932844Y-111202581D01*
X118769394Y-111093496D01*
X118649326Y-111014704D01*
X118567413Y-110962729D01*
X118518431Y-110934093D01*
X118497154Y-110925321D01*
X118493404Y-110952655D01*
X118488950Y-111054264D01*
X118484655Y-111224161D01*
X118480612Y-111455178D01*
X118476909Y-111740141D01*
X118473640Y-112071880D01*
X118470894Y-112443223D01*
X118468762Y-112847002D01*
X118467336Y-113276042D01*
X118467110Y-113364883D01*
X118465362Y-113861258D01*
X118462798Y-114379029D01*
X118459534Y-114903507D01*
X118455688Y-115420008D01*
X118451374Y-115913844D01*
X118446711Y-116370329D01*
X118441817Y-116774776D01*
X118436807Y-117112500D01*
X118411860Y-118598237D01*
X118381043Y-117051442D01*
X118370106Y-116505059D01*
X118357846Y-115900546D01*
X118346829Y-115369272D01*
X118336925Y-114906731D01*
X118327998Y-114508415D01*
X118319917Y-114169818D01*
X118312548Y-113886433D01*
X118305758Y-113653752D01*
X118299413Y-113467270D01*
X118293381Y-113322478D01*
X118287527Y-113214871D01*
X118281720Y-113139940D01*
X118275825Y-113093180D01*
X118269710Y-113070083D01*
X118263241Y-113066142D01*
X118260996Y-113069241D01*
X118250498Y-113129822D01*
X118241093Y-113256677D01*
X118233352Y-113437255D01*
X118227838Y-113659005D01*
X118225121Y-113909374D01*
X118225024Y-113929483D01*
X118222120Y-114194529D01*
X118216582Y-114444054D01*
X118208982Y-114661584D01*
X118199884Y-114830649D01*
X118189854Y-114934776D01*
X118186404Y-114951237D01*
X118177960Y-114939304D01*
X118170368Y-114851986D01*
X118163778Y-114693623D01*
X118158341Y-114468564D01*
X118154211Y-114181154D01*
X118151537Y-113835737D01*
X118149145Y-113458892D01*
X118145680Y-113046473D01*
X118141411Y-112625464D01*
X118136587Y-112218365D01*
X118131453Y-111847675D01*
X118126259Y-111535898D01*
X118121551Y-111282472D01*
X118115375Y-110946568D01*
X118108350Y-110561731D01*
X118100781Y-110144795D01*
X118092973Y-109712591D01*
X118085232Y-109281953D01*
X118077863Y-108869712D01*
X118071172Y-108518267D01*
X118063575Y-108181228D01*
X118059300Y-108031207D01*
X118513623Y-108031207D01*
X118513623Y-108532544D01*
X118610561Y-108508215D01*
X118625498Y-108505027D01*
X118771351Y-108512014D01*
X118943641Y-108572139D01*
X119118861Y-108677569D01*
X119174411Y-108724206D01*
X119311469Y-108909685D01*
X119397515Y-109158611D01*
X119432554Y-109470982D01*
X119432970Y-109484595D01*
X119444638Y-109648788D01*
X119465502Y-109777712D01*
X119491934Y-109848307D01*
X119542419Y-109897623D01*
X119658917Y-109989369D01*
X119818050Y-110101840D01*
X120006143Y-110226620D01*
X120209524Y-110355296D01*
X120414520Y-110479446D01*
X120607457Y-110590658D01*
X120774663Y-110680515D01*
X120902463Y-110740601D01*
X120977184Y-110762500D01*
X121009517Y-110759338D01*
X121097325Y-110716896D01*
X121188297Y-110620091D01*
X121286520Y-110462756D01*
X121396084Y-110238722D01*
X121521075Y-109941820D01*
X121572663Y-109816268D01*
X121657771Y-109616221D01*
X121754376Y-109394652D01*
X121849933Y-109180601D01*
X121858130Y-109162468D01*
X121935422Y-108988059D01*
X121996556Y-108844015D01*
X122035537Y-108744849D01*
X122046368Y-108705074D01*
X122033407Y-108710975D01*
X121968126Y-108757714D01*
X121857853Y-108843352D01*
X121713502Y-108959337D01*
X121545987Y-109097117D01*
X121410468Y-109207908D01*
X121187798Y-109377340D01*
X121005538Y-109493410D01*
X120853524Y-109559957D01*
X120770870Y-109573029D01*
X120721590Y-109580823D01*
X120599569Y-109559849D01*
X120477295Y-109500874D01*
X120399267Y-109443512D01*
X120284206Y-109343121D01*
X120129361Y-109196909D01*
X119931770Y-109001957D01*
X119688479Y-108755347D01*
X119396530Y-108454163D01*
X119052966Y-108095485D01*
X118513623Y-107529869D01*
X118513623Y-108031207D01*
X118059300Y-108031207D01*
X118056070Y-107917881D01*
X118048620Y-107728820D01*
X118041186Y-107614638D01*
X118033730Y-107575930D01*
X118026214Y-107613288D01*
X118018601Y-107727307D01*
X118010852Y-107918580D01*
X118002930Y-108187701D01*
X117994796Y-108535263D01*
X117986412Y-108961860D01*
X117977741Y-109468085D01*
X117968745Y-110054532D01*
X117959385Y-110721795D01*
X117956966Y-110899667D01*
X117950032Y-111391604D01*
X117943747Y-111805695D01*
X117938024Y-112144621D01*
X117932774Y-112411066D01*
X117927909Y-112607713D01*
X117923342Y-112737247D01*
X117918982Y-112802349D01*
X117914742Y-112805704D01*
X117910537Y-112749994D01*
X117906273Y-112637904D01*
X117901868Y-112472116D01*
X117899026Y-112311744D01*
X117896221Y-112071785D01*
X117893552Y-111761057D01*
X117891022Y-111384320D01*
X117888634Y-110946326D01*
X117886390Y-110451833D01*
X117884293Y-109905595D01*
X117882344Y-109312367D01*
X117880546Y-108676905D01*
X117878902Y-108003967D01*
X117877414Y-107298306D01*
X117876084Y-106564677D01*
X117874915Y-105807837D01*
X117873910Y-105032540D01*
X117873071Y-104243544D01*
X117873033Y-104198320D01*
X118508339Y-104198320D01*
X118526798Y-104262398D01*
X118585578Y-104342539D01*
X118675340Y-104420404D01*
X118718543Y-104452278D01*
X118819579Y-104542422D01*
X118882721Y-104621169D01*
X118893548Y-104642390D01*
X118899814Y-104671742D01*
X118862988Y-104652890D01*
X118774332Y-104582736D01*
X118718685Y-104539345D01*
X118624978Y-104477499D01*
X118565406Y-104453205D01*
X118555552Y-104455552D01*
X118531235Y-104498656D01*
X118517770Y-104603456D01*
X118513623Y-104779621D01*
X118513623Y-105106037D01*
X118625562Y-105076169D01*
X118681267Y-105064111D01*
X118891567Y-105067623D01*
X119090526Y-105144831D01*
X119266823Y-105289669D01*
X119409136Y-105496069D01*
X119431762Y-105541406D01*
X119472766Y-105643195D01*
X119496786Y-105751891D01*
X119508080Y-105892294D01*
X119510898Y-106089202D01*
X119510898Y-106485451D01*
X119989738Y-106989660D01*
X120166584Y-107173523D01*
X120347886Y-107353268D01*
X120490946Y-107480937D01*
X120603784Y-107562115D01*
X120694418Y-107602387D01*
X120770870Y-107607336D01*
X120841158Y-107582548D01*
X120924771Y-107517492D01*
X121051651Y-107389720D01*
X121216604Y-107204497D01*
X121415411Y-106966563D01*
X121643850Y-106680659D01*
X121860287Y-106404747D01*
X121662863Y-106232903D01*
X121569322Y-106148886D01*
X121174824Y-105727911D01*
X120832865Y-105244907D01*
X120543511Y-104700053D01*
X120306821Y-104093529D01*
X120122857Y-103425514D01*
X119991681Y-102696189D01*
X119913355Y-101905734D01*
X119887939Y-101054327D01*
X119889017Y-100158814D01*
X119563286Y-99521670D01*
X119480638Y-99361461D01*
X119336125Y-99092680D01*
X119212805Y-98885038D01*
X119103016Y-98729591D01*
X118999096Y-98617395D01*
X118893380Y-98539505D01*
X118778207Y-98486977D01*
X118645914Y-98450867D01*
X118513623Y-98422378D01*
X118513623Y-100969683D01*
X118513684Y-101148317D01*
X118514688Y-101680860D01*
X118516892Y-102151381D01*
X118520252Y-102557111D01*
X118524727Y-102895282D01*
X118530273Y-103163125D01*
X118536847Y-103357869D01*
X118544408Y-103476746D01*
X118552911Y-103516987D01*
X118574593Y-103509424D01*
X118647758Y-103461732D01*
X118742930Y-103384696D01*
X118821057Y-103324623D01*
X118852927Y-103317500D01*
X118841189Y-103353600D01*
X118789255Y-103422533D01*
X118700533Y-103513907D01*
X118688931Y-103524994D01*
X118622250Y-103599986D01*
X118595033Y-103651377D01*
X118611114Y-103671809D01*
X118686569Y-103681080D01*
X118806822Y-103667926D01*
X118952973Y-103635883D01*
X119106120Y-103588491D01*
X119247362Y-103529286D01*
X119254557Y-103525734D01*
X119372980Y-103472147D01*
X119453543Y-103444730D01*
X119479163Y-103449373D01*
X119442501Y-103492073D01*
X119345302Y-103557963D01*
X119210188Y-103630330D01*
X119058573Y-103698799D01*
X118911875Y-103752995D01*
X118791507Y-103782540D01*
X118724197Y-103793717D01*
X118631426Y-103817875D01*
X118595033Y-103841123D01*
X118606291Y-103850229D01*
X118679979Y-103871959D01*
X118807229Y-103896742D01*
X118970253Y-103920803D01*
X119059465Y-103932696D01*
X119210177Y-103955133D01*
X119317911Y-103974360D01*
X119363736Y-103987186D01*
X119363686Y-103989370D01*
X119318612Y-103997550D01*
X119214635Y-104003286D01*
X119069926Y-104005449D01*
X119006126Y-104006050D01*
X118849374Y-104016588D01*
X118771687Y-104040706D01*
X118772049Y-104078989D01*
X118849440Y-104132023D01*
X118852005Y-104133376D01*
X118947717Y-104192160D01*
X119052543Y-104268092D01*
X119147310Y-104345533D01*
X119212848Y-104408849D01*
X119229984Y-104442400D01*
X119227111Y-104444088D01*
X119178788Y-104428758D01*
X119100393Y-104376350D01*
X119050949Y-104344564D01*
X118928258Y-104285373D01*
X118782155Y-104228287D01*
X118644448Y-104185267D01*
X118546940Y-104168269D01*
X118539540Y-104168647D01*
X118508339Y-104198320D01*
X117873033Y-104198320D01*
X117872400Y-103445602D01*
X117871899Y-102643471D01*
X117871572Y-101841906D01*
X117871422Y-101045662D01*
X117871447Y-100259496D01*
X117871654Y-99488162D01*
X117872044Y-98736417D01*
X117872619Y-98009015D01*
X117873382Y-97310712D01*
X117873968Y-96902404D01*
X118269221Y-96902404D01*
X118526896Y-96889064D01*
X118563349Y-96887227D01*
X118692218Y-96884822D01*
X118774238Y-96899675D01*
X118837707Y-96941406D01*
X118910928Y-97019638D01*
X118973312Y-97111156D01*
X119032847Y-97242083D01*
X119073309Y-97377600D01*
X119087455Y-97492693D01*
X119068046Y-97562351D01*
X119050504Y-97548891D01*
X119042789Y-97477752D01*
X119041552Y-97440711D01*
X118998120Y-97260864D01*
X118903272Y-97113537D01*
X118771575Y-97010877D01*
X118617593Y-96965038D01*
X118455894Y-96988169D01*
X118453955Y-96988922D01*
X118396004Y-97030893D01*
X118411359Y-97068975D01*
X118493270Y-97085577D01*
X118493609Y-97085577D01*
X118577170Y-97097581D01*
X118591635Y-97124937D01*
X118544282Y-97154895D01*
X118442389Y-97174706D01*
X118289745Y-97187340D01*
X118278658Y-97390866D01*
X118276418Y-97466180D01*
X118283464Y-97540265D01*
X118303195Y-97540627D01*
X118319533Y-97531324D01*
X118342650Y-97582309D01*
X118362113Y-97712577D01*
X118370807Y-97792525D01*
X118391694Y-97915187D01*
X118427165Y-97987849D01*
X118491364Y-98031800D01*
X118598430Y-98068327D01*
X118630970Y-98078959D01*
X118719513Y-98123269D01*
X118742301Y-98166433D01*
X118742620Y-98181708D01*
X118788769Y-98233263D01*
X118885047Y-98288668D01*
X118928424Y-98309155D01*
X119022308Y-98362139D01*
X119070685Y-98402360D01*
X119065077Y-98420759D01*
X118997005Y-98408280D01*
X118947817Y-98395428D01*
X118932165Y-98400845D01*
X118960295Y-98433277D01*
X119039002Y-98500420D01*
X119175080Y-98609969D01*
X119195209Y-98625917D01*
X119297598Y-98700190D01*
X119352261Y-98722468D01*
X119368430Y-98696901D01*
X119369573Y-98682766D01*
X119399894Y-98654110D01*
X119458594Y-98677081D01*
X119528362Y-98740973D01*
X119591887Y-98835083D01*
X119616872Y-98888868D01*
X119650794Y-99053561D01*
X119607654Y-99195135D01*
X119595612Y-99217560D01*
X119587775Y-99293478D01*
X119629739Y-99399439D01*
X119641160Y-99420214D01*
X119694912Y-99490349D01*
X119736875Y-99506236D01*
X119742161Y-99503155D01*
X119827388Y-99495720D01*
X119912831Y-99552535D01*
X119987487Y-99658312D01*
X120040351Y-99797769D01*
X120060418Y-99955619D01*
X120057590Y-100029320D01*
X120039022Y-100082447D01*
X119995959Y-100081731D01*
X119963184Y-100073224D01*
X119945775Y-100087553D01*
X120017533Y-100238939D01*
X120130272Y-100469960D01*
X120250361Y-100709496D01*
X120373394Y-100949429D01*
X120494962Y-101181643D01*
X120610659Y-101398020D01*
X120716077Y-101590442D01*
X120806811Y-101750793D01*
X120878452Y-101870955D01*
X120926593Y-101942812D01*
X120946828Y-101958243D01*
X120934749Y-101909135D01*
X120898196Y-101800403D01*
X120882726Y-101724645D01*
X120899430Y-101692157D01*
X120949469Y-101685257D01*
X121023752Y-101706020D01*
X121135558Y-101783179D01*
X121248298Y-101898619D01*
X121343145Y-102032375D01*
X121401279Y-102164481D01*
X121411960Y-102206621D01*
X121428791Y-102331302D01*
X121403052Y-102398106D01*
X121331753Y-102417949D01*
X121312955Y-102433734D01*
X121347851Y-102494731D01*
X121446093Y-102603427D01*
X121447809Y-102605183D01*
X121528312Y-102694378D01*
X121564714Y-102749453D01*
X121549654Y-102759331D01*
X121509483Y-102747586D01*
X121490067Y-102759515D01*
X121524433Y-102803480D01*
X121604405Y-102870376D01*
X121721807Y-102951095D01*
X121789129Y-102991041D01*
X121942259Y-103052086D01*
X122111822Y-103069230D01*
X122189435Y-103067814D01*
X122272848Y-103055147D01*
X122346031Y-103019114D01*
X122430911Y-102947668D01*
X122549413Y-102828755D01*
X122641365Y-102724982D01*
X122826669Y-102463936D01*
X123010106Y-102141691D01*
X123186100Y-101771530D01*
X123349075Y-101366737D01*
X123493458Y-100940596D01*
X123613672Y-100506390D01*
X123704143Y-100077404D01*
X123761053Y-99751763D01*
X123752187Y-100090965D01*
X123749480Y-100210328D01*
X123749880Y-100324267D01*
X123757629Y-100375887D01*
X123775141Y-100376499D01*
X123804834Y-100337406D01*
X123827337Y-100304681D01*
X123890278Y-100221607D01*
X123950070Y-100151236D01*
X123991350Y-100110945D01*
X123998754Y-100118109D01*
X123987844Y-100142343D01*
X123946081Y-100230146D01*
X123882193Y-100362045D01*
X123804836Y-100520093D01*
X123627184Y-100881372D01*
X123736589Y-100961068D01*
X123775864Y-100994314D01*
X123839397Y-101100565D01*
X123829092Y-101208925D01*
X123744547Y-101302095D01*
X123657960Y-101341527D01*
X123583029Y-101345516D01*
X123566033Y-101339813D01*
X123532683Y-101340058D01*
X123500056Y-101368218D01*
X123460478Y-101436238D01*
X123406275Y-101556061D01*
X123329769Y-101739630D01*
X123315763Y-101773376D01*
X123242370Y-101941811D01*
X123171456Y-102092958D01*
X123116635Y-102197563D01*
X123098431Y-102230141D01*
X123066322Y-102306161D01*
X123071062Y-102336539D01*
X123078119Y-102336969D01*
X123149196Y-102377805D01*
X123209784Y-102462093D01*
X123235418Y-102557016D01*
X123220013Y-102627164D01*
X123160979Y-102716929D01*
X123105594Y-102752815D01*
X123003941Y-102780799D01*
X122910101Y-102774914D01*
X122856333Y-102733414D01*
X122856200Y-102733072D01*
X122822578Y-102721570D01*
X122762156Y-102784295D01*
X122613592Y-102968410D01*
X122424232Y-103145880D01*
X122245926Y-103245166D01*
X122179578Y-103268544D01*
X122117075Y-103296679D01*
X122118529Y-103317675D01*
X122175424Y-103343396D01*
X122198303Y-103352477D01*
X122241008Y-103375146D01*
X122219004Y-103391206D01*
X122124542Y-103410941D01*
X122044189Y-103420321D01*
X121818289Y-103403448D01*
X121575273Y-103335942D01*
X121340262Y-103226166D01*
X121138370Y-103082489D01*
X121127814Y-103073079D01*
X121018124Y-102975725D01*
X120920223Y-102889434D01*
X120823457Y-102804648D01*
X120885729Y-102926763D01*
X120906372Y-102964146D01*
X120983864Y-103084645D01*
X121074081Y-103207120D01*
X121137611Y-103288892D01*
X121189088Y-103363765D01*
X121188471Y-103380811D01*
X121137677Y-103341199D01*
X121038620Y-103246098D01*
X120893215Y-103096679D01*
X120789134Y-102989156D01*
X120685783Y-102886508D01*
X120615511Y-102821720D01*
X120589584Y-102805590D01*
X120596991Y-102827970D01*
X120634086Y-102911581D01*
X120695320Y-103039784D01*
X120772757Y-103195678D01*
X120824510Y-103299051D01*
X120892250Y-103437708D01*
X120938693Y-103537151D01*
X120955930Y-103580755D01*
X120940983Y-103595103D01*
X120888093Y-103545783D01*
X120798130Y-103427781D01*
X120672273Y-103242500D01*
X120620171Y-103165098D01*
X120541638Y-103057262D01*
X120487587Y-102995003D01*
X120467469Y-102989976D01*
X120471181Y-103009411D01*
X120509105Y-103098099D01*
X120580772Y-103232946D01*
X120677208Y-103399177D01*
X120789437Y-103582018D01*
X120908486Y-103766697D01*
X121025379Y-103938440D01*
X121131141Y-104082472D01*
X121185659Y-104153103D01*
X121257054Y-104249337D01*
X121282328Y-104293436D01*
X121264797Y-104292868D01*
X121207778Y-104255103D01*
X121188879Y-104241369D01*
X121100439Y-104169626D01*
X121048196Y-104115174D01*
X121042683Y-104107434D01*
X120983939Y-104043831D01*
X120897831Y-103964744D01*
X120778884Y-103862981D01*
X120915892Y-104057555D01*
X121016686Y-104185830D01*
X121149857Y-104335840D01*
X121286329Y-104474782D01*
X121319501Y-104506660D01*
X121417177Y-104603899D01*
X121479968Y-104671865D01*
X121495543Y-104697436D01*
X121458830Y-104683064D01*
X121369435Y-104637902D01*
X121250220Y-104572651D01*
X121144157Y-104515873D01*
X121053582Y-104474154D01*
X121012498Y-104464480D01*
X121016307Y-104488297D01*
X121068158Y-104558841D01*
X121164575Y-104663568D01*
X121294696Y-104792405D01*
X121447664Y-104935285D01*
X121612620Y-105082138D01*
X121778703Y-105222896D01*
X121935060Y-105347489D01*
X122070825Y-105445848D01*
X122133436Y-105490262D01*
X122181883Y-105536106D01*
X122164878Y-105547718D01*
X122087226Y-105526042D01*
X121953729Y-105472022D01*
X121769194Y-105386602D01*
X121714317Y-105360220D01*
X121578021Y-105297482D01*
X121503308Y-105269770D01*
X121482210Y-105274763D01*
X121506764Y-105310141D01*
X121564137Y-105364553D01*
X121697856Y-105469589D01*
X121880500Y-105598363D01*
X122098904Y-105741704D01*
X122339905Y-105890448D01*
X122431490Y-105948250D01*
X122500169Y-106002523D01*
X122501213Y-106024440D01*
X122438803Y-106013907D01*
X122317123Y-105970825D01*
X122140357Y-105895096D01*
X122040568Y-105852462D01*
X121946276Y-105818795D01*
X121903153Y-105812607D01*
X121918401Y-105835951D01*
X121991454Y-105887990D01*
X122108989Y-105958832D01*
X122255468Y-106039913D01*
X122415350Y-106122672D01*
X122573095Y-106198545D01*
X122713164Y-106258967D01*
X122791784Y-106288767D01*
X123026176Y-106365880D01*
X123271802Y-106432647D01*
X123506955Y-106484099D01*
X123709928Y-106515269D01*
X123859014Y-106521192D01*
X123935190Y-106514811D01*
X123970995Y-106505708D01*
X123950736Y-106489032D01*
X123867168Y-106459320D01*
X123713044Y-106411102D01*
X123663692Y-106395655D01*
X123529785Y-106351464D01*
X123439028Y-106317970D01*
X123408853Y-106301458D01*
X123414224Y-106300987D01*
X123477685Y-106309255D01*
X123599327Y-106329791D01*
X123762852Y-106359450D01*
X123951964Y-106395086D01*
X124150369Y-106433554D01*
X124341768Y-106471708D01*
X124509867Y-106506401D01*
X124638369Y-106534489D01*
X124710979Y-106552824D01*
X124770056Y-106561490D01*
X124779254Y-106537129D01*
X124736810Y-106490595D01*
X124649921Y-106435698D01*
X124517629Y-106368164D01*
X124639745Y-106392584D01*
X124849311Y-106445575D01*
X125128261Y-106536551D01*
X125436584Y-106652965D01*
X125753214Y-106785927D01*
X126057076Y-106926547D01*
X126327103Y-107065938D01*
X126542225Y-107195210D01*
X126546506Y-107198081D01*
X126706634Y-107302886D01*
X126903689Y-107428216D01*
X127116651Y-107561066D01*
X127324498Y-107688435D01*
X127506209Y-107797319D01*
X127640763Y-107874718D01*
X127736598Y-107931129D01*
X127799094Y-107976243D01*
X127803284Y-107993814D01*
X127797455Y-107993775D01*
X127685977Y-107972294D01*
X127520499Y-107916511D01*
X127315898Y-107833173D01*
X127087049Y-107729026D01*
X126848832Y-107610814D01*
X126616120Y-107485286D01*
X126403790Y-107359184D01*
X126379633Y-107344112D01*
X126293456Y-107297487D01*
X126242704Y-107293720D01*
X126201844Y-107328999D01*
X126182536Y-107346403D01*
X126079469Y-107377027D01*
X125927145Y-107369666D01*
X125741866Y-107326294D01*
X125539932Y-107248883D01*
X125477785Y-107218924D01*
X125362825Y-107146894D01*
X125327809Y-107089219D01*
X125372768Y-107046073D01*
X125497734Y-107017628D01*
X125581880Y-107003232D01*
X125615166Y-106984230D01*
X125581746Y-106958962D01*
X125477218Y-106924347D01*
X125297176Y-106877303D01*
X125023861Y-106818307D01*
X124616996Y-106770765D01*
X124249814Y-106785116D01*
X123912237Y-106863057D01*
X123594190Y-107006287D01*
X123285594Y-107216507D01*
X123261439Y-107236181D01*
X123116217Y-107370772D01*
X122961801Y-107536986D01*
X122806221Y-107723370D01*
X122657512Y-107918477D01*
X122523703Y-108110859D01*
X122412826Y-108289067D01*
X122332912Y-108441651D01*
X122291994Y-108557164D01*
X122298101Y-108624157D01*
X122320024Y-108664743D01*
X122325927Y-108750729D01*
X122302897Y-108890556D01*
X122266313Y-109034087D01*
X122200832Y-109204587D01*
X122127353Y-109314407D01*
X122050981Y-109356745D01*
X121976823Y-109324804D01*
X121935710Y-109300356D01*
X121890094Y-109338161D01*
X121842484Y-109436008D01*
X121819996Y-109562818D01*
X121846268Y-109659586D01*
X121907648Y-109758288D01*
X121985101Y-109949680D01*
X122014264Y-110132285D01*
X122005441Y-110237442D01*
X121960351Y-110381023D01*
X121886436Y-110480849D01*
X121794324Y-110518269D01*
X121702503Y-110498801D01*
X121635024Y-110429394D01*
X121577647Y-110294391D01*
X121562779Y-110255065D01*
X121544780Y-110235921D01*
X121522466Y-110257717D01*
X121490876Y-110329651D01*
X121445043Y-110460925D01*
X121380006Y-110660737D01*
X121369136Y-110694521D01*
X121307414Y-110884741D01*
X121265339Y-111006476D01*
X121238300Y-111067599D01*
X121221692Y-111075983D01*
X121210906Y-111039501D01*
X121201335Y-110966026D01*
X121193230Y-110909554D01*
X121171490Y-110834518D01*
X121146878Y-110833735D01*
X121104404Y-110868577D01*
X120994294Y-110881227D01*
X120977185Y-110877314D01*
X120840394Y-110846028D01*
X120654775Y-110764675D01*
X120543645Y-110711135D01*
X120459104Y-110680557D01*
X120426764Y-110683264D01*
X120425799Y-110693326D01*
X120388297Y-110720714D01*
X120309688Y-110700795D01*
X120208375Y-110637430D01*
X120203572Y-110633585D01*
X120130777Y-110555529D01*
X120100225Y-110484787D01*
X120091562Y-110462863D01*
X120027771Y-110393028D01*
X119912164Y-110297501D01*
X119756904Y-110186837D01*
X119663939Y-110125134D01*
X119528287Y-110041946D01*
X119441885Y-110006618D01*
X119393759Y-110019189D01*
X119372933Y-110079696D01*
X119368430Y-110188178D01*
X119355187Y-110276195D01*
X119309916Y-110378198D01*
X119293622Y-110399493D01*
X119270365Y-110418664D01*
X119270876Y-110380411D01*
X119293466Y-110274039D01*
X119305937Y-110201430D01*
X119322508Y-110043106D01*
X119334974Y-109848096D01*
X119341311Y-109643109D01*
X119342221Y-109531313D01*
X119339048Y-109350768D01*
X119326987Y-109221302D01*
X119303534Y-109122586D01*
X119266176Y-109034293D01*
X119211196Y-108947237D01*
X119101063Y-108823236D01*
X118972204Y-108713621D01*
X118846171Y-108636001D01*
X118744513Y-108607989D01*
X118702909Y-108609771D01*
X118681379Y-108618749D01*
X118737501Y-108645834D01*
X118775933Y-108664982D01*
X118769423Y-108678656D01*
X118689022Y-108683678D01*
X118644403Y-108686470D01*
X118555902Y-108711226D01*
X118533159Y-108753718D01*
X118584001Y-108804914D01*
X118612424Y-108822207D01*
X118626302Y-108843052D01*
X118564504Y-108848121D01*
X118520408Y-108851760D01*
X118469491Y-108877493D01*
X118480419Y-108916568D01*
X118544331Y-108955577D01*
X118652373Y-108981114D01*
X118681587Y-108985162D01*
X118864662Y-109042579D01*
X119023773Y-109142567D01*
X119130411Y-109268016D01*
X119137597Y-109281660D01*
X119152251Y-109320153D01*
X119125484Y-109309250D01*
X119047721Y-109246453D01*
X118905948Y-109157577D01*
X118715802Y-109102569D01*
X118532578Y-109110656D01*
X118507638Y-109118327D01*
X118456179Y-109158263D01*
X118475081Y-109197804D01*
X118559000Y-109215705D01*
X118607775Y-109220509D01*
X118602499Y-109245710D01*
X118538472Y-109307293D01*
X118463535Y-109406430D01*
X118424262Y-109520008D01*
X118420425Y-109563957D01*
X118428804Y-109616492D01*
X118476188Y-109633352D01*
X118583633Y-109628924D01*
X118640671Y-109628043D01*
X118810775Y-109663262D01*
X118952773Y-109745980D01*
X119049028Y-109863016D01*
X119081901Y-110001194D01*
X119081040Y-110007138D01*
X119061815Y-109994794D01*
X119025737Y-109924834D01*
X118962586Y-109831831D01*
X118841239Y-109745690D01*
X118766503Y-109719522D01*
X118679144Y-109717307D01*
X118571762Y-109758419D01*
X118547901Y-109770406D01*
X118465498Y-109823719D01*
X118432212Y-109866329D01*
X118440336Y-109892817D01*
X118484653Y-109904813D01*
X118533975Y-109866987D01*
X118542281Y-109856098D01*
X118602177Y-109826282D01*
X118618040Y-109839743D01*
X118628227Y-109924910D01*
X118617134Y-110088579D01*
X118611114Y-110152467D01*
X118608583Y-110302393D01*
X118632659Y-110429476D01*
X118691597Y-110547274D01*
X118793650Y-110669346D01*
X118947072Y-110809249D01*
X119160117Y-110980544D01*
X119317637Y-111103124D01*
X119751842Y-111437838D01*
X120129555Y-111723382D01*
X120454931Y-111962423D01*
X120732127Y-112157632D01*
X120965299Y-112311676D01*
X121158601Y-112427224D01*
X121316188Y-112506945D01*
X121442220Y-112553508D01*
X121540849Y-112569582D01*
X121616231Y-112557835D01*
X121642914Y-112542759D01*
X121727686Y-112470566D01*
X121836237Y-112357893D01*
X121951665Y-112221679D01*
X121996170Y-112166093D01*
X122118088Y-112016976D01*
X122228999Y-111885334D01*
X122309356Y-111794513D01*
X122330459Y-111771746D01*
X122389438Y-111699547D01*
X122397182Y-111658379D01*
X122359920Y-111627700D01*
X122319505Y-111598159D01*
X122314660Y-111553487D01*
X122352889Y-111468736D01*
X122427791Y-111356177D01*
X122543714Y-111229461D01*
X122674516Y-111117251D01*
X122799683Y-111036946D01*
X122898691Y-111005945D01*
X122908376Y-111005503D01*
X122981006Y-110983294D01*
X123079183Y-110922510D01*
X123212853Y-110816121D01*
X123391958Y-110657092D01*
X123534638Y-110530752D01*
X123674511Y-110417529D01*
X123775897Y-110348632D01*
X123829539Y-110330959D01*
X123858656Y-110338840D01*
X123885642Y-110323133D01*
X123863078Y-110275849D01*
X123796232Y-110215289D01*
X123705765Y-110151923D01*
X123822894Y-110151922D01*
X123895773Y-110149246D01*
X123913417Y-110129166D01*
X123869412Y-110073899D01*
X123830147Y-109995130D01*
X123848764Y-109908351D01*
X123918589Y-109833857D01*
X124023861Y-109782505D01*
X124148823Y-109765150D01*
X124277711Y-109792648D01*
X124395514Y-109842868D01*
X124263222Y-109857507D01*
X124253149Y-109858681D01*
X124166501Y-109874728D01*
X124130930Y-109892546D01*
X124132808Y-109897741D01*
X124173165Y-109943660D01*
X124249599Y-110012801D01*
X124324670Y-110090840D01*
X124411853Y-110203248D01*
X124493894Y-110325189D01*
X124554828Y-110432895D01*
X124578686Y-110502605D01*
X124574273Y-110506594D01*
X124531028Y-110481390D01*
X124456571Y-110416507D01*
X124387698Y-110355943D01*
X124343980Y-110335069D01*
X124348109Y-110373441D01*
X124399426Y-110467852D01*
X124497277Y-110615092D01*
X124510250Y-110633647D01*
X124602495Y-110769441D01*
X124649121Y-110848424D01*
X124653598Y-110877672D01*
X124619392Y-110864263D01*
X124580531Y-110847162D01*
X124578123Y-110872613D01*
X124624682Y-110945152D01*
X124715932Y-111058366D01*
X124847588Y-111205850D01*
X124948189Y-111307100D01*
X125223384Y-111527375D01*
X125521685Y-111697628D01*
X125820193Y-111803779D01*
X125942309Y-111832908D01*
X125840546Y-111748010D01*
X125800588Y-111712074D01*
X125763990Y-111651831D01*
X125783681Y-111589329D01*
X125853036Y-111536763D01*
X125971391Y-111508653D01*
X126116268Y-111504308D01*
X126266246Y-111521266D01*
X126399900Y-111557067D01*
X126495804Y-111609248D01*
X126532533Y-111675350D01*
X126507574Y-111745176D01*
X126412075Y-111813792D01*
X126253930Y-111858652D01*
X126042568Y-111875898D01*
X125945629Y-111878438D01*
X125834660Y-111889716D01*
X125801170Y-111907784D01*
X125843051Y-111930468D01*
X125958196Y-111955596D01*
X126144495Y-111980989D01*
X126186033Y-111985231D01*
X126557680Y-111990525D01*
X126976441Y-111941363D01*
X127448398Y-111837073D01*
X127467574Y-111833914D01*
X127464632Y-111852705D01*
X127397517Y-111903621D01*
X127330586Y-111950283D01*
X127274261Y-112002039D01*
X127289944Y-112021158D01*
X127377164Y-112010092D01*
X127392586Y-112006915D01*
X127454465Y-111995734D01*
X127446580Y-112006087D01*
X127366988Y-112044547D01*
X127363291Y-112046282D01*
X127264810Y-112086319D01*
X127196394Y-112103933D01*
X127179181Y-112106969D01*
X127120062Y-112150836D01*
X127121170Y-112178023D01*
X127188894Y-112171332D01*
X127194744Y-112169975D01*
X127202228Y-112177438D01*
X127147715Y-112212544D01*
X127041347Y-112268608D01*
X126915280Y-112328248D01*
X126806727Y-112373302D01*
X126746235Y-112390578D01*
X126704415Y-112418269D01*
X126699223Y-112479440D01*
X126736059Y-112533173D01*
X126773015Y-112594534D01*
X126764914Y-112687152D01*
X126712799Y-112774497D01*
X126710237Y-112776968D01*
X126612739Y-112822001D01*
X126458392Y-112837557D01*
X126374082Y-112832452D01*
X126214165Y-112786993D01*
X126111107Y-112699867D01*
X126074600Y-112577639D01*
X126062935Y-112505520D01*
X126028807Y-112484137D01*
X125989572Y-112497912D01*
X125888930Y-112532317D01*
X125759136Y-112576135D01*
X125662645Y-112612532D01*
X125598776Y-112646607D01*
X125598578Y-112664935D01*
X125665192Y-112707669D01*
X125733529Y-112802634D01*
X125779233Y-112915933D01*
X125784847Y-113014777D01*
X125747755Y-113098625D01*
X125677715Y-113195442D01*
X125626522Y-113237840D01*
X125492201Y-113282623D01*
X125339647Y-113271500D01*
X125189234Y-113211061D01*
X125061333Y-113107895D01*
X124976317Y-112968589D01*
X124965243Y-112940282D01*
X124924217Y-112875346D01*
X124862895Y-112852705D01*
X124763741Y-112870335D01*
X124609216Y-112926212D01*
X124577705Y-112938963D01*
X124514228Y-112976350D01*
X124509096Y-113027156D01*
X124554347Y-113119414D01*
X124570868Y-113155484D01*
X124589627Y-113253675D01*
X124575350Y-113334223D01*
X124530832Y-113367628D01*
X124520311Y-113369240D01*
X124513972Y-113402417D01*
X124515758Y-113407026D01*
X124495727Y-113460436D01*
X124432670Y-113533783D01*
X124351154Y-113590686D01*
X124208297Y-113629351D01*
X124062160Y-113614736D01*
X123932868Y-113553702D01*
X123840537Y-113453113D01*
X123805289Y-113319828D01*
X123792755Y-113239990D01*
X123760814Y-113204808D01*
X123754144Y-113205451D01*
X123683141Y-113223508D01*
X123562361Y-113261366D01*
X123413720Y-113312240D01*
X123348487Y-113335953D01*
X123193485Y-113398938D01*
X123102998Y-113447475D01*
X123081547Y-113478699D01*
X123133655Y-113489744D01*
X123164694Y-113495964D01*
X123174360Y-113530449D01*
X123167817Y-113546054D01*
X123189567Y-113571154D01*
X123191165Y-113571171D01*
X123242164Y-113603625D01*
X123256703Y-113683417D01*
X123240525Y-113788830D01*
X123199375Y-113898148D01*
X123138994Y-113989654D01*
X123065130Y-114041633D01*
X123062855Y-114042345D01*
X122905520Y-114051260D01*
X122738897Y-113994177D01*
X122586792Y-113879184D01*
X122568258Y-113860570D01*
X122462533Y-113778350D01*
X122385869Y-113764405D01*
X122371652Y-113769846D01*
X122258803Y-113826119D01*
X122135203Y-113904169D01*
X122021432Y-113988855D01*
X121938076Y-114065038D01*
X121905717Y-114117580D01*
X121914022Y-114152744D01*
X121962104Y-114163596D01*
X121992836Y-114157964D01*
X121987027Y-114192373D01*
X121971080Y-114224280D01*
X121944132Y-114316190D01*
X121918708Y-114401181D01*
X121871721Y-114507518D01*
X121834493Y-114606262D01*
X121813292Y-114744853D01*
X121822579Y-114868744D01*
X121862953Y-114947790D01*
X121864395Y-114948983D01*
X122000774Y-115029431D01*
X122137440Y-115036019D01*
X122293311Y-114969710D01*
X122462466Y-114868838D01*
X122344571Y-114769635D01*
X122236911Y-114645983D01*
X122196051Y-114501362D01*
X122235773Y-114349133D01*
X122249744Y-114323309D01*
X122325755Y-114230227D01*
X122413260Y-114213322D01*
X122527435Y-114268392D01*
X122642479Y-114338625D01*
X122779844Y-114404888D01*
X122893167Y-114441411D01*
X122961096Y-114439755D01*
X122977442Y-114432489D01*
X122977357Y-114456113D01*
X122971591Y-114500172D01*
X123022930Y-114521067D01*
X123119315Y-114511437D01*
X123244370Y-114470406D01*
X123291616Y-114450491D01*
X123411372Y-114401621D01*
X123495365Y-114369541D01*
X123531477Y-114355322D01*
X123549049Y-114326331D01*
X123505542Y-114269264D01*
X123488761Y-114247904D01*
X123446309Y-114140922D01*
X123446072Y-114028366D01*
X123489825Y-113946688D01*
X123504986Y-113936429D01*
X123591662Y-113895982D01*
X123708483Y-113855414D01*
X123862232Y-113830449D01*
X124016048Y-113848083D01*
X124134143Y-113907184D01*
X124196419Y-114001721D01*
X124206773Y-114038415D01*
X124232792Y-114081966D01*
X124282525Y-114094296D01*
X124373745Y-114077040D01*
X124524228Y-114031829D01*
X124629813Y-113996410D01*
X124704627Y-113957956D01*
X124735477Y-113908997D01*
X124741507Y-113831922D01*
X124767903Y-113707213D01*
X124861485Y-113591264D01*
X125013116Y-113516341D01*
X125212739Y-113489744D01*
X125332145Y-113494706D01*
X125441234Y-113520686D01*
X125519803Y-113576053D01*
X125532834Y-113588887D01*
X125593147Y-113634068D01*
X125659275Y-113639381D01*
X125766075Y-113609569D01*
X125856286Y-113577363D01*
X125930678Y-113534012D01*
X125947122Y-113479536D01*
X125918285Y-113396180D01*
X125903777Y-113357436D01*
X125905480Y-113240116D01*
X125982514Y-113146387D01*
X126131640Y-113081034D01*
X126248691Y-113059098D01*
X126434009Y-113071894D01*
X126579541Y-113149725D01*
X126587732Y-113156929D01*
X126638277Y-113185720D01*
X126700537Y-113177415D01*
X126803419Y-113129387D01*
X126834547Y-113112945D01*
X126951547Y-113046206D01*
X127037595Y-112990142D01*
X127081856Y-112953806D01*
X127080480Y-112927592D01*
X127007066Y-112904769D01*
X126963697Y-112890599D01*
X126906574Y-112837827D01*
X126926705Y-112760786D01*
X127024132Y-112658895D01*
X127118707Y-112589712D01*
X127290271Y-112522374D01*
X127481808Y-112524104D01*
X127495292Y-112526111D01*
X127613560Y-112518323D01*
X127723829Y-112449614D01*
X127739679Y-112435852D01*
X127807549Y-112373305D01*
X127835097Y-112341382D01*
X127834735Y-112340456D01*
X127792921Y-112332361D01*
X127702804Y-112329254D01*
X127667372Y-112328398D01*
X127588144Y-112307056D01*
X127558759Y-112247618D01*
X127566976Y-112209817D01*
X127630146Y-112132768D01*
X127737424Y-112049632D01*
X127868308Y-111973374D01*
X128002296Y-111916961D01*
X128118887Y-111893359D01*
X128175038Y-111887223D01*
X128242994Y-111855981D01*
X128313574Y-111784475D01*
X128405415Y-111657356D01*
X128425953Y-111626600D01*
X128563805Y-111399450D01*
X128712613Y-111124246D01*
X128859393Y-110825987D01*
X128991160Y-110529672D01*
X129047890Y-110392322D01*
X129083085Y-110296871D01*
X129088540Y-110253500D01*
X129065373Y-110250082D01*
X129014705Y-110274489D01*
X128974074Y-110292303D01*
X128896639Y-110292069D01*
X128857541Y-110235529D01*
X128857726Y-110134318D01*
X128898139Y-110000072D01*
X128979730Y-109844428D01*
X129037135Y-109757455D01*
X129107074Y-109662403D01*
X129152728Y-109613740D01*
X129174117Y-109599966D01*
X129252544Y-109548461D01*
X129261971Y-109540331D01*
X129305823Y-109466296D01*
X129341552Y-109356554D01*
X129353203Y-109297095D01*
X129353777Y-109208328D01*
X129317219Y-109157037D01*
X129304822Y-109146693D01*
X129283857Y-109110257D01*
X129279844Y-109046540D01*
X129293079Y-108938162D01*
X129323858Y-108767737D01*
X129326660Y-108752886D01*
X129355521Y-108560475D01*
X129372385Y-108348224D01*
X129378294Y-108095770D01*
X129374290Y-107782755D01*
X129370506Y-107651620D01*
X129362145Y-107446610D01*
X129352228Y-107279385D01*
X129341689Y-107164487D01*
X129331462Y-107116451D01*
X129299642Y-107114170D01*
X129238455Y-107155251D01*
X129203023Y-107189263D01*
X129156869Y-107214011D01*
X129120516Y-107180561D01*
X129074527Y-107079993D01*
X129041103Y-106980160D01*
X129020447Y-106740805D01*
X129077511Y-106498063D01*
X129112299Y-106394698D01*
X129115742Y-106300115D01*
X129081886Y-106181774D01*
X129047315Y-106095259D01*
X129018895Y-106061726D01*
X128995213Y-106091587D01*
X128968084Y-106129418D01*
X128890121Y-106162821D01*
X128836347Y-106143451D01*
X128766918Y-106061929D01*
X128709448Y-105936969D01*
X128669488Y-105790703D01*
X128652591Y-105645278D01*
X128664311Y-105522826D01*
X128710200Y-105445489D01*
X128716861Y-105440566D01*
X128751423Y-105406678D01*
X128758120Y-105362465D01*
X128734632Y-105286842D01*
X128678637Y-105158720D01*
X128668615Y-105136608D01*
X128614910Y-105022960D01*
X128582805Y-104974047D01*
X128562897Y-104981148D01*
X128545779Y-105035544D01*
X128511008Y-105111443D01*
X128444884Y-105146587D01*
X128370397Y-105112942D01*
X128304523Y-105012155D01*
X128303862Y-105010555D01*
X128272503Y-104901408D01*
X128243447Y-104744980D01*
X128222905Y-104574575D01*
X128208698Y-104435236D01*
X128177293Y-104216245D01*
X128138794Y-104020911D01*
X128096688Y-103863601D01*
X128054461Y-103758679D01*
X128015601Y-103720513D01*
X128000948Y-103717937D01*
X127935703Y-103665071D01*
X127865158Y-103560394D01*
X127800218Y-103425638D01*
X127751788Y-103282538D01*
X127730773Y-103152826D01*
X127722080Y-103013102D01*
X127695745Y-102879889D01*
X127649165Y-102810521D01*
X127578237Y-102795386D01*
X127564813Y-102796148D01*
X127506669Y-102777625D01*
X127448737Y-102711655D01*
X127377164Y-102583648D01*
X127349897Y-102526223D01*
X127295997Y-102381599D01*
X127267800Y-102255676D01*
X127268399Y-102166724D01*
X127300886Y-102133013D01*
X127309072Y-102122306D01*
X127302478Y-102056794D01*
X127271259Y-101951456D01*
X127262774Y-101928698D01*
X127197157Y-101805562D01*
X127123659Y-101758106D01*
X127063717Y-101728724D01*
X126985672Y-101636550D01*
X126920628Y-101506490D01*
X126880208Y-101363251D01*
X126876029Y-101231538D01*
X126881463Y-101139690D01*
X126866653Y-101021021D01*
X126833327Y-100925532D01*
X126788962Y-100872601D01*
X126741033Y-100881608D01*
X126701599Y-100903642D01*
X126639950Y-100880541D01*
X126585748Y-100799532D01*
X126547205Y-100674830D01*
X126532533Y-100520651D01*
X126535967Y-100432704D01*
X126550751Y-100338045D01*
X126573238Y-100301281D01*
X126593280Y-100287530D01*
X126611625Y-100224038D01*
X126610416Y-100143439D01*
X126587160Y-100084541D01*
X126560650Y-100078356D01*
X126498129Y-100108286D01*
X126479051Y-100123250D01*
X126451969Y-100132485D01*
X126469352Y-100077404D01*
X126504785Y-99987520D01*
X126548207Y-99872118D01*
X126550078Y-99867092D01*
X126593369Y-99779653D01*
X126634296Y-99737398D01*
X126661788Y-99721106D01*
X126700409Y-99651335D01*
X126731933Y-99519906D01*
X126759295Y-99316946D01*
X126763294Y-99282893D01*
X126783467Y-99154896D01*
X126807443Y-99046590D01*
X126830699Y-98973086D01*
X126848705Y-98949501D01*
X126856936Y-98990944D01*
X126861685Y-99011857D01*
X126898879Y-99019071D01*
X126928016Y-99032954D01*
X126940822Y-99108255D01*
X126942346Y-99147375D01*
X126953546Y-99192012D01*
X126972138Y-99172488D01*
X126994130Y-99100322D01*
X127015530Y-98987035D01*
X127032347Y-98844148D01*
X127041469Y-98720892D01*
X127040672Y-98642951D01*
X127025252Y-98620247D01*
X126992552Y-98639086D01*
X126989672Y-98641407D01*
X126923218Y-98657341D01*
X126867726Y-98607227D01*
X126832248Y-98505799D01*
X126825838Y-98367789D01*
X126831220Y-98316307D01*
X126862943Y-98217817D01*
X126929408Y-98164787D01*
X126968268Y-98139420D01*
X127014519Y-98070432D01*
X127026734Y-97994718D01*
X127003409Y-97938421D01*
X126943041Y-97927687D01*
X126878877Y-97919316D01*
X126805357Y-97855667D01*
X126754136Y-97756755D01*
X126743095Y-97647626D01*
X126750620Y-97612897D01*
X126791860Y-97565780D01*
X126886774Y-97553964D01*
X126929964Y-97552500D01*
X127006058Y-97526809D01*
X127041982Y-97455254D01*
X127048024Y-97385702D01*
X127003205Y-97320662D01*
X126981777Y-97305794D01*
X126942590Y-97226138D01*
X126967229Y-97122008D01*
X127052979Y-97010322D01*
X127065721Y-96997544D01*
X127139936Y-96893003D01*
X127174639Y-96790465D01*
X127175275Y-96780985D01*
X127167770Y-96698972D01*
X127125258Y-96685867D01*
X127038951Y-96738289D01*
X127022636Y-96749786D01*
X126879917Y-96797026D01*
X126714422Y-96772384D01*
X126537164Y-96677201D01*
X126480661Y-96632721D01*
X126380517Y-96535616D01*
X126320281Y-96451750D01*
X126276248Y-96386612D01*
X126209818Y-96374331D01*
X126171683Y-96386368D01*
X126018599Y-96411843D01*
X125821595Y-96423895D01*
X125607651Y-96422412D01*
X125403745Y-96407281D01*
X125236858Y-96378387D01*
X125108705Y-96346101D01*
X125006188Y-96321565D01*
X124959696Y-96312180D01*
X124955936Y-96312308D01*
X124948423Y-96332836D01*
X125005358Y-96384528D01*
X125119396Y-96461781D01*
X125283201Y-96558999D01*
X125301143Y-96569187D01*
X125426509Y-96644134D01*
X125479985Y-96684635D01*
X125463126Y-96690976D01*
X125377487Y-96663444D01*
X125224623Y-96602327D01*
X125006091Y-96507910D01*
X124972751Y-96492876D01*
X124619252Y-96302104D01*
X124257956Y-96054377D01*
X123912112Y-95765473D01*
X123850639Y-95710157D01*
X123773610Y-95645422D01*
X123735796Y-95620191D01*
X123734991Y-95620288D01*
X123742896Y-95653438D01*
X123786458Y-95733795D01*
X123854526Y-95843361D01*
X123935945Y-95964137D01*
X124019562Y-96078125D01*
X124058128Y-96130559D01*
X124101577Y-96202178D01*
X124103822Y-96229881D01*
X124099905Y-96229058D01*
X124041505Y-96202780D01*
X123929490Y-96145089D01*
X123778147Y-96063507D01*
X123601764Y-95965555D01*
X123560562Y-95942544D01*
X123391984Y-95852277D01*
X123253593Y-95784310D01*
X123158756Y-95744900D01*
X123120839Y-95740309D01*
X123123317Y-95787146D01*
X123153356Y-95872343D01*
X123166432Y-95907458D01*
X123144371Y-95899137D01*
X123075430Y-95826266D01*
X123035876Y-95783982D01*
X122966141Y-95723668D01*
X122927572Y-95710944D01*
X122925422Y-95713869D01*
X122929489Y-95772298D01*
X122966697Y-95876449D01*
X123027524Y-96005832D01*
X123102448Y-96139957D01*
X123181947Y-96258332D01*
X123236632Y-96335077D01*
X123256458Y-96381832D01*
X123225241Y-96381126D01*
X123142702Y-96350536D01*
X123089215Y-96340620D01*
X123092536Y-96367333D01*
X123154295Y-96436168D01*
X123276123Y-96552621D01*
X123334306Y-96607501D01*
X123434765Y-96706027D01*
X123498726Y-96774280D01*
X123514355Y-96799972D01*
X123469038Y-96784302D01*
X123371792Y-96741067D01*
X123244523Y-96679838D01*
X122965033Y-96561750D01*
X122693843Y-96496493D01*
X122394115Y-96475995D01*
X122259941Y-96479199D01*
X122115618Y-96494973D01*
X122030739Y-96520539D01*
X122010753Y-96552144D01*
X122061111Y-96586035D01*
X122187261Y-96618457D01*
X122360257Y-96650203D01*
X122144487Y-96680523D01*
X121969631Y-96719371D01*
X121683371Y-96837541D01*
X121404897Y-97015049D01*
X121154066Y-97240665D01*
X121108540Y-97290467D01*
X121013496Y-97404153D01*
X120952759Y-97491586D01*
X120937840Y-97536994D01*
X120937941Y-97568962D01*
X120906746Y-97655790D01*
X120847326Y-97768605D01*
X120815945Y-97821884D01*
X120715948Y-98006535D01*
X120652849Y-98150057D01*
X120632247Y-98240170D01*
X120632399Y-98241678D01*
X120651970Y-98228022D01*
X120697583Y-98156708D01*
X120759947Y-98042148D01*
X120793978Y-97983115D01*
X120899357Y-97833915D01*
X121037789Y-97664250D01*
X121193255Y-97491501D01*
X121349738Y-97333055D01*
X121491222Y-97206293D01*
X121601691Y-97128597D01*
X121648047Y-97106695D01*
X121663201Y-97113527D01*
X121636652Y-97164293D01*
X121565561Y-97270126D01*
X121509996Y-97355641D01*
X121332178Y-97715393D01*
X121206857Y-98124564D01*
X121137160Y-98570558D01*
X121126210Y-99040781D01*
X121130487Y-99141719D01*
X121140613Y-99304308D01*
X121157895Y-99421967D01*
X121189039Y-99519336D01*
X121240750Y-99621055D01*
X121319737Y-99751763D01*
X121347778Y-99796538D01*
X121466087Y-99978265D01*
X121601841Y-100178814D01*
X121730903Y-100362340D01*
X121736921Y-100370697D01*
X121898101Y-100616285D01*
X121999144Y-100824095D01*
X122044378Y-101005537D01*
X122038131Y-101172021D01*
X122007086Y-101266867D01*
X121941769Y-101353212D01*
X121864030Y-101386248D01*
X121790983Y-101353413D01*
X121723414Y-101237817D01*
X121674814Y-101072299D01*
X121650073Y-100888235D01*
X121653268Y-100716130D01*
X121688477Y-100586491D01*
X121699881Y-100559973D01*
X121695606Y-100488495D01*
X121633829Y-100395818D01*
X121578723Y-100325587D01*
X121485367Y-100198910D01*
X121389745Y-100062660D01*
X121240866Y-99844391D01*
X121240866Y-100009376D01*
X121239961Y-100044593D01*
X121225938Y-100146268D01*
X121200341Y-100199409D01*
X121175626Y-100203084D01*
X121109317Y-100164459D01*
X121033145Y-100081180D01*
X120963267Y-99972626D01*
X120915840Y-99858177D01*
X120894358Y-99776592D01*
X120878103Y-99675540D01*
X120892018Y-99609472D01*
X120938046Y-99551585D01*
X120938084Y-99551547D01*
X120967975Y-99510881D01*
X120967535Y-99462275D01*
X120931017Y-99386354D01*
X120852677Y-99263742D01*
X120836619Y-99239784D01*
X120744568Y-99114054D01*
X120681431Y-99049521D01*
X120651234Y-99049234D01*
X120657999Y-99116240D01*
X120662044Y-99169665D01*
X120621415Y-99224458D01*
X120535345Y-99219580D01*
X120494540Y-99189052D01*
X120435637Y-99104265D01*
X120380915Y-98988981D01*
X120337182Y-98863676D01*
X120311250Y-98748823D01*
X120309929Y-98664897D01*
X120340028Y-98632372D01*
X120354428Y-98630303D01*
X120386059Y-98591330D01*
X120383029Y-98578494D01*
X120347736Y-98507348D01*
X120282379Y-98397548D01*
X120198989Y-98267147D01*
X120109597Y-98134198D01*
X120026234Y-98016755D01*
X119960933Y-97932870D01*
X119925724Y-97900596D01*
X119915239Y-97903227D01*
X119917950Y-97940385D01*
X119930346Y-97978699D01*
X119904189Y-98031952D01*
X119900303Y-98032255D01*
X119838080Y-98037106D01*
X119807678Y-98016503D01*
X119753543Y-97928948D01*
X119721586Y-97808380D01*
X119722590Y-97687435D01*
X119723420Y-97614111D01*
X119662132Y-97507903D01*
X119617201Y-97458958D01*
X119505282Y-97275351D01*
X119412196Y-97027105D01*
X119342671Y-96725793D01*
X119332861Y-96672346D01*
X119293763Y-96497519D01*
X119250528Y-96347924D01*
X119210849Y-96251260D01*
X119168680Y-96189638D01*
X119039604Y-96065594D01*
X118887904Y-95979667D01*
X118741658Y-95949891D01*
X118659474Y-95954095D01*
X118652546Y-95963855D01*
X118717148Y-95986539D01*
X118725978Y-95989387D01*
X118775964Y-96009151D01*
X118758364Y-96018756D01*
X118666267Y-96023186D01*
X118547638Y-96042954D01*
X118432212Y-96108654D01*
X118388842Y-96155739D01*
X118356121Y-96219655D01*
X118395503Y-96247485D01*
X118508877Y-96242526D01*
X118518313Y-96241374D01*
X118669229Y-96242232D01*
X118812833Y-96269469D01*
X118830005Y-96275730D01*
X118942786Y-96339627D01*
X119051211Y-96431288D01*
X119132708Y-96528841D01*
X119164703Y-96610415D01*
X119163403Y-96616839D01*
X119132408Y-96608683D01*
X119073116Y-96550069D01*
X119016372Y-96489471D01*
X118860316Y-96385770D01*
X118679119Y-96352885D01*
X118611480Y-96361249D01*
X118559520Y-96389139D01*
X118560535Y-96420234D01*
X118625562Y-96437163D01*
X118639589Y-96440700D01*
X118618627Y-96462928D01*
X118538253Y-96498132D01*
X118442247Y-96536317D01*
X118335505Y-96598511D01*
X118283218Y-96672586D01*
X118269307Y-96775096D01*
X118269221Y-96902404D01*
X117873968Y-96902404D01*
X117874336Y-96646265D01*
X117875481Y-96020427D01*
X117876821Y-95437954D01*
X117878360Y-94903605D01*
X117880098Y-94422131D01*
X117882039Y-93998290D01*
X117884184Y-93636837D01*
X117886537Y-93342527D01*
X117889100Y-93120116D01*
X117891874Y-92974359D01*
X117898586Y-92741653D01*
X117907025Y-92496016D01*
X117915369Y-92315684D01*
X117923848Y-92202265D01*
X117932692Y-92157368D01*
X117942132Y-92182598D01*
X117952399Y-92279564D01*
X117963722Y-92449873D01*
X117976334Y-92695132D01*
X117990464Y-93016950D01*
X118006343Y-93416933D01*
X118024202Y-93896688D01*
X118030152Y-94059705D01*
X118048256Y-94546400D01*
X118064120Y-94952864D01*
X118077996Y-95279970D01*
X118090136Y-95528594D01*
X118100789Y-95699607D01*
X118110208Y-95793886D01*
X118118644Y-95812304D01*
X118126347Y-95755736D01*
X118133568Y-95625054D01*
X118140560Y-95421135D01*
X118146752Y-95177110D01*
X118513623Y-95177110D01*
X118513623Y-95850017D01*
X118709862Y-95847044D01*
X118747120Y-95847120D01*
X118913607Y-95872832D01*
X119069847Y-95952377D01*
X119195243Y-96058038D01*
X119298420Y-96209218D01*
X119372833Y-96411563D01*
X119425556Y-96679534D01*
X119454083Y-96839471D01*
X119498074Y-96987001D01*
X119567262Y-97137400D01*
X119673627Y-97321682D01*
X119761737Y-97462916D01*
X119845880Y-97585255D01*
X119900303Y-97643290D01*
X119929479Y-97641461D01*
X119937882Y-97584215D01*
X119937843Y-97579660D01*
X119931770Y-97447175D01*
X119917113Y-97255913D01*
X119896022Y-97026771D01*
X119870646Y-96780647D01*
X119843135Y-96538438D01*
X119815639Y-96321043D01*
X119790305Y-96149358D01*
X119749522Y-95917085D01*
X119699220Y-95689478D01*
X119640791Y-95514247D01*
X119565172Y-95375545D01*
X119463301Y-95257522D01*
X119326116Y-95144334D01*
X119144552Y-95020131D01*
X119130477Y-95010881D01*
X118967133Y-94896349D01*
X118808334Y-94774127D01*
X118686620Y-94669156D01*
X118533594Y-94523246D01*
X118513623Y-94504204D01*
X118513623Y-95177110D01*
X118146752Y-95177110D01*
X118147571Y-95144851D01*
X118154856Y-94797076D01*
X118162663Y-94378686D01*
X118168370Y-94085866D01*
X118176715Y-93723430D01*
X118185785Y-93391471D01*
X118195274Y-93098476D01*
X118204873Y-92852934D01*
X118214275Y-92663333D01*
X118223173Y-92538157D01*
X118231258Y-92485898D01*
X118236240Y-92479551D01*
X118253844Y-92502623D01*
X118266364Y-92601256D01*
X118273120Y-92770834D01*
X118273241Y-92777408D01*
X118277776Y-92957365D01*
X118285276Y-93188258D01*
X118294726Y-93441049D01*
X118305112Y-93686699D01*
X118307077Y-93729720D01*
X118313884Y-93867611D01*
X118319794Y-93959128D01*
X118325155Y-93999896D01*
X118330319Y-93985538D01*
X118335636Y-93911676D01*
X118341458Y-93773933D01*
X118348135Y-93567933D01*
X118356017Y-93289299D01*
X118365456Y-92933654D01*
X118372829Y-92671759D01*
X118517668Y-92671759D01*
X118533594Y-92689423D01*
X118551950Y-92686156D01*
X118621033Y-92657559D01*
X118702545Y-92613054D01*
X118767681Y-92569265D01*
X118787634Y-92542815D01*
X118747758Y-92540727D01*
X118665690Y-92563658D01*
X118618850Y-92585544D01*
X118552517Y-92631010D01*
X118517668Y-92671759D01*
X118372829Y-92671759D01*
X118373637Y-92643050D01*
X118385177Y-92296973D01*
X118397136Y-92001357D01*
X118409183Y-91759635D01*
X118420988Y-91575244D01*
X118432220Y-91451617D01*
X118442550Y-91392188D01*
X118451647Y-91400392D01*
G37*
G36*
X122869071Y-120307853D02*
G01*
X122848719Y-120328205D01*
X122828366Y-120307853D01*
X122848719Y-120287500D01*
X122869071Y-120307853D01*
G37*
G36*
X124317991Y-92125841D02*
G01*
X124327895Y-92148589D01*
X124300040Y-92143791D01*
X124281958Y-92131226D01*
X124253046Y-92096797D01*
X124253442Y-92091106D01*
X124277005Y-92082142D01*
X124317991Y-92125841D01*
G37*
G36*
X124497277Y-91854968D02*
G01*
X124508363Y-91863681D01*
X124537357Y-91928604D01*
X124529953Y-91947319D01*
X124497277Y-91916026D01*
X124474455Y-91879152D01*
X124460666Y-91840641D01*
X124497277Y-91854968D01*
G37*
G36*
X124578687Y-92017789D02*
G01*
X124558334Y-92038141D01*
X124537982Y-92017789D01*
X124558334Y-91997436D01*
X124578687Y-92017789D01*
G37*
G36*
X124619392Y-92099199D02*
G01*
X124599039Y-92119550D01*
X124578687Y-92099199D01*
X124599039Y-92078847D01*
X124619392Y-92099199D01*
G37*
G36*
X124700802Y-91895673D02*
G01*
X124680450Y-91916026D01*
X124660097Y-91895673D01*
X124680450Y-91875321D01*
X124700802Y-91895673D01*
G37*
G36*
X124741507Y-92017789D02*
G01*
X124721155Y-92038141D01*
X124700802Y-92017789D01*
X124721155Y-91997436D01*
X124741507Y-92017789D01*
G37*
G36*
X119388568Y-97949211D02*
G01*
X119431154Y-98035873D01*
X119409136Y-98143910D01*
X119402205Y-98155051D01*
X119326642Y-98209707D01*
X119228595Y-98226219D01*
X119149407Y-98196255D01*
X119132515Y-98140131D01*
X119132447Y-98043611D01*
X119137976Y-98003150D01*
X119172494Y-97933386D01*
X119253754Y-97907416D01*
X119296618Y-97907120D01*
X119388568Y-97949211D01*
G37*
G36*
X119488972Y-110590986D02*
G01*
X119540010Y-110662956D01*
X119542270Y-110765466D01*
X119520112Y-110812872D01*
X119437067Y-110867816D01*
X119321991Y-110862443D01*
X119276112Y-110836590D01*
X119248794Y-110756920D01*
X119288452Y-110637709D01*
X119332494Y-110584940D01*
X119412139Y-110561124D01*
X119488972Y-110590986D01*
G37*
G36*
X119473282Y-97427877D02*
G01*
X119521097Y-97488378D01*
X119563833Y-97582075D01*
X119589655Y-97680977D01*
X119586723Y-97757089D01*
X119556190Y-97797779D01*
X119486354Y-97811588D01*
X119413582Y-97775053D01*
X119366692Y-97696154D01*
X119357912Y-97582541D01*
X119385922Y-97477468D01*
X119444131Y-97419906D01*
X119473282Y-97427877D01*
G37*
G36*
X119689993Y-110230211D02*
G01*
X119759970Y-110269101D01*
X119820983Y-110356113D01*
X119884980Y-110507199D01*
X119897992Y-110546540D01*
X119908488Y-110637732D01*
X119877770Y-110672132D01*
X119816637Y-110652005D01*
X119735894Y-110579610D01*
X119646342Y-110457212D01*
X119620577Y-110411472D01*
X119585263Y-110304884D01*
X119603924Y-110239774D01*
X119675194Y-110227032D01*
X119689993Y-110230211D01*
G37*
G36*
X119791790Y-98125054D02*
G01*
X119846981Y-98226149D01*
X119867206Y-98318214D01*
X119856954Y-98411807D01*
X119817249Y-98465530D01*
X119760054Y-98465620D01*
X119697332Y-98398317D01*
X119675816Y-98346869D01*
X119657039Y-98242440D01*
X119659939Y-98144217D01*
X119685838Y-98087941D01*
X119725862Y-98080410D01*
X119791790Y-98125054D01*
G37*
G36*
X119863903Y-110844413D02*
G01*
X119932031Y-110884289D01*
X119993184Y-110963483D01*
X120019712Y-111047436D01*
X120019310Y-111056199D01*
X119987410Y-111141360D01*
X119924054Y-111217801D01*
X119856892Y-111250962D01*
X119823434Y-111238288D01*
X119758037Y-111186997D01*
X119721601Y-111137007D01*
X119694071Y-111047436D01*
X119694474Y-111038673D01*
X119726374Y-110953511D01*
X119789730Y-110877071D01*
X119856892Y-110843910D01*
X119863903Y-110844413D01*
G37*
G36*
X119996012Y-98729439D02*
G01*
X120076541Y-98851505D01*
X120114809Y-98954286D01*
X120124330Y-99088886D01*
X120080709Y-99187996D01*
X119987630Y-99235700D01*
X119956216Y-99237462D01*
X119892130Y-99207350D01*
X119837399Y-99113585D01*
X119798596Y-99000655D01*
X119781564Y-98860818D01*
X119801535Y-98754195D01*
X119849763Y-98690368D01*
X119917503Y-98678920D01*
X119996012Y-98729439D01*
G37*
G36*
X120447879Y-99488940D02*
G01*
X120519566Y-99537968D01*
X120590681Y-99660176D01*
X120645868Y-99808415D01*
X120665774Y-99982096D01*
X120617423Y-100114756D01*
X120588566Y-100145978D01*
X120504545Y-100172909D01*
X120415736Y-100128133D01*
X120335240Y-100016227D01*
X120289778Y-99898350D01*
X120267133Y-99745330D01*
X120285128Y-99613854D01*
X120340550Y-99521833D01*
X120430186Y-99487180D01*
X120447879Y-99488940D01*
G37*
G36*
X120432038Y-110858758D02*
G01*
X120536079Y-110932416D01*
X120570587Y-110968058D01*
X120624895Y-111061596D01*
X120611218Y-111123741D01*
X120538728Y-111141497D01*
X120416587Y-111101864D01*
X120339199Y-111044126D01*
X120304648Y-110944628D01*
X120309355Y-110902292D01*
X120352671Y-110848917D01*
X120432038Y-110858758D01*
G37*
G36*
X120509829Y-111303790D02*
G01*
X120592414Y-111358577D01*
X120637858Y-111448509D01*
X120625691Y-111544490D01*
X120581228Y-111605492D01*
X120494343Y-111647951D01*
X120403814Y-111615153D01*
X120402890Y-111614378D01*
X120355541Y-111533700D01*
X120351536Y-111432886D01*
X120385827Y-111344105D01*
X120453362Y-111299527D01*
X120509829Y-111303790D01*
G37*
G36*
X120609475Y-100551750D02*
G01*
X120683635Y-100650969D01*
X120731594Y-100790668D01*
X120743124Y-100952564D01*
X120734941Y-101024839D01*
X120698349Y-101120482D01*
X120639904Y-101140369D01*
X120565015Y-101084496D01*
X120479085Y-100952856D01*
X120413544Y-100793636D01*
X120393750Y-100655698D01*
X120421738Y-100557408D01*
X120496957Y-100512289D01*
X120519335Y-100511295D01*
X120609475Y-100551750D01*
G37*
G36*
X120841883Y-111885639D02*
G01*
X120977831Y-111933514D01*
X121147632Y-112003272D01*
X121336315Y-112089433D01*
X121427315Y-112131729D01*
X121555448Y-112181813D01*
X121644672Y-112197818D01*
X121715163Y-112184827D01*
X121780964Y-112166936D01*
X121791241Y-112185796D01*
X121786374Y-112191709D01*
X121722891Y-112229036D01*
X121620579Y-112265324D01*
X121560357Y-112277997D01*
X121445897Y-112277115D01*
X121316130Y-112239590D01*
X121155493Y-112160047D01*
X120948426Y-112033110D01*
X120944771Y-112030741D01*
X120832036Y-111954267D01*
X120755660Y-111895997D01*
X120731997Y-111868378D01*
X120754763Y-111865122D01*
X120841883Y-111885639D01*
G37*
G36*
X121080105Y-111176946D02*
G01*
X121153500Y-111292523D01*
X121227800Y-111475206D01*
X121232372Y-111488802D01*
X121277841Y-111628981D01*
X121310048Y-111737126D01*
X121322277Y-111790800D01*
X121321125Y-111799197D01*
X121283546Y-111814115D01*
X121208164Y-111788504D01*
X121115775Y-111731986D01*
X121027164Y-111654187D01*
X120942026Y-111529956D01*
X120915849Y-111382611D01*
X120925691Y-111250764D01*
X120960164Y-111154275D01*
X121013647Y-111130266D01*
X121080105Y-111176946D01*
G37*
G36*
X121243063Y-100513925D02*
G01*
X121333822Y-100622975D01*
X121371011Y-100717803D01*
X121398852Y-100876962D01*
X121402461Y-101042636D01*
X121378545Y-101174244D01*
X121344040Y-101235744D01*
X121258054Y-101292761D01*
X121155569Y-101287287D01*
X121054951Y-101222607D01*
X120974564Y-101102004D01*
X120933501Y-100976244D01*
X120918204Y-100818151D01*
X120940040Y-100678637D01*
X120991228Y-100568079D01*
X121063982Y-100496856D01*
X121150522Y-100475346D01*
X121243063Y-100513925D01*
G37*
G36*
X121509498Y-103657480D02*
G01*
X121635849Y-103711093D01*
X121748581Y-103808039D01*
X121767617Y-103831263D01*
X121827366Y-103914115D01*
X121851443Y-103964959D01*
X121848288Y-103978125D01*
X121809345Y-104037656D01*
X121750907Y-104099214D01*
X121704760Y-104127564D01*
X121638507Y-104111730D01*
X121528526Y-104058843D01*
X121420173Y-103987979D01*
X121347950Y-103919281D01*
X121299899Y-103838103D01*
X121288234Y-103752294D01*
X121340962Y-103681193D01*
X121394375Y-103654935D01*
X121509498Y-103657480D01*
G37*
G36*
X121546602Y-101504975D02*
G01*
X121643220Y-101586768D01*
X121685454Y-101652029D01*
X121726965Y-101778342D01*
X121722682Y-101893900D01*
X121675294Y-101978238D01*
X121587489Y-102010897D01*
X121519767Y-101999599D01*
X121429432Y-101926034D01*
X121366351Y-101779446D01*
X121352218Y-101644021D01*
X121386524Y-101543745D01*
X121456178Y-101494015D01*
X121546602Y-101504975D01*
G37*
G36*
X121537229Y-99154130D02*
G01*
X121542875Y-99159242D01*
X121596513Y-99248112D01*
X121643185Y-99390051D01*
X121676138Y-99559366D01*
X121688623Y-99730360D01*
X121688512Y-99741440D01*
X121664874Y-99866492D01*
X121610181Y-99925741D01*
X121539176Y-99919930D01*
X121466598Y-99849806D01*
X121407195Y-99716115D01*
X121375906Y-99564093D01*
X121368167Y-99408554D01*
X121383827Y-99275106D01*
X121419490Y-99178432D01*
X121471755Y-99133213D01*
X121537229Y-99154130D01*
G37*
G36*
X121705606Y-98022551D02*
G01*
X121726803Y-98063607D01*
X121743793Y-98173663D01*
X121743004Y-98316185D01*
X121725166Y-98462992D01*
X121691009Y-98585904D01*
X121671910Y-98624722D01*
X121599105Y-98700008D01*
X121518320Y-98707354D01*
X121447652Y-98642548D01*
X121434422Y-98616026D01*
X121409167Y-98499251D01*
X121416504Y-98366080D01*
X121449672Y-98232748D01*
X121501924Y-98115494D01*
X121566500Y-98030552D01*
X121636646Y-97994158D01*
X121705606Y-98022551D01*
G37*
G36*
X121824445Y-110930610D02*
G01*
X121858515Y-111021686D01*
X121832944Y-111149770D01*
X121819371Y-111179616D01*
X121731809Y-111311306D01*
X121629991Y-111386854D01*
X121528719Y-111394356D01*
X121509578Y-111385901D01*
X121455478Y-111315119D01*
X121441507Y-111206219D01*
X121467401Y-111085390D01*
X121532898Y-110978826D01*
X121534985Y-110976620D01*
X121645620Y-110898357D01*
X121747794Y-110886260D01*
X121824445Y-110930610D01*
G37*
G36*
X122115216Y-111541028D02*
G01*
X122083072Y-111628958D01*
X121996720Y-111793686D01*
X121891714Y-111932865D01*
X121782388Y-112029118D01*
X121683072Y-112065064D01*
X121655301Y-112061784D01*
X121613406Y-112020396D01*
X121620867Y-111942232D01*
X121669874Y-111840894D01*
X121752617Y-111729981D01*
X121861289Y-111623094D01*
X121988081Y-111533834D01*
X122145069Y-111444396D01*
X122115216Y-111541028D01*
G37*
G36*
X122010357Y-97119536D02*
G01*
X121949554Y-97192204D01*
X121857608Y-97289103D01*
X121854004Y-97292721D01*
X121770220Y-97371648D01*
X121721851Y-97406907D01*
X121719272Y-97390866D01*
X121768520Y-97321089D01*
X121843483Y-97236552D01*
X121924459Y-97156844D01*
X121991975Y-97101122D01*
X122026557Y-97088545D01*
X122010357Y-97119536D01*
G37*
G36*
X122104119Y-102315210D02*
G01*
X122214835Y-102403086D01*
X122219963Y-102409649D01*
X122285675Y-102516340D01*
X122287934Y-102602322D01*
X122227967Y-102694838D01*
X122220762Y-102703013D01*
X122103857Y-102792389D01*
X121987358Y-102800627D01*
X121872474Y-102727616D01*
X121789904Y-102611549D01*
X121780070Y-102491874D01*
X121851443Y-102377244D01*
X121860660Y-102368370D01*
X121980476Y-102303240D01*
X122104119Y-102315210D01*
G37*
G36*
X122136560Y-98737854D02*
G01*
X122197446Y-98823752D01*
X122240460Y-98951397D01*
X122261015Y-99099082D01*
X122254510Y-99245099D01*
X122216357Y-99367740D01*
X122196636Y-99398658D01*
X122126768Y-99444346D01*
X122052060Y-99420406D01*
X121983841Y-99333881D01*
X121933439Y-99191818D01*
X121924387Y-99143571D01*
X121918545Y-98984978D01*
X121946156Y-98847398D01*
X122001284Y-98750457D01*
X122077997Y-98713782D01*
X122136560Y-98737854D01*
G37*
G36*
X122143960Y-99856593D02*
G01*
X122201723Y-99949363D01*
X122245470Y-100086133D01*
X122267217Y-100257681D01*
X122268064Y-100312996D01*
X122248246Y-100455024D01*
X122200652Y-100524813D01*
X122134843Y-100521268D01*
X122060384Y-100443294D01*
X121986832Y-100289795D01*
X121948497Y-100164522D01*
X121939952Y-100041847D01*
X121972551Y-99917233D01*
X122018321Y-99839952D01*
X122080165Y-99817048D01*
X122143960Y-99856593D01*
G37*
G36*
X122508476Y-97107193D02*
G01*
X122550839Y-97120959D01*
X122617101Y-97181793D01*
X122616116Y-97259379D01*
X122544012Y-97329496D01*
X122518520Y-97341872D01*
X122393754Y-97383036D01*
X122251278Y-97409981D01*
X122122485Y-97418145D01*
X122038772Y-97402963D01*
X122005855Y-97373014D01*
X122005962Y-97312178D01*
X122059916Y-97245122D01*
X122152430Y-97181469D01*
X122268219Y-97130847D01*
X122391995Y-97102879D01*
X122508476Y-97107193D01*
G37*
G36*
X122364563Y-104493676D02*
G01*
X122497390Y-104572833D01*
X122600372Y-104681021D01*
X122657023Y-104802424D01*
X122650862Y-104921223D01*
X122605264Y-104970380D01*
X122506253Y-104988032D01*
X122377056Y-104963775D01*
X122236630Y-104901618D01*
X122103935Y-104805569D01*
X122040974Y-104724661D01*
X122022524Y-104596954D01*
X122034112Y-104529958D01*
X122075491Y-104479971D01*
X122170751Y-104460515D01*
X122218374Y-104459371D01*
X122364563Y-104493676D01*
G37*
G36*
X122067083Y-100678211D02*
G01*
X122133778Y-100733996D01*
X122221814Y-100825470D01*
X122317705Y-100957239D01*
X122411319Y-101136380D01*
X122477579Y-101318825D01*
X122502726Y-101472857D01*
X122499981Y-101481616D01*
X122469054Y-101462018D01*
X122411562Y-101391604D01*
X122337318Y-101284947D01*
X122256142Y-101156616D01*
X122177847Y-101021185D01*
X122112250Y-100893223D01*
X122075996Y-100809874D01*
X122043600Y-100715163D01*
X122040350Y-100669345D01*
X122067083Y-100678211D01*
G37*
G36*
X122389721Y-97809737D02*
G01*
X122444969Y-97885074D01*
X122445720Y-97999788D01*
X122425946Y-98051913D01*
X122357906Y-98152936D01*
X122271627Y-98233271D01*
X122192669Y-98266026D01*
X122150895Y-98253820D01*
X122078230Y-98202061D01*
X122030041Y-98132543D01*
X122025186Y-98017817D01*
X122098627Y-97884817D01*
X122195902Y-97803749D01*
X122300019Y-97780416D01*
X122389721Y-97809737D01*
G37*
G36*
X122320918Y-103686621D02*
G01*
X122429926Y-103747678D01*
X122511402Y-103846621D01*
X122543430Y-103969096D01*
X122523138Y-104060578D01*
X122458398Y-104112490D01*
X122363224Y-104108841D01*
X122252106Y-104050706D01*
X122139536Y-103939159D01*
X122109796Y-103900350D01*
X122063452Y-103819802D01*
X122073815Y-103763375D01*
X122141052Y-103705539D01*
X122206293Y-103677803D01*
X122320918Y-103686621D01*
G37*
G36*
X122229070Y-101482769D02*
G01*
X122293803Y-101531679D01*
X122343220Y-101641003D01*
X122371680Y-101793066D01*
X122373539Y-101970192D01*
X122373275Y-101973785D01*
X122358163Y-102088617D01*
X122327112Y-102145295D01*
X122267937Y-102166469D01*
X122235349Y-102168228D01*
X122171423Y-102137987D01*
X122116886Y-102044354D01*
X122072360Y-101903971D01*
X122057546Y-101746461D01*
X122078978Y-101611487D01*
X122133408Y-101517194D01*
X122217588Y-101481731D01*
X122229070Y-101482769D01*
G37*
G36*
X122682535Y-110493331D02*
G01*
X122706251Y-110603774D01*
X122702731Y-110648675D01*
X122653929Y-110802734D01*
X122563019Y-110954275D01*
X122449624Y-111067819D01*
X122418053Y-111086394D01*
X122307380Y-111121368D01*
X122195634Y-111126584D01*
X122119701Y-111098600D01*
X122101224Y-111039204D01*
X122119875Y-110931671D01*
X122173127Y-110804361D01*
X122253306Y-110681255D01*
X122274319Y-110655856D01*
X122404059Y-110527884D01*
X122521781Y-110457038D01*
X122617826Y-110444970D01*
X122682535Y-110493331D01*
G37*
G36*
X122660992Y-109323447D02*
G01*
X122693783Y-109453261D01*
X122694302Y-109651420D01*
X122688139Y-109713933D01*
X122647820Y-109907738D01*
X122583550Y-110057622D01*
X122502386Y-110154240D01*
X122411383Y-110188246D01*
X122317597Y-110150300D01*
X122274241Y-110070351D01*
X122256550Y-109937985D01*
X122264245Y-109779304D01*
X122296064Y-109619606D01*
X122350751Y-109484192D01*
X122425086Y-109371356D01*
X122521035Y-109279765D01*
X122601540Y-109264705D01*
X122660992Y-109323447D01*
G37*
G36*
X122673673Y-105448271D02*
G01*
X122845718Y-105506017D01*
X122909883Y-105539140D01*
X123021340Y-105632971D01*
X123071334Y-105737896D01*
X123050902Y-105839352D01*
X123043537Y-105848433D01*
X122970077Y-105871179D01*
X122853242Y-105856650D01*
X122714643Y-105809603D01*
X122575894Y-105734795D01*
X122515376Y-105691631D01*
X122442840Y-105614806D01*
X122428956Y-105539811D01*
X122454402Y-105482004D01*
X122539809Y-105440545D01*
X122673673Y-105448271D01*
G37*
G36*
X122788026Y-101648932D02*
G01*
X122840040Y-101706676D01*
X122866334Y-101816707D01*
X122866301Y-101960214D01*
X122839335Y-102118391D01*
X122784823Y-102272426D01*
X122760380Y-102320289D01*
X122665903Y-102472269D01*
X122561516Y-102607800D01*
X122422457Y-102763941D01*
X122479360Y-102621181D01*
X122508868Y-102532347D01*
X122548981Y-102378324D01*
X122582979Y-102214131D01*
X122604207Y-102097710D01*
X122648031Y-101887673D01*
X122687689Y-101747370D01*
X122725686Y-101668947D01*
X122764523Y-101644551D01*
X122788026Y-101648932D01*
G37*
G36*
X122746984Y-99405618D02*
G01*
X122817764Y-99497351D01*
X122866550Y-99638419D01*
X122884727Y-99819593D01*
X122881201Y-99916838D01*
X122858032Y-100020876D01*
X122807331Y-100082938D01*
X122776781Y-100103462D01*
X122719315Y-100114120D01*
X122654464Y-100064061D01*
X122641949Y-100050282D01*
X122577593Y-99951520D01*
X122522294Y-99829472D01*
X122493379Y-99742908D01*
X122468176Y-99621145D01*
X122482000Y-99530960D01*
X122535781Y-99445813D01*
X122573906Y-99407078D01*
X122662826Y-99372451D01*
X122746984Y-99405618D01*
G37*
G36*
X122733082Y-98366140D02*
G01*
X122821861Y-98432834D01*
X122878592Y-98548494D01*
X122895130Y-98686517D01*
X122863333Y-98820301D01*
X122836307Y-98867467D01*
X122748874Y-98940774D01*
X122648805Y-98936359D01*
X122548128Y-98852976D01*
X122511329Y-98797147D01*
X122467758Y-98663907D01*
X122473717Y-98535663D01*
X122522674Y-98430661D01*
X122608094Y-98367145D01*
X122723448Y-98363359D01*
X122733082Y-98366140D01*
G37*
G36*
X122690420Y-100435794D02*
G01*
X122749582Y-100499141D01*
X122782140Y-100552143D01*
X122818535Y-100674492D01*
X122830501Y-100817198D01*
X122820167Y-100960141D01*
X122789658Y-101083204D01*
X122741102Y-101166270D01*
X122676626Y-101189220D01*
X122616040Y-101154134D01*
X122552908Y-101074319D01*
X122528594Y-101005830D01*
X122512044Y-100863027D01*
X122520158Y-100705546D01*
X122550456Y-100564803D01*
X122600458Y-100472213D01*
X122647763Y-100432240D01*
X122690420Y-100435794D01*
G37*
G36*
X123092269Y-107728523D02*
G01*
X123117615Y-107801202D01*
X123110175Y-107992176D01*
X123073367Y-108181002D01*
X123013795Y-108351686D01*
X122938229Y-108491727D01*
X122853443Y-108588622D01*
X122766208Y-108629870D01*
X122683296Y-108602969D01*
X122643557Y-108530083D01*
X122626872Y-108405730D01*
X122636802Y-108262024D01*
X122673934Y-108128758D01*
X122685586Y-108102706D01*
X122767417Y-107956718D01*
X122860050Y-107838148D01*
X122952437Y-107755154D01*
X123033526Y-107715894D01*
X123092269Y-107728523D01*
G37*
G36*
X123014520Y-103218189D02*
G01*
X123122917Y-103278468D01*
X123203712Y-103366388D01*
X123235418Y-103473000D01*
X123216057Y-103546899D01*
X123142526Y-103610792D01*
X123034862Y-103633093D01*
X122915323Y-103610369D01*
X122806163Y-103539190D01*
X122805932Y-103538958D01*
X122728147Y-103445876D01*
X122711212Y-103366710D01*
X122748388Y-103270081D01*
X122800854Y-103216368D01*
X122900004Y-103194505D01*
X123014520Y-103218189D01*
G37*
G36*
X122969992Y-97534146D02*
G01*
X123112644Y-97575922D01*
X123204126Y-97669054D01*
X123234363Y-97796961D01*
X123193280Y-97943061D01*
X123159737Y-97983084D01*
X123061376Y-98019034D01*
X122937789Y-98003695D01*
X122813503Y-97937430D01*
X122747486Y-97866120D01*
X122709794Y-97752193D01*
X122734594Y-97644679D01*
X122815052Y-97564689D01*
X122944331Y-97533334D01*
X122969992Y-97534146D01*
G37*
G36*
X123162074Y-104052102D02*
G01*
X123274997Y-104135732D01*
X123337743Y-104224619D01*
X123348164Y-104330424D01*
X123278675Y-104430543D01*
X123228933Y-104467872D01*
X123160168Y-104480604D01*
X123055111Y-104454151D01*
X123038309Y-104448248D01*
X122933970Y-104395948D01*
X122869656Y-104338214D01*
X122868032Y-104335440D01*
X122838470Y-104225614D01*
X122855525Y-104112389D01*
X122913653Y-104034089D01*
X122926136Y-104027236D01*
X123035654Y-104013086D01*
X123162074Y-104052102D01*
G37*
G36*
X123012828Y-96927546D02*
G01*
X123137658Y-96961454D01*
X123258511Y-97020515D01*
X123350823Y-97097845D01*
X123377391Y-97149762D01*
X123341239Y-97204324D01*
X123338702Y-97206296D01*
X123259898Y-97220776D01*
X123143530Y-97195162D01*
X123015585Y-97138099D01*
X122902050Y-97058232D01*
X122861414Y-97008818D01*
X122852081Y-96958022D01*
X122908586Y-96925680D01*
X123012828Y-96927546D01*
G37*
G36*
X123435893Y-108906741D02*
G01*
X123475888Y-108976643D01*
X123509137Y-109127939D01*
X123503689Y-109300366D01*
X123458267Y-109462217D01*
X123414903Y-109538115D01*
X123312852Y-109633822D01*
X123197887Y-109668254D01*
X123087879Y-109638334D01*
X123000700Y-109540986D01*
X122970268Y-109444532D01*
X122964892Y-109281344D01*
X122996781Y-109113340D01*
X123061969Y-108977001D01*
X123121809Y-108917819D01*
X123234732Y-108864174D01*
X123349009Y-108858681D01*
X123435893Y-108906741D01*
G37*
G36*
X123207353Y-101013689D02*
G01*
X123233817Y-101110529D01*
X123230541Y-101239440D01*
X123192166Y-101386666D01*
X123144491Y-101481989D01*
X123074809Y-101536839D01*
X122998376Y-101511511D01*
X122969601Y-101457835D01*
X122956874Y-101346370D01*
X122966738Y-101213439D01*
X122996484Y-101089500D01*
X123043406Y-101005016D01*
X123086661Y-100971251D01*
X123156514Y-100962677D01*
X123207353Y-101013689D01*
G37*
G36*
X123493153Y-110029515D02*
G01*
X123534017Y-110113664D01*
X123524445Y-110219710D01*
X123459832Y-110332744D01*
X123335563Y-110437859D01*
X123218187Y-110498751D01*
X123117987Y-110513235D01*
X123040033Y-110469423D01*
X123017221Y-110441303D01*
X122985984Y-110330510D01*
X123012224Y-110206339D01*
X123087580Y-110092190D01*
X123203689Y-110011463D01*
X123278569Y-109986536D01*
X123406467Y-109982170D01*
X123493153Y-110029515D01*
G37*
G36*
X123333847Y-104872177D02*
G01*
X123456802Y-104913316D01*
X123565536Y-104981423D01*
X123643492Y-105066633D01*
X123674115Y-105159083D01*
X123640848Y-105248909D01*
X123610779Y-105274446D01*
X123503382Y-105305141D01*
X123367520Y-105298329D01*
X123230283Y-105260247D01*
X123118765Y-105197131D01*
X123060058Y-105115217D01*
X123040910Y-105028637D01*
X123049934Y-104977026D01*
X123095857Y-104924222D01*
X123111502Y-104910256D01*
X123213229Y-104867869D01*
X123333847Y-104872177D01*
G37*
G36*
X123374906Y-99984320D02*
G01*
X123434062Y-100051411D01*
X123467705Y-100166781D01*
X123467534Y-100308701D01*
X123460887Y-100350024D01*
X123414271Y-100500779D01*
X123345833Y-100607259D01*
X123266621Y-100660963D01*
X123187684Y-100653390D01*
X123120068Y-100576042D01*
X123114726Y-100564644D01*
X123087856Y-100435417D01*
X123096328Y-100283471D01*
X123135086Y-100142669D01*
X123199071Y-100046875D01*
X123269537Y-99999933D01*
X123340258Y-99975641D01*
X123374906Y-99984320D01*
G37*
G36*
X123367610Y-99142452D02*
G01*
X123456988Y-99211301D01*
X123516689Y-99339245D01*
X123519098Y-99458173D01*
X123472786Y-99549154D01*
X123390280Y-99598826D01*
X123284111Y-99593825D01*
X123166807Y-99520789D01*
X123146783Y-99499785D01*
X123086409Y-99386767D01*
X123076585Y-99266072D01*
X123121443Y-99169680D01*
X123145117Y-99150676D01*
X123251366Y-99120720D01*
X123367610Y-99142452D01*
G37*
G36*
X123408641Y-98316625D02*
G01*
X123506265Y-98401634D01*
X123587772Y-98539556D01*
X123603360Y-98580301D01*
X123630265Y-98729253D01*
X123600279Y-98829489D01*
X123524549Y-98873070D01*
X123414215Y-98852057D01*
X123280428Y-98758509D01*
X123249271Y-98727873D01*
X123174888Y-98620018D01*
X123154007Y-98495357D01*
X123168449Y-98394309D01*
X123224795Y-98311441D01*
X123309838Y-98286054D01*
X123408641Y-98316625D01*
G37*
G36*
X123316828Y-106264584D02*
G01*
X123296475Y-106284936D01*
X123276123Y-106264584D01*
X123296475Y-106244230D01*
X123316828Y-106264584D01*
G37*
G36*
X124212341Y-106970614D02*
G01*
X124195535Y-107009352D01*
X124118640Y-107081818D01*
X123996553Y-107163712D01*
X123848225Y-107244957D01*
X123692605Y-107315468D01*
X123548643Y-107365168D01*
X123435288Y-107383975D01*
X123367920Y-107378825D01*
X123323576Y-107349247D01*
X123352516Y-107290987D01*
X123455040Y-107201287D01*
X123526331Y-107153221D01*
X123663379Y-107081035D01*
X123814563Y-107018478D01*
X123962468Y-106970852D01*
X124089675Y-106943463D01*
X124178772Y-106941615D01*
X124212341Y-106970614D01*
G37*
G36*
X123852457Y-107587532D02*
G01*
X123966185Y-107625404D01*
X124054628Y-107715782D01*
X124089998Y-107830612D01*
X124084284Y-107903729D01*
X124033117Y-108084629D01*
X123941093Y-108258588D01*
X123823167Y-108400816D01*
X123694294Y-108486523D01*
X123594363Y-108501066D01*
X123478534Y-108455733D01*
X123398522Y-108348060D01*
X123396484Y-108342949D01*
X123364219Y-108214830D01*
X123378493Y-108086106D01*
X123442498Y-107926150D01*
X123446372Y-107918233D01*
X123563090Y-107739756D01*
X123700519Y-107626880D01*
X123849176Y-107587500D01*
X123852457Y-107587532D01*
G37*
G36*
X123706628Y-101785308D02*
G01*
X123783532Y-101863425D01*
X123807431Y-101971333D01*
X123762013Y-102079658D01*
X123649916Y-102170517D01*
X123625475Y-102182535D01*
X123545119Y-102196996D01*
X123456566Y-102155320D01*
X123388994Y-102091150D01*
X123352376Y-101981934D01*
X123384170Y-101872359D01*
X123482749Y-101785416D01*
X123565346Y-101747872D01*
X123631237Y-101745106D01*
X123706628Y-101785308D01*
G37*
G36*
X123835817Y-102685721D02*
G01*
X123916775Y-102763803D01*
X123959262Y-102859954D01*
X123950483Y-102959200D01*
X123877643Y-103046571D01*
X123768468Y-103098529D01*
X123628973Y-103094356D01*
X123498151Y-103010024D01*
X123445807Y-102950171D01*
X123401272Y-102844022D01*
X123436557Y-102750909D01*
X123552420Y-102666018D01*
X123609668Y-102643641D01*
X123729183Y-102640675D01*
X123835817Y-102685721D01*
G37*
G36*
X123820224Y-105672571D02*
G01*
X123948574Y-105729814D01*
X124029247Y-105814612D01*
X124042469Y-105926527D01*
X124041569Y-105932566D01*
X124020851Y-105989040D01*
X123966814Y-106013288D01*
X123855671Y-106016803D01*
X123705772Y-105993990D01*
X123580912Y-105918121D01*
X123567993Y-105905574D01*
X123495140Y-105800571D01*
X123493031Y-105715437D01*
X123552572Y-105659504D01*
X123664668Y-105642105D01*
X123820224Y-105672571D01*
G37*
G36*
X123862375Y-97339288D02*
G01*
X123999758Y-97393174D01*
X124071562Y-97465271D01*
X124079760Y-97553867D01*
X124008815Y-97655449D01*
X123979233Y-97680995D01*
X123849747Y-97732657D01*
X123708088Y-97717749D01*
X123579971Y-97637356D01*
X123512127Y-97538005D01*
X123518361Y-97445621D01*
X123603878Y-97369382D01*
X123705260Y-97336891D01*
X123862375Y-97339288D01*
G37*
G36*
X123798052Y-103476571D02*
G01*
X123936940Y-103507421D01*
X124035827Y-103577639D01*
X124085441Y-103670842D01*
X124076509Y-103770647D01*
X123999758Y-103860673D01*
X123890585Y-103912632D01*
X123751089Y-103908458D01*
X123620266Y-103824126D01*
X123612043Y-103815735D01*
X123547019Y-103734950D01*
X123520354Y-103674687D01*
X123521380Y-103660059D01*
X123567956Y-103571809D01*
X123664030Y-103503626D01*
X123782189Y-103476282D01*
X123798052Y-103476571D01*
G37*
G36*
X123945184Y-104292698D02*
G01*
X124034686Y-104365581D01*
X124077747Y-104471438D01*
X124056927Y-104595673D01*
X124041934Y-104621285D01*
X123953937Y-104685283D01*
X123835182Y-104704749D01*
X123715426Y-104678903D01*
X123624424Y-104606969D01*
X123613242Y-104590430D01*
X123566246Y-104474923D01*
X123595660Y-104381380D01*
X123703960Y-104300262D01*
X123826682Y-104267388D01*
X123945184Y-104292698D01*
G37*
G36*
X124087186Y-98000307D02*
G01*
X124181812Y-98037753D01*
X124211491Y-98066420D01*
X124251636Y-98168631D01*
X124231364Y-98280005D01*
X124153276Y-98370226D01*
X124044637Y-98412404D01*
X123928209Y-98391013D01*
X123788293Y-98302099D01*
X123737070Y-98250055D01*
X123690090Y-98152617D01*
X123692412Y-98062650D01*
X123747561Y-98005797D01*
X123816087Y-97988987D01*
X123952212Y-97983090D01*
X124087186Y-98000307D01*
G37*
G36*
X123938150Y-96408998D02*
G01*
X124073510Y-96473492D01*
X124171878Y-96572471D01*
X124211045Y-96688702D01*
X124201859Y-96724974D01*
X124144551Y-96755241D01*
X124051270Y-96747098D01*
X123941298Y-96706325D01*
X123833914Y-96638702D01*
X123748400Y-96550009D01*
X123706537Y-96463358D01*
X123732195Y-96410513D01*
X123830720Y-96393590D01*
X123938150Y-96408998D01*
G37*
G36*
X124377837Y-108932201D02*
G01*
X124383412Y-108935398D01*
X124442018Y-109013501D01*
X124454578Y-109129462D01*
X124417422Y-109253504D01*
X124387652Y-109295067D01*
X124275935Y-109369130D01*
X124131185Y-109402139D01*
X123981857Y-109390236D01*
X123856399Y-109329564D01*
X123844125Y-109316305D01*
X123812352Y-109229264D01*
X123808837Y-109118898D01*
X123836442Y-109028450D01*
X123841790Y-109020907D01*
X123942492Y-108943920D01*
X124086246Y-108899768D01*
X124241784Y-108894009D01*
X124377837Y-108932201D01*
G37*
G36*
X124089292Y-99404837D02*
G01*
X124120659Y-99439313D01*
X124168803Y-99543817D01*
X124146928Y-99667024D01*
X124146613Y-99667835D01*
X124089199Y-99722294D01*
X124000639Y-99722181D01*
X123909960Y-99667445D01*
X123893491Y-99648793D01*
X123850272Y-99545491D01*
X123861862Y-99440207D01*
X123926472Y-99365564D01*
X123943112Y-99357332D01*
X124013994Y-99349759D01*
X124089292Y-99404837D01*
G37*
G36*
X123979582Y-98667935D02*
G01*
X123981437Y-98668610D01*
X124069313Y-98736622D01*
X124144928Y-98853014D01*
X124192252Y-98985536D01*
X124195260Y-99101936D01*
X124184491Y-99135482D01*
X124136141Y-99192496D01*
X124072990Y-99183874D01*
X124004829Y-99117873D01*
X123941447Y-99002745D01*
X123892637Y-98846749D01*
X123877555Y-98770666D01*
X123873531Y-98682521D01*
X123905554Y-98652360D01*
X123979582Y-98667935D01*
G37*
G36*
X124001871Y-97035191D02*
G01*
X124121508Y-97078897D01*
X124258618Y-97137780D01*
X124392100Y-97203143D01*
X124500855Y-97266287D01*
X124540750Y-97294333D01*
X124639937Y-97378523D01*
X124700330Y-97451042D01*
X124713248Y-97480325D01*
X124702054Y-97494739D01*
X124644209Y-97470169D01*
X124529072Y-97403677D01*
X124443636Y-97353012D01*
X124263454Y-97248636D01*
X124097984Y-97155389D01*
X123999946Y-97098146D01*
X123922524Y-97045463D01*
X123899598Y-97018405D01*
X123920806Y-97015364D01*
X124001871Y-97035191D01*
G37*
G36*
X124382132Y-102118969D02*
G01*
X124430958Y-102175973D01*
X124450486Y-102276603D01*
X124389205Y-102384215D01*
X124316875Y-102435040D01*
X124185742Y-102456215D01*
X124046844Y-102416517D01*
X123992260Y-102366558D01*
X123965127Y-102270225D01*
X123992447Y-102170665D01*
X124071788Y-102098842D01*
X124162339Y-102064984D01*
X124280585Y-102060106D01*
X124382132Y-102118969D01*
G37*
G36*
X124399844Y-101245866D02*
G01*
X124489136Y-101286346D01*
X124492260Y-101289593D01*
X124533410Y-101385668D01*
X124525477Y-101505350D01*
X124470615Y-101610816D01*
X124463154Y-101618485D01*
X124357136Y-101672436D01*
X124220093Y-101681646D01*
X124087549Y-101643119D01*
X124037524Y-101596649D01*
X124008150Y-101497299D01*
X124029094Y-101388269D01*
X124099282Y-101300866D01*
X124148827Y-101273727D01*
X124274452Y-101242105D01*
X124399844Y-101245866D01*
G37*
G36*
X124388736Y-100470981D02*
G01*
X124484395Y-100511008D01*
X124528120Y-100584983D01*
X124532239Y-100691612D01*
X124489136Y-100781603D01*
X124440029Y-100809027D01*
X124326635Y-100828203D01*
X124196975Y-100821501D01*
X124087549Y-100788312D01*
X124029122Y-100729488D01*
X124005721Y-100633337D01*
X124029939Y-100539277D01*
X124100402Y-100480227D01*
X124118841Y-100474740D01*
X124253969Y-100457856D01*
X124388736Y-100470981D01*
G37*
G36*
X124430483Y-105280388D02*
G01*
X124551828Y-105312104D01*
X124651417Y-105378892D01*
X124691554Y-105462863D01*
X124666369Y-105549538D01*
X124569993Y-105624440D01*
X124477406Y-105653098D01*
X124321852Y-105637762D01*
X124175657Y-105547255D01*
X124113664Y-105468489D01*
X124102287Y-105381085D01*
X124156942Y-105314688D01*
X124269165Y-105278165D01*
X124430483Y-105280388D01*
G37*
G36*
X124521849Y-102874620D02*
G01*
X124623912Y-102922553D01*
X124707116Y-102993123D01*
X124741507Y-103064721D01*
X124720142Y-103116182D01*
X124665342Y-103194978D01*
X124615965Y-103238258D01*
X124490501Y-103284624D01*
X124351684Y-103284764D01*
X124236497Y-103235208D01*
X124179341Y-103155227D01*
X124177814Y-103055186D01*
X124232357Y-102961752D01*
X124331964Y-102892675D01*
X124465629Y-102865705D01*
X124521849Y-102874620D01*
G37*
G36*
X124563230Y-104495227D02*
G01*
X124692685Y-104532870D01*
X124766865Y-104610960D01*
X124777130Y-104714006D01*
X124714846Y-104826523D01*
X124637492Y-104874054D01*
X124514977Y-104899411D01*
X124390688Y-104892868D01*
X124301892Y-104852116D01*
X124263296Y-104793702D01*
X124257903Y-104691979D01*
X124308758Y-104595024D01*
X124403398Y-104522459D01*
X124529362Y-104493910D01*
X124563230Y-104495227D01*
G37*
G36*
X124908347Y-107952053D02*
G01*
X124981415Y-108040135D01*
X125008287Y-108094809D01*
X125018859Y-108174968D01*
X124986058Y-108278716D01*
X124944911Y-108355139D01*
X124827623Y-108474144D01*
X124680745Y-108543426D01*
X124525778Y-108555045D01*
X124384218Y-108501057D01*
X124326154Y-108441679D01*
X124291359Y-108328669D01*
X124313310Y-108203379D01*
X124384068Y-108083498D01*
X124495693Y-107986714D01*
X124640242Y-107930715D01*
X124655478Y-107927945D01*
X124806518Y-107916843D01*
X124908347Y-107952053D01*
G37*
G36*
X124723901Y-107172231D02*
G01*
X124854171Y-107222042D01*
X124949047Y-107295883D01*
X124985738Y-107385920D01*
X124979590Y-107421535D01*
X124918924Y-107489245D01*
X124809525Y-107527332D01*
X124671373Y-107533844D01*
X124524444Y-107506826D01*
X124388719Y-107444323D01*
X124372994Y-107433338D01*
X124308927Y-107351161D01*
X124323714Y-107266646D01*
X124416227Y-107190240D01*
X124448356Y-107176019D01*
X124581033Y-107154279D01*
X124723901Y-107172231D01*
G37*
G36*
X124426779Y-99832575D02*
G01*
X124516785Y-99865159D01*
X124641866Y-99914888D01*
X124761192Y-99960795D01*
X124885861Y-100001739D01*
X124965385Y-100019438D01*
X124997379Y-100022317D01*
X125008620Y-100033214D01*
X124945033Y-100057051D01*
X124824650Y-100082263D01*
X124665684Y-100092418D01*
X124516284Y-100083135D01*
X124411234Y-100054572D01*
X124357553Y-100006798D01*
X124357909Y-99922281D01*
X124376409Y-99865210D01*
X124392516Y-99824267D01*
X124426779Y-99832575D01*
G37*
G36*
X124842493Y-103721479D02*
G01*
X124950860Y-103774950D01*
X125011338Y-103869397D01*
X125014596Y-103956881D01*
X124958455Y-104056857D01*
X124841896Y-104123613D01*
X124676038Y-104147917D01*
X124618938Y-104146432D01*
X124502636Y-104124064D01*
X124432938Y-104068903D01*
X124413997Y-104042294D01*
X124381055Y-103974150D01*
X124397173Y-103912240D01*
X124466748Y-103824809D01*
X124576281Y-103745177D01*
X124709785Y-103710912D01*
X124842493Y-103721479D01*
G37*
G36*
X124831261Y-99275715D02*
G01*
X124853296Y-99324577D01*
X124836067Y-99414799D01*
X124774860Y-99507019D01*
X124682717Y-99574963D01*
X124660039Y-99584600D01*
X124572332Y-99596885D01*
X124477903Y-99552622D01*
X124439513Y-99525425D01*
X124398439Y-99470822D01*
X124415842Y-99405815D01*
X124444451Y-99370204D01*
X124535892Y-99310721D01*
X124651027Y-99268823D01*
X124759577Y-99253994D01*
X124831261Y-99275715D01*
G37*
G36*
X124832774Y-98584548D02*
G01*
X124925144Y-98642024D01*
X124966697Y-98731134D01*
X124942412Y-98840795D01*
X124936636Y-98850865D01*
X124849006Y-98933238D01*
X124727640Y-98976665D01*
X124598220Y-98980078D01*
X124486428Y-98942410D01*
X124417946Y-98862593D01*
X124405632Y-98756061D01*
X124465717Y-98660874D01*
X124603028Y-98590350D01*
X124704606Y-98569791D01*
X124832774Y-98584548D01*
G37*
G36*
X124718337Y-105984723D02*
G01*
X124857879Y-106015831D01*
X124961348Y-106072743D01*
X125018048Y-106143941D01*
X125017285Y-106217915D01*
X124948365Y-106283153D01*
X124906182Y-106298417D01*
X124777948Y-106303540D01*
X124638297Y-106271960D01*
X124526014Y-106210361D01*
X124484131Y-106154529D01*
X124464956Y-106063304D01*
X124466491Y-106053891D01*
X124489456Y-106006858D01*
X124549562Y-105985840D01*
X124668720Y-105982108D01*
X124718337Y-105984723D01*
G37*
G36*
X124619449Y-97616203D02*
G01*
X124724160Y-97683651D01*
X124830166Y-97771423D01*
X124914292Y-97863235D01*
X124970600Y-97975608D01*
X124999445Y-98107466D01*
X125000049Y-98161831D01*
X124980872Y-98231758D01*
X124924024Y-98257432D01*
X124909055Y-98257837D01*
X124820421Y-98221570D01*
X124713836Y-98135068D01*
X124607478Y-98015323D01*
X124519526Y-97879327D01*
X124510329Y-97860926D01*
X124471530Y-97738565D01*
X124474914Y-97639314D01*
X124520410Y-97586476D01*
X124539211Y-97585363D01*
X124619449Y-97616203D01*
G37*
G36*
X124728465Y-96494785D02*
G01*
X124835653Y-96558328D01*
X124913480Y-96645195D01*
X124937071Y-96734104D01*
X124902881Y-96796557D01*
X124818502Y-96834062D01*
X124713359Y-96828816D01*
X124615792Y-96777031D01*
X124564743Y-96702244D01*
X124537982Y-96590807D01*
X124539361Y-96552490D01*
X124563827Y-96490393D01*
X124634254Y-96475000D01*
X124728465Y-96494785D01*
G37*
G36*
X124810439Y-109734860D02*
G01*
X124932660Y-109836459D01*
X124985972Y-109896339D01*
X125100786Y-110058170D01*
X125180232Y-110219815D01*
X125219548Y-110366185D01*
X125213970Y-110482187D01*
X125158735Y-110552732D01*
X125085872Y-110571735D01*
X124968637Y-110540092D01*
X124850778Y-110444994D01*
X124742908Y-110295944D01*
X124655644Y-110102440D01*
X124619591Y-109998695D01*
X124592264Y-109913969D01*
X124585066Y-109865413D01*
X124595439Y-109829549D01*
X124620824Y-109782901D01*
X124634462Y-109760654D01*
X124710387Y-109709479D01*
X124810439Y-109734860D01*
G37*
G36*
X124835541Y-106928502D02*
G01*
X125007069Y-106954811D01*
X125071448Y-106966177D01*
X125178620Y-106989100D01*
X125225282Y-107005864D01*
X125201444Y-107013454D01*
X125151852Y-107012596D01*
X125012241Y-106998670D01*
X124862817Y-106972948D01*
X124783604Y-106955134D01*
X124691679Y-106929926D01*
X124672954Y-106916675D01*
X124722539Y-106915995D01*
X124835541Y-106928502D01*
G37*
G36*
X125021495Y-100799250D02*
G01*
X125115371Y-100860801D01*
X125148559Y-100972917D01*
X125140494Y-101027886D01*
X125099713Y-101107244D01*
X125025407Y-101141727D01*
X124907921Y-101154629D01*
X124789299Y-101143134D01*
X124708943Y-101107244D01*
X124676774Y-101062147D01*
X124668479Y-100968889D01*
X124719176Y-100880883D01*
X124815965Y-100815408D01*
X124945949Y-100789744D01*
X125021495Y-100799250D01*
G37*
G36*
X124773827Y-97127274D02*
G01*
X124901327Y-97166761D01*
X125022480Y-97248975D01*
X125112989Y-97353445D01*
X125148559Y-97459703D01*
X125148557Y-97460303D01*
X125122563Y-97522429D01*
X125052603Y-97527353D01*
X124949639Y-97477880D01*
X124824632Y-97376816D01*
X124729970Y-97279638D01*
X124670591Y-97192252D01*
X124678515Y-97142228D01*
X124752803Y-97126282D01*
X124773827Y-97127274D01*
G37*
G36*
X125071981Y-102255184D02*
G01*
X125176066Y-102263154D01*
X125228523Y-102294593D01*
X125255682Y-102363759D01*
X125258060Y-102373728D01*
X125256665Y-102468621D01*
X125190891Y-102546932D01*
X125184041Y-102552222D01*
X125060853Y-102605050D01*
X124907317Y-102621528D01*
X124765189Y-102596767D01*
X124728573Y-102570496D01*
X124702829Y-102491753D01*
X124724673Y-102397676D01*
X124791270Y-102318494D01*
X124810972Y-102306786D01*
X124922741Y-102269966D01*
X125055077Y-102255128D01*
X125071981Y-102255184D01*
G37*
G36*
X125138663Y-101495524D02*
G01*
X125206709Y-101545696D01*
X125260822Y-101625962D01*
X125253388Y-101720351D01*
X125170761Y-101829575D01*
X125135178Y-101860332D01*
X125006770Y-101919717D01*
X124873712Y-101922296D01*
X124764767Y-101865522D01*
X124717834Y-101795825D01*
X124714918Y-101692831D01*
X124780920Y-101598213D01*
X124909542Y-101526718D01*
X124939218Y-101516605D01*
X125058702Y-101486415D01*
X125138663Y-101495524D01*
G37*
G36*
X125191518Y-108931976D02*
G01*
X125259094Y-108985218D01*
X125335053Y-109098674D01*
X125379738Y-109232068D01*
X125385313Y-109358683D01*
X125343943Y-109451795D01*
X125307885Y-109476006D01*
X125196317Y-109498651D01*
X125065290Y-109484251D01*
X124949930Y-109434361D01*
X124867942Y-109351625D01*
X124799997Y-109241012D01*
X124776000Y-109184230D01*
X124748296Y-109093109D01*
X124758924Y-109030154D01*
X124808874Y-108964503D01*
X124816339Y-108956834D01*
X124922294Y-108902915D01*
X125059234Y-108893620D01*
X125191518Y-108931976D01*
G37*
G36*
X125309519Y-103087343D02*
G01*
X125312413Y-103090912D01*
X125349584Y-103190320D01*
X125323114Y-103290071D01*
X125248162Y-103373099D01*
X125139886Y-103422333D01*
X125013446Y-103420708D01*
X124985817Y-103412749D01*
X124920937Y-103366998D01*
X124904328Y-103274289D01*
X124929313Y-103175367D01*
X125005500Y-103087030D01*
X125109947Y-103035678D01*
X125219129Y-103032163D01*
X125309519Y-103087343D01*
G37*
G36*
X125314169Y-104901506D02*
G01*
X125491849Y-104926236D01*
X125600307Y-104986851D01*
X125637020Y-105082082D01*
X125627149Y-105133188D01*
X125558692Y-105218039D01*
X125443467Y-105277510D01*
X125303305Y-105305703D01*
X125160039Y-105296715D01*
X125035500Y-105244647D01*
X125029044Y-105240002D01*
X124957884Y-105153144D01*
X124956386Y-105062613D01*
X125015271Y-104981606D01*
X125125262Y-104923323D01*
X125277081Y-104900962D01*
X125314169Y-104901506D01*
G37*
G36*
X125509040Y-99381791D02*
G01*
X125527055Y-99397290D01*
X125554141Y-99477842D01*
X125536340Y-99579060D01*
X125477359Y-99667494D01*
X125462648Y-99679457D01*
X125355826Y-99731041D01*
X125222891Y-99760723D01*
X125096844Y-99763712D01*
X125010682Y-99735221D01*
X125005406Y-99730634D01*
X124968298Y-99655349D01*
X124993238Y-99570325D01*
X125064810Y-99486494D01*
X125167593Y-99414790D01*
X125286172Y-99366149D01*
X125405126Y-99351506D01*
X125509040Y-99381791D01*
G37*
G36*
X125337732Y-111037954D02*
G01*
X125478097Y-111085205D01*
X125566156Y-111165474D01*
X125587931Y-111269068D01*
X125587758Y-111270257D01*
X125567091Y-111322312D01*
X125510661Y-111345348D01*
X125395975Y-111348695D01*
X125313078Y-111343133D01*
X125206420Y-111309661D01*
X125119316Y-111232278D01*
X125056921Y-111146303D01*
X125045535Y-111076678D01*
X125106454Y-111039374D01*
X125242628Y-111029544D01*
X125337732Y-111037954D01*
G37*
G36*
X125219793Y-111395593D02*
G01*
X125312174Y-111436320D01*
X125382612Y-111454237D01*
X125401389Y-111457412D01*
X125433495Y-111497936D01*
X125416718Y-111519361D01*
X125352851Y-111515688D01*
X125265082Y-111481050D01*
X125179087Y-111423011D01*
X125160366Y-111406336D01*
X125113729Y-111357676D01*
X125133062Y-111354417D01*
X125219793Y-111395593D01*
G37*
G36*
X125461459Y-105644571D02*
G01*
X125564781Y-105664838D01*
X125696437Y-105724419D01*
X125778087Y-105806855D01*
X125799638Y-105900038D01*
X125750995Y-105991859D01*
X125671259Y-106031557D01*
X125540408Y-106040367D01*
X125393389Y-106015759D01*
X125258327Y-105962775D01*
X125163347Y-105886461D01*
X125134652Y-105840818D01*
X125120869Y-105747986D01*
X125175887Y-105680161D01*
X125291989Y-105643602D01*
X125461459Y-105644571D01*
G37*
G36*
X125684002Y-100087751D02*
G01*
X125692549Y-100097243D01*
X125715124Y-100178402D01*
X125677818Y-100270285D01*
X125595877Y-100359605D01*
X125484548Y-100433073D01*
X125359081Y-100477401D01*
X125234722Y-100479300D01*
X125153600Y-100453460D01*
X125114866Y-100402860D01*
X125149396Y-100328118D01*
X125257616Y-100224468D01*
X125356119Y-100154250D01*
X125491211Y-100088476D01*
X125607409Y-100064096D01*
X125684002Y-100087751D01*
G37*
G36*
X125396369Y-96898193D02*
G01*
X125508272Y-96952067D01*
X125580066Y-97024741D01*
X125624915Y-97109703D01*
X125630277Y-97179905D01*
X125588970Y-97212198D01*
X125546809Y-97214485D01*
X125380333Y-97196170D01*
X125260498Y-97136562D01*
X125216188Y-97086668D01*
X125190319Y-97001888D01*
X125221992Y-96934570D01*
X125295809Y-96896183D01*
X125396369Y-96898193D01*
G37*
G36*
X125304278Y-97899855D02*
G01*
X125393730Y-97936639D01*
X125489249Y-98018942D01*
X125565291Y-98119883D01*
X125596315Y-98212584D01*
X125596209Y-98218325D01*
X125565388Y-98289146D01*
X125494154Y-98308962D01*
X125403480Y-98278748D01*
X125314334Y-98199479D01*
X125260524Y-98111290D01*
X125231637Y-98008229D01*
X125244083Y-97930442D01*
X125298976Y-97899680D01*
X125304278Y-97899855D01*
G37*
G36*
X125592750Y-108289820D02*
G01*
X125690744Y-108337347D01*
X125804630Y-108437519D01*
X125809236Y-108442138D01*
X125904947Y-108550737D01*
X125950851Y-108644508D01*
X125962661Y-108755019D01*
X125945370Y-108895125D01*
X125884995Y-108983853D01*
X125777367Y-109012180D01*
X125689571Y-108993758D01*
X125557013Y-108921061D01*
X125432242Y-108811708D01*
X125341971Y-108685727D01*
X125334682Y-108670902D01*
X125280061Y-108506870D01*
X125290788Y-108383752D01*
X125364986Y-108306355D01*
X125500773Y-108279487D01*
X125592750Y-108289820D01*
G37*
G36*
X125753051Y-104253597D02*
G01*
X125772329Y-104264797D01*
X125852827Y-104332217D01*
X125860161Y-104406192D01*
X125797985Y-104507379D01*
X125773052Y-104536746D01*
X125682977Y-104599128D01*
X125555563Y-104616026D01*
X125540480Y-104615761D01*
X125418783Y-104595561D01*
X125334639Y-104552061D01*
X125283019Y-104486166D01*
X125283341Y-104417267D01*
X125351049Y-104332125D01*
X125465025Y-104251949D01*
X125613111Y-104218037D01*
X125753051Y-104253597D01*
G37*
G36*
X125514700Y-98613877D02*
G01*
X125617528Y-98709044D01*
X125692219Y-98833125D01*
X125696916Y-98845060D01*
X125735371Y-98991503D01*
X125715231Y-99087919D01*
X125635115Y-99141791D01*
X125585140Y-99145407D01*
X125479060Y-99109046D01*
X125377017Y-99034370D01*
X125309942Y-98940523D01*
X125283670Y-98847065D01*
X125274071Y-98723602D01*
X125289335Y-98620632D01*
X125328058Y-98567092D01*
X125405743Y-98563698D01*
X125514700Y-98613877D01*
G37*
G36*
X125720257Y-107527248D02*
G01*
X125836987Y-107540225D01*
X125921930Y-107579124D01*
X126010012Y-107656770D01*
X126034032Y-107681085D01*
X126099725Y-107759174D01*
X126116040Y-107819600D01*
X126093079Y-107890824D01*
X126082565Y-107912511D01*
X126040092Y-107965453D01*
X125969506Y-107989118D01*
X125844317Y-107994551D01*
X125838111Y-107994543D01*
X125702564Y-107984613D01*
X125603225Y-107944534D01*
X125497451Y-107857453D01*
X125424042Y-107785483D01*
X125367852Y-107712527D01*
X125360000Y-107653834D01*
X125391928Y-107587500D01*
X125408730Y-107569224D01*
X125496883Y-107536795D01*
X125655105Y-107526442D01*
X125720257Y-107527248D01*
G37*
G36*
X125782467Y-106310072D02*
G01*
X125886918Y-106363797D01*
X125921336Y-106394064D01*
X125958187Y-106453235D01*
X125937068Y-106516440D01*
X125903453Y-106548759D01*
X125800151Y-106583883D01*
X125667740Y-106588921D01*
X125536085Y-106564244D01*
X125435049Y-106510221D01*
X125379055Y-106452623D01*
X125352084Y-106408884D01*
X125358285Y-106379564D01*
X125418847Y-106323448D01*
X125525212Y-106291855D01*
X125654159Y-106286744D01*
X125782467Y-106310072D01*
G37*
G36*
X125769860Y-100893109D02*
G01*
X125824653Y-100976193D01*
X125830399Y-101008211D01*
X125811867Y-101126719D01*
X125742325Y-101221462D01*
X125641884Y-101279406D01*
X125530657Y-101287517D01*
X125428755Y-101232761D01*
X125406753Y-101210723D01*
X125362511Y-101156543D01*
X125361546Y-101105056D01*
X125398401Y-101017563D01*
X125463595Y-100930303D01*
X125565719Y-100872456D01*
X125675678Y-100859294D01*
X125769860Y-100893109D01*
G37*
G36*
X125842172Y-103510120D02*
G01*
X125851613Y-103518178D01*
X125907976Y-103610116D01*
X125901006Y-103709580D01*
X125843940Y-103801793D01*
X125750014Y-103871973D01*
X125632464Y-103905344D01*
X125504524Y-103887125D01*
X125425498Y-103831899D01*
X125388467Y-103734746D01*
X125413227Y-103623603D01*
X125500042Y-103519942D01*
X125608448Y-103454140D01*
X125723772Y-103444980D01*
X125842172Y-103510120D01*
G37*
G36*
X125815158Y-102431381D02*
G01*
X125892837Y-102501231D01*
X125921956Y-102627306D01*
X125905831Y-102706754D01*
X125832792Y-102800527D01*
X125723561Y-102854529D01*
X125603372Y-102858390D01*
X125497460Y-102801740D01*
X125442301Y-102713365D01*
X125452270Y-102606452D01*
X125540748Y-102502314D01*
X125572200Y-102479403D01*
X125703439Y-102422518D01*
X125815158Y-102431381D01*
G37*
G36*
X125851552Y-101640434D02*
G01*
X125925210Y-101689128D01*
X125934179Y-101704481D01*
X125959951Y-101821360D01*
X125924471Y-101930724D01*
X125845158Y-102018644D01*
X125739433Y-102071188D01*
X125624719Y-102074426D01*
X125518432Y-102014425D01*
X125489231Y-101984089D01*
X125441956Y-101911375D01*
X125453668Y-101841655D01*
X125525081Y-101746148D01*
X125525545Y-101745611D01*
X125623071Y-101672758D01*
X125741289Y-101636338D01*
X125851552Y-101640434D01*
G37*
G36*
X125690495Y-97508507D02*
G01*
X125824414Y-97573078D01*
X125922258Y-97671199D01*
X125961367Y-97785338D01*
X125944938Y-97851308D01*
X125880407Y-97891205D01*
X125782326Y-97883274D01*
X125667189Y-97829646D01*
X125551487Y-97732446D01*
X125503359Y-97673572D01*
X125462962Y-97578901D01*
X125489891Y-97515660D01*
X125582994Y-97492628D01*
X125690495Y-97508507D01*
G37*
G36*
X125811661Y-110574340D02*
G01*
X125966818Y-110651861D01*
X125984465Y-110664074D01*
X126081042Y-110759786D01*
X126117885Y-110875765D01*
X126120694Y-110937323D01*
X126096401Y-111005925D01*
X126017712Y-111049720D01*
X125894616Y-111075616D01*
X125753196Y-111044441D01*
X125599452Y-110942067D01*
X125574407Y-110919946D01*
X125490747Y-110809880D01*
X125487477Y-110710463D01*
X125564667Y-110622340D01*
X125676357Y-110569406D01*
X125811661Y-110574340D01*
G37*
G36*
X125838726Y-109609270D02*
G01*
X125952318Y-109690830D01*
X126050307Y-109804058D01*
X126108211Y-109925831D01*
X126112895Y-109949044D01*
X126106675Y-110077276D01*
X126058023Y-110192177D01*
X125979666Y-110260603D01*
X125977781Y-110261304D01*
X125877521Y-110260198D01*
X125758908Y-110208665D01*
X125649148Y-110122947D01*
X125575444Y-110019283D01*
X125571585Y-110010273D01*
X125533174Y-109903524D01*
X125516498Y-109825163D01*
X125516804Y-109810998D01*
X125556243Y-109703726D01*
X125641379Y-109617450D01*
X125744222Y-109582051D01*
X125838726Y-109609270D01*
G37*
G36*
X126234552Y-100141045D02*
G01*
X126215556Y-100184502D01*
X126163318Y-100264605D01*
X126112862Y-100326322D01*
X125990504Y-100435530D01*
X125859323Y-100514718D01*
X125746804Y-100545361D01*
X125738153Y-100543721D01*
X125747916Y-100511241D01*
X125817973Y-100441909D01*
X125942309Y-100341987D01*
X125985187Y-100309734D01*
X126104435Y-100222328D01*
X126192279Y-100161364D01*
X126232172Y-100138462D01*
X126234552Y-100141045D01*
G37*
G36*
X125985271Y-98160881D02*
G01*
X126101677Y-98233298D01*
X126117164Y-98247794D01*
X126203368Y-98383670D01*
X126243950Y-98556405D01*
X126230793Y-98734492D01*
X126223515Y-98760245D01*
X126181333Y-98821701D01*
X126096526Y-98828288D01*
X126047653Y-98815853D01*
X125970612Y-98755631D01*
X125892554Y-98632619D01*
X125883792Y-98615597D01*
X125821549Y-98451007D01*
X125806115Y-98312662D01*
X125831950Y-98211141D01*
X125893516Y-98157021D01*
X125985271Y-98160881D01*
G37*
G36*
X126226129Y-105151306D02*
G01*
X126311623Y-105176345D01*
X126372180Y-105244349D01*
X126378443Y-105345442D01*
X126310095Y-105452741D01*
X126301223Y-105461313D01*
X126173123Y-105536414D01*
X126036139Y-105544939D01*
X125914985Y-105484877D01*
X125895660Y-105465033D01*
X125846941Y-105363994D01*
X125854960Y-105261275D01*
X125919280Y-105187330D01*
X125979319Y-105165593D01*
X126102152Y-105148092D01*
X126226129Y-105151306D01*
G37*
G36*
X126424003Y-99226932D02*
G01*
X126477054Y-99311741D01*
X126482414Y-99339323D01*
X126468629Y-99481218D01*
X126399679Y-99616480D01*
X126292487Y-99726657D01*
X126163977Y-99793298D01*
X126031075Y-99797952D01*
X125999236Y-99786934D01*
X125931541Y-99716922D01*
X125925749Y-99601353D01*
X125982781Y-99446924D01*
X126011275Y-99398489D01*
X126110108Y-99288396D01*
X126223316Y-99219967D01*
X126333687Y-99197910D01*
X126424003Y-99226932D01*
G37*
G36*
X126176458Y-97208453D02*
G01*
X126273435Y-97273994D01*
X126321474Y-97359279D01*
X126310111Y-97419572D01*
X126243557Y-97471887D01*
X126139474Y-97487184D01*
X126020717Y-97457962D01*
X125959945Y-97412103D01*
X125921653Y-97327107D01*
X125935255Y-97242431D01*
X126002710Y-97187548D01*
X126062986Y-97180132D01*
X126176458Y-97208453D01*
G37*
G36*
X126325131Y-102812935D02*
G01*
X126369423Y-102858935D01*
X126401968Y-102966099D01*
X126389479Y-103087174D01*
X126331407Y-103188946D01*
X126299112Y-103216668D01*
X126189108Y-103265383D01*
X126082218Y-103260697D01*
X126006627Y-103201523D01*
X125977645Y-103141454D01*
X125969109Y-103047541D01*
X126010345Y-102927702D01*
X126020236Y-102908699D01*
X126105858Y-102824488D01*
X126218296Y-102788627D01*
X126325131Y-102812935D01*
G37*
G36*
X126313165Y-96727109D02*
G01*
X126404246Y-96755260D01*
X126434298Y-96782964D01*
X126446235Y-96854110D01*
X126397989Y-96926048D01*
X126299480Y-96977716D01*
X126287960Y-96980916D01*
X126170423Y-96992410D01*
X126065705Y-96947692D01*
X125988309Y-96887500D01*
X125967867Y-96831443D01*
X126011507Y-96768077D01*
X126076399Y-96737327D01*
X126191161Y-96721547D01*
X126313165Y-96727109D01*
G37*
G36*
X126465780Y-103576825D02*
G01*
X126543426Y-103650522D01*
X126573238Y-103778019D01*
X126557068Y-103894008D01*
X126492285Y-103975203D01*
X126362836Y-104026056D01*
X126263946Y-104029480D01*
X126169714Y-103968271D01*
X126163900Y-103962379D01*
X126095972Y-103862109D01*
X126102637Y-103765996D01*
X126184689Y-103657605D01*
X126237750Y-103612759D01*
X126357993Y-103562410D01*
X126465780Y-103576825D01*
G37*
G36*
X126298971Y-101159291D02*
G01*
X126347374Y-101238857D01*
X126363024Y-101346437D01*
X126335046Y-101464380D01*
X126275870Y-101534831D01*
X126189307Y-101564769D01*
X126111913Y-101536004D01*
X126105275Y-101527497D01*
X126085434Y-101447531D01*
X126087660Y-101334435D01*
X126108703Y-101225125D01*
X126145315Y-101156520D01*
X126147419Y-101154800D01*
X126228695Y-101125389D01*
X126298971Y-101159291D01*
G37*
G36*
X126312331Y-100441894D02*
G01*
X126320531Y-100453735D01*
X126363906Y-100562487D01*
X126366797Y-100675028D01*
X126337209Y-100774322D01*
X126283148Y-100843326D01*
X126212617Y-100865002D01*
X126133623Y-100822308D01*
X126104215Y-100777219D01*
X126084933Y-100662731D01*
X126107967Y-100538341D01*
X126169863Y-100440423D01*
X126226773Y-100392891D01*
X126267140Y-100389258D01*
X126312331Y-100441894D01*
G37*
G36*
X126618201Y-109278177D02*
G01*
X126797223Y-109363096D01*
X126904424Y-109477646D01*
X126939584Y-109623673D01*
X126919977Y-109729690D01*
X126844233Y-109802939D01*
X126706258Y-109826282D01*
X126549236Y-109806214D01*
X126359445Y-109727429D01*
X126213726Y-109601846D01*
X126200951Y-109585453D01*
X126141087Y-109494026D01*
X126131183Y-109423149D01*
X126165113Y-109339827D01*
X126179263Y-109317599D01*
X126277956Y-109250513D01*
X126427503Y-109236931D01*
X126618201Y-109278177D01*
G37*
G36*
X126504048Y-105883561D02*
G01*
X126636209Y-105927392D01*
X126713616Y-106004519D01*
X126727399Y-106102901D01*
X126668692Y-106210496D01*
X126576516Y-106264094D01*
X126442824Y-106284795D01*
X126305443Y-106269466D01*
X126199921Y-106217570D01*
X126149090Y-106154677D01*
X126130399Y-106055318D01*
X126176301Y-105966405D01*
X126277249Y-105902430D01*
X126423698Y-105877885D01*
X126504048Y-105883561D01*
G37*
G36*
X126622576Y-104352936D02*
G01*
X126704743Y-104429352D01*
X126736059Y-104553446D01*
X126707944Y-104677917D01*
X126621605Y-104784242D01*
X126497126Y-104845923D01*
X126355058Y-104853346D01*
X126215948Y-104796891D01*
X126196717Y-104782273D01*
X126133676Y-104688239D01*
X126149635Y-104576987D01*
X126244466Y-104450074D01*
X126247666Y-104446902D01*
X126376369Y-104357996D01*
X126507229Y-104327912D01*
X126622576Y-104352936D01*
G37*
G36*
X126383058Y-108306988D02*
G01*
X126527171Y-108343850D01*
X126654456Y-108428624D01*
X126749636Y-108543449D01*
X126797436Y-108670459D01*
X126782580Y-108791791D01*
X126775992Y-108805170D01*
X126692182Y-108891506D01*
X126577517Y-108919152D01*
X126450905Y-108891763D01*
X126331257Y-108812992D01*
X126237484Y-108686492D01*
X126179332Y-108532479D01*
X126178730Y-108408907D01*
X126241843Y-108332671D01*
X126367691Y-108306624D01*
X126383058Y-108306988D01*
G37*
G36*
X126412505Y-101899072D02*
G01*
X126490901Y-101967458D01*
X126549929Y-102078364D01*
X126573238Y-102206282D01*
X126570427Y-102261426D01*
X126531664Y-102388838D01*
X126456988Y-102453472D01*
X126358721Y-102449118D01*
X126249183Y-102369568D01*
X126193990Y-102281172D01*
X126166187Y-102166043D01*
X126174248Y-102111534D01*
X126222197Y-102007546D01*
X126294606Y-101923414D01*
X126369712Y-101888782D01*
X126412505Y-101899072D01*
G37*
G36*
X126596201Y-106630661D02*
G01*
X126699041Y-106687205D01*
X126736059Y-106773398D01*
X126721381Y-106828817D01*
X126648701Y-106895524D01*
X126536316Y-106931225D01*
X126408057Y-106929947D01*
X126287750Y-106885722D01*
X126244528Y-106851591D01*
X126204645Y-106770477D01*
X126230240Y-106692457D01*
X126312244Y-106633750D01*
X126441587Y-106610577D01*
X126596201Y-106630661D01*
G37*
G36*
X126716199Y-110157809D02*
G01*
X126849438Y-110206449D01*
X126944207Y-110288999D01*
X126980289Y-110398527D01*
X126956786Y-110491297D01*
X126874116Y-110578759D01*
X126751360Y-110632005D01*
X126609010Y-110646437D01*
X126467562Y-110617459D01*
X126347510Y-110540472D01*
X126297850Y-110484106D01*
X126250955Y-110376895D01*
X126283995Y-110283125D01*
X126397565Y-110198722D01*
X126415179Y-110189985D01*
X126564707Y-110150010D01*
X126716199Y-110157809D01*
G37*
G36*
X126410881Y-97686453D02*
G01*
X126526600Y-97758466D01*
X126542475Y-97772416D01*
X126630471Y-97881083D01*
X126674437Y-97993618D01*
X126673907Y-98092241D01*
X126628419Y-98159175D01*
X126537509Y-98176641D01*
X126493055Y-98166105D01*
X126416435Y-98108442D01*
X126341763Y-97987873D01*
X126288411Y-97846491D01*
X126284746Y-97739204D01*
X126327917Y-97682945D01*
X126410881Y-97686453D01*
G37*
G36*
X126801413Y-110992904D02*
G01*
X126922864Y-111050450D01*
X126972827Y-111137426D01*
X126970245Y-111245883D01*
X126915639Y-111335353D01*
X126867510Y-111362194D01*
X126740792Y-111383265D01*
X126596733Y-111367028D01*
X126470434Y-111315080D01*
X126451982Y-111302077D01*
X126380634Y-111210438D01*
X126387425Y-111112650D01*
X126472264Y-111022824D01*
X126510592Y-111002952D01*
X126650315Y-110976233D01*
X126801413Y-110992904D01*
G37*
G36*
X126550825Y-98508546D02*
G01*
X126581791Y-98545305D01*
X126627737Y-98659918D01*
X126646567Y-98798516D01*
X126631101Y-98923945D01*
X126615004Y-98959778D01*
X126594954Y-98955430D01*
X126569092Y-98890116D01*
X126531947Y-98754487D01*
X126499618Y-98619440D01*
X126479795Y-98518362D01*
X126476968Y-98473927D01*
X126495227Y-98473893D01*
X126550825Y-98508546D01*
G37*
G36*
X126733816Y-97057169D02*
G01*
X126809208Y-97109928D01*
X126845048Y-97195840D01*
X126820722Y-97303377D01*
X126816365Y-97311245D01*
X126729827Y-97402948D01*
X126625115Y-97428807D01*
X126523858Y-97383015D01*
X126467276Y-97316494D01*
X126459753Y-97237347D01*
X126516116Y-97133015D01*
X126546841Y-97097233D01*
X126639489Y-97049094D01*
X126733816Y-97057169D01*
G37*
G36*
X126765176Y-107785051D02*
G01*
X126892765Y-107840566D01*
X126919701Y-107854578D01*
X127068259Y-107954442D01*
X127165082Y-108060352D01*
X127205228Y-108161069D01*
X127183750Y-108245353D01*
X127095707Y-108301966D01*
X126978952Y-108313043D01*
X126826151Y-108259606D01*
X126653622Y-108131250D01*
X126568123Y-108044613D01*
X126501718Y-107934040D01*
X126512290Y-107848878D01*
X126599768Y-107788678D01*
X126673415Y-107771258D01*
X126765176Y-107785051D01*
G37*
G36*
X126668236Y-101156756D02*
G01*
X126743621Y-101238820D01*
X126788743Y-101349815D01*
X126794045Y-101386615D01*
X126784932Y-101507926D01*
X126741109Y-101596731D01*
X126676589Y-101641515D01*
X126605384Y-101630765D01*
X126541508Y-101552964D01*
X126534035Y-101536321D01*
X126501852Y-101415779D01*
X126495089Y-101289063D01*
X126512891Y-101184276D01*
X126554402Y-101129523D01*
X126584562Y-101124278D01*
X126668236Y-101156756D01*
G37*
G36*
X126830975Y-102745609D02*
G01*
X126903658Y-102783090D01*
X126961108Y-102882583D01*
X126963007Y-102887195D01*
X126993583Y-103024754D01*
X126977308Y-103143412D01*
X126925860Y-103230831D01*
X126850923Y-103274675D01*
X126764179Y-103262606D01*
X126677309Y-103182289D01*
X126640974Y-103115949D01*
X126614404Y-102985826D01*
X126636252Y-102865821D01*
X126700374Y-102777790D01*
X126800626Y-102743589D01*
X126830975Y-102745609D01*
G37*
G36*
X127105217Y-105190024D02*
G01*
X127191112Y-105266952D01*
X127224520Y-105384053D01*
X127217854Y-105441162D01*
X127156427Y-105556312D01*
X127049813Y-105632253D01*
X126921538Y-105656293D01*
X126795123Y-105615739D01*
X126763851Y-105590391D01*
X126703541Y-105483326D01*
X126700924Y-105358760D01*
X126759258Y-105249924D01*
X126861946Y-105181472D01*
X126988330Y-105159465D01*
X127105217Y-105190024D01*
G37*
G36*
X127176020Y-103568203D02*
G01*
X127240319Y-103666507D01*
X127265226Y-103806800D01*
X127265032Y-103824286D01*
X127245029Y-103940894D01*
X127186491Y-104004017D01*
X127059159Y-104046594D01*
X126954859Y-104018912D01*
X126880926Y-103915994D01*
X126850893Y-103824212D01*
X126857007Y-103706143D01*
X126931728Y-103588221D01*
X126991768Y-103538547D01*
X127087959Y-103522135D01*
X127176020Y-103568203D01*
G37*
G36*
X127009303Y-101954972D02*
G01*
X127075405Y-102044887D01*
X127124125Y-102161129D01*
X127143110Y-102288828D01*
X127139385Y-102339594D01*
X127097353Y-102440720D01*
X127024459Y-102482263D01*
X126940704Y-102458747D01*
X126866090Y-102364693D01*
X126842185Y-102294289D01*
X126823340Y-102161456D01*
X126826146Y-102030076D01*
X126851875Y-101938285D01*
X126874364Y-101913593D01*
X126938172Y-101906251D01*
X127009303Y-101954972D01*
G37*
G36*
X127278850Y-106876448D02*
G01*
X127390365Y-106940695D01*
X127453398Y-107043409D01*
X127457426Y-107121925D01*
X127410367Y-107215246D01*
X127317482Y-107276225D01*
X127198192Y-107298614D01*
X127071920Y-107276171D01*
X126958087Y-107202652D01*
X126932023Y-107175854D01*
X126870231Y-107090479D01*
X126873344Y-107019125D01*
X126939584Y-106936218D01*
X127014030Y-106884980D01*
X127144768Y-106856074D01*
X127278850Y-106876448D01*
G37*
G36*
X127460610Y-106089551D02*
G01*
X127481247Y-106115148D01*
X127510572Y-106223283D01*
X127482583Y-106343158D01*
X127402203Y-106444802D01*
X127276876Y-106511758D01*
X127135720Y-106521624D01*
X127014023Y-106461799D01*
X126949686Y-106367344D01*
X126958389Y-106257343D01*
X127047291Y-106140525D01*
X127106492Y-106096925D01*
X127235637Y-106048176D01*
X127363885Y-106044459D01*
X127460610Y-106089551D01*
G37*
G36*
X127548253Y-108720051D02*
G01*
X127661873Y-108776205D01*
X127690850Y-108811915D01*
X127713449Y-108914336D01*
X127689285Y-109026047D01*
X127622514Y-109111634D01*
X127549093Y-109148666D01*
X127402132Y-109174221D01*
X127255150Y-109155424D01*
X127143110Y-109093590D01*
X127139457Y-109089881D01*
X127072515Y-108975778D01*
X127079072Y-108862306D01*
X127153064Y-108765785D01*
X127288424Y-108702540D01*
X127402776Y-108693984D01*
X127548253Y-108720051D01*
G37*
G36*
X127418647Y-104398112D02*
G01*
X127498574Y-104487133D01*
X127525738Y-104636378D01*
X127525738Y-104636775D01*
X127509873Y-104750870D01*
X127471908Y-104836099D01*
X127439164Y-104865673D01*
X127332090Y-104899881D01*
X127215794Y-104880632D01*
X127125066Y-104810494D01*
X127084703Y-104733578D01*
X127061700Y-104636378D01*
X127061800Y-104629259D01*
X127098446Y-104502119D01*
X127186187Y-104408350D01*
X127303254Y-104371795D01*
X127418647Y-104398112D01*
G37*
G36*
X127722874Y-111178654D02*
G01*
X127770218Y-111211931D01*
X127797766Y-111253653D01*
X127796472Y-111346779D01*
X127726558Y-111444193D01*
X127594482Y-111534052D01*
X127465603Y-111583838D01*
X127325079Y-111612844D01*
X127203827Y-111616069D01*
X127129542Y-111590171D01*
X127107119Y-111519602D01*
X127147850Y-111432902D01*
X127238838Y-111342902D01*
X127367151Y-111262393D01*
X127519853Y-111204166D01*
X127541048Y-111198585D01*
X127655273Y-111174478D01*
X127722874Y-111178654D01*
G37*
G36*
X127660944Y-110485347D02*
G01*
X127701962Y-110508699D01*
X127776214Y-110597878D01*
X127775031Y-110706317D01*
X127697197Y-110822691D01*
X127637481Y-110873441D01*
X127539201Y-110914396D01*
X127397332Y-110925321D01*
X127333855Y-110922910D01*
X127218687Y-110905388D01*
X127151251Y-110876475D01*
X127108708Y-110801982D01*
X127119013Y-110705728D01*
X127181594Y-110611840D01*
X127281763Y-110531588D01*
X127404836Y-110476242D01*
X127536124Y-110457071D01*
X127660944Y-110485347D01*
G37*
G36*
X127348318Y-102765465D02*
G01*
X127428975Y-102854963D01*
X127516957Y-103012219D01*
X127550161Y-103166570D01*
X127532755Y-103256969D01*
X127477989Y-103306353D01*
X127401769Y-103297988D01*
X127320527Y-103234510D01*
X127250702Y-103118554D01*
X127212852Y-103014178D01*
X127188772Y-102860129D01*
X127222658Y-102745209D01*
X127241344Y-102720843D01*
X127281253Y-102714562D01*
X127348318Y-102765465D01*
G37*
G36*
X127833964Y-109580598D02*
G01*
X127923570Y-109662143D01*
X127957212Y-109784270D01*
X127944793Y-109857783D01*
X127871495Y-109974986D01*
X127751109Y-110067652D01*
X127605274Y-110125236D01*
X127455623Y-110137191D01*
X127323792Y-110092977D01*
X127278468Y-110058791D01*
X127235269Y-109987791D01*
X127232386Y-109876021D01*
X127239678Y-109821256D01*
X127283624Y-109720216D01*
X127383184Y-109634242D01*
X127399230Y-109623842D01*
X127554808Y-109557008D01*
X127705382Y-109544073D01*
X127833964Y-109580598D01*
G37*
G36*
X127844319Y-105253360D02*
G01*
X127939228Y-105332185D01*
X127979069Y-105457272D01*
X127956825Y-105614476D01*
X127920863Y-105688472D01*
X127828086Y-105772996D01*
X127715558Y-105800808D01*
X127605782Y-105768834D01*
X127521255Y-105673999D01*
X127479264Y-105566632D01*
X127483396Y-105452333D01*
X127554868Y-105331627D01*
X127571476Y-105311410D01*
X127658105Y-105244264D01*
X127768287Y-105234551D01*
X127844319Y-105253360D01*
G37*
G36*
X127670310Y-103597440D02*
G01*
X127762925Y-103657148D01*
X127830608Y-103747270D01*
X127860765Y-103831052D01*
X127874194Y-103965863D01*
X127845285Y-104072032D01*
X127785646Y-104139312D01*
X127706878Y-104157454D01*
X127620591Y-104116209D01*
X127538388Y-104005329D01*
X127508016Y-103928986D01*
X127486710Y-103791318D01*
X127503538Y-103670227D01*
X127557202Y-103594047D01*
X127581881Y-103584463D01*
X127670310Y-103597440D01*
G37*
G36*
X127910262Y-108148532D02*
G01*
X128057949Y-108164739D01*
X128207259Y-108187551D01*
X128337490Y-108213804D01*
X128427939Y-108240333D01*
X128457906Y-108263975D01*
X128473473Y-108291919D01*
X128556000Y-108289804D01*
X128626359Y-108279252D01*
X128640311Y-108289703D01*
X128588142Y-108334551D01*
X128527304Y-108376279D01*
X128470514Y-108400308D01*
X128439160Y-108414801D01*
X128382209Y-108472837D01*
X128332751Y-108513629D01*
X128239590Y-108537261D01*
X128085889Y-108544071D01*
X128040928Y-108543737D01*
X127905642Y-108533795D01*
X127814071Y-108503800D01*
X127736614Y-108445390D01*
X127683387Y-108383790D01*
X127637821Y-108282420D01*
X127643474Y-108196800D01*
X127702805Y-108148535D01*
X127784899Y-108142097D01*
X127910262Y-108148532D01*
G37*
G36*
X128153820Y-107231220D02*
G01*
X128244002Y-107311363D01*
X128280838Y-107430155D01*
X128259288Y-107562831D01*
X128178122Y-107686417D01*
X128082886Y-107738256D01*
X127952191Y-107751817D01*
X127824850Y-107724987D01*
X127735642Y-107659853D01*
X127689232Y-107574241D01*
X127682613Y-107454531D01*
X127755312Y-107341645D01*
X127862193Y-107256537D01*
X128010826Y-107205101D01*
X128153820Y-107231220D01*
G37*
G36*
X128137809Y-106305197D02*
G01*
X128218903Y-106376308D01*
X128245683Y-106482832D01*
X128214865Y-106608195D01*
X128123164Y-106735825D01*
X128105304Y-106752888D01*
X127973776Y-106835673D01*
X127845586Y-106849059D01*
X127736242Y-106790843D01*
X127696386Y-106736479D01*
X127677336Y-106610003D01*
X127731829Y-106450667D01*
X127788978Y-106364830D01*
X127886687Y-106302521D01*
X128033811Y-106284936D01*
X128137809Y-106305197D01*
G37*
G36*
X127936375Y-104421232D02*
G01*
X127996130Y-104462002D01*
X128055518Y-104567655D01*
X128107955Y-104736514D01*
X128098260Y-104869833D01*
X128025896Y-104957862D01*
X127997045Y-104972580D01*
X127938691Y-104969353D01*
X127871304Y-104904223D01*
X127821565Y-104811370D01*
X127796768Y-104686476D01*
X127802432Y-104562898D01*
X127837092Y-104465906D01*
X127899289Y-104420768D01*
X127936375Y-104421232D01*
G37*
G36*
X128533127Y-111167140D02*
G01*
X128562399Y-111216058D01*
X128536042Y-111303443D01*
X128445426Y-111428198D01*
X128344179Y-111525568D01*
X128202267Y-111621157D01*
X128065385Y-111675829D01*
X127956160Y-111678032D01*
X127903634Y-111649070D01*
X127880100Y-111578489D01*
X127924675Y-111484468D01*
X128035033Y-111375921D01*
X128197782Y-111262188D01*
X128342192Y-111189106D01*
X128456849Y-111157790D01*
X128533127Y-111167140D01*
G37*
G36*
X128493379Y-108781162D02*
G01*
X128570083Y-108853645D01*
X128595592Y-108921471D01*
X128596929Y-109050411D01*
X128550771Y-109175720D01*
X128470042Y-109285396D01*
X128367665Y-109367433D01*
X128256562Y-109409824D01*
X128149656Y-109400563D01*
X128059872Y-109327644D01*
X128051405Y-109315001D01*
X128014407Y-109187608D01*
X128057889Y-109049440D01*
X128181923Y-108900242D01*
X128256550Y-108838833D01*
X128385153Y-108776670D01*
X128493379Y-108781162D01*
G37*
G36*
X128588833Y-110605334D02*
G01*
X128608495Y-110696065D01*
X128608395Y-110702390D01*
X128567695Y-110828172D01*
X128467503Y-110938796D01*
X128328666Y-111017479D01*
X128172034Y-111047436D01*
X128100119Y-111043551D01*
X128049916Y-111015464D01*
X128038623Y-110943730D01*
X128046614Y-110892820D01*
X128113661Y-110777946D01*
X128233556Y-110673779D01*
X128387762Y-110598642D01*
X128404020Y-110593434D01*
X128523730Y-110572473D01*
X128588833Y-110605334D01*
G37*
G36*
X128598888Y-109868290D02*
G01*
X128641533Y-109956561D01*
X128639562Y-110053763D01*
X128575069Y-110196103D01*
X128432900Y-110316770D01*
X128425526Y-110321211D01*
X128278312Y-110384319D01*
X128160237Y-110385645D01*
X128082921Y-110324920D01*
X128061163Y-110261506D01*
X128080216Y-110136431D01*
X128168781Y-109979024D01*
X128178268Y-109966173D01*
X128279506Y-109876026D01*
X128397163Y-109829007D01*
X128510528Y-109826101D01*
X128598888Y-109868290D01*
G37*
G36*
X128383188Y-105414162D02*
G01*
X128431818Y-105475504D01*
X128494646Y-105611227D01*
X128526318Y-105760717D01*
X128522346Y-105896690D01*
X128478238Y-105991859D01*
X128413206Y-106030841D01*
X128307077Y-106030910D01*
X128217402Y-105969471D01*
X128188897Y-105913621D01*
X128163378Y-105784138D01*
X128163711Y-105636249D01*
X128188740Y-105502178D01*
X128237310Y-105414154D01*
X128278183Y-105379664D01*
X128326076Y-105367762D01*
X128383188Y-105414162D01*
G37*
G36*
X128715489Y-106327987D02*
G01*
X128789187Y-106379723D01*
X128836026Y-106483591D01*
X128852758Y-106618730D01*
X128836130Y-106764289D01*
X128782891Y-106899409D01*
X128768701Y-106921778D01*
X128681913Y-107003142D01*
X128595084Y-107009628D01*
X128522600Y-106945268D01*
X128478846Y-106814103D01*
X128473275Y-106761426D01*
X128483697Y-106600454D01*
X128529664Y-106460974D01*
X128602482Y-106362772D01*
X128693457Y-106325641D01*
X128715489Y-106327987D01*
G37*
G36*
X128946455Y-107388935D02*
G01*
X128999704Y-107482850D01*
X129021894Y-107612969D01*
X129009129Y-107760660D01*
X128957513Y-107907291D01*
X128938356Y-107941695D01*
X128869241Y-108015343D01*
X128772291Y-108035257D01*
X128685498Y-108019830D01*
X128611756Y-107964023D01*
X128598712Y-107937937D01*
X128574129Y-107803733D01*
X128595125Y-107653782D01*
X128652661Y-107512238D01*
X128737697Y-107403251D01*
X128841194Y-107350976D01*
X128866042Y-107349858D01*
X128946455Y-107388935D01*
G37*
G36*
X129095675Y-109050494D02*
G01*
X129114713Y-109102439D01*
X129117820Y-109245006D01*
X129072901Y-109402141D01*
X128986499Y-109544256D01*
X128984587Y-109546518D01*
X128886452Y-109637458D01*
X128808056Y-109660291D01*
X128757568Y-109612580D01*
X128754576Y-109604777D01*
X128737681Y-109456498D01*
X128774104Y-109290090D01*
X128853374Y-109135361D01*
X128965016Y-109022123D01*
X129001740Y-108999534D01*
X129053396Y-108992769D01*
X129095675Y-109050494D01*
G37*
G36*
X129207390Y-108016052D02*
G01*
X129264245Y-108106491D01*
X129278787Y-108152707D01*
X129291022Y-108327368D01*
X129250340Y-108501020D01*
X129163386Y-108638611D01*
X129107236Y-108690054D01*
X129050200Y-108714836D01*
X128997525Y-108688474D01*
X128956727Y-108626599D01*
X128937326Y-108498556D01*
X128956804Y-108338218D01*
X129014450Y-108167548D01*
X129068032Y-108070720D01*
X129140416Y-108004513D01*
X129207390Y-108016052D01*
G37*
G36*
X120304648Y-117621314D02*
G01*
X120284296Y-117641667D01*
X120263943Y-117621314D01*
X120284296Y-117600962D01*
X120304648Y-117621314D01*
G37*
G36*
X120304648Y-118964584D02*
G01*
X120284296Y-118984936D01*
X120263943Y-118964584D01*
X120284295Y-118944231D01*
X120304648Y-118964584D01*
G37*
G36*
X120336657Y-119045176D02*
G01*
X120331785Y-119093483D01*
X120319542Y-119099851D01*
X120304648Y-119066346D01*
X120307586Y-119044797D01*
X120331785Y-119039210D01*
X120336657Y-119045176D01*
G37*
G36*
X120548879Y-118964584D02*
G01*
X120528527Y-118984936D01*
X120508174Y-118964584D01*
X120528527Y-118944231D01*
X120548879Y-118964584D01*
G37*
G36*
X120630289Y-118923878D02*
G01*
X120609936Y-118944231D01*
X120589584Y-118923878D01*
X120609937Y-118903526D01*
X120630289Y-118923878D01*
G37*
G36*
X120703003Y-118882355D02*
G01*
X120698131Y-118930663D01*
X120685888Y-118937031D01*
X120670995Y-118903526D01*
X120673932Y-118881977D01*
X120698130Y-118876389D01*
X120703003Y-118882355D01*
G37*
G36*
X120906529Y-118678829D02*
G01*
X120901657Y-118727137D01*
X120889414Y-118733505D01*
X120874520Y-118700000D01*
X120877458Y-118678451D01*
X120901657Y-118672862D01*
X120906529Y-118678829D01*
G37*
G36*
X120263943Y-116115225D02*
G01*
X120243591Y-116135577D01*
X120223238Y-116115225D01*
X120243592Y-116094872D01*
X120263943Y-116115225D01*
G37*
G36*
X120386059Y-116278045D02*
G01*
X120365706Y-116298399D01*
X120345354Y-116278045D01*
X120365706Y-116257692D01*
X120386059Y-116278045D01*
G37*
G36*
X120426764Y-116196635D02*
G01*
X120406411Y-116216987D01*
X120386059Y-116196635D01*
X120406411Y-116176282D01*
X120426764Y-116196635D01*
G37*
G36*
X120548879Y-116359455D02*
G01*
X120528527Y-116379808D01*
X120508174Y-116359454D01*
X120528527Y-116339103D01*
X120548879Y-116359455D01*
G37*
G36*
X120711700Y-116313946D02*
G01*
X120709868Y-116321102D01*
X120670995Y-116359454D01*
X120656583Y-116367037D01*
X120630288Y-116364260D01*
X120632121Y-116357103D01*
X120670994Y-116318750D01*
X120685406Y-116311168D01*
X120711700Y-116313946D01*
G37*
G36*
X124537983Y-94948558D02*
G01*
X124517629Y-94968910D01*
X124497277Y-94948558D01*
X124517629Y-94928205D01*
X124537983Y-94948558D01*
G37*
G36*
X124569990Y-94825624D02*
G01*
X124565118Y-94873932D01*
X124552875Y-94880300D01*
X124537982Y-94846795D01*
X124540919Y-94825246D01*
X124565118Y-94819658D01*
X124569990Y-94825624D01*
G37*
G36*
X124619392Y-94745032D02*
G01*
X124599038Y-94765385D01*
X124578687Y-94745032D01*
X124599039Y-94724680D01*
X124619392Y-94745032D01*
G37*
G36*
X124773516Y-92383317D02*
G01*
X124768644Y-92431624D01*
X124756401Y-92437992D01*
X124741507Y-92404488D01*
X124744445Y-92382939D01*
X124768644Y-92377351D01*
X124773516Y-92383317D01*
G37*
G36*
X124822918Y-93808814D02*
G01*
X124802565Y-93829167D01*
X124782212Y-93808814D01*
X124802565Y-93788462D01*
X124822918Y-93808814D01*
G37*
G36*
X125047297Y-95526878D02*
G01*
X125096759Y-95566555D01*
X125095098Y-95597148D01*
X125046309Y-95648014D01*
X124965692Y-95679747D01*
X124884926Y-95675981D01*
X124852748Y-95653415D01*
X124831653Y-95584542D01*
X124831923Y-95583253D01*
X124877061Y-95537793D01*
X124961458Y-95518146D01*
X125047297Y-95526878D01*
G37*
G36*
X125146703Y-95845561D02*
G01*
X125236024Y-95869936D01*
X125255870Y-95911416D01*
X125208003Y-95953334D01*
X125094179Y-95979028D01*
X125001488Y-95982411D01*
X124955063Y-95965313D01*
X124952269Y-95917970D01*
X124956266Y-95902929D01*
X125002588Y-95857333D01*
X125108411Y-95844071D01*
X125146703Y-95845561D01*
G37*
G36*
X125248412Y-95093031D02*
G01*
X125291505Y-95136735D01*
X125294732Y-95212646D01*
X125254416Y-95287532D01*
X125233655Y-95307474D01*
X125186294Y-95332785D01*
X125149927Y-95296745D01*
X125142919Y-95282164D01*
X125141237Y-95201803D01*
X125176352Y-95125177D01*
X125232680Y-95091026D01*
X125248412Y-95093031D01*
G37*
G36*
X125525093Y-95455675D02*
G01*
X125555610Y-95538816D01*
X125550288Y-95566541D01*
X125497340Y-95634401D01*
X125416066Y-95677720D01*
X125341908Y-95674069D01*
X125340654Y-95673302D01*
X125312297Y-95614835D01*
X125324546Y-95529832D01*
X125371918Y-95457802D01*
X125452765Y-95425710D01*
X125525093Y-95455675D01*
G37*
G36*
X125481517Y-94756420D02*
G01*
X125496871Y-94810669D01*
X125477278Y-94882891D01*
X125436756Y-94939257D01*
X125390747Y-94947296D01*
X125356974Y-94888841D01*
X125358758Y-94804359D01*
X125396336Y-94742840D01*
X125418397Y-94735206D01*
X125481517Y-94756420D01*
G37*
G36*
X125730770Y-95784051D02*
G01*
X125788944Y-95822840D01*
X125797385Y-95897044D01*
X125750995Y-95978398D01*
X125723680Y-95996824D01*
X125632175Y-96022430D01*
X125531213Y-96025671D01*
X125463436Y-96002912D01*
X125451227Y-95985820D01*
X125456968Y-95921863D01*
X125515602Y-95855733D01*
X125608180Y-95803945D01*
X125715754Y-95783013D01*
X125730770Y-95784051D01*
G37*
G36*
X125462363Y-94373983D02*
G01*
X125485994Y-94439744D01*
X125491327Y-94488737D01*
X125470389Y-94521154D01*
X125448960Y-94505912D01*
X125433495Y-94439744D01*
X125436399Y-94392588D01*
X125449100Y-94358334D01*
X125462363Y-94373983D01*
G37*
G36*
X125664055Y-95073408D02*
G01*
X125666906Y-95141417D01*
X125617837Y-95197162D01*
X125536238Y-95198798D01*
X125530963Y-95196697D01*
X125492528Y-95160428D01*
X125514582Y-95091630D01*
X125557505Y-95033062D01*
X125616797Y-95015108D01*
X125664055Y-95073408D01*
G37*
G36*
X125622901Y-94445227D02*
G01*
X125663204Y-94521154D01*
X125669388Y-94534915D01*
X125709649Y-94614074D01*
X125735470Y-94626982D01*
X125760512Y-94582212D01*
X125794120Y-94500801D01*
X125796356Y-94582212D01*
X125792769Y-94625031D01*
X125769661Y-94702568D01*
X125737050Y-94758596D01*
X125708834Y-94764205D01*
X125708401Y-94763588D01*
X125685159Y-94713410D01*
X125649892Y-94622917D01*
X125638555Y-94591050D01*
X125609282Y-94490071D01*
X125604496Y-94438164D01*
X125622901Y-94445227D01*
G37*
G36*
X125637020Y-93361058D02*
G01*
X125616668Y-93381410D01*
X125596315Y-93361058D01*
X125616668Y-93340705D01*
X125637020Y-93361058D01*
G37*
G36*
X126456612Y-94819802D02*
G01*
X126430724Y-94879602D01*
X126427909Y-94885287D01*
X126348809Y-95007764D01*
X126234652Y-95142827D01*
X126102214Y-95274934D01*
X125968277Y-95388540D01*
X125849622Y-95468102D01*
X125763027Y-95498077D01*
X125760956Y-95498051D01*
X125718918Y-95470035D01*
X125726118Y-95401703D01*
X125776076Y-95311372D01*
X125862315Y-95217358D01*
X125892372Y-95191480D01*
X126000976Y-95112032D01*
X126064396Y-95095895D01*
X126086072Y-95141907D01*
X126087412Y-95146104D01*
X126122305Y-95131589D01*
X126194766Y-95068876D01*
X126291775Y-94968909D01*
X126310832Y-94948080D01*
X126403098Y-94849907D01*
X126449547Y-94808526D01*
X126456612Y-94819802D01*
G37*
G36*
X125904910Y-94821356D02*
G01*
X125921956Y-94887499D01*
X125914323Y-94934818D01*
X125881251Y-94968910D01*
X125857592Y-94953645D01*
X125840546Y-94887500D01*
X125848179Y-94840182D01*
X125881251Y-94806090D01*
X125904910Y-94821356D01*
G37*
G36*
X126172919Y-95952140D02*
G01*
X126206892Y-95978398D01*
X126188860Y-96026960D01*
X126115697Y-96084598D01*
X126015578Y-96108654D01*
X126000499Y-96107946D01*
X125934593Y-96076307D01*
X125927680Y-96020135D01*
X125986343Y-95970542D01*
X125998299Y-95966245D01*
X126092591Y-95947704D01*
X126172919Y-95952140D01*
G37*
G36*
X125953965Y-94622099D02*
G01*
X125949093Y-94670406D01*
X125936849Y-94676775D01*
X125921956Y-94643269D01*
X125924894Y-94621720D01*
X125949093Y-94616133D01*
X125953965Y-94622099D01*
G37*
G36*
X126174410Y-95650620D02*
G01*
X126195509Y-95701397D01*
X126152054Y-95762605D01*
X126095068Y-95791629D01*
X126019762Y-95796215D01*
X125968021Y-95749317D01*
X125978066Y-95687112D01*
X126048169Y-95639244D01*
X126105113Y-95629696D01*
X126174410Y-95650620D01*
G37*
G36*
X126092202Y-94799948D02*
G01*
X126098140Y-94864869D01*
X126085639Y-94935663D01*
X126059677Y-94968909D01*
X126049316Y-94942476D01*
X126044071Y-94864745D01*
X126053936Y-94800119D01*
X126080955Y-94783376D01*
X126092202Y-94799948D01*
G37*
G36*
X126206892Y-94948558D02*
G01*
X126186538Y-94968910D01*
X126166186Y-94948558D01*
X126186539Y-94928205D01*
X126206892Y-94948558D01*
G37*
G36*
X126355719Y-93011870D02*
G01*
X126444640Y-93029974D01*
X126605155Y-93048338D01*
X126772852Y-93055542D01*
X126864809Y-93057323D01*
X127002408Y-93073925D01*
X127128465Y-93116914D01*
X127281666Y-93197046D01*
X127408166Y-93275009D01*
X127567196Y-93386365D01*
X127692629Y-93488397D01*
X127747893Y-93539446D01*
X127791050Y-93581352D01*
X127799874Y-93596691D01*
X127767424Y-93582151D01*
X127686762Y-93534410D01*
X127550947Y-93450153D01*
X127353039Y-93326061D01*
X127208211Y-93240979D01*
X127083226Y-93187246D01*
X126946346Y-93155468D01*
X126762815Y-93134355D01*
X126732782Y-93131507D01*
X126557979Y-93109121D01*
X126403586Y-93080644D01*
X126300033Y-93051520D01*
X126209980Y-93009158D01*
X126188871Y-92985121D01*
X126238866Y-92985018D01*
X126355719Y-93011870D01*
G37*
G36*
X126401254Y-95267847D02*
G01*
X126410418Y-95330272D01*
X126409487Y-95345674D01*
X126375877Y-95426290D01*
X126313564Y-95478925D01*
X126249380Y-95478827D01*
X126212895Y-95435227D01*
X126219675Y-95360816D01*
X126285626Y-95295984D01*
X126360853Y-95261033D01*
X126401254Y-95267847D01*
G37*
G36*
X126238900Y-94825624D02*
G01*
X126234029Y-94873931D01*
X126221785Y-94880300D01*
X126206892Y-94846795D01*
X126209830Y-94825246D01*
X126234029Y-94819658D01*
X126238900Y-94825624D01*
G37*
G36*
X126478008Y-95718830D02*
G01*
X126519253Y-95750346D01*
X126491428Y-95803847D01*
X126456543Y-95835710D01*
X126385081Y-95864423D01*
X126339283Y-95836938D01*
X126332764Y-95775832D01*
X126371662Y-95720751D01*
X126398694Y-95711341D01*
X126478008Y-95718830D01*
G37*
G36*
X126695354Y-95851806D02*
G01*
X126674754Y-95897440D01*
X126613943Y-95966186D01*
X126557312Y-96005905D01*
X126532533Y-95999156D01*
X126553133Y-95953523D01*
X126613943Y-95884776D01*
X126670574Y-95845056D01*
X126695354Y-95851806D01*
G37*
G36*
X126674984Y-95416640D02*
G01*
X126689555Y-95473028D01*
X126661507Y-95546423D01*
X126594868Y-95579487D01*
X126594611Y-95579487D01*
X126541843Y-95552007D01*
X126540001Y-95489153D01*
X126589967Y-95419674D01*
X126631842Y-95394658D01*
X126674984Y-95416640D01*
G37*
G36*
X126751590Y-96004777D02*
G01*
X126737494Y-96036020D01*
X126711351Y-96067948D01*
X126696187Y-96056667D01*
X126701849Y-96010011D01*
X126735592Y-95966474D01*
X126754435Y-95962758D01*
X126751590Y-96004777D01*
G37*
G36*
X126844427Y-95935657D02*
G01*
X126849802Y-95954083D01*
X126844427Y-96037420D01*
X126830293Y-96044325D01*
X126823896Y-95986539D01*
X126829570Y-95930544D01*
X126844427Y-95935657D01*
G37*
G36*
X127528888Y-95330385D02*
G01*
X127556822Y-95406491D01*
X127589825Y-95483646D01*
X127628092Y-95533437D01*
X127650747Y-95523120D01*
X127645773Y-95447196D01*
X127639704Y-95407391D01*
X127652433Y-95407502D01*
X127695125Y-95477725D01*
X127771923Y-95594328D01*
X127864257Y-95707975D01*
X127878440Y-95723467D01*
X127938607Y-95797629D01*
X127960718Y-95840461D01*
X127960995Y-95847760D01*
X127979502Y-95912251D01*
X128017805Y-96012057D01*
X128048107Y-96087343D01*
X128074258Y-96170049D01*
X128062585Y-96183346D01*
X128013015Y-96129006D01*
X128004854Y-96118626D01*
X127968509Y-96079015D01*
X127960104Y-96099506D01*
X127973125Y-96190064D01*
X127976399Y-96209708D01*
X127987641Y-96286179D01*
X127981014Y-96288175D01*
X127953342Y-96220593D01*
X127914345Y-96140271D01*
X127877517Y-96113673D01*
X127857326Y-96161942D01*
X127859059Y-96281651D01*
X127863803Y-96333683D01*
X127867777Y-96403629D01*
X127858943Y-96401223D01*
X127834357Y-96332532D01*
X127799478Y-96247020D01*
X127743610Y-96148648D01*
X127689526Y-96084394D01*
X127651810Y-96074847D01*
X127648654Y-96083631D01*
X127659176Y-96148784D01*
X127694479Y-96249273D01*
X127708413Y-96284450D01*
X127736533Y-96376304D01*
X127737700Y-96423144D01*
X127716314Y-96408752D01*
X127690616Y-96339005D01*
X127660366Y-96261295D01*
X127604666Y-96184626D01*
X127575280Y-96163613D01*
X127558951Y-96176228D01*
X127572347Y-96254190D01*
X127599652Y-96373237D01*
X127531894Y-96281651D01*
X127475752Y-96219586D01*
X127425738Y-96190064D01*
X127401512Y-96210119D01*
X127385898Y-96281651D01*
X127382984Y-96339726D01*
X127367703Y-96339855D01*
X127326283Y-96271475D01*
X127268110Y-96169712D01*
X127263539Y-96291827D01*
X127261944Y-96329664D01*
X127255975Y-96374395D01*
X127241281Y-96350968D01*
X127210827Y-96254384D01*
X127192664Y-96200963D01*
X127146294Y-96109310D01*
X127105289Y-96074817D01*
X127080583Y-96102398D01*
X127083113Y-96196971D01*
X127103799Y-96332532D01*
X127031330Y-96177035D01*
X127010629Y-96136175D01*
X126961997Y-96065705D01*
X126928490Y-96051906D01*
X126924553Y-96054949D01*
X126921121Y-96030291D01*
X126943186Y-95952998D01*
X126947213Y-95941838D01*
X126988148Y-95858054D01*
X127024977Y-95823718D01*
X127044982Y-95813020D01*
X127066422Y-95752484D01*
X127067896Y-95731537D01*
X127074344Y-95702803D01*
X127089855Y-95752983D01*
X127106838Y-95789148D01*
X127146191Y-95801462D01*
X127159324Y-95796070D01*
X127183815Y-95821316D01*
X127185378Y-95833131D01*
X127224520Y-95864423D01*
X127252783Y-95833746D01*
X127266463Y-95752483D01*
X127268470Y-95694876D01*
X127280435Y-95671585D01*
X127311924Y-95716663D01*
X127343514Y-95754194D01*
X127385363Y-95747256D01*
X127416235Y-95672708D01*
X127430636Y-95538782D01*
X127431695Y-95513398D01*
X127440936Y-95447942D01*
X127455004Y-95447196D01*
X127464544Y-95467459D01*
X127502941Y-95499743D01*
X127530803Y-95468165D01*
X127531357Y-95386138D01*
X127522353Y-95329452D01*
X127528888Y-95330385D01*
G37*
G36*
X127128798Y-95189641D02*
G01*
X127142152Y-95242239D01*
X127124743Y-95315001D01*
X127078590Y-95378835D01*
X127045052Y-95403218D01*
X127023605Y-95393113D01*
X127027709Y-95315724D01*
X127051129Y-95230862D01*
X127092229Y-95182359D01*
X127128798Y-95189641D01*
G37*
G36*
X127159931Y-94598098D02*
G01*
X127183815Y-94668426D01*
X127178328Y-94695556D01*
X127143110Y-94704327D01*
X127126288Y-94688441D01*
X127102405Y-94618112D01*
X127107891Y-94590983D01*
X127143110Y-94582212D01*
X127159931Y-94598098D01*
G37*
G36*
X127395189Y-94757127D02*
G01*
X127445764Y-94811413D01*
X127468128Y-94882308D01*
X127463411Y-94919252D01*
X127427422Y-95009616D01*
X127421993Y-95017761D01*
X127385576Y-95050207D01*
X127347259Y-95009616D01*
X127314911Y-94923785D01*
X127308521Y-94822449D01*
X127332714Y-94752170D01*
X127343168Y-94745175D01*
X127395189Y-94757127D01*
G37*
G36*
X127492991Y-93591225D02*
G01*
X127502895Y-93613973D01*
X127475040Y-93609176D01*
X127456958Y-93596610D01*
X127428046Y-93562181D01*
X127428442Y-93556490D01*
X127452005Y-93547526D01*
X127492991Y-93591225D01*
G37*
G36*
X127479908Y-93057426D02*
G01*
X127509456Y-93098877D01*
X127506260Y-93113600D01*
X127468751Y-93116827D01*
X127456569Y-93108472D01*
X127428046Y-93073720D01*
X127429104Y-93069657D01*
X127468751Y-93055769D01*
X127479908Y-93057426D01*
G37*
G36*
X127550161Y-94378686D02*
G01*
X127613689Y-94466771D01*
X127629760Y-94557935D01*
X127592406Y-94621965D01*
X127587038Y-94623971D01*
X127550063Y-94594846D01*
X127514667Y-94512428D01*
X127487012Y-94411312D01*
X127476792Y-94344053D01*
X127496971Y-94336457D01*
X127550161Y-94378686D01*
G37*
G36*
X127577298Y-93720620D02*
G01*
X127583666Y-93732863D01*
X127550161Y-93747757D01*
X127528611Y-93744819D01*
X127523024Y-93720621D01*
X127528991Y-93715748D01*
X127577298Y-93720620D01*
G37*
G36*
X127580962Y-93954155D02*
G01*
X127637816Y-94001878D01*
X127690068Y-94081440D01*
X127712982Y-94157715D01*
X127712968Y-94159448D01*
X127684293Y-94221850D01*
X127626339Y-94233055D01*
X127577119Y-94185337D01*
X127566270Y-94147881D01*
X127554948Y-94062971D01*
X127554900Y-93985282D01*
X127567606Y-93951282D01*
X127580962Y-93954155D01*
G37*
G36*
X127574641Y-93261168D02*
G01*
X127611219Y-93300000D01*
X127617579Y-93315769D01*
X127593269Y-93340705D01*
X127581453Y-93339141D01*
X127550161Y-93300000D01*
X127550629Y-93290788D01*
X127568111Y-93259295D01*
X127574641Y-93261168D01*
G37*
G36*
X127630627Y-92842791D02*
G01*
X127666795Y-92915379D01*
X127670634Y-92937314D01*
X127664392Y-92969584D01*
X127615914Y-92937550D01*
X127609553Y-92932115D01*
X127559699Y-92870145D01*
X127555897Y-92825818D01*
X127601043Y-92821696D01*
X127630627Y-92842791D01*
G37*
G36*
X127631571Y-95314904D02*
G01*
X127611219Y-95335257D01*
X127590866Y-95314904D01*
X127611219Y-95294551D01*
X127631571Y-95314904D01*
G37*
G36*
X127706910Y-94969118D02*
G01*
X127712358Y-95062899D01*
X127711958Y-95090431D01*
X127699354Y-95175044D01*
X127672277Y-95192789D01*
X127643581Y-95156196D01*
X127636044Y-95066760D01*
X127672277Y-94968910D01*
X127689554Y-94948953D01*
X127706910Y-94969118D01*
G37*
G36*
X127672277Y-93645994D02*
G01*
X127651924Y-93666346D01*
X127631570Y-93645994D01*
X127651924Y-93625641D01*
X127672277Y-93645994D01*
G37*
G36*
X127707087Y-93084068D02*
G01*
X127771251Y-93134098D01*
X127796861Y-93168517D01*
X127806908Y-93225519D01*
X127766592Y-93240032D01*
X127695912Y-93195704D01*
X127654361Y-93151712D01*
X127635221Y-93110147D01*
X127666836Y-93079485D01*
X127707087Y-93084068D01*
G37*
G36*
X127758184Y-93817381D02*
G01*
X127778540Y-93851818D01*
X127784057Y-93936782D01*
X127774478Y-93969829D01*
X127755785Y-93975998D01*
X127723926Y-93910577D01*
X127697184Y-93821757D01*
X127709325Y-93786880D01*
X127758184Y-93817381D01*
G37*
G36*
X127816406Y-94404927D02*
G01*
X127835097Y-94482851D01*
X127827792Y-94527874D01*
X127794392Y-94561859D01*
X127767327Y-94535333D01*
X127753687Y-94457694D01*
X127764208Y-94393097D01*
X127794392Y-94378686D01*
X127816406Y-94404927D01*
G37*
G36*
X127809862Y-93347899D02*
G01*
X127849817Y-93401763D01*
X127854533Y-93435851D01*
X127813467Y-93462821D01*
X127785617Y-93455744D01*
X127753687Y-93401763D01*
X127757768Y-93373739D01*
X127790037Y-93340705D01*
X127809862Y-93347899D01*
G37*
G36*
X127909245Y-95359047D02*
G01*
X127980014Y-95426466D01*
X128076338Y-95526505D01*
X128168282Y-95633403D01*
X128310218Y-95859238D01*
X128375044Y-96076731D01*
X128361374Y-96282205D01*
X128350204Y-96321210D01*
X128320983Y-96401584D01*
X128301227Y-96425532D01*
X128300071Y-96423920D01*
X128300672Y-96371815D01*
X128321413Y-96278955D01*
X128333826Y-96197983D01*
X128312633Y-96019016D01*
X128240961Y-95822291D01*
X128127625Y-95629030D01*
X127981439Y-95460453D01*
X127968376Y-95448059D01*
X127903109Y-95378910D01*
X127877354Y-95338337D01*
X127877823Y-95337293D01*
X127909245Y-95359047D01*
G37*
G36*
X127936860Y-94073398D02*
G01*
X127974433Y-94128234D01*
X127995884Y-94211457D01*
X127992131Y-94285586D01*
X127960044Y-94317628D01*
X127932560Y-94297521D01*
X127904529Y-94226042D01*
X127888932Y-94140745D01*
X127881258Y-94064656D01*
X127896314Y-94046547D01*
X127936860Y-94073398D01*
G37*
G36*
X127907812Y-93767291D02*
G01*
X127902939Y-93815598D01*
X127890696Y-93821967D01*
X127875802Y-93788462D01*
X127878740Y-93766913D01*
X127902939Y-93761325D01*
X127907812Y-93767291D01*
G37*
G36*
X128006059Y-93454680D02*
G01*
X128025860Y-93482706D01*
X128023520Y-93532197D01*
X128002152Y-93539142D01*
X127957212Y-93503526D01*
X127936058Y-93453357D01*
X127951788Y-93423022D01*
X128006059Y-93454680D01*
G37*
G36*
X128003722Y-94505956D02*
G01*
X128027573Y-94571332D01*
X128035762Y-94676201D01*
X128032086Y-94755175D01*
X128020755Y-94783760D01*
X127997918Y-94745032D01*
X127973267Y-94668238D01*
X127961171Y-94576405D01*
X127969389Y-94512030D01*
X127997918Y-94500801D01*
X128003722Y-94505956D01*
G37*
G36*
X128053883Y-93714057D02*
G01*
X128091510Y-93769798D01*
X128111975Y-93846586D01*
X128101184Y-93902290D01*
X128081161Y-93906986D01*
X128037033Y-93868693D01*
X128009109Y-93809945D01*
X128002108Y-93737500D01*
X128035880Y-93707051D01*
X128053883Y-93714057D01*
G37*
G36*
X127753687Y-92628366D02*
G01*
X127733334Y-92648718D01*
X127712982Y-92628366D01*
X127733334Y-92608013D01*
X127753687Y-92628366D01*
G37*
%TD*%
M02*
