M48
; DRILL file KiCad 10.0.2 date 2026-08-07T19:54:41
; FORMAT={-:-/ absolute / metric / decimal}
; #@! TF.CreationDate,2026-08-07T19:54:41+05:30
; #@! TF.GenerationSoftware,Kicad,Pcbnew,10.0.2
; #@! TF.FileFunction,Plated,1,4,PTH
FMAT,2
METRIC
; #@! TA.AperFunction,Plated,PTH,ViaDrill
T1C0.300
; #@! TA.AperFunction,Plated,PTH,ComponentDrill
T2C0.600
; #@! TA.AperFunction,Plated,PTH,ComponentDrill
T3C1.000
%
G90
G05
T1
X114.9Y-117.25
X116.25Y-80.75
X117.094Y-103.577
X117.249Y-100.25
X117.25Y-120.75
X117.76Y-104.021
X118.001Y-99.979
X118.1Y-91.0
X118.188Y-101.179
X118.339Y-104.573
X118.376Y-99.272
X118.5Y-95.03
X118.991Y-105.617
X119.25Y-114.75
X119.5Y-105.0
X119.75Y-115.75
X119.812Y-95.438
X120.296Y-108.401
X120.299Y-107.549
X120.299Y-107.549
X120.336Y-100.936
X120.65Y-102.675
X120.65Y-101.699
X120.75Y-119.25
X121.455Y-115.75
X121.5Y-112.25
X121.836Y-92.336
X122.0Y-90.5
X122.002Y-99.054
X122.25Y-122.0
X122.494Y-103.715
X122.5Y-112.0
X122.75Y-93.24
X123.222Y-98.998
X123.25Y-90.25
X123.292Y-103.663
X123.45Y-115.25
X123.5Y-86.5
X124.0Y-88.25
X124.02Y-99.062
X124.092Y-103.662
X124.25Y-115.25
X124.5Y-78.75
X124.726Y-113.774
X125.0Y-120.5
X125.056Y-96.744
X125.15Y-105.997
X125.214Y-81.536
X125.247Y-103.71
X125.25Y-111.0
X125.25Y-112.6
X125.458Y-93.208
X125.967Y-107.6
X126.0Y-117.5
X126.255Y-106.063
X126.5Y-105.0
X126.65Y-114.25
X127.125Y-99.76
X127.243Y-104.703
X127.243Y-104.703
X127.25Y-101.35
X127.38Y-107.894
X127.524Y-102.774
X127.55Y-119.25
X127.572Y-103.974
X127.75Y-96.75
X127.75Y-117.0
X127.8Y-111.0
X127.8Y-112.75
X128.0Y-94.75
X128.09Y-103.35
X128.5Y-100.35
X128.558Y-98.439
X129.0Y-108.75
X129.5Y-113.5
X129.75Y-117.25
X130.15Y-102.25
X131.0Y-108.25
T3
X113.75Y-73.75
X113.75Y-76.29
X113.75Y-78.83
X113.75Y-81.37
X113.75Y-83.91
X113.75Y-86.45
X113.75Y-88.99
X113.75Y-91.53
X113.75Y-94.07
X113.75Y-96.61
X113.75Y-99.15
X113.75Y-101.69
X113.75Y-104.23
X113.75Y-106.77
X113.75Y-109.31
X113.75Y-111.85
X113.75Y-114.39
X113.75Y-116.93
X113.75Y-119.47
X113.75Y-122.01
X135.0Y-73.63
X135.0Y-76.17
X135.0Y-78.71
X135.0Y-81.25
X135.0Y-83.79
X135.0Y-86.33
X135.0Y-88.87
X135.0Y-91.41
X135.0Y-93.95
X135.0Y-96.49
X135.0Y-99.03
X135.0Y-101.57
X135.0Y-104.11
X135.0Y-106.65
X135.0Y-109.19
X135.0Y-111.73
X135.0Y-114.27
X135.0Y-116.81
X135.0Y-119.35
X135.0Y-121.89
T2
G00X118.68Y-75.5
M15
G01X118.68Y-74.9
M16
G05
G00X118.68Y-79.93
M15
G01X118.68Y-78.83
M16
G05
G00X127.32Y-75.5
M15
G01X127.32Y-74.9
M16
G05
G00X127.32Y-79.93
M15
G01X127.32Y-78.83
M16
G05
M30
