%TF.GenerationSoftware,KiCad,Pcbnew,10.0.2*%
%TF.CreationDate,2026-08-07T19:54:39+05:30*%
%TF.ProjectId,dev board,64657620-626f-4617-9264-2e6b69636164,rev?*%
%TF.SameCoordinates,Original*%
%TF.FileFunction,Soldermask,Bot*%
%TF.FilePolarity,Negative*%
%FSLAX46Y46*%
G04 Gerber Fmt 4.6, Leading zero omitted, Abs format (unit mm)*
G04 Created by KiCad (PCBNEW 10.0.2) date 2026-08-07 19:54:39*
%MOMM*%
%LPD*%
G01*
G04 APERTURE LIST*
%ADD10R,1.700000X1.700000*%
%ADD11C,1.700000*%
%ADD12C,0.650000*%
%ADD13O,1.000000X2.100000*%
%ADD14O,1.000000X1.600000*%
%ADD15R,0.850000X1.100000*%
%ADD16R,0.750000X1.100000*%
%ADD17R,1.200000X1.000000*%
%ADD18R,1.550000X1.350000*%
%ADD19R,1.900000X1.350000*%
%ADD20R,1.170000X1.800000*%
G04 APERTURE END LIST*
D10*
%TO.C,J5*%
X113750000Y-73750000D03*
D11*
X113750000Y-76290000D03*
X113750000Y-78830000D03*
X113750000Y-81370000D03*
X113750000Y-83910000D03*
X113750000Y-86450000D03*
X113750000Y-88990000D03*
X113750000Y-91530000D03*
X113750000Y-94070000D03*
X113750000Y-96610000D03*
X113750000Y-99150000D03*
X113750000Y-101690000D03*
X113750000Y-104230000D03*
X113750000Y-106770000D03*
X113750000Y-109310000D03*
X113750000Y-111850000D03*
X113750000Y-114390000D03*
X113750000Y-116930000D03*
X113750000Y-119470000D03*
X113750000Y-122010000D03*
%TD*%
D12*
%TO.C,J1*%
X125890000Y-78850000D03*
X120110000Y-78850000D03*
D13*
X127320000Y-79380000D03*
D14*
X127320000Y-75200000D03*
D13*
X118680000Y-79380000D03*
D14*
X118680000Y-75200000D03*
%TD*%
D10*
%TO.C,J2*%
X135000000Y-73630000D03*
D11*
X135000000Y-76170000D03*
X135000000Y-78710000D03*
X135000000Y-81250000D03*
X135000000Y-83790000D03*
X135000000Y-86330000D03*
X135000000Y-88870000D03*
X135000000Y-91410000D03*
X135000000Y-93950000D03*
X135000000Y-96490000D03*
X135000000Y-99030000D03*
X135000000Y-101570000D03*
X135000000Y-104110000D03*
X135000000Y-106650000D03*
X135000000Y-109190000D03*
X135000000Y-111730000D03*
X135000000Y-114270000D03*
X135000000Y-116810000D03*
X135000000Y-119350000D03*
X135000000Y-121890000D03*
%TD*%
D15*
%TO.C,J4*%
X127490001Y-109800000D03*
X126390000Y-109800000D03*
X125290001Y-109800000D03*
X124190000Y-109800000D03*
X123090000Y-109800000D03*
X121990000Y-109800000D03*
X120890000Y-109800000D03*
D16*
X119840000Y-109800000D03*
D17*
X130125000Y-115950000D03*
X130125000Y-119650000D03*
D18*
X129950000Y-109925000D03*
D19*
X126625000Y-120625000D03*
X120655000Y-120625000D03*
D20*
X118630000Y-110150000D03*
%TD*%
M02*
