%TF.GenerationSoftware,KiCad,Pcbnew,10.0.2*%
%TF.CreationDate,2026-08-07T19:54:39+05:30*%
%TF.ProjectId,dev board,64657620-626f-4617-9264-2e6b69636164,rev?*%
%TF.SameCoordinates,Original*%
%TF.FileFunction,Soldermask,Top*%
%TF.FilePolarity,Negative*%
%FSLAX46Y46*%
G04 Gerber Fmt 4.6, Leading zero omitted, Abs format (unit mm)*
G04 Created by KiCad (PCBNEW 10.0.2) date 2026-08-07 19:54:39*
%MOMM*%
%LPD*%
G01*
G04 APERTURE LIST*
G04 Aperture macros list*
%AMRoundRect*
0 Rectangle with rounded corners*
0 $1 Rounding radius*
0 $2 $3 $4 $5 $6 $7 $8 $9 X,Y pos of 4 corners*
0 Add a 4 corners polygon primitive as box body*
4,1,4,$2,$3,$4,$5,$6,$7,$8,$9,$2,$3,0*
0 Add four circle primitives for the rounded corners*
1,1,$1+$1,$2,$3*
1,1,$1+$1,$4,$5*
1,1,$1+$1,$6,$7*
1,1,$1+$1,$8,$9*
0 Add four rect primitives between the rounded corners*
20,1,$1+$1,$2,$3,$4,$5,0*
20,1,$1+$1,$4,$5,$6,$7,0*
20,1,$1+$1,$6,$7,$8,$9,0*
20,1,$1+$1,$8,$9,$2,$3,0*%
G04 Aperture macros list end*
%ADD10RoundRect,0.140000X0.170000X-0.140000X0.170000X0.140000X-0.170000X0.140000X-0.170000X-0.140000X0*%
%ADD11RoundRect,0.135000X0.135000X0.185000X-0.135000X0.185000X-0.135000X-0.185000X0.135000X-0.185000X0*%
%ADD12RoundRect,0.140000X0.140000X0.170000X-0.140000X0.170000X-0.140000X-0.170000X0.140000X-0.170000X0*%
%ADD13RoundRect,0.140000X-0.170000X0.140000X-0.170000X-0.140000X0.170000X-0.140000X0.170000X0.140000X0*%
%ADD14RoundRect,0.135000X-0.185000X0.135000X-0.185000X-0.135000X0.185000X-0.135000X0.185000X0.135000X0*%
%ADD15RoundRect,0.135000X0.185000X-0.135000X0.185000X0.135000X-0.185000X0.135000X-0.185000X-0.135000X0*%
%ADD16RoundRect,0.225000X0.225000X0.250000X-0.225000X0.250000X-0.225000X-0.250000X0.225000X-0.250000X0*%
%ADD17RoundRect,0.140000X-0.140000X-0.170000X0.140000X-0.170000X0.140000X0.170000X-0.140000X0.170000X0*%
%ADD18RoundRect,0.200000X-0.800000X0.200000X-0.800000X-0.200000X0.800000X-0.200000X0.800000X0.200000X0*%
%ADD19RoundRect,0.050000X-0.387500X-0.050000X0.387500X-0.050000X0.387500X0.050000X-0.387500X0.050000X0*%
%ADD20RoundRect,0.050000X-0.050000X-0.387500X0.050000X-0.387500X0.050000X0.387500X-0.050000X0.387500X0*%
%ADD21R,3.200000X3.200000*%
%ADD22RoundRect,0.062500X-0.387500X-0.062500X0.387500X-0.062500X0.387500X0.062500X-0.387500X0.062500X0*%
%ADD23R,0.200000X1.600000*%
%ADD24RoundRect,0.150000X0.150000X-0.587500X0.150000X0.587500X-0.150000X0.587500X-0.150000X-0.587500X0*%
%ADD25RoundRect,0.140000X0.021213X-0.219203X0.219203X-0.021213X-0.021213X0.219203X-0.219203X0.021213X0*%
%ADD26R,1.700000X1.700000*%
%ADD27C,1.700000*%
%ADD28RoundRect,0.135000X-0.135000X-0.185000X0.135000X-0.185000X0.135000X0.185000X-0.135000X0.185000X0*%
%ADD29R,3.000000X0.650000*%
%ADD30C,0.650000*%
%ADD31RoundRect,0.150000X0.150000X0.575000X-0.150000X0.575000X-0.150000X-0.575000X0.150000X-0.575000X0*%
%ADD32RoundRect,0.075000X0.075000X0.650000X-0.075000X0.650000X-0.075000X-0.650000X0.075000X-0.650000X0*%
%ADD33O,1.000000X2.100000*%
%ADD34O,1.000000X1.600000*%
%ADD35RoundRect,0.250000X0.450000X0.350000X-0.450000X0.350000X-0.450000X-0.350000X0.450000X-0.350000X0*%
%ADD36RoundRect,0.140000X0.219203X0.021213X0.021213X0.219203X-0.219203X-0.021213X-0.021213X-0.219203X0*%
G04 APERTURE END LIST*
D10*
%TO.C,C5*%
X126750000Y-97000000D03*
X126750000Y-96040000D03*
%TD*%
D11*
%TO.C,R6*%
X128009999Y-93250000D03*
X126990001Y-93250000D03*
%TD*%
D12*
%TO.C,C8*%
X117980000Y-98500000D03*
X117020000Y-98500000D03*
%TD*%
D13*
%TO.C,C16*%
X119750000Y-109270000D03*
X119750000Y-110230000D03*
%TD*%
D14*
%TO.C,R2*%
X121500000Y-81990001D03*
X121500000Y-83009999D03*
%TD*%
D11*
%TO.C,R5*%
X123509999Y-107000000D03*
X122490001Y-107000000D03*
%TD*%
D15*
%TO.C,R8*%
X127250000Y-112759999D03*
X127250000Y-111740001D03*
%TD*%
D16*
%TO.C,C13*%
X119775000Y-82750000D03*
X118225000Y-82750000D03*
%TD*%
D17*
%TO.C,C19*%
X128040000Y-118000000D03*
X129000000Y-118000000D03*
%TD*%
D15*
%TO.C,R10*%
X126000000Y-116509999D03*
X126000000Y-115490001D03*
%TD*%
D17*
%TO.C,C9*%
X127520000Y-99000000D03*
X128480000Y-99000000D03*
%TD*%
D18*
%TO.C,SW1*%
X128250000Y-87650000D03*
X128250000Y-91850000D03*
%TD*%
D12*
%TO.C,C4*%
X121000000Y-92000000D03*
X120040000Y-92000000D03*
%TD*%
D14*
%TO.C,R3*%
X123250000Y-95990001D03*
X123250000Y-97009999D03*
%TD*%
D17*
%TO.C,C17*%
X125770000Y-108750000D03*
X126730000Y-108750000D03*
%TD*%
D19*
%TO.C,U1*%
X119312500Y-98962500D03*
X119312500Y-99362500D03*
X119312500Y-99762500D03*
X119312500Y-100162500D03*
X119312500Y-100562500D03*
X119312500Y-100962500D03*
X119312500Y-101362500D03*
X119312500Y-101762500D03*
X119312500Y-102162500D03*
X119312500Y-102562500D03*
X119312500Y-102962500D03*
X119312500Y-103362500D03*
X119312500Y-103762500D03*
X119312500Y-104162500D03*
D20*
X120150000Y-105000000D03*
X120550000Y-105000000D03*
X120950000Y-105000000D03*
X121350000Y-105000000D03*
X121750000Y-105000000D03*
X122150000Y-105000000D03*
X122550000Y-105000000D03*
X122950000Y-105000000D03*
X123350000Y-105000000D03*
X123750000Y-105000000D03*
X124150000Y-105000000D03*
X124550000Y-105000000D03*
X124950000Y-105000000D03*
X125350000Y-105000000D03*
D19*
X126187500Y-104162500D03*
X126187500Y-103762500D03*
X126187500Y-103362500D03*
X126187500Y-102962500D03*
X126187500Y-102562500D03*
X126187500Y-102162500D03*
X126187500Y-101762500D03*
X126187500Y-101362500D03*
X126187500Y-100962500D03*
X126187500Y-100562500D03*
X126187500Y-100162500D03*
X126187500Y-99762500D03*
X126187500Y-99362500D03*
X126187500Y-98962500D03*
D20*
X125350000Y-98125000D03*
X124950000Y-98125000D03*
X124550000Y-98125000D03*
X124150000Y-98125000D03*
X123750000Y-98125000D03*
X123350000Y-98125000D03*
X122950000Y-98125000D03*
X122550000Y-98125000D03*
X122150000Y-98125000D03*
X121750000Y-98125000D03*
X121350000Y-98125000D03*
X120950000Y-98125000D03*
X120550000Y-98125000D03*
X120150000Y-98125000D03*
D21*
X122750000Y-101562500D03*
%TD*%
D22*
%TO.C,U4*%
X118075000Y-93000000D03*
X118075000Y-93500000D03*
X118075000Y-94000000D03*
X118075000Y-94500000D03*
X120925000Y-94500000D03*
X120925000Y-94000000D03*
X120925000Y-93500000D03*
X120925000Y-93000000D03*
D23*
X119500000Y-93750000D03*
%TD*%
D11*
%TO.C,R7*%
X119009999Y-92000000D03*
X117990001Y-92000000D03*
%TD*%
D24*
%TO.C,U2*%
X118500000Y-86500000D03*
X120400000Y-86500000D03*
X119450000Y-84624999D03*
%TD*%
D15*
%TO.C,R9*%
X119500000Y-117509999D03*
X119500000Y-116490001D03*
%TD*%
D16*
%TO.C,C18*%
X123275000Y-116750000D03*
X121725000Y-116750000D03*
%TD*%
D14*
%TO.C,R4*%
X124250000Y-95990001D03*
X124250000Y-97009999D03*
%TD*%
D25*
%TO.C,C7*%
X127910589Y-97839411D03*
X128589411Y-97160589D03*
%TD*%
D16*
%TO.C,C14*%
X120275000Y-88250000D03*
X118725000Y-88250000D03*
%TD*%
D26*
%TO.C,J5*%
X113750000Y-73750000D03*
D27*
X113750000Y-76290000D03*
X113750000Y-78830000D03*
X113750000Y-81370000D03*
X113750000Y-83910000D03*
X113750000Y-86450000D03*
X113750000Y-88990000D03*
X113750000Y-91530000D03*
X113750000Y-94070000D03*
X113750000Y-96610000D03*
X113750000Y-99150000D03*
X113750000Y-101690000D03*
X113750000Y-104230000D03*
X113750000Y-106770000D03*
X113750000Y-109310000D03*
X113750000Y-111850000D03*
X113750000Y-114390000D03*
X113750000Y-116930000D03*
X113750000Y-119470000D03*
X113750000Y-122010000D03*
%TD*%
D10*
%TO.C,C10*%
X122750000Y-94980000D03*
X122750000Y-94020000D03*
%TD*%
%TO.C,C11*%
X125750000Y-96730000D03*
X125750000Y-95770000D03*
%TD*%
D25*
%TO.C,C12*%
X126660589Y-106839411D03*
X127339411Y-106160589D03*
%TD*%
D10*
%TO.C,C6*%
X124250000Y-91980000D03*
X124250000Y-91020000D03*
%TD*%
D28*
%TO.C,R1*%
X125990000Y-82000000D03*
X127010000Y-82000000D03*
%TD*%
D17*
%TO.C,C3*%
X128270000Y-102000000D03*
X129230000Y-102000000D03*
%TD*%
D12*
%TO.C,C2*%
X117980000Y-102250000D03*
X117020000Y-102250000D03*
%TD*%
D29*
%TO.C,J3*%
X124750000Y-121770000D03*
X121750000Y-120500000D03*
X124750000Y-119230000D03*
%TD*%
D30*
%TO.C,J1*%
X125890000Y-78850000D03*
X120110000Y-78850000D03*
D31*
X126250000Y-80295000D03*
X125450001Y-80295000D03*
D32*
X124250000Y-80294999D03*
X123250000Y-80295000D03*
X122750000Y-80295000D03*
X121750000Y-80294999D03*
D31*
X120549999Y-80295000D03*
X119750000Y-80295000D03*
X119750000Y-80295000D03*
X120549999Y-80295000D03*
D32*
X121250000Y-80295000D03*
X122250000Y-80295000D03*
X123750000Y-80295000D03*
X124750000Y-80295000D03*
D31*
X125450001Y-80295000D03*
X126250000Y-80295000D03*
D33*
X127320000Y-79380000D03*
D34*
X127320000Y-75200000D03*
D33*
X118680000Y-79380000D03*
D34*
X118680000Y-75200000D03*
%TD*%
D10*
%TO.C,C1*%
X123250000Y-92730000D03*
X123250000Y-91770000D03*
%TD*%
D35*
%TO.C,Y1*%
X123600000Y-108650000D03*
X121400000Y-108650000D03*
X121400000Y-110350000D03*
X123600000Y-110350000D03*
%TD*%
D26*
%TO.C,J2*%
X135000000Y-73630000D03*
D27*
X135000000Y-76170000D03*
X135000000Y-78710000D03*
X135000000Y-81250000D03*
X135000000Y-83790000D03*
X135000000Y-86330000D03*
X135000000Y-88870000D03*
X135000000Y-91410000D03*
X135000000Y-93950000D03*
X135000000Y-96490000D03*
X135000000Y-99030000D03*
X135000000Y-101570000D03*
X135000000Y-104110000D03*
X135000000Y-106650000D03*
X135000000Y-109190000D03*
X135000000Y-111730000D03*
X135000000Y-114270000D03*
X135000000Y-116810000D03*
X135000000Y-119350000D03*
X135000000Y-121890000D03*
%TD*%
D36*
%TO.C,C15*%
X126339411Y-110589411D03*
X125660589Y-109910589D03*
%TD*%
M02*
