%TF.GenerationSoftware,KiCad,Pcbnew,10.0.2*%
%TF.CreationDate,2026-08-07T19:54:38+05:30*%
%TF.ProjectId,dev board,64657620-626f-4617-9264-2e6b69636164,rev?*%
%TF.SameCoordinates,Original*%
%TF.FileFunction,Copper,L1,Top*%
%TF.FilePolarity,Positive*%
%FSLAX46Y46*%
G04 Gerber Fmt 4.6, Leading zero omitted, Abs format (unit mm)*
G04 Created by KiCad (PCBNEW 10.0.2) date 2026-08-07 19:54:38*
%MOMM*%
%LPD*%
G01*
G04 APERTURE LIST*
G04 Aperture macros list*
%AMRoundRect*
0 Rectangle with rounded corners*
0 $1 Rounding radius*
0 $2 $3 $4 $5 $6 $7 $8 $9 X,Y pos of 4 corners*
0 Add a 4 corners polygon primitive as box body*
4,1,4,$2,$3,$4,$5,$6,$7,$8,$9,$2,$3,0*
0 Add four circle primitives for the rounded corners*
1,1,$1+$1,$2,$3*
1,1,$1+$1,$4,$5*
1,1,$1+$1,$6,$7*
1,1,$1+$1,$8,$9*
0 Add four rect primitives between the rounded corners*
20,1,$1+$1,$2,$3,$4,$5,0*
20,1,$1+$1,$4,$5,$6,$7,0*
20,1,$1+$1,$6,$7,$8,$9,0*
20,1,$1+$1,$8,$9,$2,$3,0*%
G04 Aperture macros list end*
%TA.AperFunction,SMDPad,CuDef*%
%ADD10RoundRect,0.140000X0.170000X-0.140000X0.170000X0.140000X-0.170000X0.140000X-0.170000X-0.140000X0*%
%TD*%
%TA.AperFunction,SMDPad,CuDef*%
%ADD11RoundRect,0.135000X0.135000X0.185000X-0.135000X0.185000X-0.135000X-0.185000X0.135000X-0.185000X0*%
%TD*%
%TA.AperFunction,SMDPad,CuDef*%
%ADD12RoundRect,0.140000X0.140000X0.170000X-0.140000X0.170000X-0.140000X-0.170000X0.140000X-0.170000X0*%
%TD*%
%TA.AperFunction,SMDPad,CuDef*%
%ADD13RoundRect,0.140000X-0.170000X0.140000X-0.170000X-0.140000X0.170000X-0.140000X0.170000X0.140000X0*%
%TD*%
%TA.AperFunction,SMDPad,CuDef*%
%ADD14RoundRect,0.135000X-0.185000X0.135000X-0.185000X-0.135000X0.185000X-0.135000X0.185000X0.135000X0*%
%TD*%
%TA.AperFunction,SMDPad,CuDef*%
%ADD15RoundRect,0.135000X0.185000X-0.135000X0.185000X0.135000X-0.185000X0.135000X-0.185000X-0.135000X0*%
%TD*%
%TA.AperFunction,SMDPad,CuDef*%
%ADD16RoundRect,0.225000X0.225000X0.250000X-0.225000X0.250000X-0.225000X-0.250000X0.225000X-0.250000X0*%
%TD*%
%TA.AperFunction,SMDPad,CuDef*%
%ADD17RoundRect,0.140000X-0.140000X-0.170000X0.140000X-0.170000X0.140000X0.170000X-0.140000X0.170000X0*%
%TD*%
%TA.AperFunction,SMDPad,CuDef*%
%ADD18RoundRect,0.200000X-0.800000X0.200000X-0.800000X-0.200000X0.800000X-0.200000X0.800000X0.200000X0*%
%TD*%
%TA.AperFunction,SMDPad,CuDef*%
%ADD19RoundRect,0.050000X-0.387500X-0.050000X0.387500X-0.050000X0.387500X0.050000X-0.387500X0.050000X0*%
%TD*%
%TA.AperFunction,SMDPad,CuDef*%
%ADD20RoundRect,0.050000X-0.050000X-0.387500X0.050000X-0.387500X0.050000X0.387500X-0.050000X0.387500X0*%
%TD*%
%TA.AperFunction,HeatsinkPad*%
%ADD21R,3.200000X3.200000*%
%TD*%
%TA.AperFunction,SMDPad,CuDef*%
%ADD22RoundRect,0.062500X-0.387500X-0.062500X0.387500X-0.062500X0.387500X0.062500X-0.387500X0.062500X0*%
%TD*%
%TA.AperFunction,HeatsinkPad*%
%ADD23R,0.200000X1.600000*%
%TD*%
%TA.AperFunction,SMDPad,CuDef*%
%ADD24RoundRect,0.150000X0.150000X-0.587500X0.150000X0.587500X-0.150000X0.587500X-0.150000X-0.587500X0*%
%TD*%
%TA.AperFunction,SMDPad,CuDef*%
%ADD25RoundRect,0.140000X0.021213X-0.219203X0.219203X-0.021213X-0.021213X0.219203X-0.219203X0.021213X0*%
%TD*%
%TA.AperFunction,ComponentPad*%
%ADD26R,1.700000X1.700000*%
%TD*%
%TA.AperFunction,ComponentPad*%
%ADD27C,1.700000*%
%TD*%
%TA.AperFunction,SMDPad,CuDef*%
%ADD28RoundRect,0.135000X-0.135000X-0.185000X0.135000X-0.185000X0.135000X0.185000X-0.135000X0.185000X0*%
%TD*%
%TA.AperFunction,SMDPad,CuDef*%
%ADD29R,3.000000X0.650000*%
%TD*%
%TA.AperFunction,SMDPad,CuDef*%
%ADD30RoundRect,0.150000X0.150000X0.575000X-0.150000X0.575000X-0.150000X-0.575000X0.150000X-0.575000X0*%
%TD*%
%TA.AperFunction,SMDPad,CuDef*%
%ADD31RoundRect,0.075000X0.075000X0.650000X-0.075000X0.650000X-0.075000X-0.650000X0.075000X-0.650000X0*%
%TD*%
%TA.AperFunction,ComponentPad*%
%ADD32O,1.000000X2.100000*%
%TD*%
%TA.AperFunction,ComponentPad*%
%ADD33O,1.000000X1.600000*%
%TD*%
%TA.AperFunction,SMDPad,CuDef*%
%ADD34RoundRect,0.250000X0.450000X0.350000X-0.450000X0.350000X-0.450000X-0.350000X0.450000X-0.350000X0*%
%TD*%
%TA.AperFunction,SMDPad,CuDef*%
%ADD35RoundRect,0.140000X0.219203X0.021213X0.021213X0.219203X-0.219203X-0.021213X-0.021213X-0.219203X0*%
%TD*%
%TA.AperFunction,ViaPad*%
%ADD36C,0.600000*%
%TD*%
%TA.AperFunction,Conductor*%
%ADD37C,0.200000*%
%TD*%
G04 APERTURE END LIST*
D10*
%TO.P,C5,1*%
%TO.N,+3V3*%
X126750000Y-97000000D03*
%TO.P,C5,2*%
%TO.N,GND*%
X126750000Y-96040000D03*
%TD*%
D11*
%TO.P,R6,1*%
%TO.N,Net-(R6-Pad1)*%
X128009999Y-93250000D03*
%TO.P,R6,2*%
%TO.N,QSPI_SS*%
X126990001Y-93250000D03*
%TD*%
D12*
%TO.P,C8,1*%
%TO.N,+3V3*%
X117980000Y-98500000D03*
%TO.P,C8,2*%
%TO.N,GND*%
X117020000Y-98500000D03*
%TD*%
D13*
%TO.P,C16,1*%
%TO.N,GND*%
X119750000Y-109270000D03*
%TO.P,C16,2*%
%TO.N,XIN*%
X119750000Y-110230000D03*
%TD*%
D14*
%TO.P,R2,1*%
%TO.N,Net-(J1-CC2)*%
X121500000Y-81990001D03*
%TO.P,R2,2*%
%TO.N,GND*%
X121500000Y-83009999D03*
%TD*%
D11*
%TO.P,R5,1*%
%TO.N,Net-(C15-Pad2)*%
X123509999Y-107000000D03*
%TO.P,R5,2*%
%TO.N,XOUT*%
X122490001Y-107000000D03*
%TD*%
D15*
%TO.P,R8,1*%
%TO.N,+3V3*%
X127250000Y-112759999D03*
%TO.P,R8,2*%
%TO.N,SD_CS*%
X127250000Y-111740001D03*
%TD*%
D16*
%TO.P,C13,1*%
%TO.N,VBUS*%
X119775000Y-82750000D03*
%TO.P,C13,2*%
%TO.N,GND*%
X118225000Y-82750000D03*
%TD*%
D17*
%TO.P,C19,1*%
%TO.N,GND*%
X128040000Y-118000000D03*
%TO.P,C19,2*%
%TO.N,+3V3*%
X129000000Y-118000000D03*
%TD*%
D15*
%TO.P,R10,1*%
%TO.N,+3V3*%
X126000000Y-116509999D03*
%TO.P,R10,2*%
%TO.N,SD_MOSI*%
X126000000Y-115490001D03*
%TD*%
D17*
%TO.P,C9,1*%
%TO.N,+3V3*%
X127520000Y-99000000D03*
%TO.P,C9,2*%
%TO.N,GND*%
X128480000Y-99000000D03*
%TD*%
D18*
%TO.P,SW1,1,1_1*%
%TO.N,GND*%
X128250000Y-87650000D03*
%TO.P,SW1,2,2_2*%
%TO.N,Net-(R6-Pad1)*%
X128250000Y-91850000D03*
%TD*%
D12*
%TO.P,C4,1*%
%TO.N,+3V3*%
X121000000Y-92000000D03*
%TO.P,C4,2*%
%TO.N,GND*%
X120040000Y-92000000D03*
%TD*%
D14*
%TO.P,R3,1*%
%TO.N,USB_D+*%
X123250000Y-95990001D03*
%TO.P,R3,2*%
%TO.N,Net-(U1-USB_DP)*%
X123250000Y-97009999D03*
%TD*%
D17*
%TO.P,C17,1*%
%TO.N,+3V3*%
X125770000Y-108750000D03*
%TO.P,C17,2*%
%TO.N,GND*%
X126730000Y-108750000D03*
%TD*%
D19*
%TO.P,U1,1,IOVDD_1*%
%TO.N,+3V3*%
X119312500Y-98962500D03*
%TO.P,U1,2,GPIO0_2*%
%TO.N,GPIO0*%
X119312500Y-99362500D03*
%TO.P,U1,3,GPIO1_3*%
%TO.N,GPIO1*%
X119312500Y-99762500D03*
%TO.P,U1,4,GPIO2_4*%
%TO.N,GPIO2*%
X119312500Y-100162500D03*
%TO.P,U1,5,GPIO3_5*%
%TO.N,GPIO3*%
X119312500Y-100562500D03*
%TO.P,U1,6,GPIO4_6*%
%TO.N,GPIO4*%
X119312500Y-100962500D03*
%TO.P,U1,7,GPIO5_7*%
%TO.N,GPIO5*%
X119312500Y-101362500D03*
%TO.P,U1,8,GPIO6_8*%
%TO.N,GPIO6*%
X119312500Y-101762500D03*
%TO.P,U1,9,GPIO7_9*%
%TO.N,GPIO7*%
X119312500Y-102162500D03*
%TO.P,U1,10,IOVDD_10*%
%TO.N,+3V3*%
X119312500Y-102562500D03*
%TO.P,U1,11,GPIO8_11*%
%TO.N,GPIO8*%
X119312500Y-102962500D03*
%TO.P,U1,12,GPIO9_12*%
%TO.N,GPIO9*%
X119312500Y-103362500D03*
%TO.P,U1,13,GPIO10_13*%
%TO.N,GPIO10*%
X119312500Y-103762500D03*
%TO.P,U1,14,GPIO11_14*%
%TO.N,GPIO11*%
X119312500Y-104162500D03*
D20*
%TO.P,U1,15,GPIO12_15*%
%TO.N,GPIO12*%
X120150000Y-105000000D03*
%TO.P,U1,16,GPIO13_16*%
%TO.N,GPIO13*%
X120550000Y-105000000D03*
%TO.P,U1,17,GPIO14_17*%
%TO.N,GPIO14*%
X120950000Y-105000000D03*
%TO.P,U1,18,GPIO15_18*%
%TO.N,GPIO15*%
X121350000Y-105000000D03*
%TO.P,U1,19,TESTEN_19*%
%TO.N,GND*%
X121750000Y-105000000D03*
%TO.P,U1,20,XIN_20*%
%TO.N,XIN*%
X122150000Y-105000000D03*
%TO.P,U1,21,XOUT_21*%
%TO.N,XOUT*%
X122550000Y-105000000D03*
%TO.P,U1,22,IOVDD_22*%
%TO.N,+3V3*%
X122950000Y-105000000D03*
%TO.P,U1,23,DVDD_23*%
%TO.N,+1V1*%
X123350000Y-105000000D03*
%TO.P,U1,24,SWCLK_24*%
%TO.N,SWCLK*%
X123750000Y-105000000D03*
%TO.P,U1,25,SWDIO_25*%
%TO.N,SWDIO*%
X124150000Y-105000000D03*
%TO.P,U1,26,RUN_26*%
%TO.N,RUN*%
X124550000Y-105000000D03*
%TO.P,U1,27,GPIO16_27*%
%TO.N,SD_MISO*%
X124950000Y-105000000D03*
%TO.P,U1,28,GPIO17_28*%
%TO.N,SD_CS*%
X125350000Y-105000000D03*
D19*
%TO.P,U1,29,GPIO18_29*%
%TO.N,SD_SCK*%
X126187500Y-104162500D03*
%TO.P,U1,30,GPIO19_30*%
%TO.N,SD_MOSI*%
X126187500Y-103762500D03*
%TO.P,U1,31,GPIO20_31*%
%TO.N,GPIO20*%
X126187500Y-103362500D03*
%TO.P,U1,32,GPIO21_32*%
%TO.N,GPIO21*%
X126187500Y-102962500D03*
%TO.P,U1,33,IOVDD_33*%
%TO.N,+3V3*%
X126187500Y-102562500D03*
%TO.P,U1,34,GPIO22_34*%
%TO.N,GPIO22*%
X126187500Y-102162500D03*
%TO.P,U1,35,GPIO23_35*%
%TO.N,GPIO23*%
X126187500Y-101762500D03*
%TO.P,U1,36,GPIO24_36*%
%TO.N,GPIO24*%
X126187500Y-101362500D03*
%TO.P,U1,37,GPIO25_37*%
%TO.N,GPIO25*%
X126187500Y-100962500D03*
%TO.P,U1,38,GPIO26/ADC0_38*%
%TO.N,GPIO26_ADC0*%
X126187500Y-100562500D03*
%TO.P,U1,39,GPIO27/ADC1_39*%
%TO.N,GPIO27_ADC1*%
X126187500Y-100162500D03*
%TO.P,U1,40,GPIO28/ADC2_40*%
%TO.N,GPI028_ADC2*%
X126187500Y-99762500D03*
%TO.P,U1,41,GPIO29/ADC3_41*%
%TO.N,GPIO29_ADC3*%
X126187500Y-99362500D03*
%TO.P,U1,42,IOVDD_42*%
%TO.N,+3V3*%
X126187500Y-98962500D03*
D20*
%TO.P,U1,43,ADC_AVDD_43*%
X125350000Y-98125000D03*
%TO.P,U1,44,VREG_VIN_44*%
X124950000Y-98125000D03*
%TO.P,U1,45,VREG_VOUT_45*%
%TO.N,+1V1*%
X124550000Y-98125000D03*
%TO.P,U1,46,USB_DM_46*%
%TO.N,Net-(U1-USB_DM)*%
X124150000Y-98125000D03*
%TO.P,U1,47,USB_DP_47*%
%TO.N,Net-(U1-USB_DP)*%
X123750000Y-98125000D03*
%TO.P,U1,48,USB_VDD_48*%
%TO.N,+3V3*%
X123350000Y-98125000D03*
%TO.P,U1,49,IOVDD_49*%
X122950000Y-98125000D03*
%TO.P,U1,50,DVDD_50*%
%TO.N,+1V1*%
X122550000Y-98125000D03*
%TO.P,U1,51,QSPI_SD3_51*%
%TO.N,QSPI_SD3*%
X122150000Y-98125000D03*
%TO.P,U1,52,QSPI_SCLK_52*%
%TO.N,QSPI_SCLK*%
X121750000Y-98125000D03*
%TO.P,U1,53,QSPI_SD0_53*%
%TO.N,QSPI_SD0*%
X121350000Y-98125000D03*
%TO.P,U1,54,QSPI_SD2_54*%
%TO.N,QSPI_SD2*%
X120950000Y-98125000D03*
%TO.P,U1,55,QSPI_SD1_55*%
%TO.N,QSPI_SD1*%
X120550000Y-98125000D03*
%TO.P,U1,56,~{QSPI_SS}_56*%
%TO.N,QSPI_SS*%
X120150000Y-98125000D03*
D21*
%TO.P,U1,57,GND_57*%
%TO.N,GND*%
X122750000Y-101562500D03*
%TD*%
D22*
%TO.P,U4,1,/CS_1*%
%TO.N,QSPI_SS*%
X118075000Y-93000000D03*
%TO.P,U4,2,DO(IO1)_2*%
%TO.N,QSPI_SD1*%
X118075000Y-93500000D03*
%TO.P,U4,3,/WP(IO2)_3*%
%TO.N,QSPI_SD2*%
X118075000Y-94000000D03*
%TO.P,U4,4,GND_4*%
%TO.N,GND*%
X118075000Y-94500000D03*
%TO.P,U4,5,DI(IO0)_5*%
%TO.N,QSPI_SD0*%
X120925000Y-94500000D03*
%TO.P,U4,6,CLK_6*%
%TO.N,QSPI_SCLK*%
X120925000Y-94000000D03*
%TO.P,U4,7,/HOLDOR/RESET(IO3)_7*%
%TO.N,QSPI_SD3*%
X120925000Y-93500000D03*
%TO.P,U4,8,VCC_8*%
%TO.N,+3V3*%
X120925000Y-93000000D03*
D23*
%TO.P,U4,9,EPAD_9*%
%TO.N,GND*%
X119500000Y-93750000D03*
%TD*%
D11*
%TO.P,R7,1*%
%TO.N,+3V3*%
X119009999Y-92000000D03*
%TO.P,R7,2*%
%TO.N,QSPI_SS*%
X117990001Y-92000000D03*
%TD*%
D24*
%TO.P,U2,1,GND_1*%
%TO.N,GND*%
X118500000Y-86500000D03*
%TO.P,U2,2,VO_2*%
%TO.N,+3V3*%
X120400000Y-86500000D03*
%TO.P,U2,3,VI_3*%
%TO.N,VBUS*%
X119450000Y-84624999D03*
%TD*%
D15*
%TO.P,R9,1*%
%TO.N,+3V3*%
X119500000Y-117509999D03*
%TO.P,R9,2*%
%TO.N,SD_MISO*%
X119500000Y-116490001D03*
%TD*%
D16*
%TO.P,C18,1*%
%TO.N,+3V3*%
X123275000Y-116750000D03*
%TO.P,C18,2*%
%TO.N,GND*%
X121725000Y-116750000D03*
%TD*%
D14*
%TO.P,R4,1*%
%TO.N,USB_D-*%
X124250000Y-95990001D03*
%TO.P,R4,2*%
%TO.N,Net-(U1-USB_DM)*%
X124250000Y-97009999D03*
%TD*%
D25*
%TO.P,C7,1*%
%TO.N,+3V3*%
X127910589Y-97839411D03*
%TO.P,C7,2*%
%TO.N,GND*%
X128589411Y-97160589D03*
%TD*%
D16*
%TO.P,C14,1*%
%TO.N,+3V3*%
X120275000Y-88250000D03*
%TO.P,C14,2*%
%TO.N,GND*%
X118725000Y-88250000D03*
%TD*%
D26*
%TO.P,J5,1,Pin_1_1*%
%TO.N,GPI00*%
X113750000Y-73750000D03*
D27*
%TO.P,J5,2,Pin_2_2*%
%TO.N,GPIO1*%
X113750000Y-76290000D03*
%TO.P,J5,3,Pin_3_3*%
%TO.N,GND*%
X113750000Y-78830000D03*
%TO.P,J5,4,Pin_4_4*%
%TO.N,GPIO2*%
X113750000Y-81370000D03*
%TO.P,J5,5,Pin_5_5*%
%TO.N,GPIO3*%
X113750000Y-83910000D03*
%TO.P,J5,6,Pin_6_6*%
%TO.N,GPIO4*%
X113750000Y-86450000D03*
%TO.P,J5,7,Pin_7_7*%
%TO.N,GPIO5*%
X113750000Y-88990000D03*
%TO.P,J5,8,Pin_8_8*%
%TO.N,GND*%
X113750000Y-91530000D03*
%TO.P,J5,9,Pin_9_9*%
%TO.N,GPIO6*%
X113750000Y-94070000D03*
%TO.P,J5,10,Pin_10_10*%
%TO.N,GPIO7*%
X113750000Y-96610000D03*
%TO.P,J5,11,Pin_11_11*%
%TO.N,GPIO8*%
X113750000Y-99150000D03*
%TO.P,J5,12,Pin_12_12*%
%TO.N,GPIO9*%
X113750000Y-101690000D03*
%TO.P,J5,13,Pin_13_13*%
%TO.N,GND*%
X113750000Y-104230000D03*
%TO.P,J5,14,Pin_14_14*%
%TO.N,GPIO10*%
X113750000Y-106770000D03*
%TO.P,J5,15,Pin_15_15*%
%TO.N,GPIO11*%
X113750000Y-109310000D03*
%TO.P,J5,16,Pin_16_16*%
%TO.N,GPIO12*%
X113750000Y-111850000D03*
%TO.P,J5,17,Pin_17_17*%
%TO.N,GPIO13*%
X113750000Y-114390000D03*
%TO.P,J5,18,Pin_18_18*%
%TO.N,GND*%
X113750000Y-116930000D03*
%TO.P,J5,19,Pin_19_19*%
%TO.N,GPIO14*%
X113750000Y-119470000D03*
%TO.P,J5,20,Pin_20_20*%
%TO.N,GPIO15*%
X113750000Y-122010000D03*
%TD*%
D10*
%TO.P,C10,1*%
%TO.N,+1V1*%
X122750000Y-94980000D03*
%TO.P,C10,2*%
%TO.N,GND*%
X122750000Y-94020000D03*
%TD*%
%TO.P,C11,1*%
%TO.N,+1V1*%
X125750000Y-96730000D03*
%TO.P,C11,2*%
%TO.N,GND*%
X125750000Y-95770000D03*
%TD*%
D25*
%TO.P,C12,1*%
%TO.N,+1V1*%
X126660589Y-106839411D03*
%TO.P,C12,2*%
%TO.N,GND*%
X127339411Y-106160589D03*
%TD*%
D10*
%TO.P,C6,1*%
%TO.N,+3V3*%
X124250000Y-91980000D03*
%TO.P,C6,2*%
%TO.N,GND*%
X124250000Y-91020000D03*
%TD*%
D28*
%TO.P,R1,1*%
%TO.N,Net-(J1-CC1)*%
X125990000Y-82000000D03*
%TO.P,R1,2*%
%TO.N,GND*%
X127010000Y-82000000D03*
%TD*%
D17*
%TO.P,C3,1*%
%TO.N,+3V3*%
X128270000Y-102000000D03*
%TO.P,C3,2*%
%TO.N,GND*%
X129230000Y-102000000D03*
%TD*%
D12*
%TO.P,C2,1*%
%TO.N,+3V3*%
X117980000Y-102250000D03*
%TO.P,C2,2*%
%TO.N,GND*%
X117020000Y-102250000D03*
%TD*%
D29*
%TO.P,J3,1,Pin_1_1*%
%TO.N,SWCLK*%
X124750000Y-121770000D03*
%TO.P,J3,2,Pin_2_2*%
%TO.N,GND*%
X121750000Y-120500000D03*
%TO.P,J3,3,Pin_3_3*%
%TO.N,SWDIO*%
X124750000Y-119230000D03*
%TD*%
D30*
%TO.P,J1,A1,GND_A1*%
%TO.N,GND*%
X126250000Y-80295000D03*
%TO.P,J1,A4,VBUS_A4*%
%TO.N,VBUS*%
X125450001Y-80295000D03*
D31*
%TO.P,J1,A5,CC1_A5*%
%TO.N,Net-(J1-CC1)*%
X124250000Y-80294999D03*
%TO.P,J1,A6,D+_A6*%
%TO.N,USB_D+*%
X123250000Y-80295000D03*
%TO.P,J1,A7,D-_A7*%
%TO.N,USB_D-*%
X122750000Y-80295000D03*
%TO.P,J1,A8*%
%TO.N,N/C*%
X121750000Y-80294999D03*
D30*
%TO.P,J1,A9,VBUS_A9*%
%TO.N,VBUS*%
X120549999Y-80295000D03*
%TO.P,J1,A12,GND_A12*%
%TO.N,GND*%
X119750000Y-80295000D03*
%TO.P,J1,B1,GND_B1*%
X119750000Y-80295000D03*
%TO.P,J1,B4,VBUS_B4*%
%TO.N,VBUS*%
X120549999Y-80295000D03*
D31*
%TO.P,J1,B5,CC2_B5*%
%TO.N,Net-(J1-CC2)*%
X121250000Y-80295000D03*
%TO.P,J1,B6,D+_B6*%
%TO.N,USB_D+*%
X122250000Y-80295000D03*
%TO.P,J1,B7,D-_B7*%
%TO.N,USB_D-*%
X123750000Y-80295000D03*
%TO.P,J1,B8*%
%TO.N,N/C*%
X124750000Y-80295000D03*
D30*
%TO.P,J1,B9,VBUS_B9*%
%TO.N,VBUS*%
X125450001Y-80295000D03*
%TO.P,J1,B12,GND_B12*%
%TO.N,GND*%
X126250000Y-80295000D03*
D32*
%TO.P,J1,SH,SHIELD_SH*%
X127320000Y-79380000D03*
D33*
X127320000Y-75200000D03*
D32*
X118680000Y-79380000D03*
D33*
X118680000Y-75200000D03*
%TD*%
D10*
%TO.P,C1,1*%
%TO.N,+3V3*%
X123250000Y-92730000D03*
%TO.P,C1,2*%
%TO.N,GND*%
X123250000Y-91770000D03*
%TD*%
D34*
%TO.P,Y1,1,1_1*%
%TO.N,Net-(C15-Pad2)*%
X123600000Y-108650000D03*
%TO.P,Y1,2,G_2*%
%TO.N,GND*%
X121400000Y-108650000D03*
%TO.P,Y1,3,3_3*%
%TO.N,XIN*%
X121400000Y-110350000D03*
%TO.P,Y1,4,G_4*%
%TO.N,GND*%
X123600000Y-110350000D03*
%TD*%
D26*
%TO.P,J2,1,Pin_1_1*%
%TO.N,VBUS*%
X135000000Y-73630000D03*
D27*
%TO.P,J2,2,Pin_2_2*%
%TO.N,unconnected-(J2-Pin_2-Pad2)*%
X135000000Y-76170000D03*
%TO.P,J2,3,Pin_3_3*%
%TO.N,GND*%
X135000000Y-78710000D03*
%TO.P,J2,4,Pin_4_4*%
%TO.N,unconnected-(J2-Pin_4-Pad4)*%
X135000000Y-81250000D03*
%TO.P,J2,5,Pin_5_5*%
%TO.N,+3V3*%
X135000000Y-83790000D03*
%TO.P,J2,6,Pin_6_6*%
%TO.N,unconnected-(J2-Pin_6-Pad6)*%
X135000000Y-86330000D03*
%TO.P,J2,7,Pin_7_7*%
%TO.N,GPIO28_ADC2*%
X135000000Y-88870000D03*
%TO.P,J2,8,Pin_8_8*%
%TO.N,GND*%
X135000000Y-91410000D03*
%TO.P,J2,9,Pin_9_9*%
%TO.N,GPIO27_ADC1*%
X135000000Y-93950000D03*
%TO.P,J2,10,Pin_10_10*%
%TO.N,GPIO26_ADC0*%
X135000000Y-96490000D03*
%TO.P,J2,11,Pin_11_11*%
%TO.N,RUN*%
X135000000Y-99030000D03*
%TO.P,J2,12,Pin_12_12*%
%TO.N,GPIO22*%
X135000000Y-101570000D03*
%TO.P,J2,13,Pin_13_13*%
%TO.N,GND*%
X135000000Y-104110000D03*
%TO.P,J2,14,Pin_14_14*%
%TO.N,GPIO21*%
X135000000Y-106650000D03*
%TO.P,J2,15,Pin_15_15*%
%TO.N,GPIO20*%
X135000000Y-109190000D03*
%TO.P,J2,16,Pin_16_16*%
%TO.N,unconnected-(J2-Pin_16-Pad16)*%
X135000000Y-111730000D03*
%TO.P,J2,17,Pin_17_17*%
%TO.N,unconnected-(J2-Pin_17-Pad17)*%
X135000000Y-114270000D03*
%TO.P,J2,18,Pin_18_18*%
%TO.N,GND*%
X135000000Y-116810000D03*
%TO.P,J2,19,Pin_19_19*%
%TO.N,unconnected-(J2-Pin_19-Pad19)*%
X135000000Y-119350000D03*
%TO.P,J2,20,Pin_20_20*%
%TO.N,unconnected-(J2-Pin_20-Pad20)*%
X135000000Y-121890000D03*
%TD*%
D35*
%TO.P,C15,1*%
%TO.N,GND*%
X126339411Y-110589411D03*
%TO.P,C15,2*%
%TO.N,Net-(C15-Pad2)*%
X125660589Y-109910589D03*
%TD*%
D36*
%TO.N,SD_MOSI*%
X125250000Y-111000000D03*
%TO.N,GND*%
X129750000Y-117250000D03*
X119250000Y-114750000D03*
X120750000Y-119250000D03*
X126000000Y-117500000D03*
X129500000Y-113500000D03*
X130150000Y-102250000D03*
X128558039Y-98439411D03*
X131000000Y-108250000D03*
X129000000Y-108750000D03*
%TO.N,SD_CS*%
X126650000Y-114250000D03*
%TO.N,GND*%
X127750000Y-117000000D03*
%TO.N,SD_SCK*%
X127242950Y-104703302D03*
X126254936Y-106062507D03*
%TO.N,SD_MOSI*%
X124726471Y-113773529D03*
%TO.N,+3V3*%
X127800000Y-112750000D03*
%TO.N,SD_CS*%
X127800000Y-111000000D03*
%TO.N,+3V3*%
X127750000Y-96750000D03*
X123449997Y-115250000D03*
X123500000Y-86500000D03*
X123222326Y-98997753D03*
X123250000Y-90250000D03*
X122750000Y-93240000D03*
X127380000Y-107894431D03*
X125966831Y-107600000D03*
X121835735Y-92335735D03*
%TO.N,GND*%
X120296460Y-108400599D03*
X124000000Y-88250000D03*
X116250000Y-80750000D03*
X122500000Y-112000000D03*
X122000000Y-90500000D03*
X114900000Y-117250000D03*
X118500000Y-95029921D03*
X117250000Y-120750000D03*
X119811537Y-95438463D03*
X121455000Y-115750000D03*
X128000000Y-94750000D03*
%TO.N,QSPI_SS*%
X118100000Y-91000000D03*
X125458364Y-93208364D03*
%TO.N,SD_MOSI*%
X127571848Y-103974038D03*
X124250000Y-115250000D03*
%TO.N,SD_CS*%
X126500000Y-105000000D03*
%TO.N,GPIO1*%
X118376249Y-99272242D03*
%TO.N,GPIO2*%
X118001213Y-99978891D03*
%TO.N,GPIO3*%
X117248716Y-100250463D03*
%TO.N,GPIO4*%
X118187859Y-101178891D03*
%TO.N,GPIO5*%
X120335532Y-100935534D03*
%TO.N,GPIO6*%
X120650001Y-101698528D03*
%TO.N,GPIO7*%
X120650000Y-102674738D03*
%TO.N,GPIO9*%
X117094152Y-103577311D03*
%TO.N,GPIO10*%
X117759652Y-104021281D03*
%TO.N,GPIO11*%
X118339185Y-104572774D03*
%TO.N,GPIO12*%
X119500000Y-105000000D03*
%TO.N,GPIO13*%
X118990907Y-105617112D03*
%TO.N,+1V1*%
X125056418Y-96744178D03*
X122002248Y-99053808D03*
X122493657Y-103715372D03*
X124019704Y-99062500D03*
%TO.N,SWCLK*%
X123291910Y-103662502D03*
X122250000Y-122000000D03*
%TO.N,SWDIO*%
X125250000Y-112600000D03*
X125000000Y-120500000D03*
X124091912Y-103662499D03*
X127550000Y-119250000D03*
%TO.N,RUN*%
X125247140Y-103710062D03*
%TO.N,SD_MISO*%
X125150000Y-105997272D03*
X119750000Y-115750000D03*
%TO.N,SD_SCK*%
X120299265Y-107549265D03*
X121500000Y-112250000D03*
X127242950Y-104703302D03*
X120299265Y-107549265D03*
%TO.N,GPIO20*%
X128089725Y-103350000D03*
%TO.N,GPIO21*%
X127524038Y-102774038D03*
%TO.N,GPIO22*%
X127250000Y-101350000D03*
%TO.N,GPIO26_ADC0*%
X128499999Y-100350000D03*
%TO.N,GPIO27_ADC1*%
X127124999Y-99759971D03*
%TO.N,Net-(J1-CC1)*%
X125214265Y-81535735D03*
X124500000Y-78750000D03*
%TD*%
%TO.N,SD_MOSI*%
D37*
X124490001Y-115490001D02*
X126000000Y-115490001D01*
X124250000Y-115250000D02*
X124490001Y-115490001D01*
%TO.N,+3V3*%
X130500000Y-118000000D02*
X130500000Y-108598529D01*
X129000000Y-118000000D02*
X130500000Y-118000000D01*
%TO.N,GND*%
X128907842Y-108657842D02*
X128907842Y-107657842D01*
X129000000Y-108750000D02*
X128907842Y-108657842D01*
X129500000Y-115250000D02*
X129500000Y-113500000D01*
X127750000Y-117000000D02*
X129500000Y-115250000D01*
X128040000Y-117290000D02*
X127750000Y-117000000D01*
X128040000Y-118000000D02*
X128040000Y-117290000D01*
X130150000Y-102250000D02*
X129480000Y-102250000D01*
X129480000Y-102250000D02*
X129230000Y-102000000D01*
%TO.N,+3V3*%
X128807009Y-97839411D02*
X127910589Y-97839411D01*
X130750000Y-99782402D02*
X128807009Y-97839411D01*
X130750000Y-107651471D02*
X130750000Y-99782402D01*
X130400000Y-108001471D02*
X130750000Y-107651471D01*
X130400000Y-108498529D02*
X130400000Y-108001471D01*
X130500000Y-108598529D02*
X130400000Y-108498529D01*
X127922158Y-120827842D02*
X130500000Y-118250000D01*
X126950000Y-118250000D02*
X126950000Y-119855684D01*
X122025000Y-118250000D02*
X126950000Y-118250000D01*
X121900000Y-118125000D02*
X122025000Y-118250000D01*
X126950000Y-119855684D02*
X127922158Y-120827842D01*
X130500000Y-118250000D02*
X130500000Y-118000000D01*
%TO.N,GND*%
X128480000Y-98517450D02*
X128558039Y-98439411D01*
X128480000Y-99000000D02*
X128480000Y-98517450D01*
%TO.N,SD_CS*%
X127790001Y-111740001D02*
X127250000Y-111740001D01*
X127800000Y-111730002D02*
X127790001Y-111740001D01*
X127800000Y-111000000D02*
X127800000Y-111730002D01*
%TO.N,SWDIO*%
X126100000Y-112600000D02*
X125250000Y-112600000D01*
X127250000Y-113750000D02*
X126100000Y-112600000D01*
X127250000Y-115151471D02*
X127250000Y-113750000D01*
X127350000Y-115251471D02*
X127250000Y-115151471D01*
X127350000Y-115748529D02*
X127350000Y-115251471D01*
X127250000Y-115848529D02*
X127350000Y-115748529D01*
X127250000Y-116651471D02*
X127250000Y-115848529D01*
X127150000Y-117248529D02*
X127150000Y-116751471D01*
X127250000Y-117348529D02*
X127150000Y-117248529D01*
X127350000Y-118084315D02*
X127250000Y-117984315D01*
X127250000Y-117984315D02*
X127250000Y-117348529D01*
X127350000Y-119050000D02*
X127350000Y-118084315D01*
X127150000Y-116751471D02*
X127250000Y-116651471D01*
X127550000Y-119250000D02*
X127350000Y-119050000D01*
%TO.N,+3V3*%
X128689725Y-102419725D02*
X128270000Y-102000000D01*
X128000000Y-108000000D02*
X128689725Y-107310275D01*
X127485569Y-108000000D02*
X128000000Y-108000000D01*
X127380000Y-107894431D02*
X127485569Y-108000000D01*
X128689725Y-107310275D02*
X128689725Y-102419725D01*
%TO.N,GND*%
X126861312Y-107501358D02*
X126742382Y-107501358D01*
X127322536Y-107040134D02*
X126861312Y-107501358D01*
X126742382Y-107501358D02*
X126742382Y-107737618D01*
X127322536Y-106842536D02*
X127322536Y-107040134D01*
X127339411Y-106160589D02*
X127339411Y-106859411D01*
X127339411Y-106859411D02*
X127322536Y-106842536D01*
%TO.N,+3V3*%
X126000000Y-107909570D02*
X126000000Y-108520000D01*
X125966831Y-107600000D02*
X126135855Y-107769024D01*
X126135855Y-107773715D02*
X126000000Y-107909570D01*
X126135855Y-107769024D02*
X126135855Y-107773715D01*
X126000000Y-108520000D02*
X125770000Y-108750000D01*
%TO.N,GND*%
X128589411Y-95339411D02*
X128000000Y-94750000D01*
X128589411Y-97160589D02*
X128589411Y-95339411D01*
%TO.N,SWDIO*%
X125500000Y-119980000D02*
X124750000Y-119230000D01*
X125000000Y-120500000D02*
X125500000Y-120000000D01*
X125500000Y-120000000D02*
X125500000Y-119980000D01*
%TO.N,+3V3*%
X127790001Y-112759999D02*
X127800000Y-112750000D01*
X127250000Y-112759999D02*
X127790001Y-112759999D01*
X127260000Y-98240000D02*
X127020000Y-98000000D01*
X127520000Y-98500000D02*
X127260000Y-98240000D01*
X121900000Y-118125000D02*
X123275000Y-116750000D01*
X124862500Y-99662500D02*
X123250000Y-99662500D01*
X123222326Y-98997753D02*
X123250000Y-98970079D01*
X123350000Y-98400000D02*
X123350000Y-98125000D01*
X123833067Y-89666933D02*
X124416134Y-90250000D01*
X123184315Y-106150000D02*
X124150000Y-106150000D01*
X122950000Y-106200000D02*
X123092158Y-106057842D01*
X121835735Y-92335735D02*
X121335735Y-92335735D01*
X124416134Y-90250000D02*
X124750000Y-90250000D01*
X125450000Y-100250000D02*
X124862500Y-99662500D01*
X120925000Y-93000000D02*
X120925000Y-92075000D01*
X121335735Y-92335735D02*
X121000000Y-92000000D01*
X120509999Y-117509999D02*
X119500000Y-117509999D01*
X123449997Y-116174997D02*
X123449997Y-115250000D01*
X123500000Y-86500000D02*
X120400000Y-86500000D01*
X123215001Y-117009999D02*
X123750000Y-116475000D01*
X121000000Y-91250000D02*
X120750000Y-91000000D01*
X126750000Y-97000000D02*
X126750000Y-97730000D01*
X118850000Y-98500000D02*
X119312500Y-98962500D01*
X125000000Y-98075000D02*
X124950000Y-98125000D01*
X125450000Y-99050000D02*
X125537500Y-98962500D01*
X126750000Y-97730000D02*
X127020000Y-98000000D01*
X123750000Y-116475000D02*
X124965001Y-116475000D01*
X122950000Y-98125000D02*
X122950000Y-98013586D01*
X123222326Y-98997753D02*
X123250000Y-99025427D01*
X117980000Y-98500000D02*
X118850000Y-98500000D01*
X116648716Y-100001934D02*
X116648716Y-100918716D01*
X125000000Y-107315686D02*
X125000000Y-107500000D01*
X119022242Y-98672242D02*
X117978408Y-98672242D01*
X119312500Y-98962500D02*
X119022242Y-98672242D01*
X123250000Y-92740000D02*
X122750000Y-93240000D01*
X119250000Y-91000000D02*
X119250000Y-91250000D01*
X123250000Y-99662500D02*
X120546360Y-99662500D01*
X126187500Y-102562500D02*
X126887046Y-102562500D01*
X117978408Y-98672242D02*
X116648716Y-100001934D01*
X126887046Y-102562500D02*
X127609546Y-101840000D01*
X123250000Y-98225000D02*
X123350000Y-98125000D01*
X120546360Y-99662500D02*
X119846360Y-98962500D01*
X123250000Y-98750000D02*
X123250000Y-98425000D01*
X127609546Y-101840000D02*
X128110000Y-101840000D01*
X125450000Y-99500000D02*
X125450000Y-99050000D01*
X127520000Y-99000000D02*
X127520000Y-98500000D01*
X117980000Y-102250000D02*
X118292500Y-102562500D01*
X125770000Y-108270000D02*
X125770000Y-108750000D01*
X123750000Y-116475000D02*
X123449997Y-116174997D01*
X127520000Y-99000000D02*
X127482500Y-98962500D01*
X120750000Y-91000000D02*
X119250000Y-91000000D01*
X124933058Y-91296942D02*
X124250000Y-91980000D01*
X123092158Y-106057842D02*
X123184315Y-106150000D01*
X123583067Y-89416933D02*
X123833067Y-89666933D01*
X124485393Y-106801079D02*
X125000000Y-107315686D01*
X121000000Y-92000000D02*
X121000000Y-91250000D01*
X125000000Y-116509999D02*
X126000000Y-116509999D01*
X125350000Y-98125000D02*
X124950000Y-98125000D01*
X121900000Y-118125000D02*
X121125000Y-118125000D01*
X126187500Y-102562500D02*
X125653640Y-102562500D01*
X119250000Y-91250000D02*
X119009999Y-91490001D01*
X127260000Y-98240000D02*
X127510000Y-98240000D01*
X127000000Y-96750000D02*
X126750000Y-97000000D01*
X125537500Y-98962500D02*
X126187500Y-98962500D01*
X119009999Y-91490001D02*
X119009999Y-92000000D01*
X123250000Y-90250000D02*
X123833067Y-89666933D01*
X119312500Y-102562500D02*
X117643634Y-102562500D01*
X124485393Y-106746880D02*
X124485393Y-106801079D01*
X124250000Y-91980000D02*
X124000000Y-91980000D01*
X117807758Y-98672242D02*
X119022242Y-98672242D01*
X123250000Y-92740000D02*
X123250000Y-92730000D01*
X118292500Y-102562500D02*
X119312500Y-102562500D01*
X116648716Y-100918716D02*
X117980000Y-102250000D01*
X121125000Y-118125000D02*
X120509999Y-117509999D01*
X125450000Y-102358860D02*
X125450000Y-99500000D01*
X122950000Y-105000000D02*
X122950000Y-106200000D01*
X127750000Y-96750000D02*
X127000000Y-96750000D01*
X123250000Y-98750000D02*
X123250000Y-98225000D01*
X122416134Y-88250000D02*
X123583067Y-89416933D01*
X127510000Y-98240000D02*
X127910589Y-97839411D01*
X123250000Y-99025427D02*
X123250000Y-99662500D01*
X123250000Y-92730000D02*
X123224859Y-92730000D01*
X123350000Y-98125000D02*
X122950000Y-98125000D01*
X124750000Y-90250000D02*
X124933058Y-90433058D01*
X125450000Y-102358860D02*
X125450000Y-100250000D01*
X122950000Y-98125000D02*
X122950000Y-98658860D01*
X120400000Y-88125000D02*
X120275000Y-88250000D01*
X124965001Y-116475000D02*
X125000000Y-116509999D01*
X124933058Y-90433058D02*
X124933058Y-91296942D01*
X127020000Y-98000000D02*
X125475000Y-98000000D01*
X125653640Y-102562500D02*
X125450000Y-102358860D01*
X120275000Y-88250000D02*
X122416134Y-88250000D01*
X124150000Y-106150000D02*
X124150000Y-106411487D01*
X124000000Y-91980000D02*
X123250000Y-92730000D01*
X125000000Y-107500000D02*
X125770000Y-108270000D01*
X128110000Y-101840000D02*
X128270000Y-102000000D01*
X127482500Y-98962500D02*
X126187500Y-98962500D01*
X120925000Y-92075000D02*
X121000000Y-92000000D01*
X119846360Y-98962500D02*
X119312500Y-98962500D01*
X120400000Y-86500000D02*
X120400000Y-88125000D01*
X123250000Y-98970079D02*
X123250000Y-98750000D01*
X125475000Y-98000000D02*
X125350000Y-98125000D01*
X124150000Y-106411487D02*
X124485393Y-106746880D01*
%TO.N,GND*%
X126339411Y-111910589D02*
X126339411Y-110589411D01*
X122750000Y-94020000D02*
X122681471Y-94020000D01*
X126742382Y-108015717D02*
X126730000Y-108028099D01*
X122000000Y-90500000D02*
X122000000Y-90520000D01*
X117250000Y-120750000D02*
X117864661Y-120750000D01*
X120040000Y-93210000D02*
X119500000Y-93750000D01*
X126742382Y-107737618D02*
X126742382Y-108015717D01*
X126730000Y-110198822D02*
X126339411Y-110589411D01*
X122000000Y-93020000D02*
X123250000Y-91770000D01*
X126250000Y-112000000D02*
X126339411Y-111910589D01*
X118114661Y-120500000D02*
X121750000Y-120500000D01*
X126924264Y-95075736D02*
X127674264Y-95075736D01*
X120780000Y-109270000D02*
X121400000Y-108650000D01*
X128000000Y-94750000D02*
X128490000Y-94750000D01*
X118075000Y-94604921D02*
X118500000Y-95029921D01*
X121750000Y-105000000D02*
X121750000Y-106030916D01*
X122750000Y-101562500D02*
X121750000Y-102562500D01*
X115500000Y-80250000D02*
X115170000Y-80250000D01*
X126250000Y-81240000D02*
X127010000Y-82000000D01*
X126405000Y-80295000D02*
X127320000Y-79380000D01*
X114580000Y-116930000D02*
X114900000Y-117250000D01*
X117864661Y-120750000D02*
X118114661Y-120500000D01*
X115750000Y-98500000D02*
X117020000Y-98500000D01*
X118680000Y-75200000D02*
X118680000Y-79380000D01*
X118680000Y-79130000D02*
X118680000Y-79380000D01*
X122245000Y-91770000D02*
X118725000Y-88250000D01*
X127320000Y-75200000D02*
X127320000Y-79380000D01*
X122000000Y-90520000D02*
X123250000Y-91770000D01*
X117020000Y-102250000D02*
X115750000Y-100980000D01*
X123500000Y-112000000D02*
X122500000Y-112000000D01*
X129230000Y-99750000D02*
X128480000Y-99000000D01*
X121150599Y-108400599D02*
X121400000Y-108650000D01*
X115795000Y-80545000D02*
X116000000Y-80750000D01*
X123250000Y-91770000D02*
X122245000Y-91770000D01*
X118680000Y-79380000D02*
X116370000Y-79380000D01*
X122150000Y-93488529D02*
X122150000Y-93400000D01*
X128907842Y-107657842D02*
X129230000Y-107335685D01*
X115750000Y-100980000D02*
X115750000Y-98500000D01*
X126750000Y-96040000D02*
X126750000Y-95000000D01*
X115170000Y-80250000D02*
X113750000Y-78830000D01*
X122681471Y-94020000D02*
X122150000Y-93488529D01*
X126750000Y-95000000D02*
X126000000Y-94250000D01*
X121250000Y-108500000D02*
X121400000Y-108650000D01*
X126742382Y-108190911D02*
X126742382Y-107737618D01*
X121455000Y-115750000D02*
X121455000Y-116480000D01*
X119750000Y-109270000D02*
X119750000Y-108947059D01*
X127674264Y-95075736D02*
X128000000Y-94750000D01*
X126730000Y-108750000D02*
X126730000Y-110198822D01*
X115795000Y-80295000D02*
X115795000Y-80545000D01*
X126801471Y-108250000D02*
X126742382Y-108190911D01*
X119750000Y-80295000D02*
X115795000Y-80295000D01*
X126924264Y-95075736D02*
X126848529Y-95000000D01*
X120296460Y-108400599D02*
X121150599Y-108400599D01*
X126730000Y-108750000D02*
X126730000Y-108830000D01*
X121750000Y-106030916D02*
X121250000Y-106530916D01*
X119811537Y-95438463D02*
X119811537Y-94589028D01*
X129230000Y-102000000D02*
X129230000Y-99750000D01*
X125750000Y-94500000D02*
X126000000Y-94250000D01*
X126780000Y-107700000D02*
X126780000Y-108228529D01*
X127151471Y-108600000D02*
X127965685Y-108600000D01*
X127965685Y-108600000D02*
X128907842Y-107657842D01*
X121250000Y-106530916D02*
X121250000Y-108500000D01*
X123600000Y-110350000D02*
X123600000Y-111900000D01*
X116370000Y-79380000D02*
X115500000Y-80250000D01*
X126780000Y-108228529D02*
X126801471Y-108250000D01*
X119811537Y-94589028D02*
X119500000Y-94277491D01*
X123600000Y-111900000D02*
X123500000Y-112000000D01*
X126848529Y-95000000D02*
X126750000Y-95000000D01*
X125750000Y-95770000D02*
X125750000Y-94500000D01*
X128490000Y-94750000D02*
X131750000Y-91490000D01*
X123500000Y-112000000D02*
X126250000Y-112000000D01*
X113750000Y-116930000D02*
X114580000Y-116930000D01*
X124250000Y-91020000D02*
X124000000Y-91020000D01*
X124000000Y-91020000D02*
X123250000Y-91770000D01*
X122000000Y-93250000D02*
X122000000Y-93020000D01*
X119500000Y-94277491D02*
X119500000Y-93750000D01*
X126250000Y-80295000D02*
X126405000Y-80295000D01*
X115795000Y-80295000D02*
X115750000Y-80250000D01*
X131750000Y-91150000D02*
X128250000Y-87650000D01*
X126801471Y-108250000D02*
X127151471Y-108600000D01*
X122150000Y-93400000D02*
X122000000Y-93250000D01*
X121455000Y-116480000D02*
X121725000Y-116750000D01*
X126730000Y-108028099D02*
X126730000Y-108750000D01*
X127320000Y-79380000D02*
X127320000Y-79130000D01*
X118075000Y-94500000D02*
X118075000Y-94604921D01*
X121750000Y-102562500D02*
X121750000Y-105000000D01*
X120040000Y-92000000D02*
X120040000Y-93210000D01*
X129230000Y-107335685D02*
X129230000Y-102000000D01*
X115750000Y-80250000D02*
X115500000Y-80250000D01*
X116000000Y-80750000D02*
X116250000Y-80750000D01*
X131750000Y-91490000D02*
X131750000Y-91150000D01*
X126250000Y-80295000D02*
X126250000Y-81240000D01*
X119750000Y-109270000D02*
X120780000Y-109270000D01*
X119750000Y-108947059D02*
X120296460Y-108400599D01*
%TO.N,Net-(R6-Pad1)*%
X128250000Y-91850000D02*
X128250000Y-93009999D01*
X128250000Y-93009999D02*
X128009999Y-93250000D01*
%TO.N,QSPI_SS*%
X116925000Y-93509315D02*
X116925000Y-94900000D01*
X118100000Y-91000000D02*
X118100000Y-91890001D01*
X117990001Y-92915001D02*
X118075000Y-93000000D01*
X117434315Y-93000000D02*
X116925000Y-93509315D01*
X125500000Y-93250000D02*
X125458364Y-93208364D01*
X126990001Y-93250000D02*
X125500000Y-93250000D01*
X118100000Y-91890001D02*
X117990001Y-92000000D01*
X116925000Y-94900000D02*
X120150000Y-98125000D01*
X118075000Y-93000000D02*
X117434315Y-93000000D01*
X117990001Y-92000000D02*
X117990001Y-92915001D01*
%TO.N,XIN*%
X121683667Y-107348923D02*
X121650000Y-107348923D01*
X122051077Y-107750000D02*
X122084744Y-107750000D01*
X121400000Y-110350000D02*
X122400000Y-109350000D01*
X121650000Y-106696602D02*
X121650000Y-107348923D01*
X122400000Y-109350000D02*
X122400000Y-108065256D01*
X122150000Y-105000000D02*
X122150000Y-106196602D01*
X122051077Y-107716333D02*
X121683667Y-107348923D01*
X119870000Y-110350000D02*
X119750000Y-110230000D01*
X122150000Y-106196602D02*
X121650000Y-106696602D01*
X122051077Y-107750000D02*
X122051077Y-107716333D01*
X121400000Y-110350000D02*
X119870000Y-110350000D01*
X122084744Y-107750000D02*
X122400000Y-108065256D01*
%TO.N,Net-(J1-CC2)*%
X121250000Y-80295000D02*
X121250000Y-81740001D01*
X121250000Y-81740001D02*
X121500000Y-81990001D01*
%TO.N,Net-(C15-Pad2)*%
X125500000Y-109750000D02*
X125660589Y-109910589D01*
X123360624Y-108410624D02*
X123600000Y-108650000D01*
X123509999Y-107461249D02*
X123360624Y-107610624D01*
X123360624Y-107610624D02*
X123399375Y-107610624D01*
X124700000Y-109750000D02*
X125500000Y-109750000D01*
X123600000Y-108650000D02*
X124700000Y-109750000D01*
X123759999Y-108490001D02*
X123600000Y-108650000D01*
X123360624Y-107610624D02*
X123360624Y-108410624D01*
X123509999Y-107000000D02*
X123509999Y-107461249D01*
X124700000Y-109750000D02*
X124720000Y-109770000D01*
%TO.N,XOUT*%
X122550000Y-107059999D02*
X122550000Y-106940001D01*
X122550000Y-106800000D02*
X122490001Y-106859999D01*
X122550000Y-106940001D02*
X122550000Y-105000000D01*
X122490001Y-107000000D02*
X122550000Y-106940001D01*
X122550000Y-106800000D02*
X122639376Y-106889376D01*
X122490001Y-106859999D02*
X122490001Y-107250000D01*
%TO.N,SD_MOSI*%
X126721360Y-103762500D02*
X126187500Y-103762500D01*
X126932898Y-103974038D02*
X126721360Y-103762500D01*
X127571848Y-103974038D02*
X126932898Y-103974038D01*
%TO.N,VBUS*%
X125100000Y-79387590D02*
X125100000Y-76850000D01*
X124250000Y-76000000D02*
X126540000Y-73710000D01*
X125100000Y-76850000D02*
X124250000Y-76000000D01*
X134080000Y-73630000D02*
X135250000Y-73630000D01*
X125450001Y-79737591D02*
X125100000Y-79387590D01*
X120549999Y-81975001D02*
X120549999Y-80295000D01*
X134000000Y-73710000D02*
X134080000Y-73630000D01*
X119775000Y-82750000D02*
X120549999Y-81975001D01*
X120549999Y-79700001D02*
X124250000Y-76000000D01*
X125450001Y-80295000D02*
X125450001Y-79737591D01*
X120549999Y-80295000D02*
X120549999Y-79700001D01*
X126540000Y-73710000D02*
X134000000Y-73710000D01*
X119450000Y-83075000D02*
X119775000Y-82750000D01*
X119450000Y-84624999D02*
X119450000Y-83075000D01*
%TO.N,SD_CS*%
X125889999Y-105539999D02*
X125350000Y-105000000D01*
X125960001Y-105539999D02*
X125889999Y-105539999D01*
X126500000Y-105000000D02*
X125960001Y-105539999D01*
%TO.N,USB_D+*%
X122250000Y-81750000D02*
X122500000Y-82000000D01*
X123525000Y-93656802D02*
X125525000Y-91656802D01*
X123250000Y-95510000D02*
X123525000Y-95235000D01*
X125525000Y-83466605D02*
X123273020Y-81214625D01*
X123250000Y-80870000D02*
X123250000Y-80295000D01*
X122250000Y-80295000D02*
X122250000Y-81750000D01*
X123250000Y-95990001D02*
X123250000Y-95510000D01*
X122500000Y-82000000D02*
X123000000Y-82000000D01*
X123250000Y-81750000D02*
X123250000Y-80295000D01*
X123273020Y-81214625D02*
X123273020Y-80893020D01*
X125525000Y-91656802D02*
X125525000Y-83466605D01*
X123525000Y-95235000D02*
X123525000Y-93656802D01*
X123273020Y-80893020D02*
X123250000Y-80870000D01*
X123000000Y-82000000D02*
X123250000Y-81750000D01*
%TO.N,Net-(U1-USB_DP)*%
X123750000Y-97509999D02*
X123750000Y-98125000D01*
X123671812Y-97431811D02*
X123588913Y-97348912D01*
X123250000Y-97009999D02*
X123750000Y-97509999D01*
%TO.N,GPIO1*%
X118575000Y-99470993D02*
X118575000Y-99558860D01*
X118778640Y-99762500D02*
X118866507Y-99762500D01*
X118376249Y-99272242D02*
X118575000Y-99470993D01*
X118575000Y-99558860D02*
X118778640Y-99762500D01*
X118866507Y-99762500D02*
X119312500Y-99762500D01*
%TO.N,GPIO2*%
X118001213Y-99978891D02*
X118429345Y-99978891D01*
X118612955Y-100162500D02*
X119312500Y-100162500D01*
X118429345Y-99978891D02*
X118612955Y-100162500D01*
%TO.N,GPIO3*%
X117424256Y-100250463D02*
X117752684Y-100578891D01*
X118483609Y-100578891D02*
X118500000Y-100562500D01*
X117752684Y-100578891D02*
X118483609Y-100578891D01*
X117248716Y-100250463D02*
X117424256Y-100250463D01*
X118215742Y-100562500D02*
X119312500Y-100562500D01*
%TO.N,GPIO4*%
X118640511Y-101100629D02*
X118778640Y-100962500D01*
X118224865Y-101178891D02*
X118303127Y-101100629D01*
X118303127Y-101100629D02*
X118640511Y-101100629D01*
X118778640Y-100962500D02*
X119312500Y-100962500D01*
X118187859Y-101178891D02*
X118224865Y-101178891D01*
%TO.N,GPIO5*%
X120112500Y-101362500D02*
X119312500Y-101362500D01*
X120225000Y-101046066D02*
X120225000Y-101250000D01*
X120335532Y-100935534D02*
X120225000Y-101046066D01*
X120225000Y-101250000D02*
X120112500Y-101362500D01*
%TO.N,GPIO6*%
X120296077Y-101744609D02*
X120278185Y-101762500D01*
X120486627Y-101861902D02*
X120461897Y-101861902D01*
X120650001Y-101698528D02*
X120486627Y-101861902D01*
X120461897Y-101861902D02*
X120449995Y-101850000D01*
X120278185Y-101762500D02*
X119312500Y-101762500D01*
X120401469Y-101850000D02*
X120296077Y-101744609D01*
X120449995Y-101850000D02*
X120401469Y-101850000D01*
%TO.N,GPIO7*%
X119889234Y-102162500D02*
X119312500Y-102162500D01*
X120390493Y-102674738D02*
X120246675Y-102530920D01*
X120246675Y-102530920D02*
X120246675Y-102519941D01*
X120246675Y-102519941D02*
X119889234Y-102162500D01*
X120650000Y-102674738D02*
X120390493Y-102674738D01*
%TO.N,GPIO8*%
X116796366Y-102962500D02*
X113750000Y-99916134D01*
X113750000Y-99916134D02*
X113750000Y-99150000D01*
X119312500Y-102962500D02*
X116796366Y-102962500D01*
%TO.N,GPIO9*%
X117308963Y-103362500D02*
X119312500Y-103362500D01*
X117094152Y-103577311D02*
X117308963Y-103362500D01*
%TO.N,GPIO10*%
X117759652Y-104021281D02*
X118018433Y-103762500D01*
X118018433Y-103762500D02*
X119312500Y-103762500D01*
%TO.N,GPIO11*%
X118339185Y-104572774D02*
X118902226Y-104572774D01*
X118902226Y-104572774D02*
X119312500Y-104162500D01*
%TO.N,GPIO12*%
X119500000Y-105000000D02*
X120150000Y-105000000D01*
%TO.N,GPIO13*%
X119833252Y-105617112D02*
X119953640Y-105737500D01*
X119953640Y-105737500D02*
X120346360Y-105737500D01*
X118990907Y-105617112D02*
X119833252Y-105617112D01*
X120550000Y-105533860D02*
X120550000Y-105000000D01*
X120346360Y-105737500D02*
X120550000Y-105533860D01*
%TO.N,GPIO14*%
X120950000Y-105533860D02*
X120950000Y-105000000D01*
X116584315Y-118610000D02*
X117574314Y-118610000D01*
X117600000Y-106650000D02*
X117750000Y-106500000D01*
X117574314Y-118610000D02*
X117600000Y-118584314D01*
X117750000Y-106500000D02*
X117750000Y-106250000D01*
X120950000Y-105699545D02*
X120950000Y-105533860D01*
X115724314Y-119470000D02*
X116584315Y-118610000D01*
X117600000Y-118584314D02*
X117600000Y-106650000D01*
X120399545Y-106250000D02*
X120950000Y-105699545D01*
X117750000Y-106250000D02*
X120399545Y-106250000D01*
X113750000Y-119470000D02*
X115724314Y-119470000D01*
%TO.N,GPIO15*%
X118165686Y-106650000D02*
X120565231Y-106650000D01*
X120565231Y-106650000D02*
X121350000Y-105865230D01*
X116750000Y-119010000D02*
X117740000Y-119010000D01*
X117740000Y-119010000D02*
X118000000Y-118750000D01*
X118000000Y-118750000D02*
X118000000Y-106815686D01*
X118000000Y-106815686D02*
X118165686Y-106650000D01*
X121350000Y-105865230D02*
X121350000Y-105000000D01*
X113750000Y-122010000D02*
X116750000Y-119010000D01*
%TO.N,+1V1*%
X122410889Y-103798140D02*
X122410889Y-103919749D01*
X125750000Y-96730000D02*
X125070596Y-96730000D01*
X122550000Y-98125000D02*
X122550000Y-98658860D01*
X125250000Y-107000000D02*
X126500000Y-107000000D01*
X122550000Y-95180000D02*
X122550000Y-98125000D01*
X122750000Y-94980000D02*
X122550000Y-95180000D01*
X126500000Y-107000000D02*
X126520000Y-107000000D01*
X122410889Y-103919749D02*
X122753640Y-104262500D01*
X124550000Y-106245801D02*
X124885393Y-106581194D01*
X126500000Y-107000000D02*
X126660589Y-106839411D01*
X124550000Y-105750000D02*
X124550000Y-106245801D01*
X122550000Y-98658860D02*
X122155052Y-99053808D01*
X124885393Y-106635393D02*
X125250000Y-107000000D01*
X123350000Y-105750000D02*
X124550000Y-105750000D01*
X122493657Y-103715372D02*
X122410889Y-103798140D01*
X124550000Y-98932949D02*
X124550000Y-98125000D01*
X123350000Y-104466140D02*
X123350000Y-105000000D01*
X122753640Y-104262500D02*
X123146360Y-104262500D01*
X124885393Y-106581194D02*
X124885393Y-106635393D01*
X124420449Y-99062500D02*
X124550000Y-98932949D01*
X122155052Y-99053808D02*
X122002248Y-99053808D01*
X125070596Y-96730000D02*
X125056418Y-96744178D01*
X125750000Y-96730000D02*
X125750000Y-97009999D01*
X124019704Y-99062500D02*
X124420449Y-99062500D01*
X123350000Y-105000000D02*
X123350000Y-105750000D01*
X123146360Y-104262500D02*
X123350000Y-104466140D01*
%TO.N,SWCLK*%
X123204796Y-103662502D02*
X123199997Y-103667301D01*
X122480000Y-121770000D02*
X124750000Y-121770000D01*
X123417301Y-103667301D02*
X123491912Y-103741912D01*
X123199997Y-103667301D02*
X123417301Y-103667301D01*
X123491912Y-103741912D02*
X123491912Y-103911028D01*
X122250000Y-122000000D02*
X122480000Y-121770000D01*
X123750000Y-104169116D02*
X123750000Y-104466140D01*
X123750000Y-104466140D02*
X123750000Y-105000000D01*
X123491912Y-103911028D02*
X123750000Y-104169116D01*
X123291910Y-103662502D02*
X123204796Y-103662502D01*
%TO.N,SWDIO*%
X124150000Y-103900000D02*
X124150000Y-105000000D01*
X124091912Y-103841912D02*
X124150000Y-103900000D01*
X124091912Y-103662499D02*
X124091912Y-103841912D01*
%TO.N,RUN*%
X124850000Y-103750000D02*
X124550000Y-104050000D01*
X125207202Y-103750000D02*
X124850000Y-103750000D01*
X125247140Y-103710062D02*
X125207202Y-103750000D01*
X124550000Y-104050000D02*
X124550000Y-105000000D01*
%TO.N,SD_MISO*%
X119500000Y-116490001D02*
X119500000Y-116000000D01*
X125150000Y-105997272D02*
X125061500Y-105997272D01*
X119500000Y-116000000D02*
X119750000Y-115750000D01*
X125061500Y-105997272D02*
X124950000Y-105885772D01*
X124950000Y-105885772D02*
X124950000Y-105000000D01*
%TO.N,SD_SCK*%
X126913686Y-104374038D02*
X127242950Y-104703302D01*
X121500000Y-112250000D02*
X120833866Y-112250000D01*
X126187500Y-104162500D02*
X126399038Y-104374038D01*
X120833866Y-112250000D02*
X119140000Y-110556134D01*
X119140000Y-108708530D02*
X120299265Y-107549265D01*
X126399038Y-104374038D02*
X126913686Y-104374038D01*
X119140000Y-110556134D02*
X119140000Y-108708530D01*
%TO.N,GPIO20*%
X127000000Y-103362500D02*
X126187500Y-103362500D01*
X127011538Y-103374038D02*
X127000000Y-103362500D01*
X128089725Y-103350000D02*
X128065687Y-103374038D01*
X128065687Y-103374038D02*
X127011538Y-103374038D01*
%TO.N,GPIO21*%
X127524038Y-102774038D02*
X127335576Y-102962500D01*
X127335576Y-102962500D02*
X126187500Y-102962500D01*
%TO.N,GPIO22*%
X127250000Y-101350000D02*
X127250000Y-101633860D01*
X127250000Y-101633860D02*
X126721360Y-102162500D01*
X126721360Y-102162500D02*
X126187500Y-102162500D01*
%TO.N,GPIO26_ADC0*%
X126721360Y-100562500D02*
X126187500Y-100562500D01*
X128499999Y-100350000D02*
X128059173Y-100350000D01*
X127809173Y-100600000D02*
X126758860Y-100600000D01*
X128059173Y-100350000D02*
X127809173Y-100600000D01*
X126758860Y-100600000D02*
X126721360Y-100562500D01*
%TO.N,GPIO27_ADC1*%
X127087500Y-100162500D02*
X126187500Y-100162500D01*
X127124999Y-100125001D02*
X127087500Y-100162500D01*
X127124999Y-99759971D02*
X127124999Y-100125001D01*
%TO.N,Net-(U1-USB_DM)*%
X124150000Y-97109999D02*
X124150000Y-98125000D01*
X124250000Y-97009999D02*
X124150000Y-97109999D01*
%TO.N,QSPI_SD3*%
X122050000Y-94905072D02*
X122050000Y-96418630D01*
X121550000Y-93500000D02*
X121900000Y-93850001D01*
X122150000Y-96518632D02*
X122150000Y-97425455D01*
X120925000Y-93500000D02*
X121550000Y-93500000D01*
X121900000Y-93944928D02*
X122075000Y-94119929D01*
X122150000Y-97425455D02*
X122150000Y-98125000D01*
X121900000Y-93850001D02*
X121900000Y-93944928D01*
X122075000Y-94119929D02*
X122075000Y-94880072D01*
X122050000Y-96418630D02*
X122150000Y-96518632D01*
X122075000Y-94880072D02*
X122050000Y-94905072D01*
%TO.N,QSPI_SCLK*%
X121500000Y-94110614D02*
X121675000Y-94285614D01*
X120925000Y-94000000D02*
X121484314Y-94000000D01*
X121750000Y-97591140D02*
X121750000Y-98125000D01*
X121500000Y-94015686D02*
X121500000Y-94110614D01*
X121650000Y-96584314D02*
X121750000Y-96684315D01*
X121675000Y-94285614D02*
X121675000Y-94714386D01*
X121650000Y-94739386D02*
X121650000Y-96584314D01*
X121675000Y-94714386D02*
X121650000Y-94739386D01*
X121750000Y-96684315D02*
X121750000Y-97591140D01*
X121484314Y-94000000D02*
X121500000Y-94015686D01*
%TO.N,QSPI_SD0*%
X121250000Y-94825000D02*
X121250000Y-96750000D01*
X121250000Y-96750000D02*
X121350000Y-96850000D01*
X121350000Y-96850000D02*
X121350000Y-98125000D01*
X120925000Y-94500000D02*
X121250000Y-94825000D01*
%TO.N,QSPI_SD2*%
X119100000Y-94560614D02*
X119100000Y-95575455D01*
X118075000Y-94000000D02*
X118539386Y-94000000D01*
X120950000Y-97425455D02*
X120950000Y-98125000D01*
X119100000Y-95575455D02*
X120950000Y-97425455D01*
X118539386Y-94000000D02*
X119100000Y-94560614D01*
%TO.N,QSPI_SD1*%
X120346360Y-97387500D02*
X120550000Y-97591140D01*
X119978186Y-97387500D02*
X120346360Y-97387500D01*
X120550000Y-97591140D02*
X120550000Y-98125000D01*
X117325000Y-93675001D02*
X117325000Y-94734314D01*
X117325000Y-94734314D02*
X119978186Y-97387500D01*
X117500001Y-93500000D02*
X117325000Y-93675001D01*
X118075000Y-93500000D02*
X117500001Y-93500000D01*
%TO.N,USB_D-*%
X123800000Y-80970000D02*
X123725000Y-80895000D01*
X124017590Y-81319999D02*
X123800000Y-81102409D01*
X123700001Y-80344999D02*
X123750000Y-80295000D01*
X125975000Y-91843198D02*
X125975000Y-83145000D01*
X123800000Y-81102409D02*
X123800000Y-80970000D01*
X122750000Y-80295000D02*
X122750000Y-79000000D01*
X125975000Y-83145000D02*
X124149999Y-81319999D01*
X123000000Y-78750000D02*
X123500000Y-78750000D01*
X124149999Y-81319999D02*
X124017590Y-81319999D01*
X122750000Y-79000000D02*
X123000000Y-78750000D01*
X123750000Y-79000000D02*
X123750000Y-80295000D01*
X123500000Y-78750000D02*
X123750000Y-79000000D01*
X124250000Y-95990001D02*
X124250000Y-95510000D01*
X124250000Y-95510000D02*
X123975000Y-95235000D01*
X123725000Y-80895000D02*
X123750000Y-80870000D01*
X123975000Y-93843198D02*
X125975000Y-91843198D01*
X123975000Y-95235000D02*
X123975000Y-93843198D01*
%TO.N,Net-(J1-CC1)*%
X124250000Y-80294999D02*
X124250000Y-79000000D01*
X124250000Y-79000000D02*
X124500000Y-78750000D01*
X125214265Y-81535735D02*
X125525735Y-81535735D01*
X125525735Y-81535735D02*
X125990000Y-82000000D01*
%TD*%
%TA.AperFunction,Conductor*%
%TO.N,GND*%
G36*
X118805703Y-118034882D02*
G01*
X118812181Y-118040914D01*
X118922396Y-118151129D01*
X118922400Y-118151132D01*
X118922402Y-118151134D01*
X119060607Y-118232868D01*
X119089575Y-118241284D01*
X119214791Y-118277663D01*
X119214794Y-118277663D01*
X119214796Y-118277664D01*
X119250819Y-118280499D01*
X119749180Y-118280498D01*
X119785204Y-118277664D01*
X119939393Y-118232868D01*
X120077598Y-118151134D01*
X120077603Y-118151129D01*
X120081915Y-118146818D01*
X120108842Y-118132114D01*
X120134661Y-118115522D01*
X120140861Y-118114630D01*
X120143238Y-118113333D01*
X120169596Y-118110499D01*
X120209902Y-118110499D01*
X120276941Y-118130184D01*
X120297582Y-118146817D01*
X120756284Y-118605520D01*
X120756286Y-118605521D01*
X120756290Y-118605524D01*
X120819788Y-118642184D01*
X120893216Y-118684577D01*
X121045943Y-118725501D01*
X121045945Y-118725501D01*
X121211654Y-118725501D01*
X121211670Y-118725500D01*
X121614363Y-118725500D01*
X121676362Y-118742112D01*
X121793216Y-118809577D01*
X121945943Y-118850501D01*
X121945945Y-118850501D01*
X122111654Y-118850501D01*
X122111670Y-118850500D01*
X122625500Y-118850500D01*
X122692539Y-118870185D01*
X122738294Y-118922989D01*
X122749500Y-118974500D01*
X122749501Y-119551000D01*
X122729817Y-119618039D01*
X122677013Y-119663794D01*
X122625501Y-119675000D01*
X122000000Y-119675000D01*
X122000000Y-120250000D01*
X123750000Y-120250000D01*
X123750000Y-120179499D01*
X123769685Y-120112460D01*
X123822489Y-120066705D01*
X123873998Y-120055499D01*
X124132085Y-120055499D01*
X124199124Y-120075184D01*
X124244879Y-120127988D01*
X124254823Y-120197146D01*
X124246647Y-120226947D01*
X124237197Y-120249760D01*
X124230263Y-120266502D01*
X124230261Y-120266510D01*
X124199500Y-120421153D01*
X124199500Y-120578846D01*
X124230261Y-120733489D01*
X124230264Y-120733501D01*
X124246645Y-120773048D01*
X124254114Y-120842517D01*
X124222838Y-120904996D01*
X124162749Y-120940648D01*
X124132084Y-120944500D01*
X123874000Y-120944500D01*
X123806961Y-120924815D01*
X123761206Y-120872011D01*
X123750000Y-120820500D01*
X123750000Y-120750000D01*
X119750000Y-120750000D01*
X119750000Y-120872844D01*
X119756401Y-120932372D01*
X119756403Y-120932379D01*
X119806645Y-121067086D01*
X119806649Y-121067093D01*
X119892809Y-121182187D01*
X119892812Y-121182190D01*
X120007906Y-121268350D01*
X120007913Y-121268354D01*
X120142620Y-121318596D01*
X120142627Y-121318598D01*
X120202155Y-121324999D01*
X120202172Y-121325000D01*
X121506279Y-121325000D01*
X121573318Y-121344685D01*
X121619073Y-121397489D01*
X121629017Y-121466647D01*
X121609381Y-121517891D01*
X121540609Y-121620814D01*
X121540602Y-121620827D01*
X121480264Y-121766498D01*
X121480261Y-121766510D01*
X121449500Y-121921153D01*
X121449500Y-122078846D01*
X121480261Y-122233489D01*
X121480264Y-122233501D01*
X121540602Y-122379172D01*
X121540609Y-122379185D01*
X121628210Y-122510288D01*
X121628213Y-122510292D01*
X121739707Y-122621786D01*
X121739711Y-122621789D01*
X121870814Y-122709390D01*
X121870827Y-122709397D01*
X121995262Y-122760939D01*
X122049666Y-122804779D01*
X122071731Y-122871074D01*
X122054452Y-122938773D01*
X122003315Y-122986384D01*
X121947810Y-122999500D01*
X114943760Y-122999500D01*
X114876721Y-122979815D01*
X114830966Y-122927011D01*
X114821022Y-122857853D01*
X114843442Y-122802615D01*
X114870605Y-122765226D01*
X114905051Y-122717816D01*
X115001557Y-122528412D01*
X115067246Y-122326243D01*
X115100500Y-122116287D01*
X115100500Y-121903713D01*
X115067246Y-121693757D01*
X115053506Y-121651473D01*
X115051512Y-121581635D01*
X115083755Y-121525478D01*
X116482080Y-120127155D01*
X119750000Y-120127155D01*
X119750000Y-120250000D01*
X121500000Y-120250000D01*
X121500000Y-119675000D01*
X120202155Y-119675000D01*
X120142627Y-119681401D01*
X120142620Y-119681403D01*
X120007913Y-119731645D01*
X120007906Y-119731649D01*
X119892812Y-119817809D01*
X119892809Y-119817812D01*
X119806649Y-119932906D01*
X119806645Y-119932913D01*
X119756403Y-120067620D01*
X119756401Y-120067627D01*
X119750000Y-120127155D01*
X116482080Y-120127155D01*
X116962417Y-119646819D01*
X117023740Y-119613334D01*
X117050098Y-119610500D01*
X117653331Y-119610500D01*
X117653347Y-119610501D01*
X117660943Y-119610501D01*
X117819054Y-119610501D01*
X117819057Y-119610501D01*
X117971785Y-119569577D01*
X118058555Y-119519480D01*
X118108716Y-119490520D01*
X118220520Y-119378716D01*
X118220520Y-119378715D01*
X118237948Y-119361287D01*
X118237953Y-119361280D01*
X118480520Y-119118716D01*
X118559577Y-118981784D01*
X118600501Y-118829057D01*
X118600501Y-118670942D01*
X118600501Y-118663347D01*
X118600500Y-118663329D01*
X118600500Y-118128595D01*
X118620185Y-118061556D01*
X118672989Y-118015801D01*
X118742147Y-118005857D01*
X118805703Y-118034882D01*
G37*
%TD.AperFunction*%
%TA.AperFunction,Conductor*%
G36*
X133592540Y-74330185D02*
G01*
X133638295Y-74382989D01*
X133649501Y-74434500D01*
X133649501Y-74527876D01*
X133655908Y-74587483D01*
X133706202Y-74722328D01*
X133706206Y-74722335D01*
X133792452Y-74837544D01*
X133792455Y-74837547D01*
X133907664Y-74923793D01*
X133907671Y-74923797D01*
X134039082Y-74972810D01*
X134095016Y-75014681D01*
X134119433Y-75080145D01*
X134104582Y-75148418D01*
X134083431Y-75176673D01*
X133969889Y-75290215D01*
X133844951Y-75462179D01*
X133748444Y-75651585D01*
X133682753Y-75853760D01*
X133666455Y-75956665D01*
X133649500Y-76063713D01*
X133649500Y-76276287D01*
X133659534Y-76339644D01*
X133681969Y-76481290D01*
X133682754Y-76486243D01*
X133725634Y-76618214D01*
X133748444Y-76688414D01*
X133844951Y-76877820D01*
X133969890Y-77049786D01*
X134120213Y-77200109D01*
X134292179Y-77325048D01*
X134292181Y-77325049D01*
X134292184Y-77325051D01*
X134301493Y-77329794D01*
X134352290Y-77377766D01*
X134369087Y-77445587D01*
X134346552Y-77511722D01*
X134301505Y-77550760D01*
X134292446Y-77555376D01*
X134292440Y-77555380D01*
X134238282Y-77594727D01*
X134238282Y-77594728D01*
X134870591Y-78227037D01*
X134807007Y-78244075D01*
X134692993Y-78309901D01*
X134599901Y-78402993D01*
X134534075Y-78517007D01*
X134517037Y-78580591D01*
X133884728Y-77948282D01*
X133884727Y-77948282D01*
X133845380Y-78002439D01*
X133748904Y-78191782D01*
X133683242Y-78393869D01*
X133683242Y-78393872D01*
X133650000Y-78603753D01*
X133650000Y-78816246D01*
X133683242Y-79026127D01*
X133683242Y-79026130D01*
X133748904Y-79228217D01*
X133845375Y-79417550D01*
X133884728Y-79471716D01*
X134517037Y-78839408D01*
X134534075Y-78902993D01*
X134599901Y-79017007D01*
X134692993Y-79110099D01*
X134807007Y-79175925D01*
X134870589Y-79192962D01*
X134238282Y-79825269D01*
X134238282Y-79825270D01*
X134292452Y-79864626D01*
X134292451Y-79864626D01*
X134301495Y-79869234D01*
X134352292Y-79917208D01*
X134369087Y-79985029D01*
X134346550Y-80051164D01*
X134301499Y-80090202D01*
X134292182Y-80094949D01*
X134120213Y-80219890D01*
X133969890Y-80370213D01*
X133844951Y-80542179D01*
X133748444Y-80731585D01*
X133682753Y-80933760D01*
X133649500Y-81143713D01*
X133649500Y-81356286D01*
X133681893Y-81560811D01*
X133682754Y-81566243D01*
X133731913Y-81717539D01*
X133748444Y-81768414D01*
X133844951Y-81957820D01*
X133969890Y-82129786D01*
X134120213Y-82280109D01*
X134292182Y-82405050D01*
X134300946Y-82409516D01*
X134351742Y-82457491D01*
X134368536Y-82525312D01*
X134345998Y-82591447D01*
X134300946Y-82630484D01*
X134292182Y-82634949D01*
X134120213Y-82759890D01*
X133969890Y-82910213D01*
X133844951Y-83082179D01*
X133748444Y-83271585D01*
X133748443Y-83271587D01*
X133748443Y-83271588D01*
X133715598Y-83372672D01*
X133682753Y-83473760D01*
X133652938Y-83662004D01*
X133649500Y-83683713D01*
X133649500Y-83896287D01*
X133682754Y-84106243D01*
X133721743Y-84226239D01*
X133748444Y-84308414D01*
X133844951Y-84497820D01*
X133969890Y-84669786D01*
X134120213Y-84820109D01*
X134292182Y-84945050D01*
X134300946Y-84949516D01*
X134351742Y-84997491D01*
X134368536Y-85065312D01*
X134345998Y-85131447D01*
X134300946Y-85170484D01*
X134292182Y-85174949D01*
X134120213Y-85299890D01*
X133969890Y-85450213D01*
X133844951Y-85622179D01*
X133748444Y-85811585D01*
X133682753Y-86013760D01*
X133649500Y-86223713D01*
X133649500Y-86436286D01*
X133672078Y-86578842D01*
X133682754Y-86646243D01*
X133734981Y-86806981D01*
X133748444Y-86848414D01*
X133844951Y-87037820D01*
X133969890Y-87209786D01*
X134120213Y-87360109D01*
X134292182Y-87485050D01*
X134300946Y-87489516D01*
X134351742Y-87537491D01*
X134368536Y-87605312D01*
X134345998Y-87671447D01*
X134300946Y-87710484D01*
X134292182Y-87714949D01*
X134120213Y-87839890D01*
X133969890Y-87990213D01*
X133844951Y-88162179D01*
X133748444Y-88351585D01*
X133682753Y-88553760D01*
X133649500Y-88763713D01*
X133649500Y-88976286D01*
X133678914Y-89162003D01*
X133682754Y-89186243D01*
X133721743Y-89306239D01*
X133748444Y-89388414D01*
X133844951Y-89577820D01*
X133969890Y-89749786D01*
X134120213Y-89900109D01*
X134292179Y-90025048D01*
X134292181Y-90025049D01*
X134292184Y-90025051D01*
X134301493Y-90029794D01*
X134352290Y-90077766D01*
X134369087Y-90145587D01*
X134346552Y-90211722D01*
X134301505Y-90250760D01*
X134292446Y-90255376D01*
X134292440Y-90255380D01*
X134238282Y-90294727D01*
X134238282Y-90294728D01*
X134870591Y-90927037D01*
X134807007Y-90944075D01*
X134692993Y-91009901D01*
X134599901Y-91102993D01*
X134534075Y-91217007D01*
X134517037Y-91280591D01*
X133884728Y-90648282D01*
X133884727Y-90648282D01*
X133845380Y-90702439D01*
X133748904Y-90891782D01*
X133683242Y-91093869D01*
X133683242Y-91093872D01*
X133650000Y-91303753D01*
X133650000Y-91516246D01*
X133683242Y-91726127D01*
X133683242Y-91726130D01*
X133748904Y-91928217D01*
X133845375Y-92117550D01*
X133884728Y-92171716D01*
X134517037Y-91539408D01*
X134534075Y-91602993D01*
X134599901Y-91717007D01*
X134692993Y-91810099D01*
X134807007Y-91875925D01*
X134870589Y-91892962D01*
X134238282Y-92525269D01*
X134238282Y-92525270D01*
X134292452Y-92564626D01*
X134292451Y-92564626D01*
X134301495Y-92569234D01*
X134352292Y-92617208D01*
X134369087Y-92685029D01*
X134346550Y-92751164D01*
X134301499Y-92790202D01*
X134292182Y-92794949D01*
X134120213Y-92919890D01*
X133969890Y-93070213D01*
X133844951Y-93242179D01*
X133748444Y-93431585D01*
X133682753Y-93633760D01*
X133652583Y-93824247D01*
X133649500Y-93843713D01*
X133649500Y-94056287D01*
X133656329Y-94099403D01*
X133678029Y-94236415D01*
X133682754Y-94266243D01*
X133721743Y-94386239D01*
X133748444Y-94468414D01*
X133844951Y-94657820D01*
X133969890Y-94829786D01*
X134120213Y-94980109D01*
X134292182Y-95105050D01*
X134300946Y-95109516D01*
X134351742Y-95157491D01*
X134368536Y-95225312D01*
X134345998Y-95291447D01*
X134300946Y-95330484D01*
X134292182Y-95334949D01*
X134120213Y-95459890D01*
X133969890Y-95610213D01*
X133844951Y-95782179D01*
X133748444Y-95971585D01*
X133682753Y-96173760D01*
X133656170Y-96341600D01*
X133649500Y-96383713D01*
X133649500Y-96596287D01*
X133682754Y-96806243D01*
X133740389Y-96983625D01*
X133748444Y-97008414D01*
X133844951Y-97197820D01*
X133969890Y-97369786D01*
X134120213Y-97520109D01*
X134292182Y-97645050D01*
X134300946Y-97649516D01*
X134351742Y-97697491D01*
X134368536Y-97765312D01*
X134345998Y-97831447D01*
X134300946Y-97870484D01*
X134292182Y-97874949D01*
X134120213Y-97999890D01*
X133969890Y-98150213D01*
X133844951Y-98322179D01*
X133748444Y-98511585D01*
X133682753Y-98713760D01*
X133649500Y-98923713D01*
X133649500Y-99136286D01*
X133681121Y-99335936D01*
X133682754Y-99346243D01*
X133726383Y-99480520D01*
X133748444Y-99548414D01*
X133844951Y-99737820D01*
X133969890Y-99909786D01*
X134120213Y-100060109D01*
X134292182Y-100185050D01*
X134300946Y-100189516D01*
X134351742Y-100237491D01*
X134368536Y-100305312D01*
X134345998Y-100371447D01*
X134300946Y-100410484D01*
X134292182Y-100414949D01*
X134120213Y-100539890D01*
X133969890Y-100690213D01*
X133844951Y-100862179D01*
X133748444Y-101051585D01*
X133682753Y-101253760D01*
X133649500Y-101463713D01*
X133649500Y-101676286D01*
X133681131Y-101876000D01*
X133682754Y-101886243D01*
X133710453Y-101971492D01*
X133748444Y-102088414D01*
X133844951Y-102277820D01*
X133969890Y-102449786D01*
X134120213Y-102600109D01*
X134292179Y-102725048D01*
X134292181Y-102725049D01*
X134292184Y-102725051D01*
X134301493Y-102729794D01*
X134352290Y-102777766D01*
X134369087Y-102845587D01*
X134346552Y-102911722D01*
X134301505Y-102950760D01*
X134292446Y-102955376D01*
X134292440Y-102955380D01*
X134238282Y-102994727D01*
X134238282Y-102994728D01*
X134870591Y-103627037D01*
X134807007Y-103644075D01*
X134692993Y-103709901D01*
X134599901Y-103802993D01*
X134534075Y-103917007D01*
X134517037Y-103980591D01*
X133884728Y-103348282D01*
X133884727Y-103348282D01*
X133845380Y-103402439D01*
X133748904Y-103591782D01*
X133683242Y-103793869D01*
X133683242Y-103793872D01*
X133650000Y-104003753D01*
X133650000Y-104216246D01*
X133683242Y-104426127D01*
X133683242Y-104426130D01*
X133748904Y-104628217D01*
X133845375Y-104817550D01*
X133884728Y-104871716D01*
X134517037Y-104239408D01*
X134534075Y-104302993D01*
X134599901Y-104417007D01*
X134692993Y-104510099D01*
X134807007Y-104575925D01*
X134870589Y-104592962D01*
X134238282Y-105225269D01*
X134238282Y-105225270D01*
X134292452Y-105264626D01*
X134292451Y-105264626D01*
X134301495Y-105269234D01*
X134352292Y-105317208D01*
X134369087Y-105385029D01*
X134346550Y-105451164D01*
X134301499Y-105490202D01*
X134292182Y-105494949D01*
X134120213Y-105619890D01*
X133969890Y-105770213D01*
X133844951Y-105942179D01*
X133748444Y-106131585D01*
X133682753Y-106333760D01*
X133659408Y-106481155D01*
X133649500Y-106543713D01*
X133649500Y-106756287D01*
X133682754Y-106966243D01*
X133726728Y-107101581D01*
X133748444Y-107168414D01*
X133844951Y-107357820D01*
X133969890Y-107529786D01*
X134120213Y-107680109D01*
X134292182Y-107805050D01*
X134300946Y-107809516D01*
X134351742Y-107857491D01*
X134368536Y-107925312D01*
X134345998Y-107991447D01*
X134300946Y-108030484D01*
X134292182Y-108034949D01*
X134120213Y-108159890D01*
X133969890Y-108310213D01*
X133844951Y-108482179D01*
X133748444Y-108671585D01*
X133682753Y-108873760D01*
X133649500Y-109083713D01*
X133649500Y-109296286D01*
X133678948Y-109482217D01*
X133682754Y-109506243D01*
X133748278Y-109707905D01*
X133748444Y-109708414D01*
X133844951Y-109897820D01*
X133969890Y-110069786D01*
X134120213Y-110220109D01*
X134292182Y-110345050D01*
X134300946Y-110349516D01*
X134351742Y-110397491D01*
X134368536Y-110465312D01*
X134345998Y-110531447D01*
X134300946Y-110570484D01*
X134292182Y-110574949D01*
X134120213Y-110699890D01*
X133969890Y-110850213D01*
X133844951Y-111022179D01*
X133748444Y-111211585D01*
X133682753Y-111413760D01*
X133649500Y-111623713D01*
X133649500Y-111836286D01*
X133680942Y-112034807D01*
X133682754Y-112046243D01*
X133721743Y-112166239D01*
X133748444Y-112248414D01*
X133844951Y-112437820D01*
X133969890Y-112609786D01*
X134120213Y-112760109D01*
X134292182Y-112885050D01*
X134300946Y-112889516D01*
X134351742Y-112937491D01*
X134368536Y-113005312D01*
X134345998Y-113071447D01*
X134300946Y-113110484D01*
X134292182Y-113114949D01*
X134120213Y-113239890D01*
X133969890Y-113390213D01*
X133844951Y-113562179D01*
X133748444Y-113751585D01*
X133682753Y-113953760D01*
X133649500Y-114163713D01*
X133649500Y-114376286D01*
X133675946Y-114543264D01*
X133682754Y-114586243D01*
X133726052Y-114719501D01*
X133748444Y-114788414D01*
X133844951Y-114977820D01*
X133969890Y-115149786D01*
X134120213Y-115300109D01*
X134292179Y-115425048D01*
X134292181Y-115425049D01*
X134292184Y-115425051D01*
X134301493Y-115429794D01*
X134352290Y-115477766D01*
X134369087Y-115545587D01*
X134346552Y-115611722D01*
X134301505Y-115650760D01*
X134292446Y-115655376D01*
X134292440Y-115655380D01*
X134238282Y-115694727D01*
X134238282Y-115694728D01*
X134870591Y-116327037D01*
X134807007Y-116344075D01*
X134692993Y-116409901D01*
X134599901Y-116502993D01*
X134534075Y-116617007D01*
X134517037Y-116680591D01*
X133884728Y-116048282D01*
X133884727Y-116048282D01*
X133845380Y-116102439D01*
X133748904Y-116291782D01*
X133683242Y-116493869D01*
X133683242Y-116493872D01*
X133650000Y-116703753D01*
X133650000Y-116916246D01*
X133683242Y-117126127D01*
X133683242Y-117126130D01*
X133748904Y-117328217D01*
X133845375Y-117517550D01*
X133884728Y-117571716D01*
X134517037Y-116939408D01*
X134534075Y-117002993D01*
X134599901Y-117117007D01*
X134692993Y-117210099D01*
X134807007Y-117275925D01*
X134870589Y-117292962D01*
X134238282Y-117925269D01*
X134238282Y-117925270D01*
X134292452Y-117964626D01*
X134292451Y-117964626D01*
X134301495Y-117969234D01*
X134352292Y-118017208D01*
X134369087Y-118085029D01*
X134346550Y-118151164D01*
X134301499Y-118190202D01*
X134292182Y-118194949D01*
X134120213Y-118319890D01*
X133969890Y-118470213D01*
X133844951Y-118642179D01*
X133748444Y-118831585D01*
X133682753Y-119033760D01*
X133649500Y-119243713D01*
X133649500Y-119456286D01*
X133679677Y-119646819D01*
X133682754Y-119666243D01*
X133725347Y-119797331D01*
X133748444Y-119868414D01*
X133844951Y-120057820D01*
X133969890Y-120229786D01*
X134120213Y-120380109D01*
X134292182Y-120505050D01*
X134300946Y-120509516D01*
X134351742Y-120557491D01*
X134368536Y-120625312D01*
X134345998Y-120691447D01*
X134300946Y-120730484D01*
X134292182Y-120734949D01*
X134120213Y-120859890D01*
X133969890Y-121010213D01*
X133844951Y-121182179D01*
X133748444Y-121371585D01*
X133748443Y-121371587D01*
X133748443Y-121371588D01*
X133743299Y-121387419D01*
X133682753Y-121573760D01*
X133649500Y-121783713D01*
X133649500Y-121996286D01*
X133672715Y-122142864D01*
X133682754Y-122206243D01*
X133738942Y-122379172D01*
X133748444Y-122408414D01*
X133844951Y-122597820D01*
X133969890Y-122769786D01*
X133987923Y-122787819D01*
X134021408Y-122849142D01*
X134016424Y-122918834D01*
X133974552Y-122974767D01*
X133909088Y-122999184D01*
X133900242Y-122999500D01*
X122552190Y-122999500D01*
X122485151Y-122979815D01*
X122439396Y-122927011D01*
X122429452Y-122857853D01*
X122458477Y-122794297D01*
X122504738Y-122760939D01*
X122629172Y-122709397D01*
X122629172Y-122709396D01*
X122629179Y-122709394D01*
X122760289Y-122621789D01*
X122837682Y-122544395D01*
X122899002Y-122510911D01*
X122968694Y-122515895D01*
X122999674Y-122532811D01*
X123007668Y-122538795D01*
X123007671Y-122538797D01*
X123142517Y-122589091D01*
X123142516Y-122589091D01*
X123149444Y-122589835D01*
X123202127Y-122595500D01*
X126297872Y-122595499D01*
X126357483Y-122589091D01*
X126492331Y-122538796D01*
X126607546Y-122452546D01*
X126693796Y-122337331D01*
X126744091Y-122202483D01*
X126750500Y-122142873D01*
X126750499Y-121397128D01*
X126744091Y-121337517D01*
X126739422Y-121325000D01*
X126693797Y-121202671D01*
X126693793Y-121202664D01*
X126607547Y-121087455D01*
X126607544Y-121087452D01*
X126492335Y-121001206D01*
X126492328Y-121001202D01*
X126357482Y-120950908D01*
X126357483Y-120950908D01*
X126297883Y-120944501D01*
X126297881Y-120944500D01*
X126297873Y-120944500D01*
X126297865Y-120944500D01*
X125867916Y-120944500D01*
X125800877Y-120924815D01*
X125755122Y-120872011D01*
X125745178Y-120802853D01*
X125747592Y-120790530D01*
X125749822Y-120781575D01*
X125769737Y-120733497D01*
X125800500Y-120578842D01*
X125800500Y-120578117D01*
X125801931Y-120572372D01*
X125818155Y-120544662D01*
X125833023Y-120516240D01*
X125834510Y-120514724D01*
X125980520Y-120368716D01*
X126059577Y-120231784D01*
X126082187Y-120147402D01*
X126096680Y-120123625D01*
X126108248Y-120098296D01*
X126114613Y-120094205D01*
X126118551Y-120087745D01*
X126143598Y-120075577D01*
X126167026Y-120060522D01*
X126177773Y-120058976D01*
X126181398Y-120057216D01*
X126201961Y-120055499D01*
X126300374Y-120055499D01*
X126367413Y-120075184D01*
X126407761Y-120117500D01*
X126469475Y-120224393D01*
X126469481Y-120224401D01*
X126588349Y-120343269D01*
X126588355Y-120343274D01*
X127553442Y-121308361D01*
X127690373Y-121387419D01*
X127843101Y-121428343D01*
X127843104Y-121428343D01*
X128001212Y-121428343D01*
X128001215Y-121428343D01*
X128153943Y-121387419D01*
X128290874Y-121308361D01*
X128402677Y-121196558D01*
X130858506Y-118740727D01*
X130858511Y-118740724D01*
X130868714Y-118730520D01*
X130868716Y-118730520D01*
X130980520Y-118618716D01*
X131046025Y-118505257D01*
X131059577Y-118481785D01*
X131100500Y-118329057D01*
X131100500Y-118170943D01*
X131100500Y-117920943D01*
X131100500Y-108519472D01*
X131059577Y-108366745D01*
X131042870Y-108337808D01*
X131026398Y-108269908D01*
X131049251Y-108203882D01*
X131062564Y-108188141D01*
X131230520Y-108020187D01*
X131309577Y-107883255D01*
X131350501Y-107730528D01*
X131350501Y-107572413D01*
X131350501Y-107564818D01*
X131350500Y-107564800D01*
X131350500Y-99703347D01*
X131350500Y-99703345D01*
X131345168Y-99683443D01*
X131309577Y-99550617D01*
X131269106Y-99480520D01*
X131269106Y-99480519D01*
X131230522Y-99413689D01*
X131230521Y-99413688D01*
X131230520Y-99413686D01*
X131118716Y-99301882D01*
X131118715Y-99301881D01*
X131114385Y-99297551D01*
X131114374Y-99297541D01*
X129413115Y-97596282D01*
X129379630Y-97534959D01*
X129384614Y-97465267D01*
X129392134Y-97448863D01*
X129408400Y-97419274D01*
X129408402Y-97419270D01*
X129448613Y-97262658D01*
X129448614Y-97262653D01*
X129448614Y-97100955D01*
X129448613Y-97100947D01*
X129408402Y-96944336D01*
X129408399Y-96944326D01*
X129330503Y-96802633D01*
X129316874Y-96786676D01*
X128900963Y-97202591D01*
X128874037Y-97217293D01*
X128848218Y-97233887D01*
X128842015Y-97234778D01*
X128839640Y-97236076D01*
X128813283Y-97238910D01*
X128727952Y-97238910D01*
X128727948Y-97238910D01*
X128720341Y-97238911D01*
X128720340Y-97238910D01*
X128720340Y-97238911D01*
X128719095Y-97238911D01*
X128652056Y-97219226D01*
X128631414Y-97202592D01*
X128546861Y-97118039D01*
X128513376Y-97056716D01*
X128518190Y-96989394D01*
X128517968Y-96989327D01*
X128518265Y-96988346D01*
X128518360Y-96987024D01*
X128519697Y-96983625D01*
X128519733Y-96983506D01*
X128519737Y-96983497D01*
X128538915Y-96887079D01*
X128571298Y-96825174D01*
X128572850Y-96823594D01*
X128963320Y-96433124D01*
X128963320Y-96433122D01*
X128947372Y-96419500D01*
X128947368Y-96419498D01*
X128805673Y-96341600D01*
X128805663Y-96341597D01*
X128649052Y-96301386D01*
X128479546Y-96301386D01*
X128479546Y-96297988D01*
X128425772Y-96289269D01*
X128376196Y-96246306D01*
X128371790Y-96239712D01*
X128371786Y-96239707D01*
X128260292Y-96128213D01*
X128260288Y-96128210D01*
X128129185Y-96040609D01*
X128129172Y-96040602D01*
X127983501Y-95980264D01*
X127983489Y-95980261D01*
X127828845Y-95949500D01*
X127828842Y-95949500D01*
X127683606Y-95949500D01*
X127616567Y-95929815D01*
X127570812Y-95877011D01*
X127559988Y-95835225D01*
X127557145Y-95799089D01*
X127512030Y-95643803D01*
X127429721Y-95504625D01*
X127429714Y-95504616D01*
X127315383Y-95390285D01*
X127315374Y-95390278D01*
X127176195Y-95307968D01*
X127176190Y-95307966D01*
X127020918Y-95262855D01*
X127020912Y-95262854D01*
X127000000Y-95261209D01*
X127000000Y-95916000D01*
X126980315Y-95983039D01*
X126927511Y-96028794D01*
X126876000Y-96040000D01*
X126624000Y-96040000D01*
X126556961Y-96020315D01*
X126511206Y-95967511D01*
X126500000Y-95916000D01*
X126500000Y-95261210D01*
X126493335Y-95255049D01*
X126448105Y-95245547D01*
X126419073Y-95223975D01*
X126315383Y-95120285D01*
X126315374Y-95120278D01*
X126176195Y-95037968D01*
X126176190Y-95037966D01*
X126020918Y-94992855D01*
X126020912Y-94992854D01*
X126000000Y-94991209D01*
X126000000Y-95646000D01*
X125980315Y-95713039D01*
X125927511Y-95758794D01*
X125876000Y-95770000D01*
X125624000Y-95770000D01*
X125556961Y-95750315D01*
X125511206Y-95697511D01*
X125500000Y-95646000D01*
X125500000Y-94991210D01*
X125499999Y-94991209D01*
X125479087Y-94992854D01*
X125479081Y-94992855D01*
X125323809Y-95037966D01*
X125323804Y-95037968D01*
X125184625Y-95120278D01*
X125184616Y-95120285D01*
X125070285Y-95234616D01*
X125070278Y-95234625D01*
X125032667Y-95298223D01*
X124981598Y-95345907D01*
X124912856Y-95358410D01*
X124848267Y-95331764D01*
X124811373Y-95282553D01*
X124809579Y-95278223D01*
X124809577Y-95278216D01*
X124804000Y-95268556D01*
X124730524Y-95141290D01*
X124730518Y-95141282D01*
X124611819Y-95022583D01*
X124578334Y-94961260D01*
X124575500Y-94934902D01*
X124575500Y-94143294D01*
X124595185Y-94076255D01*
X124611815Y-94055617D01*
X124809701Y-93857730D01*
X124871022Y-93824247D01*
X124940713Y-93829231D01*
X124966269Y-93842310D01*
X125079185Y-93917758D01*
X125079187Y-93917759D01*
X125079191Y-93917761D01*
X125160747Y-93951542D01*
X125224867Y-93978101D01*
X125379517Y-94008863D01*
X125379520Y-94008864D01*
X125379522Y-94008864D01*
X125537208Y-94008864D01*
X125537209Y-94008863D01*
X125691861Y-93978101D01*
X125837543Y-93917758D01*
X125883847Y-93886819D01*
X125906927Y-93871398D01*
X125973604Y-93850520D01*
X125975817Y-93850500D01*
X126320406Y-93850500D01*
X126387445Y-93870185D01*
X126408082Y-93886814D01*
X126462403Y-93941135D01*
X126600608Y-94022869D01*
X126641269Y-94034682D01*
X126754792Y-94067664D01*
X126754795Y-94067664D01*
X126754797Y-94067665D01*
X126790820Y-94070500D01*
X127189181Y-94070499D01*
X127225205Y-94067665D01*
X127379394Y-94022869D01*
X127403077Y-94008863D01*
X127436878Y-93988873D01*
X127504602Y-93971689D01*
X127563122Y-93988873D01*
X127620602Y-94022867D01*
X127620604Y-94022867D01*
X127620606Y-94022869D01*
X127620608Y-94022869D01*
X127620609Y-94022870D01*
X127774790Y-94067664D01*
X127774793Y-94067664D01*
X127774795Y-94067665D01*
X127810818Y-94070500D01*
X128209179Y-94070499D01*
X128245203Y-94067665D01*
X128399392Y-94022869D01*
X128537597Y-93941135D01*
X128651134Y-93827598D01*
X128732868Y-93689393D01*
X128777664Y-93535204D01*
X128780499Y-93499181D01*
X128780498Y-93325373D01*
X128797113Y-93263370D01*
X128809577Y-93241783D01*
X128850501Y-93089056D01*
X128850501Y-92930941D01*
X128850501Y-92923346D01*
X128850500Y-92923328D01*
X128850500Y-92874500D01*
X128870185Y-92807461D01*
X128922989Y-92761706D01*
X128974500Y-92750500D01*
X129106613Y-92750500D01*
X129106616Y-92750500D01*
X129177196Y-92744086D01*
X129339606Y-92693478D01*
X129485185Y-92605472D01*
X129605472Y-92485185D01*
X129693478Y-92339606D01*
X129744086Y-92177196D01*
X129750500Y-92106616D01*
X129750500Y-91593384D01*
X129744086Y-91522804D01*
X129693478Y-91360394D01*
X129605472Y-91214815D01*
X129605470Y-91214813D01*
X129605469Y-91214811D01*
X129485188Y-91094530D01*
X129432677Y-91062786D01*
X129339606Y-91006522D01*
X129177196Y-90955914D01*
X129177194Y-90955913D01*
X129177192Y-90955913D01*
X129127778Y-90951423D01*
X129106616Y-90949500D01*
X127393384Y-90949500D01*
X127374145Y-90951248D01*
X127322807Y-90955913D01*
X127160393Y-91006522D01*
X127014811Y-91094530D01*
X126894530Y-91214811D01*
X126805617Y-91361891D01*
X126754089Y-91409079D01*
X126685229Y-91420917D01*
X126620901Y-91393648D01*
X126581527Y-91335929D01*
X126575500Y-91297741D01*
X126575500Y-88201290D01*
X126595185Y-88134251D01*
X126647989Y-88088496D01*
X126717147Y-88078552D01*
X126780703Y-88107577D01*
X126805617Y-88137140D01*
X126894927Y-88284877D01*
X127015122Y-88405072D01*
X127160604Y-88493019D01*
X127160603Y-88493019D01*
X127322894Y-88543590D01*
X127322893Y-88543590D01*
X127393427Y-88549999D01*
X127999999Y-88549999D01*
X128500000Y-88549999D01*
X129106581Y-88549999D01*
X129177102Y-88543591D01*
X129177107Y-88543590D01*
X129339396Y-88493018D01*
X129484877Y-88405072D01*
X129605072Y-88284877D01*
X129693019Y-88139395D01*
X129743590Y-87977106D01*
X129750000Y-87906572D01*
X129750000Y-87900000D01*
X128500000Y-87900000D01*
X128500000Y-88549999D01*
X127999999Y-88549999D01*
X128000000Y-88549998D01*
X128000000Y-87400000D01*
X128500000Y-87400000D01*
X129749999Y-87400000D01*
X129749999Y-87393417D01*
X129743591Y-87322897D01*
X129743590Y-87322892D01*
X129693018Y-87160603D01*
X129605072Y-87015122D01*
X129484877Y-86894927D01*
X129339395Y-86806980D01*
X129339396Y-86806980D01*
X129177105Y-86756409D01*
X129177106Y-86756409D01*
X129106572Y-86750000D01*
X128500000Y-86750000D01*
X128500000Y-87400000D01*
X128000000Y-87400000D01*
X128000000Y-86750000D01*
X127393417Y-86750000D01*
X127322897Y-86756408D01*
X127322892Y-86756409D01*
X127160603Y-86806981D01*
X127015122Y-86894927D01*
X126894927Y-87015122D01*
X126805617Y-87162859D01*
X126754089Y-87210047D01*
X126685229Y-87221885D01*
X126620901Y-87194616D01*
X126581527Y-87136897D01*
X126575500Y-87098709D01*
X126575500Y-83065945D01*
X126575500Y-83065943D01*
X126543339Y-82945916D01*
X126545002Y-82876067D01*
X126584165Y-82818205D01*
X126648393Y-82790701D01*
X126697709Y-82794748D01*
X126759999Y-82812844D01*
X126760000Y-82812844D01*
X126760000Y-82812843D01*
X127260000Y-82812843D01*
X127399194Y-82772404D01*
X127537285Y-82690738D01*
X127537294Y-82690731D01*
X127650731Y-82577294D01*
X127650738Y-82577285D01*
X127732406Y-82439191D01*
X127732407Y-82439188D01*
X127777166Y-82285128D01*
X127777167Y-82285122D01*
X127779931Y-82250000D01*
X127260000Y-82250000D01*
X127260000Y-82812843D01*
X126760000Y-82812843D01*
X126760000Y-82260408D01*
X126760004Y-82259404D01*
X126760039Y-82255034D01*
X126760500Y-82249181D01*
X126760499Y-82123999D01*
X126780183Y-82056962D01*
X126832986Y-82011206D01*
X126884499Y-82000000D01*
X127010000Y-82000000D01*
X127010000Y-81874000D01*
X127029685Y-81806961D01*
X127082489Y-81761206D01*
X127134000Y-81750000D01*
X127779931Y-81750000D01*
X127777167Y-81714877D01*
X127777166Y-81714871D01*
X127732407Y-81560811D01*
X127732406Y-81560808D01*
X127650738Y-81422714D01*
X127650731Y-81422705D01*
X127537294Y-81309268D01*
X127537285Y-81309261D01*
X127399191Y-81227593D01*
X127399188Y-81227592D01*
X127245129Y-81182833D01*
X127245123Y-81182832D01*
X127209135Y-81180000D01*
X127151966Y-81180000D01*
X127129315Y-81173349D01*
X127105816Y-81171092D01*
X127096410Y-81163686D01*
X127084927Y-81160315D01*
X127069469Y-81142475D01*
X127050919Y-81127871D01*
X127047009Y-81116556D01*
X127039172Y-81107511D01*
X127035812Y-81084145D01*
X127028103Y-81061831D01*
X127030135Y-81044663D01*
X127029228Y-81038353D01*
X127031478Y-81026699D01*
X127050617Y-80947998D01*
X127063326Y-80926012D01*
X127070000Y-80908501D01*
X127070000Y-80096988D01*
X127079940Y-80114205D01*
X127135795Y-80170060D01*
X127204204Y-80209556D01*
X127280504Y-80230000D01*
X127359496Y-80230000D01*
X127435796Y-80209556D01*
X127504205Y-80170060D01*
X127560060Y-80114205D01*
X127570000Y-80096988D01*
X127570000Y-80899862D01*
X127611690Y-80891569D01*
X127611692Y-80891569D01*
X127793671Y-80816192D01*
X127793684Y-80816185D01*
X127957462Y-80706751D01*
X127957466Y-80706748D01*
X128096748Y-80567466D01*
X128096751Y-80567462D01*
X128206185Y-80403684D01*
X128206192Y-80403671D01*
X128281569Y-80221693D01*
X128281572Y-80221681D01*
X128319999Y-80028495D01*
X128320000Y-80028492D01*
X128320000Y-79630000D01*
X127620000Y-79630000D01*
X127620000Y-79130000D01*
X128320000Y-79130000D01*
X128320000Y-78731508D01*
X128319999Y-78731505D01*
X128298432Y-78623080D01*
X128298430Y-78623072D01*
X128281569Y-78538308D01*
X128281569Y-78538306D01*
X128206192Y-78356328D01*
X128206185Y-78356315D01*
X128096751Y-78192537D01*
X128096748Y-78192533D01*
X127957466Y-78053251D01*
X127957462Y-78053248D01*
X127793684Y-77943814D01*
X127793671Y-77943807D01*
X127611691Y-77868429D01*
X127611683Y-77868427D01*
X127570000Y-77860135D01*
X127570000Y-78663011D01*
X127560060Y-78645795D01*
X127504205Y-78589940D01*
X127435796Y-78550444D01*
X127359496Y-78530000D01*
X127280504Y-78530000D01*
X127204204Y-78550444D01*
X127135795Y-78589940D01*
X127079940Y-78645795D01*
X127070000Y-78663011D01*
X127070000Y-77860136D01*
X127069999Y-77860135D01*
X127028316Y-77868427D01*
X127028308Y-77868429D01*
X126846328Y-77943807D01*
X126846315Y-77943814D01*
X126682537Y-78053248D01*
X126682533Y-78053251D01*
X126543248Y-78192536D01*
X126430427Y-78361387D01*
X126429003Y-78360435D01*
X126385742Y-78404451D01*
X126317600Y-78419892D01*
X126251927Y-78396041D01*
X126249907Y-78394306D01*
X126249811Y-78394432D01*
X126243367Y-78389487D01*
X126243365Y-78389485D01*
X126177750Y-78351602D01*
X126112136Y-78313719D01*
X126038950Y-78294109D01*
X125965766Y-78274500D01*
X125824500Y-78274500D01*
X125757461Y-78254815D01*
X125711706Y-78202011D01*
X125700500Y-78150500D01*
X125700500Y-76939060D01*
X125700501Y-76939047D01*
X125700501Y-76770944D01*
X125659576Y-76618214D01*
X125659573Y-76618209D01*
X125580524Y-76481290D01*
X125580518Y-76481282D01*
X125186916Y-76087680D01*
X125153431Y-76026357D01*
X125158415Y-75956665D01*
X125186916Y-75912318D01*
X125933576Y-75165658D01*
X126146937Y-74952297D01*
X126208259Y-74918813D01*
X126277951Y-74923797D01*
X126318722Y-74950000D01*
X127020000Y-74950000D01*
X127020000Y-75450000D01*
X126320000Y-75450000D01*
X126320000Y-75598495D01*
X126358427Y-75791681D01*
X126358430Y-75791693D01*
X126433807Y-75973671D01*
X126433814Y-75973684D01*
X126543248Y-76137462D01*
X126543251Y-76137466D01*
X126682533Y-76276748D01*
X126682537Y-76276751D01*
X126846315Y-76386185D01*
X126846328Y-76386192D01*
X127028308Y-76461569D01*
X127070000Y-76469862D01*
X127070000Y-75666988D01*
X127079940Y-75684205D01*
X127135795Y-75740060D01*
X127204204Y-75779556D01*
X127280504Y-75800000D01*
X127359496Y-75800000D01*
X127435796Y-75779556D01*
X127504205Y-75740060D01*
X127560060Y-75684205D01*
X127570000Y-75666988D01*
X127570000Y-76469862D01*
X127611690Y-76461569D01*
X127611692Y-76461569D01*
X127793671Y-76386192D01*
X127793684Y-76386185D01*
X127957462Y-76276751D01*
X127957466Y-76276748D01*
X128096748Y-76137466D01*
X128096751Y-76137462D01*
X128206185Y-75973684D01*
X128206192Y-75973671D01*
X128281569Y-75791693D01*
X128281572Y-75791681D01*
X128319999Y-75598495D01*
X128320000Y-75598492D01*
X128320000Y-75450000D01*
X127620000Y-75450000D01*
X127620000Y-74950000D01*
X128320000Y-74950000D01*
X128320000Y-74801508D01*
X128319999Y-74801504D01*
X128281572Y-74608318D01*
X128281569Y-74608306D01*
X128229232Y-74481952D01*
X128221763Y-74412483D01*
X128253038Y-74350004D01*
X128313127Y-74314352D01*
X128343793Y-74310500D01*
X133525501Y-74310500D01*
X133592540Y-74330185D01*
G37*
%TD.AperFunction*%
%TA.AperFunction,Conductor*%
G36*
X115170638Y-102188575D02*
G01*
X115186874Y-102202243D01*
X116278216Y-103293585D01*
X116311701Y-103354908D01*
X116312153Y-103405457D01*
X116293652Y-103498470D01*
X116293652Y-103656157D01*
X116324413Y-103810800D01*
X116324416Y-103810812D01*
X116384754Y-103956483D01*
X116384761Y-103956496D01*
X116472362Y-104087599D01*
X116472365Y-104087603D01*
X116583857Y-104199095D01*
X116583863Y-104199100D01*
X116714966Y-104286701D01*
X116714979Y-104286708D01*
X116834576Y-104336246D01*
X116860655Y-104347048D01*
X116943073Y-104363442D01*
X116987785Y-104372336D01*
X117049696Y-104404721D01*
X117066696Y-104425062D01*
X117137862Y-104531569D01*
X117137865Y-104531573D01*
X117249359Y-104643067D01*
X117249363Y-104643070D01*
X117380466Y-104730671D01*
X117380479Y-104730678D01*
X117523334Y-104789850D01*
X117577738Y-104833691D01*
X117590443Y-104856959D01*
X117629787Y-104951946D01*
X117629794Y-104951959D01*
X117717395Y-105083062D01*
X117717398Y-105083066D01*
X117828892Y-105194560D01*
X117828896Y-105194563D01*
X117959999Y-105282164D01*
X117960012Y-105282171D01*
X118063632Y-105325091D01*
X118105688Y-105342511D01*
X118105691Y-105342511D01*
X118111523Y-105344281D01*
X118111016Y-105345950D01*
X118119084Y-105346314D01*
X118141065Y-105361881D01*
X118164932Y-105374366D01*
X118169148Y-105381770D01*
X118176102Y-105386695D01*
X118186178Y-105411676D01*
X118199506Y-105435081D01*
X118199731Y-105445277D01*
X118202238Y-105451492D01*
X118200602Y-105484653D01*
X118200649Y-105486751D01*
X118200523Y-105487409D01*
X118190407Y-105538270D01*
X118190407Y-105540639D01*
X118188884Y-105548653D01*
X118175391Y-105574991D01*
X118164314Y-105602433D01*
X118159639Y-105605741D01*
X118157029Y-105610838D01*
X118131438Y-105625700D01*
X118107283Y-105642797D01*
X118099877Y-105644031D01*
X118096610Y-105645929D01*
X118090218Y-105645641D01*
X118067065Y-105649500D01*
X117670943Y-105649500D01*
X117518216Y-105690423D01*
X117518209Y-105690426D01*
X117381290Y-105769475D01*
X117381282Y-105769481D01*
X117269481Y-105881282D01*
X117269475Y-105881290D01*
X117190426Y-106018209D01*
X117190423Y-106018216D01*
X117149500Y-106170943D01*
X117149500Y-106200069D01*
X117145035Y-106216195D01*
X117145505Y-106231291D01*
X117134782Y-106253233D01*
X117131848Y-106263836D01*
X117124240Y-106276523D01*
X117119480Y-106281284D01*
X117070577Y-106365988D01*
X117070067Y-106366870D01*
X117070045Y-106366908D01*
X117040423Y-106418214D01*
X117040423Y-106418215D01*
X116999499Y-106570943D01*
X116999499Y-106570945D01*
X116999499Y-106739046D01*
X116999500Y-106739059D01*
X116999500Y-117885500D01*
X116979815Y-117952539D01*
X116927011Y-117998294D01*
X116875500Y-118009500D01*
X116663372Y-118009500D01*
X116505258Y-118009500D01*
X116352530Y-118050423D01*
X116352529Y-118050423D01*
X116352527Y-118050424D01*
X116352526Y-118050424D01*
X116302934Y-118079057D01*
X116215602Y-118129477D01*
X116215597Y-118129481D01*
X115511898Y-118833181D01*
X115450575Y-118866666D01*
X115424217Y-118869500D01*
X115035719Y-118869500D01*
X114968680Y-118849815D01*
X114925235Y-118801795D01*
X114905052Y-118762185D01*
X114905051Y-118762184D01*
X114780109Y-118590213D01*
X114629786Y-118439890D01*
X114457817Y-118314949D01*
X114448504Y-118310204D01*
X114397707Y-118262230D01*
X114380912Y-118194409D01*
X114403449Y-118128274D01*
X114448507Y-118089232D01*
X114457555Y-118084622D01*
X114511716Y-118045270D01*
X114511717Y-118045270D01*
X113879409Y-117412962D01*
X113942993Y-117395925D01*
X114057007Y-117330099D01*
X114150099Y-117237007D01*
X114215925Y-117122993D01*
X114232962Y-117059409D01*
X114865270Y-117691717D01*
X114865270Y-117691716D01*
X114904622Y-117637554D01*
X115001095Y-117448217D01*
X115066757Y-117246130D01*
X115066757Y-117246127D01*
X115100000Y-117036246D01*
X115100000Y-116823753D01*
X115066757Y-116613872D01*
X115066757Y-116613869D01*
X115001095Y-116411782D01*
X114904624Y-116222449D01*
X114865270Y-116168282D01*
X114865269Y-116168282D01*
X114232962Y-116800590D01*
X114215925Y-116737007D01*
X114150099Y-116622993D01*
X114057007Y-116529901D01*
X113942993Y-116464075D01*
X113879407Y-116447036D01*
X114511716Y-115814728D01*
X114457547Y-115775373D01*
X114457547Y-115775372D01*
X114448500Y-115770763D01*
X114397706Y-115722788D01*
X114380912Y-115654966D01*
X114403451Y-115588832D01*
X114448508Y-115549793D01*
X114457816Y-115545051D01*
X114550427Y-115477766D01*
X114629786Y-115420109D01*
X114629788Y-115420106D01*
X114629792Y-115420104D01*
X114780104Y-115269792D01*
X114780106Y-115269788D01*
X114780109Y-115269786D01*
X114905048Y-115097820D01*
X114905047Y-115097820D01*
X114905051Y-115097816D01*
X115001557Y-114908412D01*
X115067246Y-114706243D01*
X115100500Y-114496287D01*
X115100500Y-114283713D01*
X115067246Y-114073757D01*
X115001557Y-113871588D01*
X114905051Y-113682184D01*
X114905049Y-113682181D01*
X114905048Y-113682179D01*
X114780109Y-113510213D01*
X114629786Y-113359890D01*
X114457820Y-113234951D01*
X114457115Y-113234591D01*
X114449054Y-113230485D01*
X114398259Y-113182512D01*
X114381463Y-113114692D01*
X114403999Y-113048556D01*
X114449054Y-113009515D01*
X114457816Y-113005051D01*
X114520658Y-112959394D01*
X114629786Y-112880109D01*
X114629788Y-112880106D01*
X114629792Y-112880104D01*
X114780104Y-112729792D01*
X114780106Y-112729788D01*
X114780109Y-112729786D01*
X114905048Y-112557820D01*
X114905047Y-112557820D01*
X114905051Y-112557816D01*
X115001557Y-112368412D01*
X115067246Y-112166243D01*
X115100500Y-111956287D01*
X115100500Y-111743713D01*
X115067246Y-111533757D01*
X115001557Y-111331588D01*
X114905051Y-111142184D01*
X114905049Y-111142181D01*
X114905048Y-111142179D01*
X114780109Y-110970213D01*
X114629786Y-110819890D01*
X114457820Y-110694951D01*
X114457115Y-110694591D01*
X114449054Y-110690485D01*
X114398259Y-110642512D01*
X114381463Y-110574692D01*
X114403999Y-110508556D01*
X114449054Y-110469515D01*
X114457816Y-110465051D01*
X114550805Y-110397491D01*
X114629786Y-110340109D01*
X114629788Y-110340106D01*
X114629792Y-110340104D01*
X114780104Y-110189792D01*
X114780106Y-110189788D01*
X114780109Y-110189786D01*
X114905048Y-110017820D01*
X114905047Y-110017820D01*
X114905051Y-110017816D01*
X115001557Y-109828412D01*
X115067246Y-109626243D01*
X115100500Y-109416287D01*
X115100500Y-109203713D01*
X115067246Y-108993757D01*
X115001557Y-108791588D01*
X114905051Y-108602184D01*
X114905049Y-108602181D01*
X114905048Y-108602179D01*
X114780109Y-108430213D01*
X114629786Y-108279890D01*
X114457820Y-108154951D01*
X114457115Y-108154591D01*
X114449054Y-108150485D01*
X114398259Y-108102512D01*
X114381463Y-108034692D01*
X114403999Y-107968556D01*
X114449054Y-107929515D01*
X114457816Y-107925051D01*
X114490153Y-107901557D01*
X114629786Y-107800109D01*
X114629788Y-107800106D01*
X114629792Y-107800104D01*
X114780104Y-107649792D01*
X114780106Y-107649788D01*
X114780109Y-107649786D01*
X114905048Y-107477820D01*
X114905047Y-107477820D01*
X114905051Y-107477816D01*
X115001557Y-107288412D01*
X115067246Y-107086243D01*
X115100500Y-106876287D01*
X115100500Y-106663713D01*
X115067246Y-106453757D01*
X115001557Y-106251588D01*
X114905051Y-106062184D01*
X114905049Y-106062181D01*
X114905048Y-106062179D01*
X114780109Y-105890213D01*
X114629786Y-105739890D01*
X114457817Y-105614949D01*
X114448504Y-105610204D01*
X114397707Y-105562230D01*
X114380912Y-105494409D01*
X114403449Y-105428274D01*
X114448507Y-105389232D01*
X114457555Y-105384622D01*
X114511716Y-105345270D01*
X114511717Y-105345270D01*
X113879409Y-104712962D01*
X113942993Y-104695925D01*
X114057007Y-104630099D01*
X114150099Y-104537007D01*
X114215925Y-104422993D01*
X114232962Y-104359409D01*
X114865270Y-104991717D01*
X114865270Y-104991716D01*
X114904622Y-104937554D01*
X115001095Y-104748217D01*
X115066757Y-104546130D01*
X115066757Y-104546127D01*
X115100000Y-104336246D01*
X115100000Y-104123753D01*
X115066757Y-103913872D01*
X115066757Y-103913869D01*
X115001095Y-103711782D01*
X114904624Y-103522449D01*
X114865270Y-103468282D01*
X114865269Y-103468282D01*
X114232962Y-104100590D01*
X114215925Y-104037007D01*
X114150099Y-103922993D01*
X114057007Y-103829901D01*
X113942993Y-103764075D01*
X113879407Y-103747036D01*
X114511716Y-103114728D01*
X114457547Y-103075373D01*
X114457547Y-103075372D01*
X114448500Y-103070763D01*
X114397706Y-103022788D01*
X114380912Y-102954966D01*
X114403451Y-102888832D01*
X114448508Y-102849793D01*
X114457816Y-102845051D01*
X114550427Y-102777766D01*
X114629786Y-102720109D01*
X114629788Y-102720106D01*
X114629792Y-102720104D01*
X114780104Y-102569792D01*
X114780106Y-102569788D01*
X114780109Y-102569786D01*
X114905048Y-102397820D01*
X114905047Y-102397820D01*
X114905051Y-102397816D01*
X114988708Y-102233628D01*
X115036682Y-102182833D01*
X115104503Y-102166038D01*
X115170638Y-102188575D01*
G37*
%TD.AperFunction*%
%TA.AperFunction,Conductor*%
G36*
X130103168Y-102465808D02*
G01*
X130143098Y-102523144D01*
X130149500Y-102562471D01*
X130149500Y-107351372D01*
X130129815Y-107418411D01*
X130113181Y-107439053D01*
X130024214Y-107528019D01*
X130024215Y-107528020D01*
X129919477Y-107632758D01*
X129876449Y-107707287D01*
X129876449Y-107707288D01*
X129840423Y-107769685D01*
X129832030Y-107801007D01*
X129799499Y-107922414D01*
X129799499Y-107922416D01*
X129799499Y-108090517D01*
X129799500Y-108090530D01*
X129799500Y-108411859D01*
X129799499Y-108411877D01*
X129799499Y-108577583D01*
X129799498Y-108577583D01*
X129840423Y-108730315D01*
X129840424Y-108730316D01*
X129868728Y-108779340D01*
X129882887Y-108803864D01*
X129899500Y-108865864D01*
X129899500Y-117275500D01*
X129896949Y-117284185D01*
X129898238Y-117293147D01*
X129887259Y-117317187D01*
X129879815Y-117342539D01*
X129872974Y-117348466D01*
X129869213Y-117356703D01*
X129846978Y-117370992D01*
X129827011Y-117388294D01*
X129816496Y-117390581D01*
X129810435Y-117394477D01*
X129775500Y-117399500D01*
X129666666Y-117399500D01*
X129599627Y-117379815D01*
X129578984Y-117363180D01*
X129535692Y-117319887D01*
X129535684Y-117319881D01*
X129446422Y-117267092D01*
X129396395Y-117237506D01*
X129396394Y-117237505D01*
X129396393Y-117237505D01*
X129396390Y-117237504D01*
X129240997Y-117192357D01*
X129240991Y-117192356D01*
X129204697Y-117189500D01*
X129204690Y-117189500D01*
X128795310Y-117189500D01*
X128795302Y-117189500D01*
X128759008Y-117192356D01*
X128759002Y-117192357D01*
X128603609Y-117237504D01*
X128603604Y-117237506D01*
X128582628Y-117249911D01*
X128514903Y-117267092D01*
X128456389Y-117249911D01*
X128436191Y-117237966D01*
X128436190Y-117237965D01*
X128290001Y-117195493D01*
X128290000Y-117195494D01*
X128290000Y-117501645D01*
X128272734Y-117564763D01*
X128267507Y-117573600D01*
X128267504Y-117573608D01*
X128222357Y-117729002D01*
X128222356Y-117729008D01*
X128219500Y-117765302D01*
X128219500Y-117876000D01*
X128216949Y-117884685D01*
X128218238Y-117893647D01*
X128207259Y-117917687D01*
X128199815Y-117943039D01*
X128192974Y-117948966D01*
X128189213Y-117957203D01*
X128166978Y-117971492D01*
X128147011Y-117988794D01*
X128136496Y-117991081D01*
X128130435Y-117994977D01*
X128095500Y-118000000D01*
X128044240Y-118000000D01*
X127977201Y-117980315D01*
X127931446Y-117927511D01*
X127924465Y-117908095D01*
X127922133Y-117899392D01*
X127909577Y-117852531D01*
X127867112Y-117778978D01*
X127850500Y-117716979D01*
X127850500Y-117269474D01*
X127850500Y-117269472D01*
X127809577Y-117116745D01*
X127777968Y-117061997D01*
X127761497Y-116994098D01*
X127777968Y-116938002D01*
X127809577Y-116883255D01*
X127850500Y-116730528D01*
X127850500Y-116115863D01*
X127859131Y-116070410D01*
X127862506Y-116061841D01*
X127909577Y-115980313D01*
X127939534Y-115868510D01*
X127950500Y-115827587D01*
X127950500Y-115669472D01*
X127950500Y-115172414D01*
X127950163Y-115171158D01*
X127936800Y-115121285D01*
X127909577Y-115019687D01*
X127867112Y-114946134D01*
X127850500Y-114884135D01*
X127850500Y-113839204D01*
X127850500Y-113829061D01*
X127850501Y-113829058D01*
X127850501Y-113670943D01*
X127849906Y-113668725D01*
X127849871Y-113658459D01*
X127857481Y-113632201D01*
X127861691Y-113605189D01*
X127867067Y-113599130D01*
X127869322Y-113591351D01*
X127889918Y-113573378D01*
X127908065Y-113552928D01*
X127917767Y-113549076D01*
X127921966Y-113545413D01*
X127929968Y-113544233D01*
X127949679Y-113536410D01*
X127985922Y-113529200D01*
X128033497Y-113519737D01*
X128179179Y-113459394D01*
X128310289Y-113371789D01*
X128421789Y-113260289D01*
X128509394Y-113129179D01*
X128569737Y-112983497D01*
X128600500Y-112828842D01*
X128600500Y-112671158D01*
X128600500Y-112671155D01*
X128600499Y-112671153D01*
X128592148Y-112629172D01*
X128569737Y-112516503D01*
X128537144Y-112437816D01*
X128509397Y-112370827D01*
X128509390Y-112370814D01*
X128421789Y-112239711D01*
X128421786Y-112239707D01*
X128347901Y-112165822D01*
X128314416Y-112104499D01*
X128319400Y-112034807D01*
X128328195Y-112016141D01*
X128359577Y-111961786D01*
X128378650Y-111890606D01*
X128400501Y-111809059D01*
X128400501Y-111650944D01*
X128400501Y-111643349D01*
X128400500Y-111643331D01*
X128400500Y-111579765D01*
X128420185Y-111512726D01*
X128421398Y-111510874D01*
X128462074Y-111449999D01*
X128505630Y-111384812D01*
X128509390Y-111379185D01*
X128509390Y-111379184D01*
X128509394Y-111379179D01*
X128569737Y-111233497D01*
X128600500Y-111078842D01*
X128600500Y-110921158D01*
X128600500Y-110921155D01*
X128600499Y-110921153D01*
X128580914Y-110822692D01*
X128569737Y-110766503D01*
X128541912Y-110699326D01*
X128509397Y-110620827D01*
X128509390Y-110620814D01*
X128421789Y-110489711D01*
X128421786Y-110489707D01*
X128310292Y-110378213D01*
X128310288Y-110378210D01*
X128179185Y-110290609D01*
X128179172Y-110290602D01*
X128033501Y-110230264D01*
X128033489Y-110230261D01*
X127878845Y-110199500D01*
X127878842Y-110199500D01*
X127721158Y-110199500D01*
X127721155Y-110199500D01*
X127566510Y-110230261D01*
X127566498Y-110230264D01*
X127420827Y-110290602D01*
X127420814Y-110290609D01*
X127325188Y-110354505D01*
X127258510Y-110375383D01*
X127191130Y-110356898D01*
X127147635Y-110311141D01*
X127085059Y-110197316D01*
X127085058Y-110197315D01*
X126603868Y-110678506D01*
X126595922Y-110682844D01*
X126590497Y-110690092D01*
X126565737Y-110699326D01*
X126542545Y-110711991D01*
X126533515Y-110711345D01*
X126525033Y-110714509D01*
X126499212Y-110708892D01*
X126472853Y-110707007D01*
X126463799Y-110701188D01*
X126456760Y-110699657D01*
X126428506Y-110678506D01*
X126300167Y-110550167D01*
X126266682Y-110488844D01*
X126271666Y-110419152D01*
X126300165Y-110374806D01*
X126378437Y-110296535D01*
X126402087Y-110268845D01*
X126480047Y-110127034D01*
X126482600Y-110117089D01*
X126515024Y-110060242D01*
X126731504Y-109843761D01*
X126598100Y-109770422D01*
X126598092Y-109770419D01*
X126575372Y-109764586D01*
X126563948Y-109757786D01*
X126550861Y-109755444D01*
X126534507Y-109740261D01*
X126515334Y-109728848D01*
X126508259Y-109715892D01*
X126499657Y-109707905D01*
X126486108Y-109675324D01*
X126480047Y-109651718D01*
X126480045Y-109651715D01*
X126479717Y-109650435D01*
X126480883Y-109616464D01*
X126480000Y-109616464D01*
X126480000Y-109554503D01*
X126980000Y-109554503D01*
X127126195Y-109512031D01*
X127265374Y-109429721D01*
X127265383Y-109429714D01*
X127379714Y-109315383D01*
X127379721Y-109315374D01*
X127462031Y-109176195D01*
X127462033Y-109176190D01*
X127507144Y-109020918D01*
X127507145Y-109020912D01*
X127508790Y-109000000D01*
X126980000Y-109000000D01*
X126980000Y-109554503D01*
X126480000Y-109554503D01*
X126480000Y-109248352D01*
X126497267Y-109185233D01*
X126502494Y-109176395D01*
X126547643Y-109020993D01*
X126550500Y-108984690D01*
X126550500Y-108874000D01*
X126570185Y-108806961D01*
X126622989Y-108761206D01*
X126674500Y-108750000D01*
X126730000Y-108750000D01*
X126730000Y-108654856D01*
X126749685Y-108587817D01*
X126802489Y-108542062D01*
X126871647Y-108532118D01*
X126922891Y-108551754D01*
X127000814Y-108603821D01*
X127000827Y-108603828D01*
X127146498Y-108664166D01*
X127146503Y-108664168D01*
X127301153Y-108694930D01*
X127301156Y-108694931D01*
X127301158Y-108694931D01*
X127458844Y-108694931D01*
X127458845Y-108694930D01*
X127613497Y-108664168D01*
X127657902Y-108645774D01*
X127744420Y-108609939D01*
X127752596Y-108608312D01*
X127756937Y-108605523D01*
X127791872Y-108600500D01*
X127913331Y-108600500D01*
X127913347Y-108600501D01*
X127920943Y-108600501D01*
X128079054Y-108600501D01*
X128079057Y-108600501D01*
X128231785Y-108559577D01*
X128281904Y-108530639D01*
X128368716Y-108480520D01*
X128480520Y-108368716D01*
X128480520Y-108368714D01*
X128490728Y-108358507D01*
X128490730Y-108358504D01*
X129048231Y-107801003D01*
X129048236Y-107800999D01*
X129058439Y-107790795D01*
X129058441Y-107790795D01*
X129170245Y-107678991D01*
X129249302Y-107542059D01*
X129283639Y-107413912D01*
X129290225Y-107389333D01*
X129290225Y-107231218D01*
X129290225Y-102933999D01*
X129309910Y-102866960D01*
X129362714Y-102821205D01*
X129414225Y-102809999D01*
X129434624Y-102809999D01*
X129434649Y-102809998D01*
X129470910Y-102807145D01*
X129626196Y-102762030D01*
X129765374Y-102679721D01*
X129765383Y-102679714D01*
X129879714Y-102565383D01*
X129879721Y-102565374D01*
X129918768Y-102499350D01*
X129969837Y-102451666D01*
X130038579Y-102439163D01*
X130103168Y-102465808D01*
G37*
%TD.AperFunction*%
%TA.AperFunction,Conductor*%
G36*
X124806092Y-117079725D02*
G01*
X124920943Y-117110499D01*
X125079057Y-117110499D01*
X125330404Y-117110499D01*
X125397443Y-117130184D01*
X125418085Y-117146818D01*
X125422396Y-117151129D01*
X125422400Y-117151132D01*
X125422402Y-117151134D01*
X125560607Y-117232868D01*
X125589899Y-117241378D01*
X125714791Y-117277663D01*
X125714794Y-117277663D01*
X125714796Y-117277664D01*
X125750819Y-117280499D01*
X126249180Y-117280498D01*
X126285204Y-117277664D01*
X126371275Y-117252658D01*
X126396403Y-117245358D01*
X126406482Y-117245386D01*
X126415730Y-117241378D01*
X126440832Y-117245484D01*
X126466273Y-117245557D01*
X126474737Y-117251031D01*
X126484683Y-117252658D01*
X126503580Y-117269683D01*
X126524943Y-117283499D01*
X126530486Y-117293925D01*
X126536592Y-117299426D01*
X126550181Y-117330968D01*
X126550629Y-117331809D01*
X126550718Y-117332138D01*
X126590423Y-117480314D01*
X126591759Y-117482629D01*
X126594554Y-117492875D01*
X126594023Y-117520272D01*
X126596953Y-117547514D01*
X126593357Y-117554697D01*
X126593202Y-117562731D01*
X126577942Y-117585493D01*
X126565679Y-117609994D01*
X126558769Y-117614093D01*
X126554296Y-117620767D01*
X126529158Y-117631663D01*
X126505591Y-117645648D01*
X126493353Y-117647185D01*
X126490191Y-117648556D01*
X126486824Y-117648005D01*
X126474923Y-117649500D01*
X124173757Y-117649500D01*
X124106718Y-117629815D01*
X124060963Y-117577011D01*
X124051019Y-117507853D01*
X124071352Y-117460532D01*
X124069177Y-117459191D01*
X124161998Y-117308705D01*
X124161997Y-117308705D01*
X124162003Y-117308697D01*
X124194984Y-117209163D01*
X124211112Y-117160496D01*
X124250885Y-117103051D01*
X124315401Y-117076228D01*
X124328818Y-117075500D01*
X124773999Y-117075500D01*
X124806092Y-117079725D01*
G37*
%TD.AperFunction*%
%TA.AperFunction,Conductor*%
G36*
X123793039Y-110369685D02*
G01*
X123838794Y-110422489D01*
X123850000Y-110474000D01*
X123850000Y-111449999D01*
X124099972Y-111449999D01*
X124099986Y-111449998D01*
X124202697Y-111439505D01*
X124369119Y-111384358D01*
X124369123Y-111384356D01*
X124391235Y-111370717D01*
X124458627Y-111352275D01*
X124525291Y-111373195D01*
X124559437Y-111407363D01*
X124628210Y-111510288D01*
X124628213Y-111510292D01*
X124739707Y-111621786D01*
X124739711Y-111621789D01*
X124852118Y-111696898D01*
X124896923Y-111750510D01*
X124905630Y-111819835D01*
X124875475Y-111882863D01*
X124852118Y-111903102D01*
X124739711Y-111978210D01*
X124739707Y-111978213D01*
X124628213Y-112089707D01*
X124628210Y-112089711D01*
X124540609Y-112220814D01*
X124540602Y-112220827D01*
X124480264Y-112366498D01*
X124480261Y-112366510D01*
X124449500Y-112521153D01*
X124449500Y-112678846D01*
X124480261Y-112833489D01*
X124480264Y-112833500D01*
X124494880Y-112868788D01*
X124502347Y-112938257D01*
X124471071Y-113000736D01*
X124427771Y-113030799D01*
X124347295Y-113064133D01*
X124347285Y-113064138D01*
X124216182Y-113151739D01*
X124216178Y-113151742D01*
X124104684Y-113263236D01*
X124104681Y-113263240D01*
X124017080Y-113394343D01*
X124017073Y-113394356D01*
X123956735Y-113540027D01*
X123956732Y-113540039D01*
X123925971Y-113694682D01*
X123925971Y-113852375D01*
X123956732Y-114007018D01*
X123956735Y-114007030D01*
X124017073Y-114152701D01*
X124017080Y-114152714D01*
X124107095Y-114287430D01*
X124127973Y-114354108D01*
X124109489Y-114421488D01*
X124057510Y-114468178D01*
X124048155Y-114472190D01*
X124038403Y-114475906D01*
X124016503Y-114480263D01*
X123895845Y-114530240D01*
X123894160Y-114530883D01*
X123861037Y-114533489D01*
X123827980Y-114537044D01*
X123825422Y-114536292D01*
X123824506Y-114536365D01*
X123823102Y-114535611D01*
X123802546Y-114529575D01*
X123683498Y-114480264D01*
X123683486Y-114480261D01*
X123528842Y-114449500D01*
X123528839Y-114449500D01*
X123371155Y-114449500D01*
X123371152Y-114449500D01*
X123216507Y-114480261D01*
X123216495Y-114480264D01*
X123070824Y-114540602D01*
X123070811Y-114540609D01*
X122939708Y-114628210D01*
X122939704Y-114628213D01*
X122828210Y-114739707D01*
X122828207Y-114739711D01*
X122740606Y-114870814D01*
X122740599Y-114870827D01*
X122680261Y-115016498D01*
X122680258Y-115016510D01*
X122649497Y-115171153D01*
X122649497Y-115328846D01*
X122680258Y-115483489D01*
X122680261Y-115483501D01*
X122740599Y-115629172D01*
X122740606Y-115629185D01*
X122768170Y-115670437D01*
X122770943Y-115679294D01*
X122777122Y-115686224D01*
X122781218Y-115712109D01*
X122789048Y-115737115D01*
X122786592Y-115746066D01*
X122788043Y-115755235D01*
X122777496Y-115779222D01*
X122770563Y-115804495D01*
X122762910Y-115812396D01*
X122759921Y-115819196D01*
X122738062Y-115838054D01*
X122733578Y-115842684D01*
X122731886Y-115843805D01*
X122596956Y-115927032D01*
X122578528Y-115945459D01*
X122568156Y-115952335D01*
X122546181Y-115959126D01*
X122526000Y-115970146D01*
X122513437Y-115969247D01*
X122501402Y-115972967D01*
X122479244Y-115966800D01*
X122456308Y-115965159D01*
X122443293Y-115956794D01*
X122434090Y-115954233D01*
X122427087Y-115946378D01*
X122411965Y-115936660D01*
X122402732Y-115927427D01*
X122402728Y-115927424D01*
X122258492Y-115838457D01*
X122258481Y-115838452D01*
X122097606Y-115785144D01*
X121998322Y-115775000D01*
X121975000Y-115775000D01*
X121975000Y-116626000D01*
X121955315Y-116693039D01*
X121902511Y-116738794D01*
X121851000Y-116750000D01*
X121725000Y-116750000D01*
X121725000Y-116876000D01*
X121705315Y-116943039D01*
X121652511Y-116988794D01*
X121601000Y-117000000D01*
X120860881Y-117000000D01*
X120845392Y-116995850D01*
X120831648Y-116996505D01*
X120798882Y-116983388D01*
X120776596Y-116970521D01*
X120741784Y-116950422D01*
X120589056Y-116909498D01*
X120430942Y-116909498D01*
X120429275Y-116909498D01*
X120362236Y-116889813D01*
X120316481Y-116837009D01*
X120306537Y-116767851D01*
X120310197Y-116750909D01*
X120317665Y-116725205D01*
X120320500Y-116689182D01*
X120320499Y-116451677D01*
X120775000Y-116451677D01*
X120775000Y-116500000D01*
X121475000Y-116500000D01*
X121475000Y-115774999D01*
X121451693Y-115775000D01*
X121451674Y-115775001D01*
X121352392Y-115785144D01*
X121191518Y-115838452D01*
X121191507Y-115838457D01*
X121047271Y-115927424D01*
X121047267Y-115927427D01*
X120927427Y-116047267D01*
X120927424Y-116047271D01*
X120838457Y-116191507D01*
X120838452Y-116191518D01*
X120785144Y-116352393D01*
X120775000Y-116451677D01*
X120320499Y-116451677D01*
X120320499Y-116362939D01*
X120340184Y-116295901D01*
X120356812Y-116275264D01*
X120371789Y-116260289D01*
X120459394Y-116129179D01*
X120519737Y-115983497D01*
X120550500Y-115828842D01*
X120550500Y-115671158D01*
X120550500Y-115671155D01*
X120550499Y-115671153D01*
X120550165Y-115669472D01*
X120519737Y-115516503D01*
X120481857Y-115425051D01*
X120459397Y-115370827D01*
X120459390Y-115370814D01*
X120371789Y-115239711D01*
X120371786Y-115239707D01*
X120260292Y-115128213D01*
X120260288Y-115128210D01*
X120129185Y-115040609D01*
X120129172Y-115040602D01*
X119983501Y-114980264D01*
X119983489Y-114980261D01*
X119828845Y-114949500D01*
X119828842Y-114949500D01*
X119671158Y-114949500D01*
X119671155Y-114949500D01*
X119516510Y-114980261D01*
X119516498Y-114980264D01*
X119370827Y-115040602D01*
X119370814Y-115040609D01*
X119239711Y-115128210D01*
X119239707Y-115128213D01*
X119128213Y-115239707D01*
X119128210Y-115239711D01*
X119040609Y-115370814D01*
X119040602Y-115370827D01*
X118980264Y-115516498D01*
X118980261Y-115516510D01*
X118949500Y-115671153D01*
X118949500Y-115721635D01*
X118944838Y-115755317D01*
X118941938Y-115765590D01*
X118940423Y-115768215D01*
X118925890Y-115822447D01*
X118925661Y-115823262D01*
X118919697Y-115832759D01*
X118894005Y-115877260D01*
X118812182Y-115959085D01*
X118750860Y-115992571D01*
X118681168Y-115987587D01*
X118625234Y-115945717D01*
X118600816Y-115880253D01*
X118600500Y-115871405D01*
X118600500Y-111165231D01*
X118620185Y-111098192D01*
X118672989Y-111052437D01*
X118742147Y-111042493D01*
X118805703Y-111071518D01*
X118812181Y-111077550D01*
X120349005Y-112614374D01*
X120349015Y-112614385D01*
X120353345Y-112618715D01*
X120353346Y-112618716D01*
X120465150Y-112730520D01*
X120551961Y-112780639D01*
X120551963Y-112780641D01*
X120602079Y-112809576D01*
X120602081Y-112809577D01*
X120754808Y-112850500D01*
X120754809Y-112850500D01*
X120920234Y-112850500D01*
X120987273Y-112870185D01*
X120989125Y-112871398D01*
X121120814Y-112959390D01*
X121120827Y-112959397D01*
X121241822Y-113009514D01*
X121266503Y-113019737D01*
X121411385Y-113048556D01*
X121421153Y-113050499D01*
X121421156Y-113050500D01*
X121421158Y-113050500D01*
X121578844Y-113050500D01*
X121578845Y-113050499D01*
X121733497Y-113019737D01*
X121879179Y-112959394D01*
X122010289Y-112871789D01*
X122121789Y-112760289D01*
X122209394Y-112629179D01*
X122269737Y-112483497D01*
X122300500Y-112328842D01*
X122300500Y-112171158D01*
X122300500Y-112171155D01*
X122300499Y-112171153D01*
X122291772Y-112127281D01*
X122269737Y-112016503D01*
X122262694Y-111999499D01*
X122209397Y-111870827D01*
X122209390Y-111870814D01*
X122121789Y-111739711D01*
X122121786Y-111739707D01*
X122009209Y-111627130D01*
X121975724Y-111565807D01*
X121980708Y-111496115D01*
X122022580Y-111440182D01*
X122057882Y-111421745D01*
X122169334Y-111384814D01*
X122318656Y-111292712D01*
X122412675Y-111198692D01*
X122473994Y-111165210D01*
X122543686Y-111170194D01*
X122588034Y-111198695D01*
X122681654Y-111292315D01*
X122830875Y-111384356D01*
X122830880Y-111384358D01*
X122997302Y-111439505D01*
X122997309Y-111439506D01*
X123100019Y-111449999D01*
X123349999Y-111449999D01*
X123350000Y-111449998D01*
X123350000Y-110474000D01*
X123369685Y-110406961D01*
X123422489Y-110361206D01*
X123474000Y-110350000D01*
X123726000Y-110350000D01*
X123793039Y-110369685D01*
G37*
%TD.AperFunction*%
%TA.AperFunction,Conductor*%
G36*
X126077374Y-111406558D02*
G01*
X126080724Y-111408400D01*
X126080729Y-111408402D01*
X126237341Y-111448613D01*
X126237347Y-111448614D01*
X126305500Y-111448614D01*
X126372539Y-111468299D01*
X126418294Y-111521103D01*
X126429500Y-111572614D01*
X126429500Y-111905005D01*
X126409815Y-111972044D01*
X126357011Y-112017799D01*
X126287853Y-112027743D01*
X126273407Y-112024780D01*
X126216270Y-112009470D01*
X126179057Y-111999499D01*
X126020943Y-111999499D01*
X126013347Y-111999499D01*
X126013331Y-111999500D01*
X125829766Y-111999500D01*
X125762727Y-111979815D01*
X125760875Y-111978602D01*
X125647881Y-111903102D01*
X125603076Y-111849490D01*
X125594369Y-111780165D01*
X125624523Y-111717138D01*
X125647881Y-111696898D01*
X125681981Y-111674112D01*
X125760289Y-111621789D01*
X125871789Y-111510289D01*
X125914528Y-111446324D01*
X125968139Y-111401521D01*
X126037464Y-111392813D01*
X126077374Y-111406558D01*
G37*
%TD.AperFunction*%
%TA.AperFunction,Conductor*%
G36*
X127995759Y-105169119D02*
G01*
X128007629Y-105169873D01*
X128026700Y-105183912D01*
X128048065Y-105194128D01*
X128054317Y-105204244D01*
X128063895Y-105211295D01*
X128072347Y-105233415D01*
X128084799Y-105253562D01*
X128087390Y-105272783D01*
X128088834Y-105276563D01*
X128088265Y-105279280D01*
X128089225Y-105286397D01*
X128089225Y-105712965D01*
X128069540Y-105780004D01*
X128052906Y-105800646D01*
X127692964Y-106160588D01*
X127692964Y-106160589D01*
X128052906Y-106520531D01*
X128086391Y-106581854D01*
X128089225Y-106608212D01*
X128089225Y-107010177D01*
X128080580Y-107039617D01*
X128074057Y-107069604D01*
X128070302Y-107074619D01*
X128069540Y-107077216D01*
X128052906Y-107097858D01*
X127954954Y-107195810D01*
X127893631Y-107229295D01*
X127823939Y-107224311D01*
X127798383Y-107211232D01*
X127759182Y-107185039D01*
X127759181Y-107185038D01*
X127759179Y-107185037D01*
X127719047Y-107168414D01*
X127692747Y-107157520D01*
X127638344Y-107113679D01*
X127616279Y-107047385D01*
X127633558Y-106979685D01*
X127680463Y-106934297D01*
X127731504Y-106906236D01*
X127515024Y-106689756D01*
X127482600Y-106632909D01*
X127480048Y-106622971D01*
X127480047Y-106622966D01*
X127402087Y-106481155D01*
X127378689Y-106453760D01*
X127378438Y-106453466D01*
X127378422Y-106453449D01*
X127300167Y-106375194D01*
X127266682Y-106313871D01*
X127271666Y-106244179D01*
X127300167Y-106199831D01*
X127339410Y-106160588D01*
X127250314Y-106071492D01*
X127216829Y-106010169D01*
X127221813Y-105940477D01*
X127250314Y-105896130D01*
X127713320Y-105433124D01*
X127712875Y-105421776D01*
X127720814Y-105390205D01*
X127727476Y-105358357D01*
X127729513Y-105355612D01*
X127729915Y-105354016D01*
X127748401Y-105329934D01*
X127753029Y-105325231D01*
X127753239Y-105325091D01*
X127864739Y-105213591D01*
X127868630Y-105207766D01*
X127876846Y-105199419D01*
X127897538Y-105187904D01*
X127915707Y-105172713D01*
X127927506Y-105171228D01*
X127937899Y-105165445D01*
X127961533Y-105166945D01*
X127985030Y-105163989D01*
X127995759Y-105169119D01*
G37*
%TD.AperFunction*%
%TA.AperFunction,Conductor*%
G36*
X124629442Y-100282685D02*
G01*
X124650084Y-100299319D01*
X124813181Y-100462416D01*
X124846666Y-100523739D01*
X124849500Y-100550097D01*
X124849500Y-102272190D01*
X124849499Y-102272208D01*
X124849499Y-102437914D01*
X124849498Y-102437914D01*
X124890423Y-102590645D01*
X124899640Y-102606610D01*
X124899643Y-102606614D01*
X124901984Y-102610669D01*
X124969480Y-102727576D01*
X125009810Y-102767906D01*
X125016340Y-102777466D01*
X125023691Y-102800131D01*
X125035112Y-102821046D01*
X125034274Y-102832758D01*
X125037897Y-102843927D01*
X125031827Y-102866967D01*
X125030128Y-102890738D01*
X125023090Y-102900138D01*
X125020100Y-102911492D01*
X125002536Y-102927595D01*
X124988256Y-102946671D01*
X124971035Y-102956477D01*
X124968600Y-102958710D01*
X124966468Y-102959077D01*
X124961398Y-102961965D01*
X124867967Y-103000664D01*
X124867954Y-103000671D01*
X124769260Y-103066617D01*
X124702582Y-103087495D01*
X124635202Y-103069010D01*
X124612688Y-103051196D01*
X124602204Y-103040712D01*
X124602200Y-103040709D01*
X124471097Y-102953108D01*
X124471084Y-102953101D01*
X124325413Y-102892763D01*
X124325401Y-102892760D01*
X124170757Y-102861999D01*
X124170754Y-102861999D01*
X124013070Y-102861999D01*
X124013067Y-102861999D01*
X123858422Y-102892760D01*
X123858419Y-102892761D01*
X123858418Y-102892761D01*
X123858415Y-102892762D01*
X123791449Y-102920500D01*
X123739359Y-102942076D01*
X123669889Y-102949544D01*
X123644455Y-102942075D01*
X123525411Y-102892766D01*
X123525399Y-102892763D01*
X123370755Y-102862002D01*
X123370752Y-102862002D01*
X123213068Y-102862002D01*
X123213065Y-102862002D01*
X123058420Y-102892763D01*
X123058408Y-102892766D01*
X122912738Y-102953104D01*
X122912724Y-102953112D01*
X122903720Y-102959128D01*
X122837042Y-102980001D01*
X122787385Y-102970583D01*
X122727154Y-102945635D01*
X122727150Y-102945634D01*
X122727145Y-102945632D01*
X122572502Y-102914872D01*
X122572499Y-102914872D01*
X122414815Y-102914872D01*
X122414812Y-102914872D01*
X122260167Y-102945633D01*
X122260155Y-102945636D01*
X122114484Y-103005974D01*
X122114471Y-103005981D01*
X121983368Y-103093582D01*
X121983364Y-103093585D01*
X121871870Y-103205079D01*
X121871867Y-103205083D01*
X121784266Y-103336186D01*
X121784259Y-103336199D01*
X121723921Y-103481870D01*
X121723918Y-103481882D01*
X121693157Y-103636525D01*
X121693157Y-103794218D01*
X121718306Y-103920653D01*
X121717075Y-103934400D01*
X121720655Y-103947731D01*
X121714023Y-103968512D01*
X121712079Y-103990245D01*
X121703610Y-104001146D01*
X121699415Y-104014294D01*
X121682599Y-104028192D01*
X121669215Y-104045422D01*
X121655078Y-104050939D01*
X121645560Y-104058807D01*
X121611473Y-104067959D01*
X121566888Y-104073313D01*
X121537321Y-104073314D01*
X121503771Y-104069285D01*
X121443102Y-104062000D01*
X121256898Y-104062000D01*
X121213440Y-104067218D01*
X121164783Y-104073061D01*
X121135217Y-104073061D01*
X121086559Y-104067218D01*
X121043102Y-104062000D01*
X120856898Y-104062000D01*
X120813440Y-104067218D01*
X120764783Y-104073061D01*
X120735217Y-104073061D01*
X120686559Y-104067218D01*
X120643102Y-104062000D01*
X120456898Y-104062000D01*
X120415660Y-104066952D01*
X120379049Y-104071348D01*
X120310141Y-104059796D01*
X120258417Y-104012823D01*
X120240300Y-103945343D01*
X120241149Y-103933467D01*
X120250500Y-103855602D01*
X120250500Y-103669398D01*
X120239877Y-103580936D01*
X120239876Y-103580934D01*
X120239438Y-103577285D01*
X120239437Y-103547719D01*
X120239875Y-103544068D01*
X120239877Y-103544064D01*
X120240142Y-103541850D01*
X120267676Y-103477640D01*
X120325558Y-103438506D01*
X120395408Y-103436877D01*
X120410707Y-103442074D01*
X120416503Y-103444475D01*
X120571153Y-103475237D01*
X120571156Y-103475238D01*
X120571158Y-103475238D01*
X120728844Y-103475238D01*
X120728845Y-103475237D01*
X120883497Y-103444475D01*
X121029179Y-103384132D01*
X121160289Y-103296527D01*
X121271789Y-103185027D01*
X121359394Y-103053917D01*
X121364865Y-103040710D01*
X121397481Y-102961965D01*
X121419737Y-102908235D01*
X121450500Y-102753580D01*
X121450500Y-102595896D01*
X121450500Y-102595893D01*
X121450499Y-102595891D01*
X121419737Y-102441241D01*
X121378079Y-102340668D01*
X121359397Y-102295565D01*
X121359392Y-102295556D01*
X121348866Y-102279803D01*
X121332643Y-102255523D01*
X121311765Y-102188848D01*
X121330248Y-102121468D01*
X121332607Y-102117796D01*
X121359395Y-102077707D01*
X121419738Y-101932025D01*
X121450501Y-101777370D01*
X121450501Y-101619686D01*
X121450501Y-101619683D01*
X121450500Y-101619681D01*
X121439576Y-101564763D01*
X121419738Y-101465031D01*
X121407014Y-101434313D01*
X121359398Y-101319355D01*
X121359391Y-101319342D01*
X121271790Y-101188239D01*
X121271787Y-101188235D01*
X121172351Y-101088799D01*
X121138866Y-101027476D01*
X121136032Y-101001118D01*
X121136032Y-100856689D01*
X121136031Y-100856687D01*
X121110668Y-100729179D01*
X121105269Y-100702037D01*
X121087693Y-100659604D01*
X121044929Y-100556361D01*
X121044927Y-100556357D01*
X121044926Y-100556355D01*
X120977797Y-100455890D01*
X120956920Y-100389214D01*
X120975404Y-100321834D01*
X121027383Y-100275143D01*
X121080900Y-100263000D01*
X123170943Y-100263000D01*
X123329057Y-100263000D01*
X124562403Y-100263000D01*
X124629442Y-100282685D01*
G37*
%TD.AperFunction*%
%TA.AperFunction,Conductor*%
G36*
X129398657Y-99291527D02*
G01*
X129435151Y-99316788D01*
X130113181Y-99994818D01*
X130146666Y-100056141D01*
X130149500Y-100082499D01*
X130149500Y-101437528D01*
X130129815Y-101504567D01*
X130077011Y-101550322D01*
X130007853Y-101560266D01*
X129944297Y-101531241D01*
X129918768Y-101500650D01*
X129879718Y-101434622D01*
X129879714Y-101434616D01*
X129765383Y-101320285D01*
X129765374Y-101320278D01*
X129626193Y-101237967D01*
X129626190Y-101237965D01*
X129480001Y-101195493D01*
X129480000Y-101195494D01*
X129480000Y-101876000D01*
X129477449Y-101884685D01*
X129478738Y-101893647D01*
X129467759Y-101917687D01*
X129460315Y-101943039D01*
X129453474Y-101948966D01*
X129449713Y-101957203D01*
X129427478Y-101971492D01*
X129407511Y-101988794D01*
X129396996Y-101991081D01*
X129390935Y-101994977D01*
X129356000Y-102000000D01*
X129174500Y-102000000D01*
X129107461Y-101980315D01*
X129061706Y-101927511D01*
X129050500Y-101876000D01*
X129050500Y-101765317D01*
X129050499Y-101765302D01*
X129047643Y-101729008D01*
X129047642Y-101729002D01*
X129002495Y-101573608D01*
X129002492Y-101573600D01*
X128997266Y-101564763D01*
X128980000Y-101501645D01*
X128980000Y-101195493D01*
X128976531Y-101192889D01*
X128934741Y-101136895D01*
X128929857Y-101067196D01*
X128963430Y-101005921D01*
X128982087Y-100990632D01*
X129010288Y-100971789D01*
X129121788Y-100860289D01*
X129209393Y-100729179D01*
X129220636Y-100702037D01*
X129269734Y-100583501D01*
X129269736Y-100583497D01*
X129300499Y-100428842D01*
X129300499Y-100271158D01*
X129300499Y-100271155D01*
X129300498Y-100271153D01*
X129269737Y-100116510D01*
X129269736Y-100116503D01*
X129269734Y-100116498D01*
X129209396Y-99970827D01*
X129209389Y-99970814D01*
X129121788Y-99839711D01*
X129121785Y-99839707D01*
X129076268Y-99794190D01*
X129042783Y-99732867D01*
X129047767Y-99663175D01*
X129076269Y-99618826D01*
X129129718Y-99565378D01*
X129129721Y-99565374D01*
X129212031Y-99426195D01*
X129212032Y-99426193D01*
X129228393Y-99369876D01*
X129265998Y-99310990D01*
X129329471Y-99281782D01*
X129398657Y-99291527D01*
G37*
%TD.AperFunction*%
%TA.AperFunction,Conductor*%
G36*
X133592539Y-72800185D02*
G01*
X133638294Y-72852989D01*
X133649500Y-72904500D01*
X133649500Y-72985500D01*
X133629815Y-73052539D01*
X133577011Y-73098294D01*
X133525500Y-73109500D01*
X126460943Y-73109500D01*
X126308213Y-73150423D01*
X126298412Y-73156083D01*
X126298406Y-73156086D01*
X126171290Y-73229475D01*
X126171282Y-73229481D01*
X123881284Y-75519480D01*
X120806894Y-78593869D01*
X120745571Y-78627354D01*
X120675879Y-78622370D01*
X120619946Y-78580498D01*
X120611826Y-78568188D01*
X120610298Y-78565541D01*
X120570515Y-78496635D01*
X120463365Y-78389485D01*
X120397750Y-78351602D01*
X120332136Y-78313719D01*
X120258950Y-78294109D01*
X120185766Y-78274500D01*
X120034234Y-78274500D01*
X119887863Y-78313719D01*
X119756635Y-78389485D01*
X119750189Y-78394432D01*
X119748099Y-78391709D01*
X119700217Y-78417466D01*
X119630558Y-78412043D01*
X119574888Y-78369821D01*
X119569299Y-78360976D01*
X119456751Y-78192537D01*
X119456748Y-78192533D01*
X119317466Y-78053251D01*
X119317462Y-78053248D01*
X119153684Y-77943814D01*
X119153671Y-77943807D01*
X118971691Y-77868429D01*
X118971683Y-77868427D01*
X118930000Y-77860135D01*
X118930000Y-78663011D01*
X118920060Y-78645795D01*
X118864205Y-78589940D01*
X118795796Y-78550444D01*
X118719496Y-78530000D01*
X118640504Y-78530000D01*
X118564204Y-78550444D01*
X118495795Y-78589940D01*
X118439940Y-78645795D01*
X118430000Y-78663011D01*
X118430000Y-77860136D01*
X118429999Y-77860135D01*
X118388316Y-77868427D01*
X118388308Y-77868429D01*
X118206328Y-77943807D01*
X118206315Y-77943814D01*
X118042537Y-78053248D01*
X118042533Y-78053251D01*
X117903251Y-78192533D01*
X117903248Y-78192537D01*
X117793814Y-78356315D01*
X117793807Y-78356328D01*
X117718430Y-78538306D01*
X117718427Y-78538318D01*
X117680000Y-78731504D01*
X117680000Y-79130000D01*
X118380000Y-79130000D01*
X118380000Y-79630000D01*
X117680000Y-79630000D01*
X117680000Y-80028495D01*
X117718427Y-80221681D01*
X117718430Y-80221693D01*
X117793807Y-80403671D01*
X117793814Y-80403684D01*
X117903248Y-80567462D01*
X117903251Y-80567466D01*
X118042533Y-80706748D01*
X118042537Y-80706751D01*
X118206315Y-80816185D01*
X118206328Y-80816192D01*
X118388308Y-80891569D01*
X118430000Y-80899862D01*
X118430000Y-80096988D01*
X118439940Y-80114205D01*
X118495795Y-80170060D01*
X118564204Y-80209556D01*
X118640504Y-80230000D01*
X118719496Y-80230000D01*
X118795796Y-80209556D01*
X118864205Y-80170060D01*
X118920060Y-80114205D01*
X118930000Y-80096988D01*
X118930000Y-80914390D01*
X118946894Y-80939193D01*
X118952511Y-80967563D01*
X118952898Y-80972482D01*
X118952900Y-80972495D01*
X118998716Y-81130193D01*
X118998717Y-81130196D01*
X119082314Y-81271552D01*
X119082321Y-81271561D01*
X119198438Y-81387678D01*
X119198447Y-81387685D01*
X119339801Y-81471281D01*
X119497514Y-81517100D01*
X119497511Y-81517100D01*
X119499998Y-81517295D01*
X119500000Y-81517295D01*
X119500000Y-80419000D01*
X119502550Y-80410314D01*
X119501262Y-80401353D01*
X119512240Y-80377312D01*
X119519685Y-80351961D01*
X119526525Y-80346033D01*
X119530287Y-80337797D01*
X119552521Y-80323507D01*
X119572489Y-80306206D01*
X119583003Y-80303918D01*
X119589065Y-80300023D01*
X119624000Y-80295000D01*
X119625499Y-80295000D01*
X119692538Y-80314685D01*
X119738293Y-80367489D01*
X119749499Y-80419000D01*
X119749499Y-80935701D01*
X119752400Y-80972567D01*
X119752401Y-80972573D01*
X119798253Y-81130393D01*
X119798254Y-81130396D01*
X119798255Y-81130398D01*
X119815948Y-81160315D01*
X119881916Y-81271862D01*
X119881922Y-81271870D01*
X119913179Y-81303126D01*
X119946665Y-81364448D01*
X119949499Y-81390808D01*
X119949499Y-81650500D01*
X119929814Y-81717539D01*
X119877010Y-81763294D01*
X119825499Y-81774500D01*
X119501663Y-81774500D01*
X119501644Y-81774501D01*
X119402292Y-81784650D01*
X119402289Y-81784651D01*
X119241305Y-81837996D01*
X119241294Y-81838001D01*
X119096959Y-81927029D01*
X119096953Y-81927033D01*
X119087324Y-81936663D01*
X119026000Y-81970146D01*
X118956308Y-81965159D01*
X118911965Y-81936660D01*
X118902732Y-81927427D01*
X118902728Y-81927424D01*
X118758492Y-81838457D01*
X118758481Y-81838452D01*
X118597606Y-81785144D01*
X118498322Y-81775000D01*
X118475000Y-81775000D01*
X118475000Y-83724999D01*
X118498308Y-83724999D01*
X118498322Y-83724998D01*
X118536971Y-83721050D01*
X118605664Y-83733820D01*
X118656548Y-83781700D01*
X118673469Y-83849490D01*
X118668650Y-83879001D01*
X118652402Y-83934928D01*
X118652401Y-83934931D01*
X118649500Y-83971797D01*
X118649500Y-85278200D01*
X118652401Y-85315066D01*
X118652402Y-85315072D01*
X118698254Y-85472892D01*
X118698255Y-85472895D01*
X118698256Y-85472897D01*
X118732732Y-85531193D01*
X118750000Y-85594313D01*
X118750000Y-86250000D01*
X119300000Y-86250000D01*
X119300000Y-85986999D01*
X119302550Y-85978313D01*
X119301262Y-85969352D01*
X119312240Y-85945311D01*
X119319685Y-85919960D01*
X119326525Y-85914032D01*
X119330287Y-85905796D01*
X119352521Y-85891506D01*
X119372489Y-85874205D01*
X119383003Y-85871917D01*
X119389065Y-85868022D01*
X119424000Y-85862999D01*
X119475500Y-85862999D01*
X119542539Y-85882684D01*
X119588294Y-85935488D01*
X119599500Y-85986999D01*
X119599500Y-87153201D01*
X119602401Y-87190067D01*
X119602402Y-87190073D01*
X119634092Y-87299147D01*
X119634053Y-87312707D01*
X119638737Y-87325433D01*
X119633955Y-87346961D01*
X119633893Y-87369016D01*
X119626202Y-87381870D01*
X119623589Y-87393641D01*
X119608506Y-87411452D01*
X119602315Y-87421803D01*
X119597179Y-87426894D01*
X119596956Y-87427032D01*
X119587328Y-87436660D01*
X119586945Y-87437040D01*
X119556434Y-87453528D01*
X119526000Y-87470146D01*
X119525722Y-87470126D01*
X119525477Y-87470259D01*
X119490849Y-87467630D01*
X119456308Y-87465159D01*
X119456043Y-87464988D01*
X119455808Y-87464971D01*
X119454624Y-87464077D01*
X119411965Y-87436660D01*
X119402732Y-87427427D01*
X119402728Y-87427424D01*
X119334955Y-87385621D01*
X119288230Y-87333673D01*
X119277009Y-87264711D01*
X119280976Y-87245486D01*
X119297100Y-87189989D01*
X119299999Y-87153149D01*
X119300000Y-87153134D01*
X119300000Y-86750000D01*
X118750000Y-86750000D01*
X118750000Y-87145000D01*
X118851000Y-87145000D01*
X118918039Y-87164685D01*
X118963794Y-87217489D01*
X118975000Y-87269000D01*
X118975000Y-89224999D01*
X118998308Y-89224999D01*
X118998322Y-89224998D01*
X119097607Y-89214855D01*
X119258481Y-89161547D01*
X119258492Y-89161542D01*
X119402731Y-89072573D01*
X119411959Y-89063345D01*
X119473279Y-89029856D01*
X119542971Y-89034835D01*
X119587327Y-89063339D01*
X119596955Y-89072967D01*
X119596959Y-89072970D01*
X119741294Y-89161998D01*
X119741297Y-89161999D01*
X119741303Y-89162003D01*
X119902292Y-89215349D01*
X120001655Y-89225500D01*
X120548344Y-89225499D01*
X120548352Y-89225498D01*
X120548355Y-89225498D01*
X120602760Y-89219940D01*
X120647708Y-89215349D01*
X120808697Y-89162003D01*
X120953044Y-89072968D01*
X121072968Y-88953044D01*
X121099887Y-88909402D01*
X121151835Y-88862678D01*
X121205425Y-88850500D01*
X122116037Y-88850500D01*
X122183076Y-88870185D01*
X122203718Y-88886819D01*
X122755999Y-89439100D01*
X122789484Y-89500423D01*
X122784500Y-89570115D01*
X122744143Y-89624024D01*
X122744413Y-89624353D01*
X122743074Y-89625450D01*
X122742628Y-89626048D01*
X122740585Y-89627493D01*
X122739704Y-89628217D01*
X122628213Y-89739707D01*
X122628210Y-89739711D01*
X122540609Y-89870814D01*
X122540602Y-89870827D01*
X122480264Y-90016498D01*
X122480261Y-90016510D01*
X122449500Y-90171153D01*
X122449500Y-90328846D01*
X122480261Y-90483489D01*
X122480264Y-90483501D01*
X122540602Y-90629172D01*
X122540609Y-90629185D01*
X122628210Y-90760288D01*
X122628213Y-90760292D01*
X122739706Y-90871785D01*
X122739709Y-90871787D01*
X122739711Y-90871789D01*
X122747244Y-90876822D01*
X122792049Y-90930433D01*
X122800758Y-90999757D01*
X122770604Y-91062786D01*
X122741476Y-91086656D01*
X122684627Y-91120276D01*
X122684616Y-91120285D01*
X122570285Y-91234616D01*
X122570278Y-91234625D01*
X122487969Y-91373803D01*
X122442854Y-91529089D01*
X122442854Y-91529091D01*
X122440794Y-91555267D01*
X122415909Y-91620555D01*
X122359677Y-91662025D01*
X122289951Y-91666510D01*
X122248286Y-91648638D01*
X122214925Y-91626347D01*
X122214907Y-91626337D01*
X122069236Y-91565999D01*
X122069224Y-91565996D01*
X121914580Y-91535235D01*
X121914577Y-91535235D01*
X121780530Y-91535235D01*
X121774990Y-91533608D01*
X121769326Y-91534728D01*
X121741839Y-91523873D01*
X121713491Y-91515550D01*
X121708311Y-91510634D01*
X121704339Y-91509066D01*
X121692602Y-91495727D01*
X121679863Y-91483638D01*
X121676625Y-91479136D01*
X121650117Y-91434313D01*
X121629707Y-91413903D01*
X121623833Y-91405736D01*
X121615450Y-91381880D01*
X121603334Y-91359691D01*
X121601429Y-91341980D01*
X121600670Y-91339818D01*
X121601032Y-91338290D01*
X121600500Y-91333333D01*
X121600500Y-91170945D01*
X121600500Y-91170943D01*
X121559577Y-91018216D01*
X121548920Y-90999757D01*
X121480524Y-90881290D01*
X121480521Y-90881286D01*
X121480520Y-90881284D01*
X121368716Y-90769480D01*
X121368715Y-90769479D01*
X121364385Y-90765149D01*
X121364374Y-90765139D01*
X121237590Y-90638355D01*
X121237588Y-90638352D01*
X121118717Y-90519481D01*
X121118716Y-90519480D01*
X121031904Y-90469360D01*
X121031904Y-90469359D01*
X121031900Y-90469358D01*
X120981785Y-90440423D01*
X120829057Y-90399499D01*
X120670943Y-90399499D01*
X120663347Y-90399499D01*
X120663331Y-90399500D01*
X119170943Y-90399500D01*
X119018216Y-90440423D01*
X119018215Y-90440423D01*
X118880752Y-90519787D01*
X118812852Y-90536259D01*
X118746825Y-90513406D01*
X118722900Y-90491064D01*
X118721787Y-90489708D01*
X118610292Y-90378213D01*
X118610288Y-90378210D01*
X118479185Y-90290609D01*
X118479172Y-90290602D01*
X118333501Y-90230264D01*
X118333489Y-90230261D01*
X118178845Y-90199500D01*
X118178842Y-90199500D01*
X118021158Y-90199500D01*
X118021155Y-90199500D01*
X117866510Y-90230261D01*
X117866498Y-90230264D01*
X117720827Y-90290602D01*
X117720814Y-90290609D01*
X117589711Y-90378210D01*
X117589707Y-90378213D01*
X117478213Y-90489707D01*
X117478210Y-90489711D01*
X117390609Y-90620814D01*
X117390602Y-90620827D01*
X117330264Y-90766498D01*
X117330261Y-90766510D01*
X117299500Y-90921153D01*
X117299500Y-91078846D01*
X117330261Y-91233489D01*
X117330264Y-91233501D01*
X117360231Y-91305848D01*
X117367700Y-91375317D01*
X117352403Y-91416420D01*
X117267131Y-91560608D01*
X117267130Y-91560611D01*
X117222336Y-91714791D01*
X117222335Y-91714797D01*
X117219501Y-91750811D01*
X117219501Y-92249169D01*
X117219502Y-92249191D01*
X117222336Y-92285203D01*
X117222336Y-92285204D01*
X117230983Y-92314969D01*
X117230899Y-92344059D01*
X117233666Y-92373023D01*
X117230799Y-92378582D01*
X117230782Y-92384838D01*
X117214983Y-92409266D01*
X117201653Y-92435127D01*
X117194744Y-92440559D01*
X117192839Y-92443507D01*
X117173911Y-92456945D01*
X117152415Y-92469357D01*
X117152410Y-92469360D01*
X117125000Y-92485185D01*
X117065600Y-92519479D01*
X117065597Y-92519481D01*
X116444481Y-93140597D01*
X116444479Y-93140600D01*
X116421409Y-93180559D01*
X116398338Y-93220520D01*
X116365423Y-93277530D01*
X116324499Y-93430258D01*
X116324499Y-93430260D01*
X116324499Y-93598361D01*
X116324500Y-93598374D01*
X116324500Y-94813330D01*
X116324499Y-94813348D01*
X116324499Y-94979054D01*
X116324498Y-94979054D01*
X116365423Y-95131786D01*
X116365424Y-95131787D01*
X116379370Y-95155942D01*
X116441096Y-95262855D01*
X116444481Y-95268717D01*
X116563349Y-95387585D01*
X116563355Y-95387590D01*
X118863582Y-97687818D01*
X118874192Y-97707248D01*
X118888691Y-97723979D01*
X118890609Y-97737315D01*
X118897067Y-97749141D01*
X118895487Y-97771224D01*
X118898640Y-97793136D01*
X118893044Y-97805391D01*
X118892083Y-97818833D01*
X118878813Y-97836557D01*
X118869620Y-97856694D01*
X118858286Y-97863979D01*
X118850211Y-97874766D01*
X118829467Y-97882503D01*
X118810845Y-97894473D01*
X118788920Y-97897626D01*
X118784747Y-97899183D01*
X118775911Y-97899499D01*
X118770943Y-97899499D01*
X118770941Y-97899499D01*
X118763341Y-97899500D01*
X118763339Y-97899499D01*
X118763331Y-97899500D01*
X118646666Y-97899500D01*
X118579627Y-97879815D01*
X118558984Y-97863180D01*
X118515692Y-97819887D01*
X118515684Y-97819881D01*
X118383245Y-97741557D01*
X118376395Y-97737506D01*
X118376394Y-97737505D01*
X118376393Y-97737505D01*
X118376390Y-97737504D01*
X118220997Y-97692357D01*
X118220991Y-97692356D01*
X118184697Y-97689500D01*
X118184690Y-97689500D01*
X117775310Y-97689500D01*
X117775302Y-97689500D01*
X117739008Y-97692356D01*
X117739002Y-97692357D01*
X117583609Y-97737504D01*
X117583604Y-97737506D01*
X117562628Y-97749911D01*
X117494903Y-97767092D01*
X117436389Y-97749911D01*
X117416191Y-97737966D01*
X117416190Y-97737965D01*
X117270001Y-97695493D01*
X117270000Y-97695494D01*
X117270000Y-98001645D01*
X117252734Y-98064763D01*
X117247507Y-98073600D01*
X117247504Y-98073608D01*
X117202357Y-98229002D01*
X117202356Y-98229008D01*
X117199500Y-98265302D01*
X117199500Y-98376000D01*
X117179815Y-98443039D01*
X117127011Y-98488794D01*
X117075500Y-98500000D01*
X117020000Y-98500000D01*
X117020000Y-98626000D01*
X117000315Y-98693039D01*
X116947511Y-98738794D01*
X116896000Y-98750000D01*
X116241210Y-98750000D01*
X116242854Y-98770910D01*
X116287968Y-98926195D01*
X116370278Y-99065374D01*
X116370285Y-99065383D01*
X116465476Y-99160574D01*
X116498961Y-99221897D01*
X116493977Y-99291589D01*
X116465477Y-99335936D01*
X116387728Y-99413686D01*
X116280002Y-99521412D01*
X116168197Y-99633216D01*
X116168191Y-99633224D01*
X116122134Y-99712999D01*
X116122134Y-99713000D01*
X116089139Y-99770149D01*
X116048215Y-99922877D01*
X116048215Y-99922879D01*
X116048215Y-100090980D01*
X116048216Y-100090993D01*
X116048216Y-100832046D01*
X116048215Y-100832064D01*
X116048215Y-100839659D01*
X116048215Y-100997773D01*
X116052664Y-101014376D01*
X116062897Y-101052566D01*
X116061234Y-101122416D01*
X116022071Y-101180278D01*
X115957843Y-101207782D01*
X115888941Y-101196195D01*
X115855441Y-101172340D01*
X114826707Y-100143606D01*
X114793222Y-100082283D01*
X114798206Y-100012591D01*
X114814064Y-99983048D01*
X114905051Y-99857816D01*
X115001557Y-99668412D01*
X115067246Y-99466243D01*
X115100500Y-99256287D01*
X115100500Y-99043713D01*
X115067246Y-98833757D01*
X115001557Y-98631588D01*
X114905051Y-98442184D01*
X114850592Y-98367227D01*
X114850591Y-98367224D01*
X114780109Y-98270214D01*
X114780105Y-98270209D01*
X114759895Y-98249999D01*
X116241209Y-98249999D01*
X116241210Y-98250000D01*
X116770000Y-98250000D01*
X116770000Y-97695494D01*
X116769998Y-97695493D01*
X116623809Y-97737965D01*
X116623806Y-97737967D01*
X116484625Y-97820278D01*
X116484616Y-97820285D01*
X116370285Y-97934616D01*
X116370278Y-97934625D01*
X116287968Y-98073804D01*
X116287966Y-98073809D01*
X116242855Y-98229081D01*
X116242854Y-98229087D01*
X116241209Y-98249999D01*
X114759895Y-98249999D01*
X114629786Y-98119890D01*
X114457820Y-97994951D01*
X114457115Y-97994591D01*
X114449054Y-97990485D01*
X114398259Y-97942512D01*
X114381463Y-97874692D01*
X114403999Y-97808556D01*
X114449054Y-97769515D01*
X114457816Y-97765051D01*
X114495730Y-97737505D01*
X114629786Y-97640109D01*
X114629788Y-97640106D01*
X114629792Y-97640104D01*
X114780104Y-97489792D01*
X114780106Y-97489788D01*
X114780109Y-97489786D01*
X114905048Y-97317820D01*
X114905047Y-97317820D01*
X114905051Y-97317816D01*
X115001557Y-97128412D01*
X115067246Y-96926243D01*
X115100500Y-96716287D01*
X115100500Y-96503713D01*
X115067246Y-96293757D01*
X115001557Y-96091588D01*
X114905051Y-95902184D01*
X114905049Y-95902181D01*
X114905048Y-95902179D01*
X114780109Y-95730213D01*
X114629786Y-95579890D01*
X114457820Y-95454951D01*
X114457115Y-95454591D01*
X114449054Y-95450485D01*
X114398259Y-95402512D01*
X114381463Y-95334692D01*
X114403999Y-95268556D01*
X114449054Y-95229515D01*
X114457816Y-95225051D01*
X114552937Y-95155942D01*
X114629786Y-95100109D01*
X114629788Y-95100106D01*
X114629792Y-95100104D01*
X114780104Y-94949792D01*
X114780106Y-94949788D01*
X114780109Y-94949786D01*
X114905048Y-94777820D01*
X114905047Y-94777820D01*
X114905051Y-94777816D01*
X115001557Y-94588412D01*
X115067246Y-94386243D01*
X115100500Y-94176287D01*
X115100500Y-93963713D01*
X115067246Y-93753757D01*
X115001557Y-93551588D01*
X114905051Y-93362184D01*
X114905049Y-93362181D01*
X114905048Y-93362179D01*
X114780109Y-93190213D01*
X114629786Y-93039890D01*
X114457817Y-92914949D01*
X114448504Y-92910204D01*
X114397707Y-92862230D01*
X114380912Y-92794409D01*
X114403449Y-92728274D01*
X114448507Y-92689232D01*
X114457555Y-92684622D01*
X114511716Y-92645270D01*
X114511717Y-92645270D01*
X113879409Y-92012962D01*
X113942993Y-91995925D01*
X114057007Y-91930099D01*
X114150099Y-91837007D01*
X114215925Y-91722993D01*
X114232962Y-91659409D01*
X114865270Y-92291717D01*
X114865270Y-92291716D01*
X114904622Y-92237554D01*
X115001095Y-92048217D01*
X115066757Y-91846130D01*
X115066757Y-91846127D01*
X115100000Y-91636246D01*
X115100000Y-91423753D01*
X115066757Y-91213872D01*
X115066757Y-91213869D01*
X115001095Y-91011782D01*
X114904624Y-90822449D01*
X114865270Y-90768282D01*
X114865269Y-90768282D01*
X114232962Y-91400590D01*
X114215925Y-91337007D01*
X114150099Y-91222993D01*
X114057007Y-91129901D01*
X113942993Y-91064075D01*
X113879407Y-91047036D01*
X114511716Y-90414728D01*
X114457547Y-90375373D01*
X114457547Y-90375372D01*
X114448500Y-90370763D01*
X114397706Y-90322788D01*
X114380912Y-90254966D01*
X114403451Y-90188832D01*
X114448508Y-90149793D01*
X114457816Y-90145051D01*
X114550427Y-90077766D01*
X114629786Y-90020109D01*
X114629788Y-90020106D01*
X114629792Y-90020104D01*
X114780104Y-89869792D01*
X114780106Y-89869788D01*
X114780109Y-89869786D01*
X114905048Y-89697820D01*
X114905047Y-89697820D01*
X114905051Y-89697816D01*
X115001557Y-89508412D01*
X115067246Y-89306243D01*
X115100500Y-89096287D01*
X115100500Y-88883713D01*
X115067246Y-88673757D01*
X115026490Y-88548322D01*
X117775001Y-88548322D01*
X117785144Y-88647607D01*
X117838452Y-88808481D01*
X117838457Y-88808492D01*
X117927424Y-88952728D01*
X117927427Y-88952732D01*
X118047267Y-89072572D01*
X118047271Y-89072575D01*
X118191507Y-89161542D01*
X118191518Y-89161547D01*
X118352393Y-89214855D01*
X118451683Y-89224999D01*
X118475000Y-89224998D01*
X118475000Y-88500000D01*
X117775001Y-88500000D01*
X117775001Y-88548322D01*
X115026490Y-88548322D01*
X115001557Y-88471588D01*
X114905051Y-88282184D01*
X114905049Y-88282181D01*
X114905048Y-88282179D01*
X114780109Y-88110213D01*
X114629786Y-87959890D01*
X114457820Y-87834951D01*
X114457115Y-87834591D01*
X114449054Y-87830485D01*
X114398259Y-87782512D01*
X114381463Y-87714692D01*
X114403999Y-87648556D01*
X114449054Y-87609515D01*
X114457816Y-87605051D01*
X114490153Y-87581557D01*
X114629786Y-87480109D01*
X114629788Y-87480106D01*
X114629792Y-87480104D01*
X114780104Y-87329792D01*
X114780106Y-87329788D01*
X114780109Y-87329786D01*
X114905048Y-87157820D01*
X114905047Y-87157820D01*
X114905051Y-87157816D01*
X114907429Y-87153149D01*
X117700000Y-87153149D01*
X117702899Y-87189989D01*
X117702900Y-87189995D01*
X117748716Y-87347693D01*
X117748717Y-87347696D01*
X117832314Y-87489052D01*
X117832321Y-87489061D01*
X117844020Y-87500760D01*
X117877505Y-87562083D01*
X117872521Y-87631775D01*
X117861878Y-87653537D01*
X117838457Y-87691509D01*
X117838452Y-87691518D01*
X117785144Y-87852393D01*
X117775000Y-87951677D01*
X117775000Y-88000000D01*
X118475000Y-88000000D01*
X118475000Y-87867500D01*
X118374000Y-87867500D01*
X118306961Y-87847815D01*
X118261206Y-87795011D01*
X118250000Y-87743500D01*
X118250000Y-86750000D01*
X117700000Y-86750000D01*
X117700000Y-87153149D01*
X114907429Y-87153149D01*
X115001557Y-86968412D01*
X115067246Y-86766243D01*
X115100500Y-86556287D01*
X115100500Y-86343713D01*
X115067246Y-86133757D01*
X115001557Y-85931588D01*
X114958381Y-85846850D01*
X117700000Y-85846850D01*
X117700000Y-86250000D01*
X118250000Y-86250000D01*
X118250000Y-85265203D01*
X118247503Y-85265400D01*
X118089806Y-85311216D01*
X118089803Y-85311217D01*
X117948447Y-85394814D01*
X117948438Y-85394821D01*
X117832321Y-85510938D01*
X117832314Y-85510947D01*
X117748717Y-85652303D01*
X117748716Y-85652306D01*
X117702900Y-85810004D01*
X117702899Y-85810010D01*
X117700000Y-85846850D01*
X114958381Y-85846850D01*
X114905051Y-85742184D01*
X114905049Y-85742181D01*
X114905048Y-85742179D01*
X114780109Y-85570213D01*
X114629786Y-85419890D01*
X114457820Y-85294951D01*
X114457115Y-85294591D01*
X114449054Y-85290485D01*
X114398259Y-85242512D01*
X114381463Y-85174692D01*
X114403999Y-85108556D01*
X114449054Y-85069515D01*
X114457816Y-85065051D01*
X114550805Y-84997491D01*
X114629786Y-84940109D01*
X114629788Y-84940106D01*
X114629792Y-84940104D01*
X114780104Y-84789792D01*
X114780106Y-84789788D01*
X114780109Y-84789786D01*
X114905048Y-84617820D01*
X114905047Y-84617820D01*
X114905051Y-84617816D01*
X115001557Y-84428412D01*
X115067246Y-84226243D01*
X115100500Y-84016287D01*
X115100500Y-83803713D01*
X115067246Y-83593757D01*
X115001557Y-83391588D01*
X114905051Y-83202184D01*
X114905049Y-83202181D01*
X114905048Y-83202179D01*
X114793265Y-83048322D01*
X117275001Y-83048322D01*
X117285144Y-83147607D01*
X117338452Y-83308481D01*
X117338457Y-83308492D01*
X117427424Y-83452728D01*
X117427427Y-83452732D01*
X117547267Y-83572572D01*
X117547271Y-83572575D01*
X117691507Y-83661542D01*
X117691518Y-83661547D01*
X117852393Y-83714855D01*
X117951683Y-83724999D01*
X117975000Y-83724998D01*
X117975000Y-83000000D01*
X117275001Y-83000000D01*
X117275001Y-83048322D01*
X114793265Y-83048322D01*
X114780113Y-83030219D01*
X114780106Y-83030211D01*
X114780104Y-83030208D01*
X114629792Y-82879896D01*
X114629786Y-82879890D01*
X114457820Y-82754951D01*
X114457115Y-82754591D01*
X114449054Y-82750485D01*
X114398259Y-82702512D01*
X114381463Y-82634692D01*
X114403999Y-82568556D01*
X114449054Y-82529515D01*
X114457816Y-82525051D01*
X114550805Y-82457491D01*
X114558807Y-82451677D01*
X117275000Y-82451677D01*
X117275000Y-82500000D01*
X117975000Y-82500000D01*
X117975000Y-81774999D01*
X117951693Y-81775000D01*
X117951674Y-81775001D01*
X117852392Y-81785144D01*
X117691518Y-81838452D01*
X117691507Y-81838457D01*
X117547271Y-81927424D01*
X117547267Y-81927427D01*
X117427427Y-82047267D01*
X117427424Y-82047271D01*
X117338457Y-82191507D01*
X117338452Y-82191518D01*
X117285144Y-82352393D01*
X117275000Y-82451677D01*
X114558807Y-82451677D01*
X114629786Y-82400109D01*
X114629788Y-82400106D01*
X114629792Y-82400104D01*
X114780104Y-82249792D01*
X114780106Y-82249788D01*
X114780109Y-82249786D01*
X114905048Y-82077820D01*
X114905047Y-82077820D01*
X114905051Y-82077816D01*
X115001557Y-81888412D01*
X115067246Y-81686243D01*
X115100500Y-81476287D01*
X115100500Y-81263713D01*
X115067246Y-81053757D01*
X115001557Y-80851588D01*
X114905051Y-80662184D01*
X114905049Y-80662181D01*
X114905048Y-80662179D01*
X114780109Y-80490213D01*
X114629786Y-80339890D01*
X114457817Y-80214949D01*
X114448504Y-80210204D01*
X114397707Y-80162230D01*
X114380912Y-80094409D01*
X114403449Y-80028274D01*
X114448507Y-79989232D01*
X114457555Y-79984622D01*
X114511716Y-79945270D01*
X114511717Y-79945270D01*
X113879409Y-79312962D01*
X113942993Y-79295925D01*
X114057007Y-79230099D01*
X114150099Y-79137007D01*
X114215925Y-79022993D01*
X114232962Y-78959409D01*
X114865270Y-79591717D01*
X114865270Y-79591716D01*
X114904624Y-79537552D01*
X114912373Y-79522344D01*
X114912373Y-79522343D01*
X115001095Y-79348217D01*
X115066757Y-79146130D01*
X115066757Y-79146127D01*
X115100000Y-78936246D01*
X115100000Y-78723753D01*
X115066757Y-78513872D01*
X115066757Y-78513869D01*
X115001095Y-78311782D01*
X114904624Y-78122449D01*
X114865270Y-78068282D01*
X114865269Y-78068282D01*
X114232962Y-78700590D01*
X114215925Y-78637007D01*
X114150099Y-78522993D01*
X114057007Y-78429901D01*
X113942993Y-78364075D01*
X113879407Y-78347036D01*
X114511716Y-77714728D01*
X114457547Y-77675373D01*
X114457547Y-77675372D01*
X114448500Y-77670763D01*
X114397706Y-77622788D01*
X114380912Y-77554966D01*
X114403451Y-77488832D01*
X114448508Y-77449793D01*
X114457816Y-77445051D01*
X114550427Y-77377766D01*
X114629786Y-77320109D01*
X114629788Y-77320106D01*
X114629792Y-77320104D01*
X114780104Y-77169792D01*
X114780106Y-77169788D01*
X114780109Y-77169786D01*
X114905048Y-76997820D01*
X114905047Y-76997820D01*
X114905051Y-76997816D01*
X115001557Y-76808412D01*
X115067246Y-76606243D01*
X115100500Y-76396287D01*
X115100500Y-76183713D01*
X115067246Y-75973757D01*
X115001557Y-75771588D01*
X114905051Y-75582184D01*
X114824652Y-75471523D01*
X114824651Y-75471520D01*
X114780109Y-75410214D01*
X114780105Y-75410209D01*
X114666569Y-75296673D01*
X114633084Y-75235350D01*
X114638068Y-75165658D01*
X114679940Y-75109725D01*
X114710915Y-75092810D01*
X114842331Y-75043796D01*
X114957546Y-74957546D01*
X115043796Y-74842331D01*
X115059023Y-74801504D01*
X117680000Y-74801504D01*
X117680000Y-74950000D01*
X118380000Y-74950000D01*
X118380000Y-75450000D01*
X117680000Y-75450000D01*
X117680000Y-75598495D01*
X117718427Y-75791681D01*
X117718430Y-75791693D01*
X117793807Y-75973671D01*
X117793814Y-75973684D01*
X117903248Y-76137462D01*
X117903251Y-76137466D01*
X118042533Y-76276748D01*
X118042537Y-76276751D01*
X118206315Y-76386185D01*
X118206328Y-76386192D01*
X118388308Y-76461569D01*
X118430000Y-76469862D01*
X118430000Y-75666988D01*
X118439940Y-75684205D01*
X118495795Y-75740060D01*
X118564204Y-75779556D01*
X118640504Y-75800000D01*
X118719496Y-75800000D01*
X118795796Y-75779556D01*
X118864205Y-75740060D01*
X118920060Y-75684205D01*
X118930000Y-75666988D01*
X118930000Y-76469862D01*
X118971690Y-76461569D01*
X118971692Y-76461569D01*
X119153671Y-76386192D01*
X119153684Y-76386185D01*
X119317462Y-76276751D01*
X119317466Y-76276748D01*
X119456748Y-76137466D01*
X119456751Y-76137462D01*
X119566185Y-75973684D01*
X119566192Y-75973671D01*
X119641569Y-75791693D01*
X119641572Y-75791681D01*
X119679999Y-75598495D01*
X119680000Y-75598492D01*
X119680000Y-75450000D01*
X118980000Y-75450000D01*
X118980000Y-74950000D01*
X119680000Y-74950000D01*
X119680000Y-74801508D01*
X119679999Y-74801504D01*
X119641572Y-74608318D01*
X119641569Y-74608306D01*
X119566192Y-74426328D01*
X119566185Y-74426315D01*
X119456751Y-74262537D01*
X119456748Y-74262533D01*
X119317466Y-74123251D01*
X119317462Y-74123248D01*
X119153684Y-74013814D01*
X119153671Y-74013807D01*
X118971691Y-73938429D01*
X118971683Y-73938427D01*
X118930000Y-73930135D01*
X118930000Y-74733011D01*
X118920060Y-74715795D01*
X118864205Y-74659940D01*
X118795796Y-74620444D01*
X118719496Y-74600000D01*
X118640504Y-74600000D01*
X118564204Y-74620444D01*
X118495795Y-74659940D01*
X118439940Y-74715795D01*
X118430000Y-74733011D01*
X118430000Y-73930136D01*
X118429999Y-73930135D01*
X118388316Y-73938427D01*
X118388308Y-73938429D01*
X118206328Y-74013807D01*
X118206315Y-74013814D01*
X118042537Y-74123248D01*
X118042533Y-74123251D01*
X117903251Y-74262533D01*
X117903248Y-74262537D01*
X117793814Y-74426315D01*
X117793807Y-74426328D01*
X117718430Y-74608306D01*
X117718427Y-74608318D01*
X117680000Y-74801504D01*
X115059023Y-74801504D01*
X115094091Y-74707483D01*
X115100500Y-74647873D01*
X115100499Y-72904499D01*
X115120184Y-72837461D01*
X115172987Y-72791706D01*
X115224499Y-72780500D01*
X133525500Y-72780500D01*
X133592539Y-72800185D01*
G37*
%TD.AperFunction*%
%TA.AperFunction,Conductor*%
G36*
X119593882Y-92732507D02*
G01*
X119643805Y-92762032D01*
X119799086Y-92807144D01*
X119799092Y-92807145D01*
X119835361Y-92809999D01*
X119850493Y-92809999D01*
X119917534Y-92829680D01*
X119963291Y-92882481D01*
X119974500Y-92933998D01*
X119974500Y-93099403D01*
X119988989Y-93209468D01*
X119991094Y-93217322D01*
X119987814Y-93218200D01*
X119993581Y-93272073D01*
X119990517Y-93282522D01*
X119991095Y-93282677D01*
X119988990Y-93290529D01*
X119974500Y-93400598D01*
X119974500Y-93599403D01*
X119988989Y-93709468D01*
X119991094Y-93717322D01*
X119987814Y-93718200D01*
X119993581Y-93772073D01*
X119990517Y-93782522D01*
X119991095Y-93782677D01*
X119988990Y-93790529D01*
X119974500Y-93900598D01*
X119974500Y-94099403D01*
X119988989Y-94209468D01*
X119991094Y-94217322D01*
X119987814Y-94218200D01*
X119988021Y-94220137D01*
X119994815Y-94236415D01*
X119991937Y-94256716D01*
X119993581Y-94272073D01*
X119988601Y-94282008D01*
X119991095Y-94282677D01*
X119988990Y-94290529D01*
X119974500Y-94400598D01*
X119974500Y-94599403D01*
X119988988Y-94709463D01*
X119988991Y-94709472D01*
X120038829Y-94829792D01*
X120045721Y-94846429D01*
X120135964Y-94964036D01*
X120253571Y-95054279D01*
X120390528Y-95111009D01*
X120500599Y-95125500D01*
X120525498Y-95125499D01*
X120592536Y-95145181D01*
X120638293Y-95197984D01*
X120649500Y-95249499D01*
X120649500Y-95976358D01*
X120629815Y-96043397D01*
X120577011Y-96089152D01*
X120507853Y-96099096D01*
X120444297Y-96070071D01*
X120437819Y-96064039D01*
X119736819Y-95363039D01*
X119703334Y-95301716D01*
X119700500Y-95275358D01*
X119700500Y-94649673D01*
X119700501Y-94649660D01*
X119700501Y-94481559D01*
X119700501Y-94481557D01*
X119659577Y-94328829D01*
X119622969Y-94265423D01*
X119622969Y-94265422D01*
X119580522Y-94191901D01*
X119580521Y-94191900D01*
X119580520Y-94191898D01*
X119468716Y-94080094D01*
X119468715Y-94080093D01*
X119464385Y-94075763D01*
X119464374Y-94075753D01*
X119061818Y-93673197D01*
X119028333Y-93611874D01*
X119025499Y-93585524D01*
X119025499Y-93400600D01*
X119011009Y-93290528D01*
X119011008Y-93290525D01*
X119008905Y-93282674D01*
X119012207Y-93281789D01*
X119006392Y-93228075D01*
X119009501Y-93217485D01*
X119008905Y-93217326D01*
X119011008Y-93209475D01*
X119011008Y-93209474D01*
X119011009Y-93209472D01*
X119025500Y-93099401D01*
X119025499Y-92944499D01*
X119045183Y-92877460D01*
X119097987Y-92831705D01*
X119149499Y-92820499D01*
X119209167Y-92820499D01*
X119209179Y-92820499D01*
X119245203Y-92817665D01*
X119399392Y-92772869D01*
X119467642Y-92732505D01*
X119535362Y-92715324D01*
X119593882Y-92732507D01*
G37*
%TD.AperFunction*%
%TA.AperFunction,Conductor*%
G36*
X123544437Y-82377208D02*
G01*
X123572532Y-82379218D01*
X123579670Y-82383805D01*
X123585434Y-82384885D01*
X123594161Y-82393118D01*
X123616879Y-82407719D01*
X124888181Y-83679021D01*
X124921666Y-83740344D01*
X124924500Y-83766702D01*
X124924500Y-89525499D01*
X124921949Y-89534184D01*
X124923238Y-89543146D01*
X124912259Y-89567186D01*
X124904815Y-89592538D01*
X124897974Y-89598465D01*
X124894213Y-89606702D01*
X124871978Y-89620991D01*
X124852011Y-89638293D01*
X124841496Y-89640580D01*
X124835435Y-89644476D01*
X124800500Y-89649499D01*
X124716230Y-89649499D01*
X124649191Y-89629814D01*
X124628549Y-89613180D01*
X122903724Y-87888355D01*
X122903722Y-87888352D01*
X122784851Y-87769481D01*
X122784843Y-87769475D01*
X122667204Y-87701557D01*
X122667201Y-87701556D01*
X122647919Y-87690423D01*
X122495191Y-87649499D01*
X122337077Y-87649499D01*
X122329481Y-87649499D01*
X122329465Y-87649500D01*
X121205425Y-87649500D01*
X121195636Y-87646625D01*
X121185512Y-87647891D01*
X121162674Y-87636947D01*
X121138386Y-87629815D01*
X121130029Y-87621302D01*
X121122503Y-87617696D01*
X121099888Y-87590599D01*
X121092407Y-87578471D01*
X121073965Y-87511079D01*
X121091211Y-87450253D01*
X121151744Y-87347898D01*
X121197598Y-87190069D01*
X121197646Y-87189905D01*
X121235252Y-87131019D01*
X121298725Y-87101813D01*
X121316722Y-87100500D01*
X122920234Y-87100500D01*
X122987273Y-87120185D01*
X122989125Y-87121398D01*
X123120814Y-87209390D01*
X123120827Y-87209397D01*
X123207955Y-87245486D01*
X123266503Y-87269737D01*
X123414356Y-87299147D01*
X123421153Y-87300499D01*
X123421156Y-87300500D01*
X123421158Y-87300500D01*
X123578844Y-87300500D01*
X123578845Y-87300499D01*
X123733497Y-87269737D01*
X123879179Y-87209394D01*
X124010289Y-87121789D01*
X124121789Y-87010289D01*
X124209394Y-86879179D01*
X124269737Y-86733497D01*
X124300500Y-86578842D01*
X124300500Y-86421158D01*
X124300500Y-86421155D01*
X124300499Y-86421153D01*
X124269738Y-86266510D01*
X124269737Y-86266503D01*
X124252013Y-86223713D01*
X124209397Y-86120827D01*
X124209390Y-86120814D01*
X124121789Y-85989711D01*
X124121786Y-85989707D01*
X124010292Y-85878213D01*
X124010288Y-85878210D01*
X123879185Y-85790609D01*
X123879172Y-85790602D01*
X123733501Y-85730264D01*
X123733489Y-85730261D01*
X123578845Y-85699500D01*
X123578842Y-85699500D01*
X123421158Y-85699500D01*
X123421155Y-85699500D01*
X123266510Y-85730261D01*
X123266498Y-85730264D01*
X123120827Y-85790602D01*
X123120814Y-85790609D01*
X122989125Y-85878602D01*
X122922447Y-85899480D01*
X122920234Y-85899500D01*
X121316722Y-85899500D01*
X121249683Y-85879815D01*
X121203928Y-85827011D01*
X121197646Y-85810095D01*
X121151745Y-85652106D01*
X121151744Y-85652103D01*
X121151744Y-85652102D01*
X121068081Y-85510635D01*
X121068079Y-85510633D01*
X121068076Y-85510629D01*
X120951870Y-85394423D01*
X120951862Y-85394417D01*
X120817686Y-85315066D01*
X120810398Y-85310756D01*
X120810397Y-85310755D01*
X120810396Y-85310755D01*
X120810393Y-85310754D01*
X120652573Y-85264902D01*
X120652567Y-85264901D01*
X120615701Y-85262000D01*
X120615694Y-85262000D01*
X120374500Y-85262000D01*
X120307461Y-85242315D01*
X120261706Y-85189511D01*
X120250500Y-85138000D01*
X120250500Y-83971812D01*
X120250499Y-83971797D01*
X120247598Y-83934931D01*
X120247597Y-83934928D01*
X120236370Y-83896286D01*
X120213964Y-83819162D01*
X120214163Y-83749293D01*
X120252105Y-83690623D01*
X120294040Y-83666860D01*
X120308695Y-83662004D01*
X120308697Y-83662003D01*
X120453039Y-83572971D01*
X120453038Y-83572971D01*
X120453044Y-83572968D01*
X120572968Y-83453044D01*
X120572971Y-83453038D01*
X120577105Y-83448905D01*
X120638428Y-83415420D01*
X120708120Y-83420404D01*
X120764054Y-83462275D01*
X120771519Y-83473465D01*
X120809261Y-83537284D01*
X120809268Y-83537293D01*
X120922705Y-83650730D01*
X120922714Y-83650737D01*
X121060808Y-83732405D01*
X121060811Y-83732406D01*
X121214871Y-83777165D01*
X121214877Y-83777166D01*
X121250000Y-83779930D01*
X121250000Y-83779929D01*
X121750000Y-83779929D01*
X121785122Y-83777166D01*
X121785128Y-83777165D01*
X121939188Y-83732406D01*
X121939191Y-83732405D01*
X122077285Y-83650737D01*
X122077294Y-83650730D01*
X122190731Y-83537293D01*
X122190738Y-83537284D01*
X122272404Y-83399193D01*
X122312844Y-83259999D01*
X121750000Y-83259999D01*
X121750000Y-83779929D01*
X121250000Y-83779929D01*
X121250000Y-83133999D01*
X121269685Y-83066960D01*
X121322489Y-83021205D01*
X121374000Y-83009999D01*
X121500000Y-83009999D01*
X121500000Y-82884500D01*
X121502485Y-82876033D01*
X121501198Y-82867304D01*
X121512179Y-82843022D01*
X121519685Y-82817461D01*
X121526352Y-82811683D01*
X121529989Y-82803642D01*
X121552356Y-82789150D01*
X121572489Y-82771706D01*
X121582764Y-82769450D01*
X121588628Y-82765652D01*
X121622660Y-82760695D01*
X121623545Y-82760501D01*
X121623748Y-82760500D01*
X121749180Y-82760500D01*
X121755318Y-82760017D01*
X121759964Y-82760000D01*
X121760015Y-82760014D01*
X121760419Y-82759999D01*
X122312845Y-82759999D01*
X122312844Y-82759998D01*
X122312582Y-82759094D01*
X122312783Y-82689224D01*
X122350725Y-82630555D01*
X122414364Y-82601712D01*
X122431659Y-82600500D01*
X122913331Y-82600500D01*
X122913347Y-82600501D01*
X122920943Y-82600501D01*
X123079054Y-82600501D01*
X123079057Y-82600501D01*
X123231785Y-82559577D01*
X123303424Y-82518216D01*
X123368716Y-82480520D01*
X123446508Y-82402727D01*
X123452031Y-82398337D01*
X123478122Y-82387730D01*
X123502840Y-82374234D01*
X123510055Y-82374750D01*
X123516757Y-82372026D01*
X123544437Y-82377208D01*
G37*
%TD.AperFunction*%
%TD*%
M02*
